<svg width="3910" height="363" viewBox="300 300 3910 363" fill="none" xmlns="http://www.w3.org/2000/svg">
<path d="M490.821 300.001C494.701 300.001 496.642 300.001 498.172 300.813C499.47 301.502 500.612 302.708 501.229 304.042C501.955 305.615 501.853 307.454 501.65 311.132C498.919 360.637 478.047 407.563 442.805 442.804C407.563 478.046 360.636 498.918 311.131 501.649C307.453 501.852 305.613 501.953 304.041 501.227C302.707 500.611 301.5 499.469 300.812 498.17C300 496.641 300 494.7 300 490.82V446.55C300 442.652 300 440.703 300.683 439.278C301.317 437.952 302.179 437.015 303.448 436.274C304.813 435.477 306.917 435.304 311.124 434.958C342.965 432.334 372.993 418.512 395.753 395.752C418.513 372.993 432.334 342.965 434.958 311.125C435.305 306.919 435.478 304.815 436.275 303.451C437.017 302.182 437.953 301.319 439.278 300.684C440.704 300.002 442.653 300.001 446.551 300.001H490.821ZM347.115 300C373.134 300 394.226 321.093 394.227 347.111C394.227 373.129 373.134 394.222 347.115 394.222C321.096 394.222 300.004 373.129 300.004 347.111C300.004 321.093 321.097 300.001 347.115 300Z" fill="white"/>
<path d="M300.002 472.183C300.002 468.302 300.002 466.362 300.813 464.832C301.502 463.534 302.71 462.392 304.044 461.775C305.616 461.049 307.456 461.151 311.134 461.354C360.639 464.085 407.565 484.957 442.807 520.198C478.049 555.44 498.921 602.365 501.652 651.869C501.855 655.547 501.957 657.387 501.23 658.959C500.614 660.293 499.472 661.5 498.174 662.188C496.644 663 494.704 663 490.823 663H446.554C442.656 663 440.706 663 439.28 662.317C437.955 661.683 437.019 660.82 436.277 659.552C435.48 658.187 435.307 656.083 434.96 651.876C432.336 620.036 418.515 590.009 395.755 567.249C372.995 544.49 342.967 530.669 311.127 528.045C306.92 527.698 304.816 527.525 303.451 526.728C302.182 525.986 301.319 525.049 300.685 523.724C300.002 522.298 300.002 520.349 300.002 516.451V472.183ZM300.002 615.883C300.002 589.864 321.094 568.772 347.113 568.772C373.132 568.773 394.225 589.864 394.225 615.883C394.225 641.901 373.132 662.993 347.113 662.993C321.094 662.993 300.002 641.901 300.002 615.883Z" fill="url(#paint0_linear_54_3403)"/>
<path d="M472.177 662.999C468.296 662.999 466.356 662.999 464.826 662.187C463.528 661.498 462.386 660.292 461.77 658.958C461.043 657.385 461.145 655.546 461.348 651.868C464.079 602.363 484.951 555.437 520.193 520.196C555.435 484.954 602.361 464.082 651.866 461.351C655.544 461.148 657.384 461.047 658.956 461.773C660.29 462.389 661.498 463.531 662.187 464.83C662.998 466.359 662.998 468.3 662.998 472.18L662.998 516.45C662.998 520.348 662.998 522.297 662.315 523.722C661.681 525.048 660.818 525.984 659.549 526.725C658.184 527.522 656.08 527.696 651.873 528.042C620.033 530.666 590.005 544.488 567.245 567.248C544.485 590.007 530.664 620.034 528.04 651.875C527.693 656.081 527.52 658.185 526.723 659.549C525.981 660.818 525.044 661.681 523.719 662.316C522.293 662.998 520.344 662.999 516.446 662.999L472.177 662.999ZM615.88 663C589.861 662.999 568.769 641.907 568.769 615.889C568.769 589.871 589.861 568.778 615.88 568.778C641.899 568.778 662.991 589.871 662.991 615.889C662.991 641.907 641.899 663 615.88 663Z" fill="white"/>
<path d="M516.443 300.003C520.341 300.003 522.29 300.003 523.716 300.686C525.041 301.32 525.977 302.182 526.719 303.451C527.516 304.816 527.689 306.92 528.036 311.127C530.66 342.967 544.481 372.994 567.241 395.754C590.001 418.514 620.029 432.334 651.87 434.958C656.077 435.305 658.18 435.478 659.545 436.275C660.814 437.017 661.677 437.954 662.311 439.279C662.994 440.705 662.994 442.654 662.994 446.552V490.82C662.994 494.701 662.994 496.641 662.183 498.171C661.494 499.469 660.287 500.612 658.953 501.229C657.381 501.955 655.541 501.852 651.863 501.649C602.358 498.918 555.432 478.047 520.189 442.806C484.947 407.564 464.075 360.638 461.344 311.134C461.141 307.456 461.039 305.616 461.766 304.044C462.382 302.71 463.524 301.503 464.822 300.814C466.352 300.003 468.293 300.003 472.173 300.003H516.443ZM615.888 300C615.888 326.02 636.979 347.11 662.999 347.11C636.979 347.11 615.885 368.204 615.885 394.224C615.885 368.204 594.789 347.107 568.768 347.107C594.789 347.107 615.888 326.02 615.888 300Z" fill="url(#paint1_linear_54_3403)"/>
<path d="M300.004 492.488C300.001 491.974 300 491.42 300 490.82V446.55C300 445.923 300.001 445.347 300.004 444.815V492.488ZM490.821 300.001C494.701 300.001 496.642 300.001 498.172 300.813C499.47 301.502 500.612 302.709 501.229 304.043C501.955 305.616 501.853 307.455 501.65 311.133C498.919 360.638 478.047 407.563 442.805 442.804C442.713 442.896 442.619 442.986 442.527 443.078L395.476 396.027C395.568 395.935 395.661 395.845 395.753 395.753C418.513 372.994 432.334 342.966 434.958 311.126C435.305 306.919 435.478 304.815 436.275 303.451C437.017 302.182 437.953 301.319 439.278 300.684C440.704 300.002 442.653 300.001 446.551 300.001H490.821Z" fill="white"/>
<path d="M934.355 566.398C947.795 566.398 959.992 564.426 970.949 560.482C982.051 556.538 990.305 552.667 995.71 548.868L1023.76 604.526C1016.89 610.369 1005.13 616.286 988.479 622.275C971.971 628.264 952.323 631.259 929.534 631.259C908.206 631.259 888.193 627.534 869.494 620.084C850.796 612.633 834.288 602.189 819.972 588.749C805.802 575.163 794.627 559.313 786.446 541.199C778.412 522.939 774.394 503.144 774.394 481.816C774.394 460.488 778.412 440.694 786.446 422.434C794.481 404.027 805.583 388.031 819.753 374.446C834.069 360.86 850.577 350.342 869.275 342.892C888.12 335.296 908.206 331.497 929.534 331.497C952.323 331.497 971.971 334.492 988.479 340.481C1005.13 346.471 1016.89 352.387 1023.76 358.231L995.71 413.888C990.305 409.944 982.051 406.073 970.949 402.274C959.992 398.33 947.795 396.358 934.355 396.358C919.455 396.358 906.453 398.695 895.351 403.37C884.249 407.899 874.972 414.18 867.522 422.215C860.072 430.249 854.521 439.306 850.869 449.386C847.217 459.466 845.391 470.057 845.391 481.159C845.391 492.407 847.217 503.144 850.869 513.37C854.521 523.45 860.072 532.507 867.522 540.542C874.972 548.576 884.249 554.931 895.351 559.605C906.453 564.134 919.455 566.398 934.355 566.398ZM1200.82 464.287H1348.29V482.693C1348.29 503.437 1344.79 522.793 1337.78 540.761C1330.91 558.729 1321.05 574.506 1308.19 588.092C1295.34 601.677 1280 612.268 1262.18 619.865C1244.36 627.461 1224.63 631.259 1203.01 631.259C1180.66 631.259 1160.36 627.461 1142.1 619.865C1123.98 612.122 1108.35 601.385 1095.21 587.653C1082.06 573.922 1071.98 557.999 1064.97 539.884C1057.95 521.624 1054.45 502.049 1054.45 481.159C1054.45 460.415 1057.95 440.986 1064.97 422.872C1071.98 404.612 1082.06 388.689 1095.21 375.103C1108.35 361.371 1123.98 350.707 1142.1 343.111C1160.36 335.369 1180.66 331.497 1203.01 331.497C1221.27 331.497 1237.34 333.47 1251.22 337.414C1265.25 341.358 1277.3 346.617 1287.38 353.191C1297.46 359.764 1306 366.995 1313.01 374.884C1320.03 382.626 1325.87 390.223 1330.54 397.673L1268.31 427.035C1262.32 417.832 1254.14 409.798 1243.77 402.932C1233.55 396.066 1219.96 392.633 1203.01 392.633C1191.18 392.633 1180.3 394.97 1170.37 399.645C1160.58 404.32 1152.1 410.747 1144.95 418.928C1137.79 426.962 1132.24 436.385 1128.29 447.195C1124.5 457.859 1122.6 469.18 1122.6 481.159C1122.6 493.284 1124.5 504.678 1128.29 515.342C1132.24 526.006 1137.79 535.429 1144.95 543.609C1152.1 551.79 1160.58 558.218 1170.37 562.892C1180.3 567.421 1191.18 569.685 1203.01 569.685C1213.39 569.685 1222.81 568.37 1231.28 565.741C1239.75 563.111 1247.06 559.313 1253.19 554.346C1259.48 549.38 1264.37 543.536 1267.88 536.817C1271.53 529.951 1273.72 522.427 1274.45 514.247H1200.82V464.287ZM1446.62 396.796L1451.44 397.673V626H1385.92V336.756H1475.32L1592.55 564.645L1587.73 565.522V336.756H1653.25V626H1563.41L1446.62 396.796Z" fill="white"/>
<path d="M3057.92 574.123H3172.19V629.895H3057.92V574.123Z" fill="white"/>
<path d="M2957.67 621.124H2889.39L2868.77 565.351H2762.64L2742.02 621.124H2673.74L2786.3 342.263H2845.11L2957.67 621.124ZM3031.56 621.122H2969.03V342.262H3031.56V621.122ZM2815.7 439.832C2815.69 439.916 2812.42 460.71 2803.57 469.559C2794.7 478.426 2773.84 481.696 2773.84 481.696C2773.87 481.7 2794.71 484.972 2803.57 493.833C2812.43 502.699 2815.7 523.56 2815.7 523.56C2815.7 523.56 2818.97 502.699 2827.84 493.833C2836.7 484.974 2857.53 481.702 2857.57 481.696C2857.57 481.696 2836.71 478.426 2827.84 469.559C2818.99 460.71 2815.72 439.915 2815.7 439.832Z" fill="url(#paint2_linear_54_3403)"/>
<path d="M2660.14 342.269V621.128H2596.59V342.269H2660.14Z" fill="white"/>
<path d="M2479.99 563.468C2512.43 563.468 2534.74 546.229 2534.74 546.229L2561.78 600.311C2561.78 600.311 2530.69 626 2470.18 626C2391.43 626 2319.09 561.778 2319.09 482.007C2319.09 401.898 2391.09 337 2470.18 337C2530.69 337 2561.78 362.689 2561.78 362.689L2534.74 416.771C2534.74 416.771 2512.43 399.532 2479.99 399.532C2416.1 399.532 2388.05 444.15 2388.05 481.331C2388.05 518.85 2416.1 563.468 2479.99 563.468Z" fill="white"/>
<path d="M2011.03 481.331C2011.03 399.87 2074.91 337 2151.64 337C2229.05 337 2291.92 399.87 2291.92 481.331C2291.92 562.792 2231.75 626 2151.64 626C2069.17 626 2011.03 562.792 2011.03 481.331ZM2079.65 481.331C2079.65 522.906 2099.59 564.482 2151.64 564.482C2202.34 564.482 2223.3 522.906 2223.3 481.331C2223.3 439.756 2200.99 398.18 2151.64 398.18C2102.63 398.18 2079.65 439.756 2079.65 481.331Z" fill="white"/>
<path d="M1890.26 337C1940.96 337 1976.79 363.365 1976.79 363.365L1951.1 414.067C1951.1 414.067 1923.39 394.8 1894.66 394.8C1873.02 394.8 1861.53 404.602 1861.53 419.813C1861.53 435.361 1887.9 446.516 1919.67 460.036C1950.77 473.219 1984.91 499.584 1984.91 536.089C1984.91 602.677 1934.2 626 1879.78 626C1814.55 626 1775 589.157 1775 589.157L1806.77 535.751C1806.77 535.751 1843.95 567.186 1875.05 567.186C1888.91 567.186 1915.27 565.834 1915.27 539.807C1915.27 519.526 1885.53 510.4 1852.4 493.837C1818.94 477.275 1799.34 451.248 1799.34 422.179C1799.34 370.125 1845.31 337 1890.26 337Z" fill="white"/>
<path d="M3385.78 566.643C3399.28 566.643 3411.53 564.663 3422.53 560.702C3433.68 556.741 3441.97 552.853 3447.4 549.038L3475.56 604.934C3468.67 610.802 3456.86 616.744 3440.13 622.759C3423.56 628.774 3403.82 631.781 3380.94 631.781C3359.52 631.781 3339.42 628.04 3320.64 620.558C3301.86 613.076 3285.28 602.587 3270.91 589.09C3256.68 575.446 3245.45 559.528 3237.24 541.336C3229.17 522.998 3225.13 503.119 3225.13 481.7C3225.13 460.28 3229.17 440.402 3237.24 422.063C3245.31 403.578 3256.46 387.514 3270.69 373.87C3285.06 360.226 3301.64 349.663 3320.42 342.181C3339.35 334.552 3359.52 330.738 3380.94 330.738C3403.82 330.738 3423.56 333.745 3440.13 339.76C3456.86 345.775 3468.67 351.717 3475.56 357.585L3447.4 413.481C3441.97 409.52 3433.68 405.632 3422.53 401.818C3411.53 397.856 3399.28 395.876 3385.78 395.876C3370.82 395.876 3357.76 398.223 3346.61 402.918C3335.46 407.466 3326.14 413.774 3318.66 421.843C3311.18 429.912 3305.6 439.008 3301.94 449.131C3298.27 459.253 3296.43 469.89 3296.43 481.04C3296.43 492.336 3298.27 503.119 3301.94 513.389C3305.6 523.511 3311.18 532.607 3318.66 540.676C3326.14 548.745 3335.46 555.127 3346.61 559.821C3357.76 564.369 3370.82 566.643 3385.78 566.643ZM3517.39 336.019H3583.19V568.844H3688.6V626.5H3517.39V336.019ZM3891.13 336.019H3956.93V514.489C3956.93 538.402 3952.24 559.161 3942.85 576.766C3933.46 594.224 3920.03 607.795 3902.58 617.477C3885.12 627.013 3864.29 631.781 3840.08 631.781C3815.72 631.781 3794.75 627.013 3777.14 617.477C3759.54 607.795 3746.04 594.224 3736.65 576.766C3727.41 559.161 3722.79 538.402 3722.79 514.489V336.019H3788.36V510.968C3788.36 524.172 3790.42 535.321 3794.53 544.417C3798.78 553.513 3804.8 560.408 3812.57 565.103C3820.35 569.651 3829.52 571.925 3840.08 571.925C3850.49 571.925 3859.52 569.651 3867.15 565.103C3874.77 560.408 3880.64 553.513 3884.75 544.417C3889.01 535.321 3891.13 524.172 3891.13 510.968V336.019ZM4005.22 336.019H4104.91C4121.49 336.019 4136.82 338.293 4150.9 342.841C4165.13 347.389 4176.57 354.871 4185.23 365.287C4194.03 375.557 4198.43 389.494 4198.43 407.099C4198.43 418.689 4196.23 429.032 4191.83 438.128C4187.58 447.223 4181.86 454.706 4174.67 460.574C4167.63 466.295 4159.92 470.11 4151.56 472.017C4158.9 472.897 4166.01 475.025 4172.91 478.399C4179.95 481.626 4186.26 486.174 4191.83 492.043C4197.55 497.764 4202.03 504.953 4205.26 513.609C4208.63 522.118 4210.32 532.24 4210.32 543.977C4210.32 560.262 4206.65 574.639 4199.31 587.109C4192.13 599.432 4181.56 609.115 4167.63 616.157C4153.84 623.052 4136.89 626.5 4116.79 626.5H4005.22V336.019ZM4071.02 573.905H4100.95C4110.34 573.905 4117.97 572.512 4123.83 569.724C4129.85 566.79 4134.25 562.682 4137.04 557.401C4139.82 551.973 4141.22 545.517 4141.22 538.035C4141.22 526.299 4137.55 517.716 4130.22 512.288C4123.03 506.713 4112.9 503.926 4099.85 503.926H4071.02V573.905ZM4071.02 452.432H4097.65C4105.42 452.432 4111.88 451.038 4117.01 448.25C4122.29 445.463 4126.25 441.575 4128.89 436.587C4131.68 431.452 4133.08 425.584 4133.08 418.982C4133.08 407.099 4129.7 399.103 4122.95 394.996C4116.2 390.741 4106.96 388.614 4095.23 388.614H4071.02V452.432Z" fill="white"/>
<defs>
<linearGradient id="paint0_linear_54_3403" x1="347.144" y1="615.859" x2="624.344" y2="346.403" gradientUnits="userSpaceOnUse">
<stop stop-color="#4A98FF"/>
<stop offset="1" stop-color="#4BFFC0"/>
</linearGradient>
<linearGradient id="paint1_linear_54_3403" x1="346.697" y1="614.345" x2="615.112" y2="347.933" gradientUnits="userSpaceOnUse">
<stop stop-color="#4A98FF"/>
<stop offset="1" stop-color="#4BFFC0"/>
</linearGradient>
<linearGradient id="paint2_linear_54_3403" x1="2652.51" y1="485.34" x2="3045.62" y2="487.17" gradientUnits="userSpaceOnUse">
<stop offset="0.0817308" stop-color="#4A98FF"/>
<stop offset="1" stop-color="#4BFFC0"/>
</linearGradient>
</defs>
</svg>
