<svg width="3981" height="2068" viewBox="0 0 3981 2068" fill="none" xmlns="http://www.w3.org/2000/svg">
<path d="M1096.28 391.005C1102.99 391.005 1106.34 391.004 1108.94 392.356C1111.19 393.525 1113.09 395.479 1114.2 397.758C1115.48 400.395 1115.4 403.665 1115.22 410.204C1110.32 592.995 1035.56 767.269 905.919 896.912C776.274 1026.56 601.997 1101.31 419.203 1106.21C412.664 1106.39 409.394 1106.47 406.757 1105.19C404.478 1104.08 402.524 1102.18 401.355 1099.93C400.003 1097.33 400.004 1093.98 400.004 1087.27L400.005 889.933C400.005 883.206 400.005 879.842 401.248 877.328C402.371 875.057 404.035 873.325 406.26 872.111C408.722 870.769 412.216 870.629 419.203 870.35C539.459 865.537 653.795 815.654 739.228 730.224C824.66 644.793 874.544 530.458 879.356 410.204C879.636 403.217 879.776 399.723 881.118 397.261C882.331 395.036 884.063 393.372 886.335 392.249C888.849 391.006 892.213 391.005 898.94 391.005H1096.28ZM566.92 391.002C659.097 391.002 733.821 465.726 733.821 557.901C733.821 650.077 659.097 724.8 566.92 724.8C474.743 724.8 400.018 650.077 400.018 557.901C400.018 465.726 474.743 391.002 566.92 391.002Z" fill="white"/>
<path d="M400.01 980.738C400.01 974.029 400.01 970.674 401.362 968.073C402.531 965.824 404.485 963.922 406.764 962.814C409.401 961.532 412.671 961.62 419.21 961.795C602.004 966.698 776.28 1041.45 905.926 1171.09C1035.57 1300.74 1110.32 1475.01 1115.23 1657.8C1115.4 1664.34 1115.49 1667.61 1114.21 1670.25C1113.1 1672.53 1111.2 1674.48 1108.95 1675.65C1106.35 1677 1102.99 1677 1096.28 1677L898.947 1677C892.22 1677 888.856 1677 886.342 1675.76C884.07 1674.63 882.338 1672.97 881.125 1670.74C879.782 1668.28 879.642 1664.79 879.362 1657.8C874.55 1537.55 824.667 1423.21 739.234 1337.78C653.802 1252.35 539.465 1202.47 419.21 1197.66C412.223 1197.38 408.728 1197.24 406.266 1195.89C404.041 1194.68 402.377 1192.95 401.254 1190.68C400.011 1188.16 400.011 1184.8 400.011 1178.07L400.01 980.738ZM400.008 1510.08C400.008 1417.9 474.732 1343.18 566.909 1343.18C659.086 1343.18 733.811 1417.9 733.812 1510.08C733.812 1602.25 659.087 1676.98 566.909 1676.98C474.732 1676.98 400.008 1602.25 400.008 1510.08Z" fill="url(#paint0_linear_76_1890)"/>
<path d="M989.729 1676.99C983.02 1676.99 979.664 1676.99 977.063 1675.64C974.814 1674.47 972.912 1672.52 971.804 1670.24C970.522 1667.6 970.61 1664.33 970.785 1657.79C975.688 1475 1050.44 1300.73 1180.09 1171.09C1309.73 1041.44 1484.01 966.692 1666.8 961.789C1673.34 961.614 1676.61 961.526 1679.25 962.808C1681.53 963.916 1683.48 965.818 1684.65 968.066C1686 970.668 1686 974.023 1686 980.731L1686 1178.07C1686 1184.79 1686 1188.16 1684.76 1190.67C1683.63 1192.94 1681.97 1194.67 1679.75 1195.89C1677.28 1197.23 1673.79 1197.37 1666.8 1197.65C1546.55 1202.46 1432.21 1252.34 1346.78 1337.78C1261.35 1423.21 1211.46 1537.54 1206.65 1657.79C1206.37 1664.78 1206.23 1668.28 1204.89 1670.74C1203.67 1672.96 1201.94 1674.63 1199.67 1675.75C1197.16 1676.99 1193.79 1676.99 1187.07 1676.99L989.729 1676.99ZM1519.08 1677C1426.9 1677 1352.17 1602.27 1352.17 1510.1C1352.17 1417.92 1426.9 1343.2 1519.08 1343.2C1611.25 1343.2 1685.98 1417.92 1685.98 1510.1C1685.98 1602.27 1611.25 1677 1519.08 1677Z" fill="white"/>
<path d="M1187.05 391.009C1193.78 391.009 1197.14 391.009 1199.65 392.252C1201.92 393.376 1203.66 395.039 1204.87 397.264C1206.21 399.727 1206.35 403.22 1206.63 410.208C1211.44 530.461 1261.33 644.796 1346.76 730.227C1432.19 815.658 1546.53 865.54 1666.78 870.353C1673.77 870.633 1677.27 870.773 1679.73 872.116C1681.95 873.329 1683.62 875.06 1684.74 877.332C1685.98 879.846 1685.98 883.21 1685.98 889.937L1685.98 1087.27C1685.98 1093.98 1685.98 1097.33 1684.63 1099.94C1683.46 1102.18 1681.51 1104.09 1679.23 1105.19C1676.59 1106.48 1673.32 1106.39 1666.78 1106.21C1483.99 1101.31 1309.71 1026.56 1180.07 896.916C1050.42 767.272 975.67 592.998 970.768 410.208C970.592 403.669 970.504 400.399 971.786 397.762C972.894 395.483 974.796 393.529 977.045 392.361C979.647 391.009 983.001 391.008 989.71 391.008L1187.05 391.009ZM1519.1 391C1519.1 483.179 1593.82 557.898 1686 557.898C1593.82 557.898 1519.09 632.625 1519.09 724.804C1519.09 632.625 1444.35 557.888 1352.17 557.888C1444.35 557.888 1519.1 483.179 1519.1 391Z" fill="url(#paint1_linear_76_1890)"/>
<path d="M400.018 1090.94C400.006 1089.84 400.004 1088.62 400.004 1087.27L400.005 889.933C400.005 888.561 400.007 887.328 400.018 886.214V1090.94ZM1096.28 391.004C1102.99 391.004 1106.34 391.005 1108.94 392.357C1111.19 393.526 1113.09 395.479 1114.2 397.758C1115.48 400.395 1115.4 403.665 1115.22 410.204C1110.32 592.995 1035.56 767.268 905.919 896.912C905.594 897.237 905.265 897.56 904.939 897.884L738.249 731.196C738.575 730.872 738.902 730.548 739.228 730.223C824.66 644.792 874.544 530.457 879.356 410.204C879.636 403.217 879.775 399.723 881.118 397.26C882.331 395.035 884.063 393.372 886.335 392.249C888.849 391.005 892.213 391.005 898.94 391.005L1096.28 391.004Z" fill="white"/>
<path d="M2057.36 629.398C2070.8 629.398 2082.99 627.426 2093.95 623.482C2105.05 619.538 2113.31 615.667 2118.71 611.868L2146.76 667.526C2139.89 673.369 2128.13 679.286 2111.48 685.275C2094.97 691.264 2075.33 694.259 2052.54 694.259C2031.21 694.259 2011.19 690.534 1992.5 683.084C1973.8 675.633 1957.29 665.189 1942.97 651.749C1928.8 638.163 1917.63 622.313 1909.45 604.199C1901.41 585.939 1897.4 566.144 1897.4 544.816C1897.4 523.488 1901.41 503.694 1909.45 485.434C1917.48 467.027 1928.59 451.031 1942.76 437.446C1957.07 423.86 1973.58 413.342 1992.28 405.892C2011.12 398.296 2031.21 394.497 2052.54 394.497C2075.33 394.497 2094.97 397.492 2111.48 403.481C2128.13 409.471 2139.89 415.387 2146.76 421.231L2118.71 476.888C2113.31 472.944 2105.05 469.073 2093.95 465.274C2082.99 461.33 2070.8 459.358 2057.36 459.358C2042.46 459.358 2029.46 461.695 2018.35 466.37C2007.25 470.899 1997.97 477.18 1990.52 485.215C1983.07 493.249 1977.52 502.306 1973.87 512.386C1970.22 522.466 1968.39 533.057 1968.39 544.159C1968.39 555.407 1970.22 566.144 1973.87 576.37C1977.52 586.45 1983.07 595.507 1990.52 603.542C1997.97 611.576 2007.25 617.931 2018.35 622.605C2029.46 627.134 2042.46 629.398 2057.36 629.398ZM2323.83 527.287H2471.3V545.693C2471.3 566.437 2467.79 585.793 2460.78 603.761C2453.91 621.729 2444.05 637.506 2431.2 651.092C2418.34 664.677 2403 675.268 2385.18 682.865C2367.36 690.461 2347.64 694.259 2326.02 694.259C2303.67 694.259 2283.36 690.461 2265.1 682.865C2246.99 675.122 2231.36 664.385 2218.21 650.653C2205.06 636.922 2194.98 620.999 2187.97 602.884C2180.96 584.624 2177.45 565.049 2177.45 544.159C2177.45 523.415 2180.96 503.986 2187.97 485.872C2194.98 467.612 2205.06 451.689 2218.21 438.103C2231.36 424.371 2246.99 413.707 2265.1 406.111C2283.36 398.369 2303.67 394.497 2326.02 394.497C2344.28 394.497 2360.35 396.47 2374.22 400.414C2388.25 404.358 2400.3 409.617 2410.38 416.191C2420.46 422.764 2429 429.995 2436.02 437.884C2443.03 445.626 2448.87 453.223 2453.55 460.673L2391.32 490.035C2385.33 480.832 2377.15 472.798 2366.77 465.932C2356.55 459.066 2342.96 455.633 2326.02 455.633C2314.18 455.633 2303.3 457.97 2293.37 462.645C2283.58 467.32 2275.11 473.747 2267.95 481.928C2260.79 489.962 2255.24 499.385 2251.3 510.195C2247.5 520.859 2245.6 532.18 2245.6 544.159C2245.6 556.284 2247.5 567.678 2251.3 578.342C2255.24 589.006 2260.79 598.429 2267.95 606.609C2275.11 614.79 2283.58 621.218 2293.37 625.892C2303.3 630.421 2314.18 632.685 2326.02 632.685C2336.39 632.685 2345.81 631.37 2354.28 628.741C2362.76 626.111 2370.06 622.313 2376.2 617.346C2382.48 612.38 2387.37 606.536 2390.88 599.817C2394.53 592.951 2396.72 585.427 2397.45 577.247H2323.83V527.287ZM2569.62 459.796L2574.44 460.673V689H2508.92V399.756H2598.32L2715.55 627.645L2710.73 628.522V399.756H2776.25V689H2686.41L2569.62 459.796Z" fill="white"/>
<path d="M3436.5 1065.58H3580.03V1135.63H3436.5V1065.58Z" fill="white"/>
<path d="M3328.82 1135.62H3243.06L3217.17 1065.57H3083.85L3057.95 1135.62H2972.19L3113.57 785.361H3187.45L3328.82 1135.62ZM3421.64 1135.62H3343.09V785.36H3421.64V1135.62ZM3150.51 907.913C3150.49 908.007 3146.38 934.135 3135.26 945.251C3124.13 956.388 3097.92 960.497 3097.92 960.497C3097.96 960.502 3124.13 964.611 3135.26 975.741C3146.39 986.869 3150.5 1013.04 3150.51 1013.08C3150.52 1013.03 3154.63 986.866 3165.75 975.741C3176.87 964.627 3202.98 960.514 3203.09 960.497C3203.01 960.484 3176.87 956.371 3165.75 945.251C3154.64 934.134 3150.52 908.007 3150.51 907.913Z" fill="url(#paint2_linear_76_1890)"/>
<path d="M2958.77 785.368V1135.63H2878.95V785.368H2958.77Z" fill="white"/>
<path d="M2745.67 1063.46C2786.42 1063.46 2814.45 1041.8 2814.45 1041.8L2848.41 1109.73C2848.41 1109.73 2809.35 1142 2733.35 1142C2634.43 1142 2543.58 1061.33 2543.58 961.137C2543.58 860.516 2634.01 779 2733.35 779C2809.35 779 2848.41 811.267 2848.41 811.267L2814.45 879.196C2814.45 879.196 2786.42 857.544 2745.67 857.544C2665.43 857.544 2630.19 913.586 2630.19 960.288C2630.19 1007.41 2665.43 1063.46 2745.67 1063.46Z" fill="white"/>
<path d="M2171.26 960.288C2171.26 857.968 2251.5 779 2347.88 779C2445.1 779 2524.07 857.968 2524.07 960.288C2524.07 1062.61 2448.5 1142 2347.88 1142C2244.28 1142 2171.26 1062.61 2171.26 960.288ZM2257.45 960.288C2257.45 1012.51 2282.49 1064.73 2347.88 1064.73C2411.56 1064.73 2437.88 1012.51 2437.88 960.288C2437.88 908.067 2409.86 855.846 2347.88 855.846C2286.32 855.846 2257.45 908.067 2257.45 960.288Z" fill="white"/>
<path d="M2030.78 779C2094.46 779 2139.46 812.116 2139.46 812.116L2107.2 875.8C2107.2 875.8 2072.38 851.6 2036.3 851.6C2009.12 851.6 1994.69 863.912 1994.69 883.018C1994.69 902.547 2027.81 916.558 2067.71 933.54C2106.77 950.098 2149.65 983.214 2149.65 1029.07C2149.65 1112.71 2085.97 1142 2017.62 1142C1935.68 1142 1886 1095.72 1886 1095.72L1925.91 1028.64C1925.91 1028.64 1972.61 1068.13 2011.67 1068.13C2029.08 1068.13 2062.19 1066.43 2062.19 1033.74C2062.19 1008.26 2024.83 996.8 1983.23 975.996C1941.19 955.193 1916.57 922.502 1916.57 885.989C1916.57 820.607 1974.31 779 2030.78 779Z" fill="white"/>
<path d="M2058.09 1462.14C2071.59 1462.14 2083.84 1460.16 2094.84 1456.2C2105.99 1452.24 2114.28 1448.35 2119.71 1444.54L2147.87 1500.43C2140.98 1506.3 2129.17 1512.24 2112.44 1518.26C2095.87 1524.27 2076.13 1527.28 2053.25 1527.28C2031.83 1527.28 2011.73 1523.54 1992.95 1516.06C1974.17 1508.58 1957.6 1498.09 1943.22 1484.59C1928.99 1470.95 1917.76 1455.03 1909.55 1436.84C1901.48 1418.5 1897.45 1398.62 1897.45 1377.2C1897.45 1355.78 1901.48 1335.9 1909.55 1317.56C1917.62 1299.08 1928.77 1283.01 1943 1269.37C1957.38 1255.73 1973.95 1245.16 1992.73 1237.68C2011.66 1230.05 2031.83 1226.24 2053.25 1226.24C2076.13 1226.24 2095.87 1229.25 2112.44 1235.26C2129.17 1241.28 2140.98 1247.22 2147.87 1253.09L2119.71 1308.98C2114.28 1305.02 2105.99 1301.13 2094.84 1297.32C2083.84 1293.36 2071.59 1291.38 2058.09 1291.38C2043.13 1291.38 2030.07 1293.72 2018.92 1298.42C2007.77 1302.97 1998.45 1309.27 1990.97 1317.34C1983.49 1325.41 1977.91 1334.51 1974.25 1344.63C1970.58 1354.75 1968.74 1365.39 1968.74 1376.54C1968.74 1387.84 1970.58 1398.62 1974.25 1408.89C1977.91 1419.01 1983.49 1428.11 1990.97 1436.18C1998.45 1444.25 2007.77 1450.63 2018.92 1455.32C2030.07 1459.87 2043.13 1462.14 2058.09 1462.14ZM2189.7 1231.52H2255.5V1464.34H2360.91V1522H2189.7V1231.52ZM2563.44 1231.52H2629.24V1409.99C2629.24 1433.9 2624.55 1454.66 2615.16 1472.27C2605.77 1489.72 2592.34 1503.29 2574.89 1512.98C2557.43 1522.51 2536.6 1527.28 2512.39 1527.28C2488.04 1527.28 2467.06 1522.51 2449.45 1512.98C2431.85 1503.29 2418.35 1489.72 2408.96 1472.27C2399.72 1454.66 2395.1 1433.9 2395.1 1409.99V1231.52H2460.67V1406.47C2460.67 1419.67 2462.73 1430.82 2466.84 1439.92C2471.09 1449.01 2477.11 1455.91 2484.88 1460.6C2492.66 1465.15 2501.83 1467.42 2512.39 1467.42C2522.81 1467.42 2531.83 1465.15 2539.46 1460.6C2547.09 1455.91 2552.95 1449.01 2557.06 1439.92C2561.32 1430.82 2563.44 1419.67 2563.44 1406.47V1231.52ZM2677.53 1231.52H2777.22C2793.8 1231.52 2809.13 1233.79 2823.21 1238.34C2837.44 1242.89 2848.89 1250.37 2857.54 1260.79C2866.34 1271.06 2870.74 1284.99 2870.74 1302.6C2870.74 1314.19 2868.54 1324.53 2864.14 1333.63C2859.89 1342.72 2854.17 1350.21 2846.98 1356.07C2839.94 1361.8 2832.23 1365.61 2823.87 1367.52C2831.21 1368.4 2838.32 1370.52 2845.22 1373.9C2852.26 1377.13 2858.57 1381.67 2864.14 1387.54C2869.86 1393.26 2874.34 1400.45 2877.57 1409.11C2880.94 1417.62 2882.63 1427.74 2882.63 1439.48C2882.63 1455.76 2878.96 1470.14 2871.63 1482.61C2864.44 1494.93 2853.87 1504.62 2839.94 1511.66C2826.15 1518.55 2809.2 1522 2789.1 1522H2677.53V1231.52ZM2743.33 1469.41H2773.26C2782.65 1469.41 2790.28 1468.01 2796.14 1465.22C2802.16 1462.29 2806.56 1458.18 2809.35 1452.9C2812.14 1447.47 2813.53 1441.02 2813.53 1433.54C2813.53 1421.8 2809.86 1413.22 2802.53 1407.79C2795.34 1402.21 2785.21 1399.43 2772.16 1399.43H2743.33V1469.41ZM2743.33 1347.93H2769.96C2777.73 1347.93 2784.19 1346.54 2789.32 1343.75C2794.6 1340.96 2798.56 1337.08 2801.21 1332.09C2803.99 1326.95 2805.39 1321.08 2805.39 1314.48C2805.39 1302.6 2802.01 1294.6 2795.26 1290.5C2788.52 1286.24 2779.27 1284.11 2767.54 1284.11H2743.33V1347.93Z" fill="white"/>
<defs>
<linearGradient id="paint0_linear_76_1890" x1="567.113" y1="1509.9" x2="1549.71" y2="554.753" gradientUnits="userSpaceOnUse">
<stop stop-color="#4A98FF"/>
<stop offset="1" stop-color="#4BFFC0"/>
</linearGradient>
<linearGradient id="paint1_linear_76_1890" x1="564.807" y1="1505.26" x2="1516.26" y2="560.908" gradientUnits="userSpaceOnUse">
<stop stop-color="#4A98FF"/>
<stop offset="1" stop-color="#4BFFC0"/>
</linearGradient>
<linearGradient id="paint2_linear_76_1890" x1="2946.54" y1="958.28" x2="3421.64" y2="960.492" gradientUnits="userSpaceOnUse">
<stop offset="0.0817308" stop-color="#4A98FF"/>
<stop offset="1" stop-color="#4BFFC0"/>
</linearGradient>
</defs>
</svg>
