<svg width="3510" height="345" viewBox="280 315 3510 345" fill="none" xmlns="http://www.w3.org/2000/svg">
<path d="M471.355 570.898C484.795 570.898 496.992 568.926 507.949 564.982C519.051 561.038 527.305 557.167 532.71 553.368L560.758 609.026C553.892 614.869 542.132 620.786 525.479 626.775C508.971 632.764 489.323 635.759 466.534 635.759C445.206 635.759 425.193 632.034 406.494 624.584C387.796 617.133 371.288 606.689 356.972 593.249C342.802 579.663 331.627 563.813 323.446 545.699C315.412 527.439 311.394 507.644 311.394 486.316C311.394 464.988 315.412 445.194 323.446 426.934C331.481 408.527 342.583 392.531 356.753 378.946C371.069 365.36 387.577 354.842 406.275 347.392C425.12 339.796 445.206 335.997 466.534 335.997C489.323 335.997 508.971 338.992 525.479 344.981C542.132 350.971 553.892 356.887 560.758 362.731L532.71 418.388C527.305 414.444 519.051 410.573 507.949 406.774C496.992 402.83 484.795 400.858 471.355 400.858C456.455 400.858 443.453 403.195 432.351 407.87C421.249 412.399 411.972 418.68 404.522 426.715C397.072 434.749 391.521 443.806 387.869 453.886C384.217 463.966 382.391 474.557 382.391 485.659C382.391 496.907 384.217 507.644 387.869 517.87C391.521 527.95 397.072 537.007 404.522 545.042C411.972 553.076 421.249 559.431 432.351 564.105C443.453 568.634 456.455 570.898 471.355 570.898ZM737.823 468.787H885.294V487.193C885.294 507.937 881.788 527.293 874.776 545.261C867.91 563.229 858.049 579.006 845.194 592.592C832.339 606.177 817 616.768 799.178 624.365C781.356 631.961 761.635 635.759 740.015 635.759C717.664 635.759 697.358 631.961 679.098 624.365C660.984 616.622 645.353 605.885 632.206 592.153C619.058 578.422 608.978 562.499 601.967 544.384C594.955 526.124 591.449 506.549 591.449 485.659C591.449 464.915 594.955 445.486 601.967 427.372C608.978 409.112 619.058 393.189 632.206 379.603C645.353 365.871 660.984 355.207 679.098 347.611C697.358 339.869 717.664 335.997 740.015 335.997C758.275 335.997 774.344 337.97 788.222 341.914C802.246 345.858 814.298 351.117 824.377 357.691C834.457 364.264 843.003 371.495 850.015 379.384C857.027 387.126 862.87 394.723 867.545 402.173L805.314 431.535C799.324 422.332 791.144 414.298 780.772 407.432C770.546 400.566 756.96 397.133 740.015 397.133C728.182 397.133 717.299 399.47 707.365 404.145C697.578 408.82 689.105 415.247 681.947 423.428C674.789 431.462 669.238 440.885 665.293 451.695C661.495 462.359 659.596 473.68 659.596 485.659C659.596 497.784 661.495 509.178 665.293 519.842C669.238 530.506 674.789 539.929 681.947 548.109C689.105 556.29 697.578 562.718 707.365 567.392C717.299 571.921 728.182 574.185 740.015 574.185C750.386 574.185 759.809 572.87 768.282 570.241C776.754 567.611 784.059 563.813 790.194 558.846C796.476 553.88 801.369 548.036 804.875 541.317C808.527 534.451 810.719 526.927 811.449 518.747H737.823V468.787ZM983.615 401.296L988.436 402.173V630.5H922.918V341.256H1012.32L1129.55 569.145L1124.73 570.022V341.256H1190.25V630.5H1100.41L983.615 401.296Z" fill="#0A2D57"/>
<path d="M2550.69 570.448H2665.36V626.413H2550.69V570.448Z" fill="#0A2D57"/>
<path d="M2464.67 626.407H2396.15L2375.46 570.442H2268.96L2248.27 626.407H2179.76L2292.7 346.582H2351.72L2464.67 626.407ZM2538.82 626.405H2476.07V346.581H2538.82V626.405ZM2322.21 444.487C2322.2 444.571 2318.91 465.437 2310.03 474.317C2301.15 483.202 2280.26 486.487 2280.2 486.496C2280.24 486.501 2301.14 489.785 2310.03 498.675C2318.91 507.553 2322.2 528.41 2322.21 528.504C2322.23 528.406 2325.51 507.552 2334.39 498.675C2343.28 489.786 2364.18 486.501 2364.22 486.496C2364.22 486.496 2343.29 483.214 2334.39 474.317C2325.51 465.437 2322.22 444.571 2322.21 444.487Z" fill="url(#paint0_linear_69_1722)"/>
<path d="M2169.03 346.587V626.411H2105.27V346.587H2169.03Z" fill="#0A2D57"/>
<path d="M1998.78 568.751C2031.35 568.751 2053.73 551.453 2053.73 551.453L2080.87 605.722C2080.87 605.722 2049.66 631.5 1988.95 631.5C1909.92 631.5 1837.33 567.056 1837.33 487.009C1837.33 406.623 1909.58 341.5 1988.95 341.5C2049.66 341.5 2080.87 367.278 2080.87 367.278L2053.73 421.547C2053.73 421.547 2031.35 404.249 1998.78 404.249C1934.68 404.249 1906.53 449.02 1906.53 486.33C1906.53 523.98 1934.68 568.751 1998.78 568.751Z" fill="#0A2D57"/>
<path d="M1539.89 486.33C1539.89 404.588 1604 341.5 1680.99 341.5C1758.66 341.5 1821.75 404.588 1821.75 486.33C1821.75 568.073 1761.38 631.5 1680.99 631.5C1598.23 631.5 1539.89 568.073 1539.89 486.33ZM1608.75 486.33C1608.75 528.05 1628.76 569.769 1680.99 569.769C1731.87 569.769 1752.9 528.05 1752.9 486.33C1752.9 444.611 1730.51 402.892 1680.99 402.892C1631.81 402.892 1608.75 444.611 1608.75 486.33Z" fill="#0A2D57"/>
<path d="M1427.66 341.5C1478.54 341.5 1514.49 367.956 1514.49 367.956L1488.71 418.833C1488.71 418.833 1460.9 399.5 1432.07 399.5C1410.36 399.5 1398.83 409.336 1398.83 424.599C1398.83 440.202 1425.29 451.395 1457.17 464.962C1488.37 478.19 1522.63 504.646 1522.63 541.278C1522.63 608.097 1471.75 631.5 1417.15 631.5C1351.68 631.5 1312 594.529 1312 594.529L1343.88 540.939C1343.88 540.939 1381.19 572.482 1412.4 572.482C1426.3 572.482 1452.76 571.126 1452.76 545.009C1452.76 524.658 1422.91 515.5 1389.67 498.88C1356.09 482.26 1336.42 456.143 1336.42 426.974C1336.42 374.74 1382.55 341.5 1427.66 341.5Z" fill="#0A2D57"/>
<path d="M2927.45 571.643C2940.94 571.643 2953.19 569.663 2964.2 565.702C2975.35 561.741 2983.63 557.853 2989.06 554.038L3017.23 609.934C3010.33 615.802 2998.53 621.744 2981.8 627.759C2965.22 633.774 2945.49 636.781 2922.6 636.781C2901.18 636.781 2881.09 633.04 2862.31 625.558C2843.53 618.076 2826.95 607.587 2812.57 594.09C2798.34 580.446 2787.12 564.528 2778.9 546.336C2770.84 527.998 2766.8 508.119 2766.8 486.7C2766.8 465.28 2770.84 445.402 2778.9 427.063C2786.97 408.578 2798.12 392.514 2812.35 378.87C2826.73 365.226 2843.31 354.663 2862.09 347.181C2881.01 339.552 2901.18 335.738 2922.6 335.738C2945.49 335.738 2965.22 338.745 2981.8 344.76C2998.53 350.775 3010.33 356.717 3017.23 362.585L2989.06 418.481C2983.63 414.52 2975.35 410.632 2964.2 406.818C2953.19 402.856 2940.94 400.876 2927.45 400.876C2912.48 400.876 2899.42 403.223 2888.27 407.918C2877.12 412.466 2867.81 418.774 2860.33 426.843C2852.84 434.912 2847.27 444.008 2843.6 454.131C2839.93 464.253 2838.1 474.89 2838.1 486.04C2838.1 497.336 2839.93 508.119 2843.6 518.389C2847.27 528.511 2852.84 537.607 2860.33 545.676C2867.81 553.745 2877.12 560.127 2888.27 564.821C2899.42 569.369 2912.48 571.643 2927.45 571.643ZM3059.06 341.019H3124.85V573.844H3230.26V631.5H3059.06V341.019ZM3432.8 341.019H3498.6V519.489C3498.6 543.402 3493.9 564.161 3484.51 581.766C3475.12 599.224 3461.7 612.795 3444.24 622.477C3426.78 632.013 3405.95 636.781 3381.74 636.781C3357.39 636.781 3336.41 632.013 3318.81 622.477C3301.2 612.795 3287.7 599.224 3278.32 581.766C3269.07 564.161 3264.45 543.402 3264.45 519.489V341.019H3330.03V515.968C3330.03 529.172 3332.08 540.321 3336.19 549.417C3340.45 558.513 3346.46 565.408 3354.24 570.103C3362.01 574.651 3371.18 576.925 3381.74 576.925C3392.16 576.925 3401.18 574.651 3408.81 570.103C3416.44 565.408 3422.31 558.513 3426.42 549.417C3430.67 540.321 3432.8 529.172 3432.8 515.968V341.019ZM3546.89 341.019H3646.57C3663.15 341.019 3678.48 343.293 3692.57 347.841C3706.8 352.389 3718.24 359.871 3726.9 370.287C3735.7 380.557 3740.1 394.494 3740.1 412.099C3740.1 423.689 3737.9 434.032 3733.5 443.128C3729.24 452.223 3723.52 459.706 3716.33 465.574C3709.29 471.295 3701.59 475.11 3693.23 477.017C3700.56 477.897 3707.68 480.025 3714.57 483.399C3721.62 486.626 3727.92 491.174 3733.5 497.043C3739.22 502.764 3743.69 509.953 3746.92 518.609C3750.3 527.118 3751.98 537.24 3751.98 548.977C3751.98 565.262 3748.32 579.639 3740.98 592.109C3733.79 604.432 3723.23 614.115 3709.29 621.157C3695.5 628.052 3678.56 631.5 3658.46 631.5H3546.89V341.019ZM3612.68 578.905H3642.61C3652 578.905 3659.63 577.512 3665.5 574.724C3671.51 571.79 3675.92 567.682 3678.7 562.401C3681.49 556.973 3682.88 550.517 3682.88 543.035C3682.88 531.299 3679.22 522.716 3671.88 517.288C3664.69 511.713 3654.57 508.926 3641.51 508.926H3612.68V578.905ZM3612.68 457.432H3639.31C3647.09 457.432 3653.54 456.038 3658.68 453.25C3663.96 450.463 3667.92 446.575 3670.56 441.587C3673.35 436.452 3674.74 430.584 3674.74 423.982C3674.74 412.099 3671.37 404.103 3664.62 399.996C3657.87 395.741 3648.63 393.614 3636.89 393.614H3612.68V457.432Z" fill="#0A2D57"/>
<defs>
<linearGradient id="paint0_linear_69_1722" x1="2159.26" y1="484.726" x2="2538.82" y2="486.493" gradientUnits="userSpaceOnUse">
<stop offset="0.0817308" stop-color="#4A98FF"/>
<stop offset="1" stop-color="#4BFFC0"/>
</linearGradient>
</defs>
</svg>
