<svg width="4537" height="963" viewBox="0 0 4537 963" fill="none" xmlns="http://www.w3.org/2000/svg">
<path d="M490.822 300.001C494.703 300.001 496.643 300.001 498.173 300.813C499.471 301.502 500.613 302.709 501.229 304.043C501.956 305.616 501.854 307.455 501.651 311.133C498.92 360.638 478.048 407.563 442.806 442.804C407.563 478.046 360.637 498.918 311.132 501.649C307.453 501.852 305.614 501.953 304.042 501.227C302.708 500.611 301.5 499.469 300.812 498.17C300 496.641 300 494.7 300 490.82V446.55C300 442.653 300 440.703 300.683 439.278C301.317 437.952 302.18 437.016 303.449 436.275C304.814 435.478 306.918 435.304 311.125 434.958C342.966 432.334 372.994 418.513 395.754 395.753C418.514 372.994 432.335 342.966 434.959 311.126C435.306 306.919 435.479 304.815 436.276 303.451C437.018 302.182 437.954 301.319 439.279 300.684C440.705 300.002 442.655 300.001 446.553 300.001H490.822ZM347.113 300C373.132 300 394.226 321.093 394.226 347.112C394.225 373.13 373.132 394.222 347.113 394.222C321.095 394.222 300.002 373.13 300.002 347.112C300.002 321.093 321.094 300.001 347.113 300Z" fill="#0A2D57"/>
<path d="M300 472.183C300 468.302 300 466.362 300.812 464.832C301.5 463.534 302.708 462.391 304.042 461.774C305.614 461.049 307.454 461.151 311.132 461.354C360.637 464.085 407.563 484.956 442.806 520.197C478.048 555.439 498.92 602.365 501.651 651.869C501.854 655.547 501.956 657.387 501.229 658.959C500.613 660.293 499.471 661.5 498.173 662.188C496.643 663 494.702 663 490.821 663H446.552C442.654 663 440.705 663 439.279 662.317C437.954 661.683 437.017 660.821 436.275 659.552C435.478 658.187 435.305 656.083 434.958 651.876C432.334 620.036 418.513 590.009 395.753 567.249C372.993 544.49 342.966 530.669 311.125 528.045C306.918 527.698 304.814 527.525 303.449 526.728C302.18 525.986 301.317 525.049 300.683 523.724C300 522.298 300 520.349 300 516.451V472.183ZM300 615.883C300 589.865 321.093 568.773 347.111 568.772C373.13 568.772 394.223 589.864 394.224 615.883C394.224 641.901 373.13 662.994 347.111 662.994C321.092 662.994 300 641.901 300 615.883Z" fill="url(#paint0_linear_69_1687)"/>
<path d="M472.178 662.998C468.297 662.998 466.357 662.998 464.827 662.186C463.529 661.497 462.387 660.291 461.771 658.957C461.044 657.384 461.146 655.545 461.349 651.867C464.08 602.362 484.952 555.437 520.194 520.195C555.437 484.954 602.363 464.082 651.868 461.351C655.546 461.148 657.386 461.046 658.958 461.772C660.292 462.388 661.5 463.531 662.188 464.83C663 466.36 663 468.3 663 472.18L663 516.449C663 520.347 663 522.296 662.317 523.721C661.683 525.047 660.82 525.984 659.551 526.725C658.186 527.523 656.082 527.696 651.875 528.043C620.034 530.666 590.007 544.487 567.247 567.247C544.487 590.006 530.666 620.034 528.042 651.874C527.695 656.081 527.522 658.185 526.725 659.55C525.983 660.819 525.046 661.68 523.721 662.315C522.295 662.998 520.346 662.998 516.448 662.998L472.178 662.998ZM615.881 662.999C589.862 662.999 568.77 641.906 568.77 615.887C568.77 589.869 589.862 568.777 615.881 568.777C641.9 568.777 662.992 589.869 662.992 615.887C662.992 641.906 641.9 662.999 615.881 662.999Z" fill="#0A2D57"/>
<path d="M516.442 300.003C520.34 300.003 522.289 300.003 523.715 300.686C525.04 301.32 525.977 302.183 526.719 303.452C527.516 304.817 527.689 306.92 528.036 311.127C530.66 342.967 544.481 372.994 567.241 395.754C590.001 418.514 620.029 432.335 651.87 434.959C656.077 435.306 658.181 435.479 659.546 436.276C660.815 437.018 661.677 437.954 662.311 439.279C662.994 440.705 662.994 442.654 662.994 446.552L662.995 490.821C662.995 494.702 662.994 496.642 662.183 498.172C661.494 499.47 660.287 500.612 658.953 501.229C657.381 501.955 655.541 501.853 651.863 501.65C602.358 498.919 555.432 478.047 520.189 442.806C484.947 407.564 464.075 360.638 461.344 311.134C461.141 307.456 461.039 305.616 461.766 304.044C462.382 302.71 463.524 301.503 464.822 300.814C466.352 300.003 468.292 300.003 472.173 300.003H516.442ZM615.887 300C615.887 326.02 636.979 347.11 662.999 347.11C636.979 347.11 615.885 368.204 615.885 394.224C615.885 368.204 594.788 347.107 568.767 347.107C594.788 347.107 615.887 326.02 615.887 300Z" fill="url(#paint1_linear_69_1687)"/>
<path d="M300.002 491.851C300.001 491.523 300 491.18 300 490.82V446.55C300 446.063 300.001 445.606 300.002 445.177V491.851ZM490.822 300.001C494.703 300.001 496.643 300.001 498.173 300.813C499.471 301.502 500.613 302.709 501.229 304.043C501.956 305.615 501.854 307.455 501.651 311.133C498.92 360.637 478.048 407.562 442.806 442.804C442.714 442.896 442.62 442.986 442.527 443.078L395.476 396.028C395.568 395.936 395.662 395.845 395.754 395.753C418.514 372.994 432.335 342.966 434.959 311.126C435.306 306.919 435.479 304.815 436.276 303.45C437.018 302.181 437.954 301.319 439.279 300.684C440.705 300.001 442.655 300.001 446.553 300.001H490.822Z" fill="#0A2D57"/>
<path d="M934.355 565.898C947.795 565.898 959.992 563.926 970.949 559.982C982.051 556.038 990.305 552.167 995.71 548.368L1023.76 604.026C1016.89 609.869 1005.13 615.786 988.479 621.775C971.971 627.764 952.323 630.759 929.534 630.759C908.206 630.759 888.193 627.034 869.494 619.584C850.796 612.133 834.288 601.689 819.972 588.249C805.802 574.663 794.627 558.813 786.446 540.699C778.412 522.439 774.394 502.644 774.394 481.316C774.394 459.988 778.412 440.194 786.446 421.934C794.481 403.527 805.583 387.531 819.753 373.946C834.069 360.36 850.577 349.842 869.275 342.392C888.12 334.796 908.206 330.997 929.534 330.997C952.323 330.997 971.971 333.992 988.479 339.981C1005.13 345.971 1016.89 351.887 1023.76 357.731L995.71 413.388C990.305 409.444 982.051 405.573 970.949 401.774C959.992 397.83 947.795 395.858 934.355 395.858C919.455 395.858 906.453 398.195 895.351 402.87C884.249 407.399 874.972 413.68 867.522 421.715C860.072 429.749 854.521 438.806 850.869 448.886C847.217 458.966 845.391 469.557 845.391 480.659C845.391 491.907 847.217 502.644 850.869 512.87C854.521 522.95 860.072 532.007 867.522 540.042C874.972 548.076 884.249 554.431 895.351 559.105C906.453 563.634 919.455 565.898 934.355 565.898ZM1200.82 463.787H1348.29V482.193C1348.29 502.937 1344.79 522.293 1337.78 540.261C1330.91 558.229 1321.05 574.006 1308.19 587.592C1295.34 601.177 1280 611.768 1262.18 619.365C1244.36 626.961 1224.63 630.759 1203.01 630.759C1180.66 630.759 1160.36 626.961 1142.1 619.365C1123.98 611.622 1108.35 600.885 1095.21 587.153C1082.06 573.422 1071.98 557.499 1064.97 539.384C1057.95 521.124 1054.45 501.549 1054.45 480.659C1054.45 459.915 1057.95 440.486 1064.97 422.372C1071.98 404.112 1082.06 388.189 1095.21 374.603C1108.35 360.871 1123.98 350.207 1142.1 342.611C1160.36 334.869 1180.66 330.997 1203.01 330.997C1221.27 330.997 1237.34 332.97 1251.22 336.914C1265.25 340.858 1277.3 346.117 1287.38 352.691C1297.46 359.264 1306 366.495 1313.01 374.384C1320.03 382.126 1325.87 389.723 1330.54 397.173L1268.31 426.535C1262.32 417.332 1254.14 409.298 1243.77 402.432C1233.55 395.566 1219.96 392.133 1203.01 392.133C1191.18 392.133 1180.3 394.47 1170.37 399.145C1160.58 403.82 1152.1 410.247 1144.95 418.428C1137.79 426.462 1132.24 435.885 1128.29 446.695C1124.5 457.359 1122.6 468.68 1122.6 480.659C1122.6 492.784 1124.5 504.178 1128.29 514.842C1132.24 525.506 1137.79 534.929 1144.95 543.109C1152.1 551.29 1160.58 557.718 1170.37 562.392C1180.3 566.921 1191.18 569.185 1203.01 569.185C1213.39 569.185 1222.81 567.87 1231.28 565.241C1239.75 562.611 1247.06 558.813 1253.19 553.846C1259.48 548.88 1264.37 543.036 1267.88 536.317C1271.53 529.451 1273.72 521.927 1274.45 513.747H1200.82V463.787ZM1446.62 396.296L1451.44 397.173V625.5H1385.92V336.256H1475.32L1592.55 564.145L1587.73 565.022V336.256H1653.25V625.5H1563.41L1446.62 396.296Z" fill="#0A2D57"/>
<path d="M3013.69 565.448H3128.36V621.413H3013.69V565.448Z" fill="#0A2D57"/>
<path d="M2927.67 621.407H2859.15L2838.46 565.442H2731.96L2711.27 621.407H2642.76L2755.7 341.582H2814.72L2927.67 621.407ZM3001.82 621.405H2939.07V341.581H3001.82V621.405ZM2785.21 439.487C2785.2 439.571 2781.91 460.438 2773.03 469.317C2764.15 478.203 2743.26 481.487 2743.2 481.496C2743.24 481.501 2764.14 484.785 2773.03 493.676C2781.91 502.553 2785.2 523.41 2785.21 523.505C2785.23 523.406 2788.51 502.552 2797.39 493.676C2806.28 484.786 2827.18 481.502 2827.22 481.496C2827.22 481.496 2806.29 478.214 2797.39 469.317C2788.51 460.438 2785.22 439.571 2785.21 439.487Z" fill="url(#paint2_linear_69_1687)"/>
<path d="M2632.03 341.587V621.412H2568.27V341.587H2632.03Z" fill="#0A2D57"/>
<path d="M2461.78 563.751C2494.35 563.751 2516.73 546.453 2516.73 546.453L2543.87 600.722C2543.87 600.722 2512.66 626.5 2451.95 626.5C2372.92 626.5 2300.33 562.056 2300.33 482.009C2300.33 401.623 2372.58 336.5 2451.95 336.5C2512.66 336.5 2543.87 362.278 2543.87 362.278L2516.73 416.547C2516.73 416.547 2494.35 399.249 2461.78 399.249C2397.68 399.249 2369.53 444.02 2369.53 481.33C2369.53 518.98 2397.68 563.751 2461.78 563.751Z" fill="#0A2D57"/>
<path d="M2002.89 481.33C2002.89 399.588 2067 336.5 2143.99 336.5C2221.66 336.5 2284.75 399.588 2284.75 481.33C2284.75 563.073 2224.38 626.5 2143.99 626.5C2061.23 626.5 2002.89 563.073 2002.89 481.33ZM2071.75 481.33C2071.75 523.05 2091.76 564.769 2143.99 564.769C2194.87 564.769 2215.9 523.05 2215.9 481.33C2215.9 439.611 2193.51 397.892 2143.99 397.892C2094.81 397.892 2071.75 439.611 2071.75 481.33Z" fill="#0A2D57"/>
<path d="M1890.66 336.5C1941.54 336.5 1977.49 362.956 1977.49 362.956L1951.71 413.833C1951.71 413.833 1923.9 394.5 1895.07 394.5C1873.36 394.5 1861.83 404.336 1861.83 419.599C1861.83 435.202 1888.29 446.395 1920.17 459.962C1951.37 473.19 1985.63 499.646 1985.63 536.278C1985.63 603.097 1934.75 626.5 1880.15 626.5C1814.68 626.5 1775 589.529 1775 589.529L1806.88 535.939C1806.88 535.939 1844.19 567.482 1875.4 567.482C1889.3 567.482 1915.76 566.126 1915.76 540.009C1915.76 519.658 1885.91 510.5 1852.67 493.88C1819.09 477.26 1799.42 451.143 1799.42 421.974C1799.42 369.74 1845.55 336.5 1890.66 336.5Z" fill="#0A2D57"/>
<path d="M3390.45 566.643C3403.94 566.643 3416.19 564.663 3427.2 560.702C3438.35 556.741 3446.63 552.853 3452.06 549.038L3480.23 604.934C3473.33 610.802 3461.53 616.744 3444.8 622.759C3428.22 628.774 3408.49 631.781 3385.6 631.781C3364.18 631.781 3344.09 628.04 3325.31 620.558C3306.53 613.076 3289.95 602.587 3275.57 589.09C3261.34 575.446 3250.12 559.528 3241.9 541.336C3233.84 522.998 3229.8 503.119 3229.8 481.7C3229.8 460.28 3233.84 440.402 3241.9 422.063C3249.97 403.578 3261.12 387.514 3275.35 373.87C3289.73 360.226 3306.31 349.663 3325.09 342.181C3344.01 334.552 3364.18 330.738 3385.6 330.738C3408.49 330.738 3428.22 333.745 3444.8 339.76C3461.53 345.775 3473.33 351.717 3480.23 357.585L3452.06 413.481C3446.63 409.52 3438.35 405.632 3427.2 401.818C3416.19 397.856 3403.94 395.876 3390.45 395.876C3375.48 395.876 3362.42 398.223 3351.27 402.918C3340.12 407.466 3330.81 413.774 3323.33 421.843C3315.84 429.912 3310.27 439.008 3306.6 449.131C3302.93 459.253 3301.1 469.89 3301.1 481.04C3301.1 492.336 3302.93 503.119 3306.6 513.389C3310.27 523.511 3315.84 532.607 3323.33 540.676C3330.81 548.745 3340.12 555.127 3351.27 559.821C3362.42 564.369 3375.48 566.643 3390.45 566.643ZM3522.06 336.019H3587.85V568.844H3693.26V626.5H3522.06V336.019ZM3895.8 336.019H3961.6V514.489C3961.6 538.402 3956.9 559.161 3947.51 576.766C3938.12 594.224 3924.7 607.795 3907.24 617.477C3889.78 627.013 3868.95 631.781 3844.74 631.781C3820.39 631.781 3799.41 627.013 3781.81 617.477C3764.2 607.795 3750.7 594.224 3741.32 576.766C3732.07 559.161 3727.45 538.402 3727.45 514.489V336.019H3793.03V510.968C3793.03 524.172 3795.08 535.321 3799.19 544.417C3803.45 553.513 3809.46 560.408 3817.24 565.103C3825.01 569.651 3834.18 571.925 3844.74 571.925C3855.16 571.925 3864.18 569.651 3871.81 565.103C3879.44 560.408 3885.31 553.513 3889.42 544.417C3893.67 535.321 3895.8 524.172 3895.8 510.968V336.019ZM4009.89 336.019H4109.57C4126.15 336.019 4141.48 338.293 4155.57 342.841C4169.8 347.389 4181.24 354.871 4189.9 365.287C4198.7 375.557 4203.1 389.494 4203.1 407.099C4203.1 418.689 4200.9 429.032 4196.5 438.128C4192.24 447.223 4186.52 454.706 4179.33 460.574C4172.29 466.295 4164.59 470.11 4156.23 472.017C4163.56 472.897 4170.68 475.025 4177.57 478.399C4184.62 481.626 4190.92 486.174 4196.5 492.043C4202.22 497.764 4206.69 504.953 4209.92 513.609C4213.3 522.118 4214.98 532.24 4214.98 543.977C4214.98 560.262 4211.32 574.639 4203.98 587.109C4196.79 599.432 4186.23 609.115 4172.29 616.157C4158.5 623.052 4141.56 626.5 4121.46 626.5H4009.89V336.019ZM4075.68 573.905H4105.61C4115 573.905 4122.63 572.512 4128.5 569.724C4134.51 566.79 4138.92 562.682 4141.7 557.401C4144.49 551.973 4145.88 545.517 4145.88 538.035C4145.88 526.299 4142.22 517.716 4134.88 512.288C4127.69 506.713 4117.57 503.926 4104.51 503.926H4075.68V573.905ZM4075.68 452.432H4102.31C4110.09 452.432 4116.54 451.038 4121.68 448.25C4126.96 445.463 4130.92 441.575 4133.56 436.587C4136.35 431.452 4137.74 425.584 4137.74 418.982C4137.74 407.099 4134.37 399.103 4127.62 394.996C4120.87 390.741 4111.63 388.614 4099.89 388.614H4075.68V452.432Z" fill="#0A2D57"/>
<defs>
<linearGradient id="paint0_linear_69_1687" x1="347.142" y1="615.858" x2="624.343" y2="346.401" gradientUnits="userSpaceOnUse">
<stop stop-color="#4A98FF"/>
<stop offset="1" stop-color="#4BFFC0"/>
</linearGradient>
<linearGradient id="paint1_linear_69_1687" x1="346.697" y1="614.346" x2="615.113" y2="347.934" gradientUnits="userSpaceOnUse">
<stop stop-color="#4A98FF"/>
<stop offset="1" stop-color="#4BFFC0"/>
</linearGradient>
<linearGradient id="paint2_linear_69_1687" x1="2622.26" y1="479.726" x2="3001.82" y2="481.494" gradientUnits="userSpaceOnUse">
<stop offset="0.0817308" stop-color="#4A98FF"/>
<stop offset="1" stop-color="#4BFFC0"/>
</linearGradient>
</defs>
</svg>
