<svg width="5244" height="1185" viewBox="0 0 5244 1185" fill="none" xmlns="http://www.w3.org/2000/svg">
<rect width="5244" height="1184.48" fill="white"/>
<path d="M558.979 342.244C565.657 342.244 568.997 342.244 571.652 343.667C573.886 344.864 575.887 347.008 576.927 349.318C578.163 352.065 577.948 355.188 577.517 361.431C572.903 428.197 544.329 491.316 496.701 538.942C449.074 586.569 385.954 615.142 319.187 619.756C312.944 620.187 309.822 620.402 307.075 619.166C304.764 618.126 302.62 616.125 301.423 613.892C300 611.236 300 607.897 300 601.218L300.001 547.964C300.001 541.252 300.001 537.895 301.146 535.466C302.226 533.174 303.628 531.619 305.797 530.309C308.096 528.92 311.787 528.54 319.168 527.777C361.594 523.396 401.459 504.565 431.892 474.133C462.324 443.701 481.154 403.836 485.536 361.411C486.298 354.03 486.68 350.34 488.068 348.041C489.378 345.872 490.933 344.47 493.225 343.39C495.654 342.245 499.011 342.244 505.724 342.244H558.979ZM364.897 342.243C400.736 342.243 429.79 371.296 429.79 407.134C429.79 442.972 400.736 472.024 364.897 472.024C329.059 472.024 300.006 442.972 300.006 407.134C300.006 371.296 329.059 342.243 364.897 342.243Z" fill="#0A2D57"/>
<path d="M300.003 583.269C300.003 576.59 300.003 573.25 301.426 570.595C302.623 568.361 304.766 566.36 307.077 565.32C309.824 564.084 312.946 564.299 319.189 564.73C385.957 569.344 449.076 597.918 496.704 645.545C544.332 693.172 572.906 756.29 577.52 823.057C577.951 829.299 578.166 832.421 576.93 835.168C575.89 837.479 573.889 839.622 571.655 840.819C569 842.242 565.66 842.242 558.981 842.242H505.726C499.013 842.242 495.657 842.242 493.228 841.098C490.935 840.017 489.38 838.615 488.07 836.445C486.682 834.146 486.301 830.456 485.539 823.075C481.157 780.65 462.327 740.785 431.895 710.354C401.462 679.922 361.597 661.092 319.171 656.71C311.79 655.948 308.099 655.566 305.8 654.178C303.631 652.868 302.229 651.313 301.148 649.021C300.004 646.591 300.003 643.235 300.003 636.523V583.269ZM300.002 777.343C300.002 741.505 329.055 712.452 364.894 712.452C400.732 712.452 429.786 741.505 429.786 777.343C429.786 813.181 400.732 842.233 364.894 842.233C329.055 842.233 300.002 813.181 300.002 777.343Z" fill="url(#paint0_linear_54_3404)"/>
<path d="M541.021 842.24C534.343 842.24 531.003 842.24 528.348 840.817C526.114 839.62 524.113 837.477 523.073 835.166C521.837 832.419 522.052 829.297 522.483 823.054C527.097 756.288 555.671 693.169 603.299 645.542C650.926 597.915 714.046 569.342 780.814 564.729C787.056 564.297 790.178 564.082 792.925 565.318C795.236 566.359 797.38 568.359 798.577 570.593C800 573.248 800 576.588 800 583.267L800 636.521C800 643.233 799.999 646.589 798.855 649.019C797.774 651.311 796.372 652.866 794.203 654.176C791.904 655.564 788.213 655.945 780.832 656.707C738.406 661.089 698.541 679.92 668.108 710.352C637.676 740.783 618.846 780.648 614.464 823.073C613.702 830.454 613.32 834.144 611.932 836.443C610.622 838.612 609.067 840.015 606.775 841.095C604.346 842.24 600.989 842.24 594.276 842.24L541.021 842.24ZM735.099 842.241C699.26 842.241 670.206 813.189 670.206 777.351C670.206 741.512 699.26 712.46 735.099 712.46C770.937 712.46 799.99 741.512 799.99 777.351C799.99 813.189 770.937 842.241 735.099 842.241Z" fill="#0A2D57"/>
<path d="M594.268 342.246C600.981 342.246 604.338 342.246 606.767 343.391C609.06 344.471 610.614 345.874 611.924 348.043C613.312 350.342 613.694 354.032 614.456 361.413C618.838 403.838 637.668 443.703 668.1 474.135C698.533 504.567 738.398 523.397 780.824 527.778C788.205 528.541 791.896 528.922 794.195 530.311C796.364 531.621 797.766 533.176 798.846 535.468C799.991 537.897 799.991 541.254 799.991 547.966L799.992 601.22C799.992 607.899 799.992 611.238 798.569 613.894C797.372 616.127 795.228 618.128 792.917 619.168C790.17 620.404 787.048 620.189 780.805 619.758C714.038 615.144 650.918 586.57 603.291 538.943C555.663 491.317 527.089 428.198 522.475 361.432C522.044 355.189 521.829 352.067 523.065 349.32C524.105 347.01 526.106 344.866 528.34 343.669C530.995 342.246 534.334 342.246 541.013 342.246H594.268ZM735.106 342.242C735.106 378.082 764.157 407.133 799.998 407.133C764.157 407.133 735.103 436.187 735.103 472.026C735.103 436.187 706.044 407.129 670.204 407.129C706.044 407.129 735.106 378.082 735.106 342.242Z" fill="url(#paint1_linear_54_3404)"/>
<path d="M300.006 603.882C300.002 603.057 300 602.171 300 601.218L300.001 547.964C300.001 546.975 300.002 546.06 300.006 545.209V603.882ZM558.979 342.244C565.657 342.244 568.997 342.244 571.652 343.667C573.886 344.864 575.887 347.008 576.927 349.318C578.163 352.065 577.948 355.188 577.517 361.431C572.903 428.197 544.329 491.316 496.701 538.942C496.575 539.069 496.447 539.194 496.32 539.32L431.51 474.51C431.637 474.384 431.765 474.259 431.892 474.133C462.324 443.701 481.154 403.836 485.536 361.411C486.298 354.03 486.68 350.34 488.068 348.041C489.378 345.872 490.933 344.47 493.225 343.39C495.654 342.245 499.011 342.244 505.724 342.244H558.979Z" fill="#0A2D57"/>
<path d="M1118.69 587.498C1160.76 587.498 1189.68 565.147 1189.68 565.147L1224.74 635.267C1224.74 635.267 1184.42 668.574 1105.98 668.574C1003.86 668.574 910.08 585.307 910.08 481.88C910.08 378.015 1003.43 293.872 1105.98 293.872C1184.42 293.872 1224.74 327.179 1224.74 327.179L1189.68 397.298C1189.68 397.298 1160.76 374.948 1118.69 374.948C1035.86 374.948 999.482 432.796 999.482 481.004C999.482 529.649 1035.86 587.498 1118.69 587.498ZM1583.2 459.529V537.976C1563.48 629.57 1487.22 668.574 1416.23 668.574C1318.93 668.574 1240.05 584.868 1240.05 481.442C1240.05 377.577 1314.55 293.872 1416.23 293.872C1479.77 293.872 1524.03 317.537 1555.59 355.665L1501.68 414.828C1480.65 381.083 1453.04 368.374 1421.05 368.374C1370.21 368.374 1329.01 418.772 1329.01 481.442C1329.01 542.797 1370.21 592.757 1421.05 592.757C1460.49 592.757 1499.49 567.338 1499.49 523.075H1416.23V459.529H1583.2ZM1702.01 437.617V662H1619.62V300.445H1702.01L1845.75 524.828H1846.63V300.445H1929.02V662H1846.63L1702.88 437.617H1702.01Z" fill="#0A2D57"/>
<path d="M3596.5 586.58H3740.03V656.632H3596.5V586.58Z" fill="#0A2D57"/>
<path d="M3488.82 656.625H3403.06L3377.16 586.572H3243.85L3217.95 656.625H3132.19L3273.57 306.362H3347.44L3488.82 656.625ZM3581.63 656.624H3503.09V306.36H3581.63V656.624ZM3310.5 428.913C3310.49 429.007 3306.38 455.135 3295.26 466.251C3284.12 477.388 3257.92 481.497 3257.92 481.497C3257.95 481.502 3284.13 485.611 3295.26 496.741C3306.39 507.869 3310.5 534.038 3310.5 534.08C3310.51 534.025 3314.62 507.866 3325.75 496.741C3336.86 485.628 3362.97 481.514 3363.09 481.497C3363 481.483 3336.87 477.37 3325.75 466.251C3314.63 455.134 3310.52 429.007 3310.5 428.913Z" fill="url(#paint2_linear_54_3404)"/>
<path d="M3118.77 306.368V656.631H3038.95V306.368H3118.77Z" fill="#0A2D57"/>
<path d="M2905.66 584.456C2946.42 584.456 2974.44 562.804 2974.44 562.804L3008.41 630.733C3008.41 630.733 2969.35 663 2893.35 663C2794.43 663 2703.57 582.333 2703.57 482.137C2703.57 381.516 2794 300 2893.35 300C2969.35 300 3008.41 332.267 3008.41 332.267L2974.44 400.196C2974.44 400.196 2946.42 378.544 2905.66 378.544C2825.42 378.544 2790.18 434.586 2790.18 481.288C2790.18 528.414 2825.42 584.456 2905.66 584.456Z" fill="#0A2D57"/>
<path d="M2331.26 481.288C2331.26 378.968 2411.5 300 2507.88 300C2605.1 300 2684.07 378.968 2684.07 481.288C2684.07 583.607 2608.5 663 2507.88 663C2404.28 663 2331.26 583.607 2331.26 481.288ZM2417.45 481.288C2417.45 533.509 2442.49 585.73 2507.88 585.73C2571.56 585.73 2597.88 533.509 2597.88 481.288C2597.88 429.067 2569.86 376.846 2507.88 376.846C2446.32 376.846 2417.45 429.067 2417.45 481.288Z" fill="#0A2D57"/>
<path d="M2190.78 300C2254.46 300 2299.46 333.116 2299.46 333.116L2267.2 396.8C2267.2 396.8 2232.38 372.6 2196.29 372.6C2169.12 372.6 2154.69 384.912 2154.69 404.018C2154.69 423.547 2187.8 437.558 2227.71 454.54C2266.77 471.098 2309.65 504.214 2309.65 550.067C2309.65 633.705 2245.97 663 2177.61 663C2095.67 663 2046 616.723 2046 616.723L2085.91 549.642C2085.91 549.642 2132.61 589.126 2171.67 589.126C2189.08 589.126 2222.19 587.428 2222.19 554.737C2222.19 529.263 2184.83 517.8 2143.22 496.997C2101.19 476.193 2076.57 443.502 2076.57 406.989C2076.57 341.607 2134.31 300 2190.78 300Z" fill="#0A2D57"/>
<path d="M4049.65 588.179C4091.9 588.179 4120.95 565.733 4120.95 565.733L4156.16 636.153C4156.16 636.153 4115.67 669.602 4036.89 669.602C3934.34 669.602 3840.15 585.979 3840.15 482.11C3840.15 377.801 3933.9 293.297 4036.89 293.297C4115.67 293.297 4156.16 326.746 4156.16 326.746L4120.95 397.166C4120.95 397.166 4091.9 374.72 4049.65 374.72C3966.47 374.72 3929.94 432.816 3929.94 481.229C3929.94 530.083 3966.47 588.179 4049.65 588.179ZM4270.56 299.899V590.38H4395.56V663H4187.82V299.899H4270.56ZM4715.71 299.899V534.044C4715.71 623.829 4666.42 669.602 4573.99 669.602C4481.57 669.602 4432.27 623.829 4432.27 534.044V299.899H4515.02V509.837C4515.02 570.574 4533.5 588.179 4573.99 588.179C4614.49 588.179 4632.97 570.574 4632.97 509.837V299.899H4715.71ZM4764.19 299.899H4876.86C4939.36 299.899 4988.65 323.226 4988.65 392.325C4988.65 425.774 4974.13 454.382 4943.32 470.226C4988.65 478.149 5020.78 503.236 5020.78 561.772C5020.78 621.628 4977.21 663 4901.95 663H4764.19V299.899ZM4846.93 442.059H4853.53C4889.18 442.059 4908.55 431.056 4908.55 400.687C4908.55 374.72 4889.62 363.717 4853.53 363.717H4846.93V442.059ZM4846.93 599.182H4872.9C4912.07 599.182 4933.64 587.299 4933.64 558.691C4933.64 525.242 4912.07 513.358 4872.9 513.358H4846.93V599.182Z" fill="#0A2D57"/>
<path d="M5031.03 743.1H4946.91V796.147H5010.17V811.684H4946.91V867.394H5031.03V882.931H4929.15V727.563H5031.03V743.1Z" fill="#0A2D57"/>
<path d="M4885.02 727.563H4903.89L4844.85 882.931H4824.43L4766.28 727.563H4785.15L4835.09 864.065L4885.02 727.563Z" fill="#0A2D57"/>
<path d="M4723.45 727.563H4741.21V882.931H4723.45V727.563Z" fill="#0A2D57"/>
<path d="M4578.64 727.563H4695.17V743.1H4645.9V882.931H4628.14V743.1H4578.64V727.563Z" fill="#0A2D57"/>
<path d="M4498.55 743.1H4491.22L4439.95 882.931H4421.97L4478.79 727.563H4510.75L4567.35 882.931H4549.37L4498.55 743.1ZM4449.72 826.554H4540.27V842.091H4449.72V826.554Z" fill="#0A2D57"/>
<path d="M4383.38 727.563H4401.13V882.931H4383.38V727.563Z" fill="#0A2D57"/>
<path d="M4238.56 727.563H4355.09V743.1H4305.81V882.931H4288.06V743.1H4238.56V727.563Z" fill="#0A2D57"/>
<path d="M4192.41 727.563H4210.16V882.931H4192.41V727.563Z" fill="#0A2D57"/>
<path d="M4154.67 727.563V882.931H4136.69L4053.68 755.973V882.931H4035.92V727.563H4053.9L4136.91 854.299V727.563H4154.67Z" fill="#0A2D57"/>
<path d="M3980.43 727.563H3998.18V882.931H3980.43V727.563Z" fill="#0A2D57"/>
<path d="M3773.43 727.563H3889.96V743.1H3840.68V882.931H3822.93V743.1H3773.43V727.563Z" fill="#0A2D57"/>
<path d="M3745 727.563V882.931H3727.03L3644.02 755.973V882.931H3626.26V727.563H3644.24L3727.25 854.299V727.563H3745Z" fill="#0A2D57"/>
<path d="M3592.88 743.1H3508.76V796.147H3572.01V811.684H3508.76V867.394H3592.88V882.931H3491V727.563H3592.88V743.1Z" fill="#0A2D57"/>
<path d="M3380.59 727.563C3397.75 727.563 3412.4 730.744 3424.53 737.107C3436.81 743.322 3446.21 752.274 3452.72 763.963C3459.38 775.653 3462.71 789.562 3462.71 805.691C3462.71 821.671 3459.38 835.433 3452.72 846.974C3446.21 858.516 3436.81 867.394 3424.53 873.609C3412.4 879.823 3397.75 882.931 3380.59 882.931H3329.32V727.563H3380.59ZM3380.59 867.394C3401.75 867.394 3417.73 861.993 3428.53 851.191C3439.33 840.39 3444.73 825.223 3444.73 805.691C3444.73 786.011 3439.33 770.696 3428.53 759.746C3417.73 748.649 3401.75 743.1 3380.59 743.1H3347.07V867.394H3380.59Z" fill="#0A2D57"/>
<path d="M3173.69 727.563H3191.44V825.667C3191.44 835.876 3193.29 844.163 3196.99 850.525C3200.69 856.888 3205.65 861.549 3211.86 864.508C3218.23 867.468 3225.4 868.948 3233.39 868.948C3241.23 868.948 3248.26 867.468 3254.48 864.508C3260.69 861.549 3265.65 856.888 3269.35 850.525C3273.05 844.163 3274.9 835.876 3274.9 825.667V727.563H3292.65V825.445C3292.65 835.655 3291.03 844.459 3287.77 851.857C3284.66 859.256 3280.3 865.396 3274.67 870.279C3269.05 875.014 3262.69 878.566 3255.59 880.933C3248.48 883.301 3241.01 884.484 3233.17 884.484C3222.52 884.484 3212.68 882.413 3203.65 878.27C3194.62 873.979 3187.37 867.468 3181.9 858.738C3176.42 850.008 3173.69 838.91 3173.69 825.445V727.563Z" fill="#0A2D57"/>
<path d="M3029.78 727.563H3146.31V743.1H3097.03V882.931H3079.28V743.1H3029.78V727.563Z" fill="#0A2D57"/>
<path d="M2920.31 843.414C2921.2 847.409 2923.05 851.404 2925.86 855.399C2928.82 859.246 2932.81 862.502 2937.84 865.165C2943.02 867.681 2949.61 868.938 2957.6 868.938C2968.99 868.938 2977.43 866.275 2982.9 860.948C2988.37 855.621 2991.11 849.332 2991.11 842.082C2991.11 836.311 2989.56 831.576 2986.45 827.877C2983.34 824.178 2979.13 821.144 2973.8 818.777C2968.47 816.261 2962.48 814.042 2955.82 812.118C2949.9 810.49 2943.98 808.715 2938.07 806.791C2932.3 804.72 2927.04 802.204 2922.31 799.245C2917.57 796.137 2913.8 792.142 2910.99 787.259C2908.18 782.376 2906.77 776.31 2906.77 769.059C2906.77 760.329 2908.84 752.782 2912.99 746.42C2917.13 739.909 2922.97 734.878 2930.52 731.327C2938.07 727.776 2946.87 726 2956.93 726C2965.66 726 2973.28 727.258 2979.79 729.773C2986.3 732.289 2991.7 735.84 2995.99 740.427C3000.43 744.866 3003.69 750.045 3005.76 755.964L2990 761.957C2988.97 758.553 2986.97 755.298 2984.01 752.191C2981.05 748.935 2977.2 746.272 2972.47 744.2C2967.73 742.129 2962.33 741.093 2956.27 741.093C2950.35 741.093 2944.95 742.129 2940.06 744.2C2935.33 746.272 2931.56 749.231 2928.74 753.078C2925.93 756.926 2924.53 761.587 2924.53 767.061C2924.53 772.98 2926.15 777.715 2929.41 781.267C2932.81 784.67 2937.25 787.481 2942.73 789.701C2948.35 791.772 2954.49 793.77 2961.15 795.694C2967.22 797.617 2973.06 799.689 2978.68 801.908C2984.45 804.128 2989.56 806.865 2994 810.121C2998.58 813.376 3002.21 817.445 3004.87 822.328C3007.54 827.211 3008.87 833.204 3008.87 840.306C3008.87 848.149 3007.02 855.473 3003.32 862.28C2999.62 868.938 2994 874.339 2986.45 878.482C2979.05 882.477 2969.51 884.475 2957.82 884.475C2948.05 884.475 2939.47 882.995 2932.07 880.036C2924.67 876.929 2918.61 872.786 2913.87 867.607C2909.14 862.428 2905.88 856.509 2904.11 849.85L2920.31 843.414Z" fill="#0A2D57"/>
<path d="M2739.01 727.563C2756.18 727.563 2770.83 730.744 2782.96 737.107C2795.24 743.322 2804.64 752.274 2811.15 763.963C2817.81 775.653 2821.14 789.562 2821.14 805.691C2821.14 821.671 2817.81 835.433 2811.15 846.974C2804.64 858.516 2795.24 867.394 2782.96 873.609C2770.83 879.823 2756.18 882.931 2739.01 882.931H2687.74V727.563H2739.01ZM2739.01 867.394C2760.17 867.394 2776.15 861.993 2786.96 851.191C2797.76 840.39 2803.16 825.223 2803.16 805.691C2803.16 786.011 2797.76 770.696 2786.96 759.746C2776.15 748.649 2760.17 743.1 2739.01 743.1H2705.5V867.394H2739.01Z" fill="#0A2D57"/>
<path d="M2582.48 884.475C2571.53 884.475 2561.32 882.551 2551.85 878.704C2542.53 874.857 2534.32 869.456 2527.22 862.502C2520.26 855.399 2514.79 847.039 2510.79 837.421C2506.94 827.655 2505.02 816.927 2505.02 805.238C2505.02 793.548 2506.94 782.894 2510.79 773.276C2514.79 763.51 2520.26 755.15 2527.22 748.195C2534.32 741.093 2542.53 735.618 2551.85 731.771C2561.32 727.924 2571.53 726 2582.48 726C2593.28 726 2603.35 727.924 2612.67 731.771C2622.14 735.618 2630.35 741.093 2637.3 748.195C2644.26 755.15 2649.66 763.51 2653.51 773.276C2657.5 782.894 2659.5 793.548 2659.5 805.238C2659.5 816.927 2657.5 827.655 2653.51 837.421C2649.66 847.039 2644.26 855.399 2637.3 862.502C2630.35 869.456 2622.14 874.857 2612.67 878.704C2603.35 882.551 2593.28 884.475 2582.48 884.475ZM2582.48 868.938C2593.58 868.938 2603.57 866.349 2612.45 861.17C2621.32 855.991 2628.35 848.667 2633.53 839.196C2638.71 829.578 2641.3 818.259 2641.3 805.238C2641.3 792.068 2638.71 780.749 2633.53 771.279C2628.35 761.661 2621.32 754.336 2612.45 749.305C2603.57 744.126 2593.58 741.537 2582.48 741.537C2571.24 741.537 2561.1 744.126 2552.07 749.305C2543.2 754.336 2536.17 761.661 2530.99 771.279C2525.81 780.749 2523.22 792.068 2523.22 805.238C2523.22 818.259 2525.81 829.578 2530.99 839.196C2536.17 848.667 2543.2 855.991 2552.07 861.17C2561.1 866.349 2571.24 868.938 2582.48 868.938Z" fill="#0A2D57"/>
<path d="M2409.08 884.475C2398.13 884.475 2387.92 882.551 2378.45 878.704C2369.13 874.857 2360.91 869.456 2353.81 862.502C2346.86 855.399 2341.38 847.039 2337.39 837.421C2333.54 827.655 2331.62 816.927 2331.62 805.238C2331.62 793.548 2333.54 782.894 2337.39 773.276C2341.38 763.51 2346.86 755.15 2353.81 748.195C2360.91 741.093 2369.13 735.618 2378.45 731.771C2387.92 727.924 2398.13 726 2409.08 726C2419.88 726 2429.94 727.924 2439.26 731.771C2448.73 735.618 2456.94 741.093 2463.9 748.195C2470.85 755.15 2476.25 763.51 2480.1 773.276C2484.1 782.894 2486.09 793.548 2486.09 805.238C2486.09 816.927 2484.1 827.655 2480.1 837.421C2476.25 847.039 2470.85 855.399 2463.9 862.502C2456.94 869.456 2448.73 874.857 2439.26 878.704C2429.94 882.551 2419.88 884.475 2409.08 884.475ZM2409.08 868.938C2420.18 868.938 2430.16 866.349 2439.04 861.17C2447.92 855.991 2454.95 848.667 2460.13 839.196C2465.31 829.578 2467.89 818.259 2467.89 805.238C2467.89 792.068 2465.31 780.749 2460.13 771.279C2454.95 761.661 2447.92 754.336 2439.04 749.305C2430.16 744.126 2420.18 741.537 2409.08 741.537C2397.83 741.537 2387.7 744.126 2378.67 749.305C2369.79 754.336 2362.76 761.661 2357.59 771.279C2352.41 780.749 2349.82 792.068 2349.82 805.238C2349.82 818.259 2352.41 829.578 2357.59 839.196C2362.76 848.667 2369.79 855.991 2378.67 861.17C2387.7 866.349 2397.83 868.938 2409.08 868.938Z" fill="#0A2D57"/>
<path d="M2291.77 774.164C2286.15 763.066 2278.68 754.928 2269.36 749.749C2260.03 744.422 2249.68 741.759 2238.28 741.759C2227.04 741.759 2216.9 744.348 2207.88 749.527C2198.85 754.706 2191.75 762.031 2186.57 771.501C2181.39 780.971 2178.8 792.216 2178.8 805.238C2178.8 818.111 2181.39 829.283 2186.57 838.753C2191.75 848.223 2198.85 855.547 2207.88 860.726C2216.9 865.905 2227.04 868.494 2238.28 868.494C2246.72 868.494 2254.56 867.089 2261.81 864.277C2269.06 861.318 2275.35 857.175 2280.68 851.848C2286 846.373 2290.07 839.862 2292.88 832.316V814.338H2239.61V799.911H2310.86V833.204C2307.46 843.118 2302.28 851.922 2295.32 859.616C2288.37 867.311 2280.01 873.377 2270.24 877.816C2260.48 882.256 2249.82 884.475 2238.28 884.475C2227.33 884.475 2217.12 882.551 2207.65 878.704C2198.33 874.857 2190.12 869.456 2183.02 862.502C2176.06 855.399 2170.59 847.039 2166.59 837.421C2162.75 827.655 2160.82 816.927 2160.82 805.238C2160.82 793.548 2162.75 782.894 2166.59 773.276C2170.59 763.51 2176.06 755.15 2183.02 748.195C2190.12 741.093 2198.33 735.618 2207.65 731.771C2217.12 727.924 2227.33 726 2238.28 726C2248.49 726 2258.04 727.702 2266.91 731.105C2275.94 734.36 2283.93 739.169 2290.88 745.532C2297.84 751.747 2303.31 759.367 2307.31 768.393L2291.77 774.164Z" fill="#0A2D57"/>
<path d="M2058.9 773.507C2058.9 764.185 2056.17 756.787 2050.69 751.312C2045.22 745.837 2036.27 743.1 2023.84 743.1H1986.99V803.915H2024.06C2032.2 803.915 2038.78 802.657 2043.81 800.142C2048.99 797.626 2052.76 794.075 2055.13 789.488C2057.65 784.901 2058.9 779.574 2058.9 773.507ZM2023.84 727.563C2035.97 727.563 2045.88 729.635 2053.58 733.778C2061.42 737.921 2067.26 743.47 2071.11 750.424C2074.96 757.231 2076.88 764.925 2076.88 773.507C2076.88 779.574 2075.85 785.345 2073.77 790.82C2071.85 796.295 2068.74 801.178 2064.45 805.469C2060.16 809.76 2054.69 813.163 2048.03 815.679C2041.37 818.194 2033.38 819.452 2024.06 819.452H1986.99V882.931H1969.24V727.563H2023.84ZM2036.71 812.793L2079.77 882.931H2059.57L2017.62 812.793H2036.71Z" fill="#0A2D57"/>
<path d="M1863.96 884.475C1853.01 884.475 1842.8 882.551 1833.33 878.704C1824.01 874.857 1815.8 869.456 1808.69 862.502C1801.74 855.399 1796.27 847.039 1792.27 837.421C1788.42 827.655 1786.5 816.927 1786.5 805.238C1786.5 793.548 1788.42 782.894 1792.27 773.276C1796.27 763.51 1801.74 755.15 1808.69 748.195C1815.8 741.093 1824.01 735.618 1833.33 731.771C1842.8 727.924 1853.01 726 1863.96 726C1874.76 726 1884.82 727.924 1894.15 731.771C1903.62 735.618 1911.83 741.093 1918.78 748.195C1925.74 755.15 1931.14 763.51 1934.98 773.276C1938.98 782.894 1940.98 793.548 1940.98 805.238C1940.98 816.927 1938.98 827.655 1934.98 837.421C1931.14 847.039 1925.74 855.399 1918.78 862.502C1911.83 869.456 1903.62 874.857 1894.15 878.704C1884.82 882.551 1874.76 884.475 1863.96 884.475ZM1863.96 868.938C1875.06 868.938 1885.05 866.349 1893.92 861.17C1902.8 855.991 1909.83 848.667 1915.01 839.196C1920.19 829.578 1922.78 818.259 1922.78 805.238C1922.78 792.068 1920.19 780.749 1915.01 771.279C1909.83 761.661 1902.8 754.336 1893.92 749.305C1885.05 744.126 1875.06 741.537 1863.96 741.537C1852.72 741.537 1842.58 744.126 1833.55 749.305C1824.68 754.336 1817.65 761.661 1812.47 771.279C1807.29 780.749 1804.7 792.068 1804.7 805.238C1804.7 818.259 1807.29 829.578 1812.47 839.196C1817.65 848.667 1824.68 855.991 1833.55 861.17C1842.58 866.349 1852.72 868.938 1863.96 868.938Z" fill="#0A2D57"/>
<path d="M1665.56 727.563H1767.44V743.1H1683.32V796.147H1746.57V811.684H1683.32V882.931H1665.56V727.563Z" fill="#0A2D57"/>
<path d="M1547.86 727.563H1565.62V882.931H1547.86V727.563Z" fill="#0A2D57"/>
<path d="M1458.43 743.1H1451.11L1399.84 882.931H1381.86L1438.68 727.563H1470.64L1527.23 882.931H1509.26L1458.43 743.1ZM1409.6 826.554H1500.16V842.091H1409.6V826.554Z" fill="#0A2D57"/>
<path d="M1303.15 743.1H1219.03V796.147H1282.29V811.684H1219.03V867.394H1303.15V882.931H1201.28V727.563H1303.15V743.1Z" fill="#0A2D57"/>
<path d="M1044.79 727.563H1062.55V796.147H1145.78V727.563H1163.54V882.931H1145.78V811.684H1062.55V882.931H1044.79V727.563Z" fill="#0A2D57"/>
<path d="M900 727.563H1016.52V743.1H967.251V882.931H949.495V743.1H900V727.563Z" fill="#0A2D57"/>
<defs>
<linearGradient id="paint0_linear_54_3404" x1="364.912" y1="777.333" x2="746.587" y2="406.32" gradientUnits="userSpaceOnUse">
<stop stop-color="#4A98FF"/>
<stop offset="1" stop-color="#4BFFC0"/>
</linearGradient>
<linearGradient id="paint1_linear_54_3404" x1="364.486" y1="775.062" x2="734.064" y2="408.242" gradientUnits="userSpaceOnUse">
<stop stop-color="#4A98FF"/>
<stop offset="1" stop-color="#4BFFC0"/>
</linearGradient>
<linearGradient id="paint2_linear_54_3404" x1="3106.53" y1="479.28" x2="3581.63" y2="481.492" gradientUnits="userSpaceOnUse">
<stop offset="0.0817308" stop-color="#4A98FF"/>
<stop offset="1" stop-color="#4BFFC0"/>
</linearGradient>
</defs>
</svg>
