<svg width="800" height="800" viewBox="0 0 800 800" fill="none" xmlns="http://www.w3.org/2000/svg">
<path d="M408.979 150.002C415.657 150.002 418.997 150.002 421.652 151.425C423.886 152.622 425.887 154.765 426.927 157.076C428.163 159.823 427.948 162.945 427.517 169.188C422.903 235.955 394.329 299.073 346.701 346.7C299.074 394.327 235.954 422.9 169.187 427.514C162.944 427.945 159.822 428.16 157.075 426.924C154.764 425.884 152.62 423.883 151.423 421.649C150 418.994 150 415.654 150 408.976L150.001 355.722C150.001 349.009 150.001 345.653 151.146 343.224C152.226 340.931 153.628 339.376 155.797 338.066C158.096 336.678 161.787 336.297 169.168 335.535C211.594 331.153 251.459 312.322 281.892 281.891C312.324 251.459 331.154 211.594 335.536 169.169C336.298 161.788 336.68 158.098 338.068 155.799C339.378 153.63 340.933 152.228 343.225 151.147C345.654 150.003 349.011 150.002 355.724 150.002H408.979ZM214.897 150.001C250.736 150.001 279.79 179.053 279.79 214.892C279.79 250.73 250.736 279.782 214.897 279.782C179.059 279.782 150.006 250.73 150.006 214.892C150.006 179.054 179.059 150.001 214.897 150.001Z" fill="white"/>
<path d="M150.003 391.026C150.003 384.347 150.003 381.008 151.426 378.353C152.623 376.119 154.766 374.118 157.077 373.078C159.824 371.842 162.946 372.057 169.189 372.488C235.957 377.102 299.076 405.676 346.704 453.303C394.332 500.93 422.906 564.048 427.52 630.814C427.951 637.057 428.166 640.179 426.93 642.926C425.89 645.237 423.889 647.38 421.655 648.577C419 650 415.66 650 408.981 650H355.726C349.013 650 345.657 650 343.228 648.855C340.935 647.775 339.38 646.372 338.07 644.203C336.682 641.904 336.301 638.214 335.539 630.833C331.157 588.408 312.327 548.543 281.895 518.111C251.462 487.68 211.597 468.85 169.171 464.468C161.79 463.705 158.099 463.324 155.8 461.936C153.631 460.626 152.229 459.071 151.148 456.778C150.004 454.349 150.003 450.993 150.003 444.281V391.026ZM150.002 585.101C150.002 549.262 179.055 520.21 214.894 520.21C250.732 520.21 279.786 549.262 279.786 585.101C279.786 620.939 250.732 649.991 214.894 649.991C179.055 649.991 150.002 620.939 150.002 585.101Z" fill="url(#paint0_linear_40_1227)"/>
<path d="M391.021 649.998C384.343 649.998 381.003 649.998 378.348 648.575C376.114 647.378 374.113 645.234 373.073 642.924C371.837 640.177 372.052 637.055 372.483 630.812C377.097 564.045 405.671 500.927 453.299 453.3C500.926 405.673 564.046 377.1 630.814 372.486C637.056 372.055 640.178 371.84 642.925 373.076C645.236 374.116 647.38 376.117 648.577 378.351C650 381.006 650 384.346 650 391.024L650 444.278C650 450.991 649.999 454.347 648.855 456.776C647.774 459.069 646.372 460.624 644.203 461.934C641.904 463.322 638.213 463.703 630.832 464.465C588.406 468.847 548.541 487.678 518.108 518.109C487.676 548.541 468.846 588.406 464.464 630.831C463.702 638.212 463.32 641.902 461.932 644.201C460.622 646.37 459.067 647.772 456.775 648.853C454.346 649.997 450.989 649.998 444.276 649.998L391.021 649.998ZM585.099 649.999C549.26 649.999 520.206 620.947 520.206 585.108C520.206 549.27 549.26 520.218 585.099 520.218C620.937 520.218 649.99 549.27 649.99 585.108C649.99 620.946 620.937 649.999 585.099 649.999Z" fill="white"/>
<path d="M444.27 150.004C450.982 150.004 454.339 150.004 456.769 151.148C459.061 152.229 460.615 153.632 461.925 155.801C463.313 158.1 463.695 161.79 464.457 169.171C468.839 211.596 487.669 251.461 518.102 281.893C548.534 312.324 588.399 331.154 630.825 335.536C638.206 336.298 641.897 336.68 644.196 338.068C646.365 339.378 647.767 340.933 648.848 343.226C649.992 345.655 649.992 349.012 649.992 355.724L649.993 408.978C649.993 415.656 649.993 418.996 648.57 421.651C647.373 423.885 645.229 425.886 642.918 426.926C640.171 428.162 637.049 427.947 630.807 427.516C564.039 422.902 500.92 394.328 453.292 346.701C405.664 299.074 377.09 235.956 372.477 169.189C372.045 162.947 371.83 159.825 373.066 157.078C374.107 154.767 376.107 152.624 378.341 151.427C380.996 150.004 384.336 150.004 391.015 150.004H444.27ZM585.107 150C585.107 185.84 614.159 214.89 649.999 214.891C614.159 214.891 585.104 243.945 585.104 279.784C585.104 243.944 556.046 214.887 520.205 214.887C556.046 214.887 585.107 185.84 585.107 150Z" fill="url(#paint1_linear_40_1227)"/>
<path d="M150.006 411.64C150.002 410.815 150 409.929 150 408.976L150.001 355.722C150.001 354.733 150.002 353.817 150.006 352.967V411.64ZM408.979 150.002C415.657 150.002 418.997 150.002 421.652 151.425C423.886 152.622 425.887 154.765 426.927 157.076C428.163 159.823 427.948 162.945 427.517 169.188C422.903 235.955 394.329 299.073 346.701 346.7C346.575 346.827 346.447 346.952 346.32 347.078L281.51 282.268C281.637 282.142 281.765 282.017 281.892 281.891C312.324 251.459 331.154 211.594 335.536 169.169C336.298 161.788 336.68 158.098 338.068 155.799C339.378 153.63 340.933 152.228 343.225 151.147C345.654 150.003 349.011 150.002 355.724 150.002H408.979Z" fill="white"/>
<defs>
<linearGradient id="paint0_linear_40_1227" x1="214.912" y1="585.091" x2="596.587" y2="214.078" gradientUnits="userSpaceOnUse">
<stop stop-color="#4A98FF"/>
<stop offset="1" stop-color="#4BFFC0"/>
</linearGradient>
<linearGradient id="paint1_linear_40_1227" x1="214.487" y1="582.82" x2="584.064" y2="216" gradientUnits="userSpaceOnUse">
<stop stop-color="#4A98FF"/>
<stop offset="1" stop-color="#4BFFC0"/>
</linearGradient>
</defs>
</svg>
