<svg width="3460" height="320" viewBox="275 285 3460 320" fill="none" xmlns="http://www.w3.org/2000/svg">
<path d="M471.355 529.898C484.795 529.898 496.992 527.926 507.949 523.982C519.051 520.038 527.305 516.167 532.71 512.368L560.758 568.026C553.892 573.869 542.132 579.786 525.479 585.775C508.971 591.764 489.323 594.759 466.534 594.759C445.206 594.759 425.193 591.034 406.494 583.584C387.796 576.133 371.288 565.689 356.972 552.249C342.802 538.663 331.627 522.813 323.446 504.699C315.412 486.439 311.394 466.644 311.394 445.316C311.394 423.988 315.412 404.194 323.446 385.934C331.481 367.527 342.583 351.531 356.753 337.946C371.069 324.36 387.577 313.842 406.275 306.392C425.12 298.796 445.206 294.997 466.534 294.997C489.323 294.997 508.971 297.992 525.479 303.981C542.132 309.971 553.892 315.887 560.758 321.731L532.71 377.388C527.305 373.444 519.051 369.573 507.949 365.774C496.992 361.83 484.795 359.858 471.355 359.858C456.455 359.858 443.453 362.195 432.351 366.87C421.249 371.399 411.972 377.68 404.522 385.715C397.072 393.749 391.521 402.806 387.869 412.886C384.217 422.966 382.391 433.557 382.391 444.659C382.391 455.907 384.217 466.644 387.869 476.87C391.521 486.95 397.072 496.007 404.522 504.042C411.972 512.076 421.249 518.431 432.351 523.105C443.453 527.634 456.455 529.898 471.355 529.898ZM737.823 427.787H885.294V446.193C885.294 466.937 881.788 486.293 874.776 504.261C867.91 522.229 858.049 538.006 845.194 551.592C832.339 565.177 817 575.768 799.178 583.365C781.356 590.961 761.635 594.759 740.015 594.759C717.664 594.759 697.358 590.961 679.098 583.365C660.984 575.622 645.353 564.885 632.206 551.153C619.058 537.422 608.978 521.499 601.967 503.384C594.955 485.124 591.449 465.549 591.449 444.659C591.449 423.915 594.955 404.486 601.967 386.372C608.978 368.112 619.058 352.189 632.206 338.603C645.353 324.871 660.984 314.207 679.098 306.611C697.358 298.869 717.664 294.997 740.015 294.997C758.275 294.997 774.344 296.97 788.222 300.914C802.246 304.858 814.298 310.117 824.377 316.691C834.457 323.264 843.003 330.495 850.015 338.384C857.027 346.126 862.87 353.723 867.545 361.173L805.314 390.535C799.324 381.332 791.144 373.298 780.772 366.432C770.546 359.566 756.96 356.133 740.015 356.133C728.182 356.133 717.299 358.47 707.365 363.145C697.578 367.82 689.105 374.247 681.947 382.428C674.789 390.462 669.238 399.885 665.293 410.695C661.495 421.359 659.596 432.68 659.596 444.659C659.596 456.784 661.495 468.178 665.293 478.842C669.238 489.506 674.789 498.929 681.947 507.109C689.105 515.29 697.578 521.718 707.365 526.392C717.299 530.921 728.182 533.185 740.015 533.185C750.386 533.185 759.809 531.87 768.282 529.241C776.754 526.611 784.059 522.813 790.194 517.846C796.476 512.88 801.369 507.036 804.875 500.317C808.527 493.451 810.719 485.927 811.449 477.747H737.823V427.787ZM983.615 360.296L988.436 361.173V589.5H922.918V300.256H1012.32L1129.55 528.145L1124.73 529.022V300.256H1190.25V589.5H1100.41L983.615 360.296Z" fill="white"/>
<path d="M2546.42 528.658H2660.69V584.43H2546.42V528.658Z" fill="white"/>
<path d="M2494.67 584.624H2426.39L2405.77 528.851H2299.64L2279.02 584.624H2210.74L2323.3 305.763H2382.11L2494.67 584.624ZM2568.56 584.622H2506.03V305.762H2568.56V584.622ZM2352.7 403.332C2352.69 403.416 2349.42 424.21 2340.57 433.059C2331.7 441.926 2310.84 445.196 2310.84 445.196C2310.87 445.2 2331.71 448.472 2340.57 457.333C2349.43 466.199 2352.7 487.06 2352.7 487.06C2352.7 487.06 2355.97 466.199 2364.84 457.333C2373.7 448.474 2394.53 445.202 2394.57 445.196C2394.57 445.196 2373.71 441.926 2364.84 433.059C2355.99 424.21 2352.72 403.415 2352.7 403.332Z" fill="url(#paint0_linear_54_3406)"/>
<path d="M2166.08 305.569V584.429H2102.53V305.569H2166.08Z" fill="white"/>
<path d="M1996.41 526.968C2028.86 526.968 2051.17 509.729 2051.17 509.729L2078.21 563.811C2078.21 563.811 2047.12 589.5 1986.61 589.5C1907.86 589.5 1835.52 525.278 1835.52 445.507C1835.52 365.398 1907.52 300.5 1986.61 300.5C2047.12 300.5 2078.21 326.189 2078.21 326.189L2051.17 380.271C2051.17 380.271 2028.86 363.032 1996.41 363.032C1932.53 363.032 1904.48 407.65 1904.48 444.831C1904.48 482.35 1932.53 526.968 1996.41 526.968Z" fill="white"/>
<path d="M1539.11 444.831C1539.11 363.37 1602.99 300.5 1679.72 300.5C1757.12 300.5 1819.99 363.37 1819.99 444.831C1819.99 526.292 1759.83 589.5 1679.72 589.5C1597.25 589.5 1539.11 526.292 1539.11 444.831ZM1607.72 444.831C1607.72 486.406 1627.67 527.982 1679.72 527.982C1730.42 527.982 1751.38 486.406 1751.38 444.831C1751.38 403.256 1729.07 361.68 1679.72 361.68C1630.71 361.68 1607.72 403.256 1607.72 444.831Z" fill="white"/>
<path d="M1427.26 300.5C1477.96 300.5 1513.79 326.865 1513.79 326.865L1488.1 377.567C1488.1 377.567 1460.39 358.3 1431.66 358.3C1410.02 358.3 1398.53 368.102 1398.53 383.313C1398.53 398.861 1424.9 410.016 1456.67 423.536C1487.77 436.719 1521.91 463.084 1521.91 499.589C1521.91 566.177 1471.2 589.5 1416.78 589.5C1351.55 589.5 1312 552.657 1312 552.657L1343.77 499.251C1343.77 499.251 1380.95 530.686 1412.05 530.686C1425.91 530.686 1452.27 529.334 1452.27 503.307C1452.27 483.026 1422.53 473.9 1389.4 457.337C1355.94 440.775 1336.34 414.748 1336.34 385.679C1336.34 333.625 1382.31 300.5 1427.26 300.5Z" fill="white"/>
<path d="M2922.78 530.143C2936.28 530.143 2948.53 528.163 2959.53 524.202C2970.68 520.241 2978.97 516.353 2984.4 512.538L3012.56 568.434C3005.67 574.302 2993.86 580.244 2977.13 586.259C2960.56 592.274 2940.82 595.281 2917.94 595.281C2896.52 595.281 2876.42 591.54 2857.64 584.058C2838.86 576.576 2822.28 566.087 2807.91 552.59C2793.68 538.946 2782.45 523.028 2774.24 504.836C2766.17 486.498 2762.13 466.619 2762.13 445.2C2762.13 423.78 2766.17 403.902 2774.24 385.563C2782.31 367.078 2793.46 351.014 2807.69 337.37C2822.06 323.726 2838.64 313.163 2857.42 305.681C2876.35 298.052 2896.52 294.238 2917.94 294.238C2940.82 294.238 2960.56 297.245 2977.13 303.26C2993.86 309.275 3005.67 315.217 3012.56 321.085L2984.4 376.981C2978.97 373.02 2970.68 369.132 2959.53 365.318C2948.53 361.356 2936.28 359.376 2922.78 359.376C2907.82 359.376 2894.76 361.723 2883.61 366.418C2872.46 370.966 2863.14 377.274 2855.66 385.343C2848.18 393.412 2842.6 402.508 2838.94 412.631C2835.27 422.753 2833.43 433.39 2833.43 444.54C2833.43 455.836 2835.27 466.619 2838.94 476.889C2842.6 487.011 2848.18 496.107 2855.66 504.176C2863.14 512.245 2872.46 518.627 2883.61 523.321C2894.76 527.869 2907.82 530.143 2922.78 530.143ZM3054.39 299.519H3120.19V532.344H3225.6V590H3054.39V299.519ZM3428.13 299.519H3493.93V477.989C3493.93 501.902 3489.24 522.661 3479.85 540.266C3470.46 557.724 3457.03 571.295 3439.58 580.977C3422.12 590.513 3401.29 595.281 3377.08 595.281C3352.72 595.281 3331.75 590.513 3314.14 580.977C3296.54 571.295 3283.04 557.724 3273.65 540.266C3264.41 522.661 3259.79 501.902 3259.79 477.989V299.519H3325.36V474.468C3325.36 487.672 3327.42 498.821 3331.53 507.917C3335.78 517.013 3341.8 523.908 3349.57 528.603C3357.35 533.151 3366.52 535.425 3377.08 535.425C3387.49 535.425 3396.52 533.151 3404.15 528.603C3411.77 523.908 3417.64 517.013 3421.75 507.917C3426.01 498.821 3428.13 487.672 3428.13 474.468V299.519ZM3542.22 299.519H3641.91C3658.49 299.519 3673.82 301.793 3687.9 306.341C3702.13 310.889 3713.57 318.371 3722.23 328.787C3731.03 339.057 3735.43 352.994 3735.43 370.599C3735.43 382.189 3733.23 392.532 3728.83 401.628C3724.58 410.723 3718.86 418.206 3711.67 424.074C3704.63 429.795 3696.92 433.61 3688.56 435.517C3695.9 436.397 3703.01 438.525 3709.91 441.899C3716.95 445.126 3723.26 449.674 3728.83 455.543C3734.55 461.264 3739.03 468.453 3742.26 477.109C3745.63 485.618 3747.32 495.74 3747.32 507.477C3747.32 523.762 3743.65 538.139 3736.31 550.609C3729.13 562.932 3718.56 572.615 3704.63 579.657C3690.84 586.552 3673.89 590 3653.79 590H3542.22V299.519ZM3608.02 537.405H3637.95C3647.34 537.405 3654.97 536.012 3660.83 533.224C3666.85 530.29 3671.25 526.182 3674.04 520.901C3676.82 515.473 3678.22 509.017 3678.22 501.535C3678.22 489.799 3674.55 481.216 3667.22 475.788C3660.03 470.213 3649.9 467.426 3636.85 467.426H3608.02V537.405ZM3608.02 415.932H3634.65C3642.42 415.932 3648.88 414.538 3654.01 411.75C3659.29 408.963 3663.25 405.075 3665.89 400.087C3668.68 394.952 3670.08 389.084 3670.08 382.482C3670.08 370.599 3666.7 362.603 3659.95 358.496C3653.2 354.241 3643.96 352.114 3632.23 352.114H3608.02V415.932Z" fill="white"/>
<defs>
<linearGradient id="paint0_linear_54_3406" x1="2189.51" y1="448.84" x2="2582.62" y2="450.67" gradientUnits="userSpaceOnUse">
<stop offset="0.0817308" stop-color="#4A98FF"/>
<stop offset="1" stop-color="#4BFFC0"/>
</linearGradient>
</defs>
</svg>
