<svg width="4537" height="963" viewBox="0 0 4537 963" fill="none" xmlns="http://www.w3.org/2000/svg">
<path d="M490.823 300.001C494.704 300.001 496.644 300.001 498.174 300.813C499.472 301.502 500.614 302.709 501.23 304.043C501.957 305.616 501.855 307.455 501.652 311.133C498.921 360.638 478.049 407.563 442.807 442.804C407.564 478.046 360.638 498.918 311.132 501.649C307.453 501.852 305.614 501.953 304.042 501.227C302.708 500.611 301.5 499.469 300.812 498.17C300 496.641 300 494.7 300 490.82V446.551C300 442.654 300 440.704 300.683 439.279C301.317 437.953 302.18 437.016 303.449 436.275C304.814 435.478 306.918 435.304 311.125 434.958C342.966 432.334 372.994 418.513 395.754 395.753C418.514 372.994 432.335 342.967 434.959 311.126C435.306 306.919 435.479 304.815 436.276 303.451C437.018 302.182 437.955 301.319 439.28 300.684C440.706 300.002 442.655 300.002 446.553 300.002L490.823 300.001ZM347.116 300C373.135 300 394.228 321.093 394.228 347.112C394.227 373.13 373.135 394.222 347.116 394.222C321.097 394.222 300.005 373.13 300.005 347.112C300.005 321.093 321.097 300.001 347.116 300Z" fill="#0A2D57"/>
<path d="M300.002 472.182C300.002 468.301 300.002 466.361 300.813 464.831C301.502 463.533 302.71 462.391 304.044 461.774C305.616 461.048 307.456 461.15 311.134 461.353C360.639 464.084 407.565 484.956 442.807 520.197C478.049 555.439 498.921 602.364 501.652 651.869C501.855 655.547 501.957 657.387 501.23 658.959C500.614 660.293 499.472 661.501 498.174 662.189C496.644 663.001 494.704 663.001 490.823 663.001H446.554C442.656 663.001 440.707 663.001 439.281 662.318C437.956 661.684 437.019 660.821 436.277 659.552C435.48 658.187 435.307 656.083 434.96 651.876C432.336 620.036 418.515 590.009 395.755 567.249C372.995 544.489 342.967 530.668 311.127 528.044C306.92 527.697 304.816 527.524 303.451 526.727C302.182 525.985 301.319 525.049 300.685 523.724C300.002 522.298 300.002 520.349 300.002 516.451V472.182ZM300.002 615.885C300.002 589.866 321.094 568.774 347.113 568.774C373.132 568.774 394.225 589.866 394.225 615.885C394.225 641.903 373.132 662.996 347.113 662.996C321.094 662.996 300.002 641.903 300.002 615.885Z" fill="url(#paint0_linear_69_1687)"/>
<path d="M472.181 663C468.301 663 466.36 663 464.83 662.188C463.532 661.5 462.389 660.292 461.772 658.958C461.046 657.386 461.148 655.546 461.351 651.868C464.082 602.364 484.955 555.438 520.197 520.196C555.44 484.955 602.366 464.083 651.871 461.352C655.549 461.149 657.389 461.047 658.961 461.773C660.295 462.39 661.502 463.532 662.19 464.83C663.002 466.36 663.002 468.3 663.002 472.181L663.002 516.45C663.002 520.348 663.002 522.297 662.319 523.723C661.685 525.048 660.823 525.985 659.554 526.727C658.189 527.524 656.085 527.696 651.878 528.043C620.037 530.666 590.009 544.488 567.249 567.248C544.489 590.008 530.668 620.035 528.044 651.875C527.697 656.082 527.524 658.186 526.727 659.551C525.985 660.82 525.048 661.683 523.723 662.317C522.297 663 520.348 663 516.45 663L472.181 663ZM615.885 663.001C589.866 663.001 568.773 641.908 568.773 615.89C568.774 589.871 589.866 568.78 615.885 568.779C641.904 568.779 662.997 589.871 662.997 615.89C662.997 641.908 641.904 663.001 615.885 663.001Z" fill="#0A2D57"/>
<path d="M516.447 300.002C520.344 300.002 522.294 300.002 523.719 300.685C525.045 301.319 525.981 302.181 526.723 303.45C527.52 304.815 527.694 306.919 528.04 311.126C530.664 342.966 544.485 372.993 567.245 395.753C590.006 418.513 620.033 432.334 651.874 434.958C656.082 435.305 658.185 435.478 659.55 436.275C660.819 437.017 661.682 437.953 662.317 439.278C662.999 440.704 662.999 442.653 662.999 446.551V490.82C662.999 494.701 662.999 496.641 662.188 498.171C661.499 499.469 660.292 500.611 658.957 501.228C657.385 501.954 655.546 501.852 651.867 501.649C602.362 498.918 555.436 478.046 520.194 442.805C484.951 407.563 464.079 360.637 461.348 311.133C461.145 307.455 461.043 305.615 461.769 304.043C462.385 302.709 463.528 301.502 464.826 300.813C466.356 300.002 468.297 300.002 472.177 300.002H516.447ZM615.889 300C615.889 326.02 636.981 347.11 663.001 347.11C636.981 347.11 615.887 368.204 615.887 394.224C615.887 368.204 594.79 347.108 568.77 347.108C594.79 347.108 615.889 326.02 615.889 300Z" fill="url(#paint1_linear_69_1687)"/>
<path d="M300.005 492.515C300.002 491.994 300 491.431 300 490.82V446.55C300 445.907 300.002 445.318 300.005 444.775V492.515ZM490.823 300.001C494.704 300.001 496.644 300.001 498.174 300.813C499.472 301.501 500.614 302.708 501.23 304.042C501.957 305.614 501.855 307.454 501.652 311.132C498.921 360.637 478.049 407.562 442.807 442.804C442.715 442.896 442.621 442.986 442.529 443.077L395.477 396.026C395.569 395.934 395.662 395.844 395.754 395.752C418.514 372.993 432.335 342.965 434.959 311.125C435.306 306.919 435.479 304.815 436.276 303.45C437.018 302.181 437.955 301.319 439.28 300.684C440.706 300.001 442.655 300.001 446.553 300.001H490.823Z" fill="#0A2D57"/>
<path d="M934.357 565.899C947.796 565.899 959.994 563.927 970.951 559.982C982.053 556.038 990.307 552.167 995.712 548.369L1023.76 604.026C1016.89 609.87 1005.13 615.786 988.481 621.775C971.973 627.765 952.325 630.759 929.536 630.759C908.208 630.759 888.195 627.034 869.496 619.584C850.798 612.134 834.29 601.689 819.974 588.249C805.804 574.664 794.629 558.814 786.448 540.7C778.414 522.439 774.396 502.645 774.396 481.317C774.396 459.989 778.414 440.195 786.448 421.934C794.483 403.528 805.585 387.532 819.755 373.946C834.071 360.361 850.578 349.843 869.277 342.392C888.122 334.796 908.208 330.998 929.536 330.998C952.325 330.998 971.973 333.993 988.481 339.982C1005.13 345.971 1016.89 351.888 1023.76 357.731L995.712 413.388C990.307 409.444 982.053 405.573 970.951 401.775C959.994 397.831 947.796 395.859 934.357 395.859C919.456 395.859 906.455 398.196 895.353 402.871C884.251 407.399 874.974 413.681 867.524 421.715C860.074 429.75 854.523 438.807 850.871 448.887C847.219 458.966 845.393 469.557 845.393 480.66C845.393 491.908 847.219 502.645 850.871 512.871C854.523 522.95 860.074 532.008 867.524 540.042C874.974 548.077 884.251 554.431 895.353 559.106C906.455 563.634 919.456 565.899 934.357 565.899ZM1200.83 463.787H1348.3V482.193C1348.3 502.937 1344.79 522.293 1337.78 540.261C1330.91 558.229 1321.05 574.006 1308.2 587.592C1295.34 601.178 1280 611.769 1262.18 619.365C1244.36 626.961 1224.64 630.759 1203.02 630.759C1180.67 630.759 1160.36 626.961 1142.1 619.365C1123.99 611.623 1108.36 600.886 1095.21 587.154C1082.06 573.422 1071.98 557.499 1064.97 539.385C1057.96 521.124 1054.45 501.549 1054.45 480.66C1054.45 459.916 1057.96 440.487 1064.97 422.373C1071.98 404.112 1082.06 388.189 1095.21 374.604C1108.36 360.872 1123.99 350.208 1142.1 342.611C1160.36 334.869 1180.67 330.998 1203.02 330.998C1221.28 330.998 1237.35 332.97 1251.22 336.914C1265.25 340.858 1277.3 346.117 1287.38 352.691C1297.46 359.265 1306 366.496 1313.02 374.384C1320.03 382.127 1325.87 389.723 1330.55 397.173L1268.32 426.536C1262.33 417.333 1254.15 409.298 1243.77 402.432C1233.55 395.566 1219.96 392.133 1203.02 392.133C1191.18 392.133 1180.3 394.471 1170.37 399.145C1160.58 403.82 1152.11 410.248 1144.95 418.428C1137.79 426.463 1132.24 435.885 1128.3 446.695C1124.5 457.359 1122.6 468.681 1122.6 480.66C1122.6 492.784 1124.5 504.179 1128.3 514.843C1132.24 525.507 1137.79 534.929 1144.95 543.11C1152.11 551.291 1160.58 557.718 1170.37 562.393C1180.3 566.921 1191.18 569.186 1203.02 569.186C1213.39 569.186 1222.81 567.871 1231.28 565.241C1239.76 562.612 1247.06 558.814 1253.2 553.847C1259.48 548.88 1264.37 543.037 1267.88 536.317C1271.53 529.451 1273.72 521.928 1274.45 513.747H1200.83V463.787ZM1446.62 396.297L1451.44 397.173V625.5H1385.92V336.257H1475.32L1592.55 564.146L1587.73 565.022V336.257H1653.25V625.5H1563.41L1446.62 396.297Z" fill="#0A2D57"/>
<path d="M3013.69 565.448H3128.36V621.413H3013.69V565.448Z" fill="#0A2D57"/>
<path d="M2927.67 621.407H2859.16L2838.46 565.443H2731.96L2711.27 621.407H2642.76L2755.71 341.582H2814.72L2927.67 621.407ZM3001.82 621.406H2939.07V341.581H3001.82V621.406ZM2785.21 439.489C2785.2 439.573 2781.91 460.439 2773.03 469.319C2764.15 478.205 2743.25 481.49 2743.2 481.497C2743.25 481.505 2764.15 484.789 2773.03 493.676C2781.92 502.56 2785.2 523.445 2785.21 523.506C2785.22 523.439 2788.51 502.559 2797.39 493.676C2806.28 484.787 2827.18 481.503 2827.22 481.497C2827.22 481.497 2806.29 478.216 2797.39 469.319C2788.51 460.439 2785.23 439.573 2785.21 439.489Z" fill="url(#paint2_linear_69_1687)"/>
<path d="M2632.03 341.588V621.412H2568.27V341.588H2632.03Z" fill="#0A2D57"/>
<path d="M2461.79 563.752C2494.35 563.752 2516.73 546.454 2516.73 546.454L2543.87 600.723C2543.87 600.723 2512.66 626.5 2451.95 626.5C2372.92 626.5 2300.34 562.056 2300.34 482.009C2300.34 401.623 2372.58 336.5 2451.95 336.5C2512.66 336.5 2543.87 362.278 2543.87 362.278L2516.73 416.547C2516.73 416.547 2494.35 399.249 2461.79 399.249C2397.68 399.249 2369.53 444.021 2369.53 481.331C2369.53 518.98 2397.68 563.752 2461.79 563.752Z" fill="#0A2D57"/>
<path d="M2002.89 481.331C2002.89 399.588 2067 336.5 2143.99 336.5C2221.67 336.5 2284.75 399.588 2284.75 481.331C2284.75 563.074 2224.38 626.5 2143.99 626.5C2061.23 626.5 2002.89 563.074 2002.89 481.331ZM2071.75 481.331C2071.75 523.05 2091.76 564.769 2143.99 564.769C2194.87 564.769 2215.9 523.05 2215.9 481.331C2215.9 439.612 2193.51 397.892 2143.99 397.892C2094.81 397.892 2071.75 439.612 2071.75 481.331Z" fill="#0A2D57"/>
<path d="M1890.66 336.5C1941.54 336.5 1977.49 362.957 1977.49 362.957L1951.72 413.834C1951.72 413.834 1923.9 394.5 1895.07 394.5C1873.36 394.5 1861.83 404.337 1861.83 419.6C1861.83 435.202 1888.29 446.395 1920.17 459.962C1951.38 473.191 1985.63 499.647 1985.63 536.278C1985.63 603.097 1934.76 626.5 1880.15 626.5C1814.69 626.5 1775 589.53 1775 589.53L1806.88 535.939C1806.88 535.939 1844.19 567.483 1875.4 567.483C1889.31 567.483 1915.76 566.126 1915.76 540.009C1915.76 519.658 1885.91 510.5 1852.67 493.881C1819.1 477.261 1799.42 451.144 1799.42 421.974C1799.42 369.74 1845.55 336.5 1890.66 336.5Z" fill="#0A2D57"/>
<path d="M3390.45 566.644C3403.94 566.644 3416.19 564.663 3427.2 560.702C3438.35 556.741 3446.64 552.853 3452.06 549.039L3480.23 604.934C3473.34 610.803 3461.53 616.744 3444.8 622.759C3428.22 628.774 3408.49 631.782 3385.61 631.782C3364.19 631.782 3344.09 628.041 3325.31 620.559C3306.53 613.077 3289.95 602.587 3275.58 589.09C3261.34 575.446 3250.12 559.529 3241.91 541.337C3233.84 522.998 3229.8 503.12 3229.8 481.7C3229.8 460.281 3233.84 440.402 3241.91 422.064C3249.97 403.578 3261.12 387.514 3275.36 373.87C3289.73 360.226 3306.31 349.664 3325.09 342.181C3344.01 334.553 3364.19 330.738 3385.61 330.738C3408.49 330.738 3428.22 333.746 3444.8 339.761C3461.53 345.776 3473.34 351.717 3480.23 357.586L3452.06 413.481C3446.64 409.52 3438.35 405.632 3427.2 401.818C3416.19 397.857 3403.94 395.876 3390.45 395.876C3375.48 395.876 3362.43 398.224 3351.28 402.918C3340.13 407.466 3330.81 413.775 3323.33 421.844C3315.85 429.912 3310.27 439.008 3306.6 449.131C3302.94 459.254 3301.1 469.89 3301.1 481.04C3301.1 492.337 3302.94 503.12 3306.6 513.389C3310.27 523.512 3315.85 532.608 3323.33 540.677C3330.81 548.746 3340.13 555.127 3351.28 559.822C3362.43 564.37 3375.48 566.644 3390.45 566.644ZM3522.06 336.02H3587.86V568.844H3693.27V626.5H3522.06V336.02ZM3895.8 336.02H3961.6V514.489C3961.6 538.403 3956.9 559.162 3947.51 576.767C3938.13 594.225 3924.7 607.795 3907.24 617.478C3889.79 627.014 3868.95 631.782 3844.75 631.782C3820.39 631.782 3799.41 627.014 3781.81 617.478C3764.2 607.795 3750.71 594.225 3741.32 576.767C3732.08 559.162 3727.45 538.403 3727.45 514.489V336.02H3793.03V510.968C3793.03 524.172 3795.09 535.322 3799.19 544.418C3803.45 553.514 3809.46 560.409 3817.24 565.103C3825.01 569.651 3834.18 571.925 3844.75 571.925C3855.16 571.925 3864.19 569.651 3871.81 565.103C3879.44 560.409 3885.31 553.514 3889.42 544.418C3893.67 535.322 3895.8 524.172 3895.8 510.968V336.02ZM4009.89 336.02H4109.58C4126.15 336.02 4141.49 338.294 4155.57 342.842C4169.8 347.39 4181.24 354.872 4189.9 365.288C4198.7 375.557 4203.1 389.495 4203.1 407.099C4203.1 418.689 4200.9 429.032 4196.5 438.128C4192.25 447.224 4186.52 454.706 4179.34 460.574C4172.29 466.296 4164.59 470.11 4156.23 472.018C4163.56 472.898 4170.68 475.025 4177.58 478.399C4184.62 481.627 4190.93 486.175 4196.5 492.043C4202.22 497.765 4206.7 504.953 4209.92 513.609C4213.3 522.118 4214.99 532.241 4214.99 543.978C4214.99 560.262 4211.32 574.639 4203.98 587.11C4196.79 599.433 4186.23 609.116 4172.29 616.158C4158.5 623.053 4141.56 626.5 4121.46 626.5H4009.89V336.02ZM4075.69 573.906H4105.62C4115 573.906 4122.63 572.512 4128.5 569.725C4134.52 566.791 4138.92 562.683 4141.71 557.401C4144.49 551.973 4145.89 545.518 4145.89 538.036C4145.89 526.299 4142.22 517.717 4134.88 512.289C4127.69 506.714 4117.57 503.926 4104.51 503.926H4075.69V573.906ZM4075.69 452.432H4102.31C4110.09 452.432 4116.54 451.038 4121.68 448.251C4126.96 445.463 4130.92 441.576 4133.56 436.588C4136.35 431.453 4137.74 425.585 4137.74 418.983C4137.74 407.099 4134.37 399.104 4127.62 394.996C4120.87 390.742 4111.63 388.614 4099.89 388.614H4075.69V452.432Z" fill="#0A2D57"/>
<defs>
<linearGradient id="paint0_linear_69_1687" x1="347.144" y1="615.859" x2="624.347" y2="346.403" gradientUnits="userSpaceOnUse">
<stop stop-color="#4A98FF"/>
<stop offset="1" stop-color="#4BFFC0"/>
</linearGradient>
<linearGradient id="paint1_linear_69_1687" x1="346.702" y1="614.345" x2="615.116" y2="347.935" gradientUnits="userSpaceOnUse">
<stop stop-color="#4A98FF"/>
<stop offset="1" stop-color="#4BFFC0"/>
</linearGradient>
<linearGradient id="paint2_linear_69_1687" x1="2622.26" y1="479.727" x2="3001.82" y2="481.494" gradientUnits="userSpaceOnUse">
<stop offset="0.0817308" stop-color="#4A98FF"/>
<stop offset="1" stop-color="#4BFFC0"/>
</linearGradient>
</defs>
</svg>
