<svg width="1297" height="500" viewBox="0 0 1297 500" fill="none" xmlns="http://www.w3.org/2000/svg">
<path d="M965.219 351.682H1010.13C1035.04 351.682 1054.69 360.98 1054.69 388.523C1054.69 401.856 1048.9 413.259 1036.62 419.575C1054.69 422.733 1067.5 432.733 1067.5 456.066C1067.5 479.925 1050.13 496.416 1020.13 496.416H965.219V351.682ZM998.201 408.347H1000.83C1015.04 408.347 1022.76 403.961 1022.76 391.856C1022.76 381.506 1015.22 377.12 1000.83 377.12H998.201V408.347ZM998.201 470.978H1008.55C1024.17 470.978 1032.76 466.241 1032.76 454.838C1032.76 441.505 1024.17 436.768 1008.55 436.768H998.201V470.978Z" fill="#0A2D57"/>
<path d="M945.893 351.682V445.013C945.893 480.802 926.244 499.047 889.401 499.047C852.559 499.047 832.91 480.802 832.91 445.013V351.682H865.893V435.364C865.893 459.574 873.261 466.592 889.401 466.592C905.542 466.592 912.91 459.574 912.91 435.364V351.682H945.893Z" fill="#0A2D57"/>
<path d="M768.451 351.682V467.469H818.276V496.416H735.469V351.682H768.451Z" fill="#0A2D57"/>
<path d="M680.396 466.59C697.238 466.59 708.817 457.642 708.817 457.642L722.852 485.712C722.852 485.712 706.711 499.045 675.308 499.045C634.431 499.045 596.887 465.712 596.887 424.31C596.887 382.731 634.255 349.048 675.308 349.048C706.711 349.048 722.852 362.381 722.852 362.381L708.817 390.451C708.817 390.451 697.238 381.503 680.396 381.503C647.238 381.503 632.676 404.661 632.676 423.959C632.676 443.432 647.238 466.59 680.396 466.59Z" fill="#0A2D57"/>
<path d="M1237.59 292.947H1296.9V321.895H1237.59V292.947Z" fill="#0A2D57"/>
<path d="M1193.09 321.892H1157.66L1146.95 292.944H1091.87L1081.17 321.892H1045.73L1104.15 177.154H1134.67L1193.09 321.892ZM1231.45 321.892H1198.99V177.154H1231.45V321.892ZM1119.41 227.796C1119.4 227.867 1117.7 238.638 1113.11 243.225C1108.52 247.817 1097.73 249.517 1097.68 249.524C1097.73 249.532 1108.52 251.231 1113.11 255.823C1117.7 260.41 1119.4 271.182 1119.41 271.253C1119.42 271.182 1121.12 260.41 1125.71 255.823C1130.3 251.234 1141.08 249.533 1141.14 249.524C1141.08 249.516 1130.3 247.815 1125.71 243.225C1121.12 238.637 1119.42 227.866 1119.41 227.796Z" fill="url(#paint0_linear_594_1096)"/>
<path d="M1040.18 177.157V321.894H1007.2V177.157H1040.18Z" fill="#0A2D57"/>
<path d="M952.118 292.07C968.96 292.07 980.539 283.123 980.539 283.123L994.574 311.193C994.574 311.193 978.434 324.526 947.03 324.526C906.153 324.526 868.609 291.193 868.609 249.79C868.609 208.211 905.978 174.526 947.03 174.526C978.434 174.526 994.574 187.86 994.574 187.86L980.539 215.93C980.539 215.93 968.96 206.983 952.118 206.983C918.96 206.983 904.399 230.14 904.399 249.439C904.399 268.912 918.96 292.07 952.118 292.07Z" fill="#0A2D57"/>
<path d="M714.762 249.439C714.762 207.158 747.92 174.526 787.744 174.526C827.919 174.526 860.551 207.158 860.551 249.439C860.551 291.719 829.323 324.526 787.744 324.526C744.937 324.526 714.762 291.719 714.762 249.439ZM750.376 249.439C750.376 271.018 760.727 292.597 787.744 292.597C814.06 292.597 824.937 271.018 824.937 249.439C824.937 227.86 813.358 206.281 787.744 206.281C762.306 206.281 750.376 227.86 750.376 249.439Z" fill="#0A2D57"/>
<path d="M656.711 174.526C683.027 174.526 701.623 188.211 701.623 188.211L688.29 214.526C688.29 214.526 673.904 204.526 658.992 204.526C647.764 204.526 641.799 209.614 641.799 217.509C641.799 225.579 655.483 231.368 671.974 238.386C688.115 245.228 705.834 258.912 705.834 277.86C705.834 312.421 679.518 324.526 651.273 324.526C617.413 324.526 596.887 305.404 596.887 305.404L613.378 277.684C613.378 277.684 632.676 294 648.816 294C656.009 294 669.694 293.298 669.694 279.79C669.694 269.263 654.255 264.526 637.062 255.93C619.694 247.333 609.518 233.825 609.518 218.737C609.518 191.719 633.378 174.526 656.711 174.526Z" fill="#0A2D57"/>
<path d="M967.213 147.326L960.249 60.0049H959.356L929.178 146.433H909.178L878.999 60.0049H878.106L871.142 147.326H837.57L850.785 0.00488281H886.499L919.178 85.0049L951.856 0.00488281H987.571L1000.78 147.326H967.213Z" fill="#0A2D57"/>
<path d="M825.766 0.00488281V95.0049C825.766 131.433 805.766 150.005 768.266 150.005C730.766 150.005 710.766 131.433 710.766 95.0049V0.00488281H744.337V85.1834C744.337 109.826 751.837 116.969 768.266 116.969C784.694 116.969 792.194 109.826 792.194 85.1834V0.00488281H825.766Z" fill="#0A2D57"/>
<path d="M596.887 29.4692V0.00488281H700.458V29.4692H665.458V147.326H631.887V29.4692H596.887Z" fill="#0A2D57"/>
<path d="M258.979 7.49249e-07C265.658 -5.8126e-05 268.998 -5.09877e-05 271.653 1.42285C273.887 2.61974 275.888 4.76351 276.928 7.07422C278.164 9.82136 277.949 12.9434 277.518 19.1865C272.903 85.9527 244.329 149.071 196.701 196.698C149.073 244.325 85.9538 272.899 19.1865 277.513C12.9434 277.944 9.82139 278.16 7.07422 276.924C4.7634 275.884 2.61979 273.882 1.42285 271.648C5.93988e-05 268.993 -5.80469e-05 265.653 7.34231e-07 258.975L0.000977297 205.721C0.00103637 199.008 0.000642049 195.652 1.14551 193.223C2.22572 190.93 3.6277 189.375 5.79688 188.065C8.09593 186.677 11.787 186.297 19.168 185.534C61.5938 181.152 101.459 162.322 131.892 131.89C162.324 101.458 181.155 61.5931 185.537 19.168C186.299 11.7871 186.68 8.09589 188.068 5.79688C189.378 3.62774 190.933 2.22571 193.226 1.14551C195.655 0.000675473 199.011 0.00103648 205.724 0.000977312L258.979 7.49249e-07Z" fill="#0A2D57"/>
<path d="M7.52974e-07 241.027C-5.81234e-05 234.349 -8.02929e-05 231.009 1.42285 228.354C2.61977 226.12 4.76351 224.119 7.07422 223.079C9.82138 221.843 12.9434 222.059 19.1865 222.49C85.9539 227.104 149.073 255.678 196.701 303.305C244.329 350.932 272.904 414.05 277.518 480.816C277.949 487.059 278.164 490.181 276.928 492.928C275.888 495.239 273.887 497.383 271.653 498.58C268.998 500.003 265.658 500.003 258.979 500.003L205.724 500.002C199.011 500.002 195.655 500.002 193.226 498.857C190.933 497.777 189.379 496.374 188.069 494.205C186.681 491.906 186.299 488.216 185.537 480.835C181.155 438.41 162.324 398.545 131.892 368.113C101.459 337.681 61.5939 318.851 19.168 314.469C11.787 313.706 8.09593 313.325 5.79688 311.937C3.62796 310.627 2.22566 309.072 1.14551 306.78C0.00065526 304.351 0.00103649 300.994 0.000977315 294.282L7.52974e-07 241.027ZM0.00195388 435.102C0.00195388 399.263 29.0549 370.211 64.8936 370.211C100.732 370.211 129.786 399.263 129.786 435.102C129.786 470.94 100.732 499.992 64.8936 499.992C29.0549 499.992 0.0020365 470.94 0.00195388 435.102Z" fill="url(#paint1_linear_594_1096)"/>
<path d="M241.021 500.002C234.342 500.002 231.002 500.002 228.347 498.579C226.113 497.382 224.112 495.238 223.072 492.928C221.836 490.181 222.051 487.059 222.482 480.815C227.097 414.049 255.671 350.931 303.299 303.304C350.927 255.677 414.046 227.103 480.814 222.489C487.057 222.058 490.179 221.842 492.926 223.078C495.237 224.118 497.38 226.12 498.577 228.354C500 231.009 500 234.349 500 241.027L499.999 294.281C499.999 300.994 499.999 304.35 498.855 306.779C497.774 309.072 496.372 310.627 494.203 311.937C491.904 313.325 488.213 313.705 480.832 314.468C438.406 318.85 398.541 337.68 368.108 368.112C337.676 398.544 318.845 438.409 314.463 480.834C313.701 488.215 313.32 491.906 311.932 494.205C310.622 496.374 309.067 497.776 306.774 498.856C304.345 500.001 300.989 500.001 294.276 500.001L241.021 500.002ZM435.098 500C399.259 500 370.205 470.947 370.205 435.109C370.205 399.271 399.259 370.219 435.098 370.219C470.936 370.219 499.989 399.271 499.989 435.109C499.989 470.947 470.936 500 435.098 500Z" fill="#0A2D57"/>
<path d="M294.272 0.00390625C300.984 0.00396589 304.341 0.00382431 306.77 1.14844C309.063 2.22867 310.618 3.63153 311.928 5.80078C313.316 8.0998 313.697 11.7901 314.46 19.1709C318.842 61.5959 337.672 101.461 368.104 131.893C398.537 162.325 438.403 181.155 480.829 185.537C488.21 186.299 491.9 186.681 494.199 188.069C496.368 189.379 497.771 190.933 498.851 193.226C499.996 195.655 499.996 199.012 499.996 205.724L499.997 258.979C499.997 265.657 499.997 268.997 498.574 271.652C497.377 273.886 495.233 275.887 492.922 276.927C490.175 278.163 487.053 277.947 480.81 277.516C414.043 272.902 350.922 244.328 303.295 196.701C255.667 149.074 227.093 85.9555 222.479 19.1895C222.048 12.9465 221.833 9.82521 223.069 7.07812C224.109 4.76728 226.11 2.62273 228.344 1.42578C230.999 0.00304791 234.339 0.00287035 241.017 0.00292969L294.272 0.00390625ZM435.108 0.000976562C435.108 35.8406 464.159 64.8914 500 64.8916C464.159 64.8918 435.105 93.9455 435.105 129.785C435.105 93.9455 406.046 64.8878 370.206 64.8877C406.046 64.8876 435.108 35.8407 435.108 0.000976562Z" fill="url(#paint2_linear_594_1096)"/>
<path d="M0.00683596 261.742C0.0021611 260.888 -8.71703e-06 259.968 2.63099e-08 258.975L0.000976589 205.721C0.000985733 204.682 0.00258294 203.723 0.00683596 202.836V261.742ZM258.979 7.49249e-07C265.658 -5.8126e-05 268.998 -5.09877e-05 271.653 1.42285C273.887 2.61974 275.888 4.76351 276.928 7.07422C278.164 9.82136 277.949 12.9434 277.518 19.1865C272.903 85.9527 244.329 149.071 196.701 196.698C196.574 196.825 196.446 196.951 196.319 197.077L131.509 132.268C131.636 132.141 131.765 132.016 131.892 131.89C162.324 101.458 181.155 61.5931 185.537 19.168C186.299 11.7871 186.68 8.09589 188.068 5.79688C189.378 3.62774 190.933 2.22571 193.226 1.14551C195.655 0.000675473 199.011 0.00103648 205.724 0.000977312L258.979 7.49249e-07Z" fill="#0A2D57"/>
<ellipse cx="64.8997" cy="64.8927" rx="64.8918" ry="64.8908" fill="#0A2D57"/>
<defs>
<linearGradient id="paint0_linear_594_1096" x1="1035.12" y1="248.609" x2="1231.45" y2="249.523" gradientUnits="userSpaceOnUse">
<stop offset="0.0817308" stop-color="#4A98FF"/>
<stop offset="1" stop-color="#4BFFC0"/>
</linearGradient>
<linearGradient id="paint1_linear_594_1096" x1="64.9098" y1="435.094" x2="446.587" y2="64.0805" gradientUnits="userSpaceOnUse">
<stop stop-color="#4A98FF"/>
<stop offset="1" stop-color="#4BFFC0"/>
</linearGradient>
<linearGradient id="paint2_linear_594_1096" x1="64.4907" y1="432.82" x2="434.068" y2="66.0024" gradientUnits="userSpaceOnUse">
<stop stop-color="#4A98FF"/>
<stop offset="1" stop-color="#4BFFC0"/>
</linearGradient>
</defs>
</svg>
