<svg width="1297" height="624" viewBox="0 0 1297 624" fill="none" xmlns="http://www.w3.org/2000/svg">
<path d="M965.219 351.68H1010.13C1035.04 351.68 1054.69 360.978 1054.69 388.521C1054.69 401.854 1048.9 413.257 1036.62 419.573C1054.69 422.731 1067.5 432.731 1067.5 456.064C1067.5 479.923 1050.13 496.414 1020.13 496.414H965.219V351.68ZM998.201 408.345H1000.83C1015.04 408.345 1022.76 403.959 1022.76 391.854C1022.76 381.504 1015.22 377.118 1000.83 377.118H998.201V408.345ZM998.201 470.976H1008.55C1024.17 470.976 1032.76 466.239 1032.76 454.836C1032.76 441.503 1024.17 436.766 1008.55 436.766H998.201V470.976Z" fill="#0A2D57"/>
<path d="M945.893 351.68V445.011C945.893 480.8 926.244 499.045 889.401 499.045C852.559 499.045 832.91 480.8 832.91 445.011V351.68H865.893V435.362C865.893 459.572 873.261 466.59 889.401 466.59C905.542 466.59 912.91 459.572 912.91 435.362V351.68H945.893Z" fill="#0A2D57"/>
<path d="M768.451 351.68V467.467H818.276V496.414H735.469V351.68H768.451Z" fill="#0A2D57"/>
<path d="M680.396 466.589C697.238 466.589 708.817 457.641 708.817 457.641L722.852 485.711C722.852 485.711 706.711 499.044 675.308 499.044C634.431 499.044 596.887 465.711 596.887 424.309C596.887 382.73 634.255 349.047 675.308 349.047C706.711 349.047 722.852 362.38 722.852 362.38L708.817 390.45C708.817 390.45 697.238 381.502 680.396 381.502C647.238 381.502 632.676 404.66 632.676 423.958C632.676 443.431 647.238 466.589 680.396 466.589Z" fill="#0A2D57"/>
<path d="M1237.59 292.945H1296.9V321.893H1237.59V292.945Z" fill="#0A2D57"/>
<path d="M1193.09 321.89H1157.66L1146.95 292.942H1091.87L1081.17 321.89H1045.73L1104.15 177.152H1134.67L1193.09 321.89ZM1231.45 321.89H1198.99V177.152H1231.45V321.89ZM1119.41 227.794C1119.4 227.865 1117.7 238.636 1113.11 243.223C1108.52 247.815 1097.73 249.515 1097.68 249.522C1097.73 249.53 1108.52 251.229 1113.11 255.821C1117.7 260.408 1119.4 271.18 1119.41 271.251C1119.42 271.18 1121.12 260.408 1125.71 255.821C1130.3 251.232 1141.08 249.531 1141.14 249.522C1141.08 249.514 1130.3 247.813 1125.71 243.223C1121.12 238.635 1119.42 227.864 1119.41 227.794Z" fill="url(#paint0_linear_599_1361)"/>
<path d="M1040.18 177.156V321.893H1007.2V177.156H1040.18Z" fill="#0A2D57"/>
<path d="M952.118 292.067C968.96 292.067 980.539 283.12 980.539 283.12L994.574 311.19C994.574 311.19 978.434 324.523 947.03 324.523C906.153 324.523 868.609 291.19 868.609 249.787C868.609 208.208 905.978 174.523 947.03 174.523C978.434 174.523 994.574 187.857 994.574 187.857L980.539 215.927C980.539 215.927 968.96 206.98 952.118 206.98C918.96 206.98 904.399 230.137 904.399 249.436C904.399 268.909 918.96 292.067 952.118 292.067Z" fill="#0A2D57"/>
<path d="M714.762 249.436C714.762 207.155 747.92 174.523 787.744 174.523C827.919 174.523 860.551 207.155 860.551 249.436C860.551 291.716 829.323 324.523 787.744 324.523C744.937 324.523 714.762 291.716 714.762 249.436ZM750.376 249.436C750.376 271.015 760.727 292.594 787.744 292.594C814.06 292.594 824.937 271.015 824.937 249.436C824.937 227.857 813.358 206.278 787.744 206.278C762.306 206.278 750.376 227.857 750.376 249.436Z" fill="#0A2D57"/>
<path d="M656.711 174.523C683.027 174.523 701.623 188.208 701.623 188.208L688.29 214.523C688.29 214.523 673.904 204.523 658.992 204.523C647.764 204.523 641.799 209.611 641.799 217.506C641.799 225.576 655.483 231.366 671.974 238.383C688.115 245.225 705.834 258.909 705.834 277.857C705.834 312.418 679.518 324.523 651.273 324.523C617.413 324.523 596.887 305.401 596.887 305.401L613.378 277.681C613.378 277.681 632.676 293.997 648.816 293.997C656.009 293.997 669.694 293.295 669.694 279.787C669.694 269.26 654.255 264.523 637.062 255.927C619.694 247.33 609.518 233.822 609.518 218.734C609.518 191.716 633.378 174.523 656.711 174.523Z" fill="#0A2D57"/>
<path d="M967.213 147.325L960.249 60.0039H959.356L929.178 146.432H909.178L878.999 60.0039H878.106L871.142 147.325H837.57L850.785 0.00390625H886.499L919.178 85.0039L951.856 0.00390625H987.571L1000.78 147.325H967.213Z" fill="#0A2D57"/>
<path d="M825.766 0.00390625V95.0039C825.766 131.432 805.766 150.004 768.266 150.004C730.766 150.004 710.766 131.432 710.766 95.0039V0.00390625H744.337V85.1825C744.337 109.825 751.837 116.968 768.266 116.968C784.694 116.968 792.194 109.825 792.194 85.1825V0.00390625H825.766Z" fill="#0A2D57"/>
<path d="M596.887 29.4682V0.00390625H700.458V29.4682H665.458V147.325H631.887V29.4682H596.887Z" fill="#0A2D57"/>
<path d="M258.979 7.49249e-07C265.658 -5.8126e-05 268.998 -5.09877e-05 271.653 1.42285C273.887 2.61974 275.888 4.76351 276.928 7.07422C278.164 9.82136 277.949 12.9434 277.518 19.1865C272.903 85.9527 244.329 149.071 196.701 196.698C149.073 244.325 85.9538 272.899 19.1865 277.513C12.9434 277.944 9.82139 278.16 7.07422 276.924C4.7634 275.884 2.61979 273.882 1.42285 271.648C5.93988e-05 268.993 -5.80469e-05 265.653 7.34231e-07 258.975L0.000977297 205.721C0.00103637 199.008 0.000642049 195.652 1.14551 193.223C2.22572 190.93 3.6277 189.375 5.79688 188.065C8.09593 186.677 11.787 186.297 19.168 185.534C61.5938 181.152 101.459 162.322 131.892 131.89C162.324 101.458 181.155 61.5931 185.537 19.168C186.299 11.7871 186.68 8.09589 188.068 5.79688C189.378 3.62774 190.933 2.22571 193.226 1.14551C195.655 0.000675473 199.011 0.00103648 205.724 0.000977312L258.979 7.49249e-07Z" fill="#0A2D57"/>
<path d="M7.52974e-07 241.024C-5.81234e-05 234.346 -8.02929e-05 231.006 1.42285 228.351C2.61977 226.117 4.76351 224.116 7.07422 223.076C9.82138 221.84 12.9434 222.056 19.1865 222.487C85.9539 227.101 149.073 255.675 196.701 303.302C244.329 350.929 272.904 414.047 277.518 480.813C277.949 487.056 278.164 490.178 276.928 492.925C275.888 495.236 273.887 497.38 271.653 498.577C268.998 500 265.658 500 258.979 500L205.724 499.999C199.011 499.999 195.655 499.999 193.226 498.854C190.933 497.774 189.379 496.371 188.069 494.202C186.681 491.903 186.299 488.213 185.537 480.832C181.155 438.407 162.324 398.542 131.892 368.11C101.459 337.678 61.5939 318.848 19.168 314.466C11.787 313.703 8.09593 313.322 5.79688 311.934C3.62796 310.624 2.22566 309.069 1.14551 306.777C0.00065526 304.348 0.00103649 300.991 0.000977315 294.279L7.52974e-07 241.024ZM0.00195388 435.099C0.00195388 399.261 29.0549 370.208 64.8936 370.208C100.732 370.208 129.786 399.26 129.786 435.099C129.786 470.937 100.732 499.989 64.8936 499.989C29.0549 499.989 0.0020365 470.937 0.00195388 435.099Z" fill="url(#paint1_linear_599_1361)"/>
<path d="M241.021 500C234.342 500 231.002 500 228.347 498.577C226.113 497.38 224.112 495.236 223.072 492.926C221.836 490.179 222.051 487.057 222.482 480.813C227.097 414.047 255.671 350.929 303.299 303.302C350.927 255.675 414.046 227.101 480.814 222.487C487.057 222.056 490.179 221.84 492.926 223.076C495.237 224.116 497.38 226.118 498.577 228.352C500 231.007 500 234.347 500 241.025L499.999 294.279C499.999 300.992 499.999 304.348 498.855 306.777C497.774 309.07 496.372 310.625 494.203 311.935C491.904 313.323 488.213 313.704 480.832 314.466C438.406 318.848 398.541 337.678 368.108 368.11C337.676 398.542 318.845 438.407 314.463 480.832C313.701 488.213 313.32 491.904 311.932 494.203C310.622 496.372 309.067 497.774 306.774 498.854C304.345 499.999 300.989 499.999 294.276 499.999L241.021 500ZM435.098 499.998C399.259 499.998 370.205 470.946 370.205 435.107C370.205 399.269 399.259 370.217 435.098 370.217C470.936 370.217 499.989 399.269 499.989 435.107C499.989 470.945 470.936 499.998 435.098 499.998Z" fill="#0A2D57"/>
<path d="M294.272 0.00292969C300.984 0.00298932 304.341 0.00284774 306.77 1.14746C309.063 2.22769 310.618 3.63055 311.928 5.7998C313.316 8.09882 313.697 11.7891 314.46 19.1699C318.842 61.5949 337.672 101.46 368.104 131.892C398.537 162.324 438.403 181.154 480.829 185.536C488.21 186.298 491.9 186.68 494.199 188.068C496.368 189.378 497.771 190.932 498.851 193.225C499.996 195.654 499.996 199.011 499.996 205.723L499.997 258.978C499.997 265.656 499.997 268.996 498.574 271.651C497.377 273.885 495.233 275.886 492.922 276.926C490.175 278.162 487.053 277.946 480.81 277.515C414.043 272.901 350.922 244.327 303.295 196.7C255.667 149.073 227.093 85.9545 222.479 19.1885C222.048 12.9455 221.833 9.82424 223.069 7.07715C224.109 4.76631 226.11 2.62175 228.344 1.4248C230.999 0.00207135 234.339 0.00189378 241.017 0.00195312L294.272 0.00292969ZM435.108 0C435.108 35.8397 464.159 64.8905 500 64.8906C464.159 64.8908 435.105 93.9445 435.105 129.784C435.105 93.9445 406.046 64.8868 370.206 64.8867C406.046 64.8866 435.108 35.8397 435.108 0Z" fill="url(#paint2_linear_599_1361)"/>
<path d="M0.00683596 261.742C0.0021611 260.888 -8.71703e-06 259.968 2.63099e-08 258.975L0.000976589 205.721C0.000985733 204.682 0.00258294 203.723 0.00683596 202.836V261.742ZM258.979 7.49249e-07C265.658 -5.8126e-05 268.998 -5.09877e-05 271.653 1.42285C273.887 2.61974 275.888 4.76351 276.928 7.07422C278.164 9.82136 277.949 12.9434 277.518 19.1865C272.903 85.9527 244.329 149.071 196.701 196.698C196.574 196.825 196.446 196.951 196.319 197.077L131.509 132.268C131.636 132.141 131.765 132.016 131.892 131.89C162.324 101.458 181.155 61.5931 185.537 19.168C186.299 11.7871 186.68 8.09589 188.068 5.79688C189.378 3.62774 190.933 2.22571 193.226 1.14551C195.655 0.000675473 199.011 0.00103648 205.724 0.000977312L258.979 7.49249e-07Z" fill="#0A2D57"/>
<ellipse cx="64.8997" cy="64.8908" rx="64.8918" ry="64.8908" fill="#0A2D57"/>
<path d="M1296.9 579.167H1270.49V595.82H1290.35V600.698H1270.49V618.187H1296.9V623.065H1264.91V574.289H1296.9V579.167Z" fill="#0A2D57"/>
<path d="M1251.06 574.289H1256.99L1238.45 623.065H1232.04L1213.79 574.289H1219.71L1235.39 617.142L1251.06 574.289Z" fill="#0A2D57"/>
<path d="M1200.34 574.289H1205.91V623.065H1200.34V574.289Z" fill="#0A2D57"/>
<path d="M1154.88 574.289H1191.46V579.167H1176V623.065H1170.42V579.167H1154.88V574.289Z" fill="#0A2D57"/>
<path d="M1129.73 579.167H1127.44L1111.34 623.065H1105.7L1123.53 574.289H1133.57L1151.34 623.065H1145.69L1129.73 579.167ZM1114.41 605.366H1142.83V610.244H1114.41V605.366Z" fill="#0A2D57"/>
<path d="M1093.57 574.289H1099.14V623.065H1093.57V574.289Z" fill="#0A2D57"/>
<path d="M1048.12 574.289H1084.7V579.167H1069.23V623.065H1063.66V579.167H1048.12V574.289Z" fill="#0A2D57"/>
<path d="M1033.62 574.289H1039.2V623.065H1033.62V574.289Z" fill="#0A2D57"/>
<path d="M1021.77 574.289V623.065H1016.13L990.067 583.208V623.065H984.492V574.289H990.136L1016.2 614.076V574.289H1021.77Z" fill="#0A2D57"/>
<path d="M967.074 574.289H972.649V623.065H967.074V574.289Z" fill="#0A2D57"/>
<path d="M902.09 574.289H938.672V579.167H923.203V623.065H917.628V579.167H902.09V574.289Z" fill="#0A2D57"/>
<path d="M893.165 574.289V623.065H887.521L861.461 583.208V623.065H855.887V574.289H861.531L887.591 614.076V574.289H893.165Z" fill="#0A2D57"/>
<path d="M845.405 579.167H818.996V595.82H838.855V600.698H818.996V618.187H845.405V623.065H813.422V574.289H845.405V579.167Z" fill="#0A2D57"/>
<path d="M778.76 574.289C784.149 574.289 788.747 575.288 792.557 577.285C796.412 579.236 799.362 582.047 801.406 585.717C803.496 589.386 804.541 593.753 804.541 598.816C804.541 603.833 803.496 608.153 801.406 611.777C799.362 615.4 796.412 618.187 792.557 620.138C788.747 622.089 784.149 623.065 778.76 623.065H762.664V574.289H778.76ZM778.76 618.187C785.403 618.187 790.42 616.492 793.811 613.101C797.202 609.709 798.897 604.948 798.897 598.816C798.897 592.638 797.202 587.83 793.811 584.393C790.42 580.909 785.403 579.167 778.76 579.167H768.238V618.187H778.76Z" fill="#0A2D57"/>
<path d="M713.805 574.289H719.379V605.087C719.379 608.293 719.96 610.894 721.121 612.892C722.282 614.889 723.839 616.352 725.79 617.281C727.787 618.21 730.04 618.675 732.548 618.675C735.01 618.675 737.217 618.21 739.168 617.281C741.119 616.352 742.675 614.889 743.837 612.892C744.998 610.894 745.579 608.293 745.579 605.087V574.289H751.153V605.018C751.153 608.223 750.642 610.987 749.62 613.31C748.644 615.632 747.274 617.56 745.509 619.093C743.744 620.579 741.746 621.694 739.516 622.438C737.287 623.181 734.941 623.552 732.479 623.552C729.134 623.552 726.045 622.902 723.211 621.601C720.378 620.254 718.102 618.21 716.383 615.47C714.664 612.729 713.805 609.245 713.805 605.018V574.289Z" fill="#0A2D57"/>
<path d="M668.625 574.289H705.207V579.167H689.738V623.065H684.164V579.167H668.625V574.289Z" fill="#0A2D57"/>
<path d="M634.258 610.657C634.537 611.912 635.118 613.166 636 614.42C636.929 615.628 638.184 616.65 639.763 617.486C641.389 618.276 643.456 618.67 645.965 618.67C649.542 618.67 652.189 617.834 653.908 616.162C655.627 614.49 656.486 612.515 656.486 610.239C656.486 608.428 655.998 606.941 655.023 605.78C654.047 604.618 652.724 603.666 651.051 602.923C649.379 602.133 647.498 601.436 645.407 600.833C643.549 600.322 641.691 599.764 639.833 599.16C638.021 598.51 636.372 597.72 634.886 596.791C633.399 595.816 632.215 594.561 631.332 593.028C630.449 591.495 630.008 589.591 630.008 587.315C630.008 584.574 630.658 582.205 631.959 580.207C633.26 578.163 635.095 576.584 637.464 575.469C639.833 574.354 642.597 573.797 645.756 573.797C648.496 573.797 650.889 574.192 652.933 574.981C654.976 575.771 656.672 576.886 658.019 578.326C659.413 579.72 660.435 581.345 661.085 583.204L656.138 585.085C655.813 584.017 655.186 582.995 654.256 582.019C653.327 580.997 652.12 580.161 650.633 579.511C649.147 578.86 647.451 578.535 645.547 578.535C643.688 578.535 641.993 578.86 640.46 579.511C638.973 580.161 637.789 581.09 636.906 582.298C636.024 583.506 635.582 584.969 635.582 586.688C635.582 588.546 636.093 590.032 637.115 591.147C638.184 592.215 639.577 593.098 641.296 593.795C643.061 594.445 644.989 595.072 647.079 595.676C648.984 596.28 650.819 596.93 652.584 597.627C654.396 598.324 655.998 599.183 657.392 600.205C658.832 601.227 659.97 602.505 660.806 604.038C661.643 605.571 662.061 607.452 662.061 609.682C662.061 612.144 661.48 614.443 660.319 616.58C659.157 618.67 657.392 620.366 655.023 621.667C652.7 622.921 649.704 623.548 646.034 623.548C642.968 623.548 640.274 623.084 637.952 622.154C635.629 621.179 633.724 619.878 632.238 618.252C630.751 616.627 629.729 614.768 629.172 612.678L634.258 610.657Z" fill="#0A2D57"/>
<path d="M577.342 574.289C582.731 574.289 587.329 575.288 591.139 577.285C594.994 579.236 597.944 582.047 599.988 585.717C602.078 589.386 603.123 593.753 603.123 598.816C603.123 603.833 602.078 608.153 599.988 611.777C597.944 615.4 594.994 618.187 591.139 620.138C587.329 622.089 582.731 623.065 577.342 623.065H561.246V574.289H577.342ZM577.342 618.187C583.985 618.187 589.002 616.492 592.393 613.101C595.784 609.709 597.479 604.948 597.479 598.816C597.479 592.638 595.784 587.83 592.393 584.393C589.002 580.909 583.985 579.167 577.342 579.167H566.82V618.187H577.342Z" fill="#0A2D57"/>
<path d="M528.201 623.548C524.763 623.548 521.558 622.944 518.585 621.736C515.659 620.529 513.08 618.833 510.851 616.65C508.667 614.42 506.949 611.795 505.694 608.776C504.487 605.71 503.883 602.342 503.883 598.672C503.883 595.003 504.487 591.658 505.694 588.639C506.949 585.573 508.667 582.948 510.851 580.765C513.08 578.535 515.659 576.816 518.585 575.609C521.558 574.401 524.763 573.797 528.201 573.797C531.592 573.797 534.751 574.401 537.677 575.609C540.65 576.816 543.228 578.535 545.412 580.765C547.595 582.948 549.291 585.573 550.498 588.639C551.753 591.658 552.38 595.003 552.38 598.672C552.38 602.342 551.753 605.71 550.498 608.776C549.291 611.795 547.595 614.42 545.412 616.65C543.228 618.833 540.65 620.529 537.677 621.736C534.751 622.944 531.592 623.548 528.201 623.548ZM528.201 618.67C531.685 618.67 534.82 617.858 537.608 616.232C540.395 614.606 542.601 612.306 544.227 609.333C545.853 606.314 546.666 602.76 546.666 598.672C546.666 594.538 545.853 590.984 544.227 588.011C542.601 584.992 540.395 582.693 537.608 581.113C534.82 579.487 531.685 578.674 528.201 578.674C524.67 578.674 521.488 579.487 518.655 581.113C515.868 582.693 513.661 584.992 512.035 588.011C510.409 590.984 509.597 594.538 509.597 598.672C509.597 602.76 510.409 606.314 512.035 609.333C513.661 612.306 515.868 614.606 518.655 616.232C521.488 617.858 524.67 618.67 528.201 618.67Z" fill="#0A2D57"/>
<path d="M473.763 623.548C470.326 623.548 467.121 622.944 464.148 621.736C461.221 620.529 458.643 618.833 456.413 616.65C454.23 614.42 452.511 611.795 451.257 608.776C450.049 605.71 449.445 602.342 449.445 598.672C449.445 595.003 450.049 591.658 451.257 588.639C452.511 585.573 454.23 582.948 456.413 580.765C458.643 578.535 461.221 576.816 464.148 575.609C467.121 574.401 470.326 573.797 473.763 573.797C477.154 573.797 480.313 574.401 483.24 575.609C486.213 576.816 488.791 578.535 490.974 580.765C493.158 582.948 494.853 585.573 496.061 588.639C497.315 591.658 497.942 595.003 497.942 598.672C497.942 602.342 497.315 605.71 496.061 608.776C494.853 611.795 493.158 614.42 490.974 616.65C488.791 618.833 486.213 620.529 483.24 621.736C480.313 622.944 477.154 623.548 473.763 623.548ZM473.763 618.67C477.247 618.67 480.383 617.858 483.17 616.232C485.957 614.606 488.164 612.306 489.79 609.333C491.416 606.314 492.228 602.76 492.228 598.672C492.228 594.538 491.416 590.984 489.79 588.011C488.164 584.992 485.957 582.693 483.17 581.113C480.383 579.487 477.247 578.674 473.763 578.674C470.233 578.674 467.051 579.487 464.217 581.113C461.43 582.693 459.224 584.992 457.598 588.011C455.972 590.984 455.159 594.538 455.159 598.672C455.159 602.76 455.972 606.314 457.598 609.333C459.224 612.306 461.43 614.606 464.217 616.232C467.051 617.858 470.233 618.67 473.763 618.67Z" fill="#0A2D57"/>
<path d="M436.935 588.917C435.17 585.433 432.824 582.878 429.897 581.253C426.971 579.58 423.719 578.744 420.142 578.744C416.612 578.744 413.43 579.557 410.596 581.183C407.763 582.809 405.533 585.108 403.907 588.081C402.281 591.054 401.468 594.585 401.468 598.672C401.468 602.714 402.281 606.221 403.907 609.194C405.533 612.167 407.763 614.466 410.596 616.092C413.43 617.718 416.612 618.531 420.142 618.531C422.79 618.531 425.252 618.09 427.528 617.207C429.805 616.278 431.779 614.977 433.451 613.305C435.123 611.586 436.401 609.542 437.283 607.173V601.529H420.56V597H442.928V607.452C441.859 610.564 440.233 613.328 438.05 615.744C435.867 618.159 433.242 620.064 430.176 621.458C427.11 622.851 423.766 623.548 420.142 623.548C416.705 623.548 413.5 622.944 410.527 621.736C407.6 620.529 405.022 618.833 402.792 616.65C400.609 614.42 398.89 611.795 397.636 608.776C396.428 605.71 395.824 602.342 395.824 598.672C395.824 595.003 396.428 591.658 397.636 588.639C398.89 585.573 400.609 582.948 402.792 580.765C405.022 578.535 407.6 576.816 410.527 575.609C413.5 574.401 416.705 573.797 420.142 573.797C423.348 573.797 426.344 574.331 429.131 575.4C431.965 576.421 434.473 577.931 436.656 579.929C438.84 581.88 440.558 584.272 441.813 587.106L436.935 588.917Z" fill="#0A2D57"/>
<path d="M363.826 588.713C363.826 585.786 362.967 583.464 361.248 581.745C359.529 580.026 356.719 579.167 352.817 579.167H341.25V598.259H352.887C355.441 598.259 357.509 597.864 359.088 597.074C360.714 596.285 361.898 595.17 362.642 593.73C363.431 592.29 363.826 590.617 363.826 588.713ZM352.817 574.289C356.626 574.289 359.738 574.939 362.154 576.24C364.616 577.541 366.451 579.283 367.659 581.466C368.866 583.603 369.47 586.018 369.47 588.713C369.47 590.617 369.145 592.429 368.495 594.148C367.891 595.866 366.915 597.399 365.568 598.747C364.221 600.094 362.502 601.162 360.412 601.952C358.322 602.742 355.813 603.136 352.887 603.136H341.25V623.065H335.676V574.289H352.817ZM356.858 601.046L370.376 623.065H364.035L350.866 601.046H356.858Z" fill="#0A2D57"/>
<path d="M302.627 623.548C299.189 623.548 295.984 622.944 293.011 621.736C290.084 620.529 287.506 618.833 285.277 616.65C283.093 614.42 281.374 611.795 280.12 608.776C278.912 605.71 278.309 602.342 278.309 598.672C278.309 595.003 278.912 591.658 280.12 588.639C281.374 585.573 283.093 582.948 285.277 580.765C287.506 578.535 290.084 576.816 293.011 575.609C295.984 574.401 299.189 573.797 302.627 573.797C306.018 573.797 309.177 574.401 312.103 575.609C315.076 576.816 317.654 578.535 319.838 580.765C322.021 582.948 323.716 585.573 324.924 588.639C326.178 591.658 326.805 595.003 326.805 598.672C326.805 602.342 326.178 605.71 324.924 608.776C323.716 611.795 322.021 614.42 319.838 616.65C317.654 618.833 315.076 620.529 312.103 621.736C309.177 622.944 306.018 623.548 302.627 623.548ZM302.627 618.67C306.111 618.67 309.246 617.858 312.033 616.232C314.821 614.606 317.027 612.306 318.653 609.333C320.279 606.314 321.092 602.76 321.092 598.672C321.092 594.538 320.279 590.984 318.653 588.011C317.027 584.992 314.821 582.693 312.033 581.113C309.246 579.487 306.111 578.674 302.627 578.674C299.096 578.674 295.914 579.487 293.081 581.113C290.293 582.693 288.087 584.992 286.461 588.011C284.835 590.984 284.022 594.538 284.022 598.672C284.022 602.76 284.835 606.314 286.461 609.333C288.087 612.306 290.293 614.606 293.081 616.232C295.914 617.858 299.096 618.67 302.627 618.67Z" fill="#0A2D57"/>
<path d="M240.34 574.289H272.323V579.167H245.914V595.82H265.773V600.698H245.914V623.065H240.34V574.289Z" fill="#0A2D57"/>
<path d="M203.391 574.289H208.965V623.065H203.391V574.289Z" fill="#0A2D57"/>
<path d="M175.313 579.167H173.013L156.917 623.065H151.273L169.111 574.289H179.145L196.913 623.065H191.269L175.313 579.167ZM159.983 605.366H188.413V610.244H159.983V605.366Z" fill="#0A2D57"/>
<path d="M126.565 579.167H100.156V595.82H120.015V600.698H100.156V618.187H126.565V623.065H94.582V574.289H126.565V579.167Z" fill="#0A2D57"/>
<path d="M45.457 574.289H51.0314V595.82H77.1612V574.289H82.7355V623.065H77.1612V600.698H51.0314V623.065H45.457V574.289Z" fill="#0A2D57"/>
<path d="M0 574.289H36.5817V579.167H21.1129V623.065H15.5385V579.167H0V574.289Z" fill="#0A2D57"/>
<defs>
<linearGradient id="paint0_linear_599_1361" x1="1035.12" y1="248.607" x2="1231.45" y2="249.521" gradientUnits="userSpaceOnUse">
<stop offset="0.0817308" stop-color="#4A98FF"/>
<stop offset="1" stop-color="#4BFFC0"/>
</linearGradient>
<linearGradient id="paint1_linear_599_1361" x1="64.9098" y1="435.091" x2="446.587" y2="64.0776" gradientUnits="userSpaceOnUse">
<stop stop-color="#4A98FF"/>
<stop offset="1" stop-color="#4BFFC0"/>
</linearGradient>
<linearGradient id="paint2_linear_599_1361" x1="64.4907" y1="432.819" x2="434.068" y2="66.0014" gradientUnits="userSpaceOnUse">
<stop stop-color="#4A98FF"/>
<stop offset="1" stop-color="#4BFFC0"/>
</linearGradient>
</defs>
</svg>
