<svg xmlns="http://www.w3.org/2000/svg" width="82" height="47" fill="none" overflow="visible"><g><path d="M 23.191 17.061 C 23.191 18.027 23.3 18.811 23.491 19.386 C 23.733 20.032 24.025 20.661 24.364 21.267 C 24.485 21.446 24.551 21.654 24.555 21.868 C 24.555 22.129 24.391 22.39 24.036 22.652 L 22.318 23.749 C 22.073 23.906 21.828 23.984 21.609 23.984 C 21.336 23.984 21.064 23.853 20.791 23.618 C 20.424 23.24 20.095 22.829 19.809 22.39 C 19.504 21.888 19.222 21.374 18.964 20.849 C 16.837 23.252 14.164 24.454 10.946 24.454 C 8.655 24.454 6.827 23.827 5.491 22.573 C 4.155 21.319 3.473 19.647 3.473 17.557 C 3.473 15.336 4.291 13.534 5.955 12.175 C 7.618 10.816 9.827 10.137 12.636 10.137 C 13.564 10.137 14.518 10.216 15.527 10.346 C 16.536 10.477 17.573 10.686 18.664 10.921 L 18.664 9.014 C 18.664 7.028 18.227 5.643 17.382 4.833 C 16.509 4.024 15.036 3.632 12.936 3.632 C 11.982 3.632 11 3.736 9.991 3.971 C 8.982 4.206 8 4.494 7.046 4.86 C 6.735 4.993 6.417 5.106 6.091 5.199 C 5.9 5.252 5.764 5.278 5.655 5.278 C 5.273 5.278 5.082 5.016 5.082 4.468 L 5.082 3.187 C 5.082 2.77 5.136 2.456 5.273 2.273 C 5.409 2.09 5.655 1.907 6.037 1.725 C 6.991 1.254 8.136 0.863 9.473 0.548 C 10.809 0.209 12.228 0.052 13.727 0.052 C 16.973 0.052 19.346 0.758 20.873 2.168 C 22.373 3.58 23.136 5.722 23.136 8.596 L 23.136 17.061 Z M 12.118 21.031 C 13.018 21.031 13.946 20.875 14.928 20.561 C 15.909 20.248 16.782 19.673 17.518 18.889 C 17.954 18.393 18.282 17.844 18.445 17.217 C 18.609 16.59 18.718 15.833 18.718 14.944 L 18.718 13.847 C 17.891 13.654 17.054 13.506 16.209 13.403 C 15.359 13.299 14.503 13.247 13.646 13.246 C 11.818 13.246 10.482 13.586 9.582 14.291 C 8.682 14.996 8.245 15.99 8.245 17.295 C 8.245 18.523 8.573 19.438 9.255 20.065 C 9.909 20.718 10.864 21.032 12.118 21.032 Z M 34.018 23.853 C 33.527 23.853 33.2 23.775 32.982 23.592 C 32.764 23.435 32.573 23.069 32.409 22.573 L 26 2.378 C 25.837 1.855 25.755 1.515 25.755 1.333 C 25.755 0.915 25.973 0.679 26.41 0.679 L 29.082 0.679 C 29.601 0.679 29.955 0.758 30.146 0.941 C 30.364 1.097 30.528 1.463 30.692 1.96 L 35.273 19.255 L 39.528 1.96 C 39.664 1.437 39.828 1.097 40.046 0.941 C 40.264 0.784 40.646 0.679 41.137 0.679 L 43.318 0.679 C 43.837 0.679 44.191 0.758 44.41 0.941 C 44.628 1.097 44.819 1.463 44.928 1.96 L 49.237 19.464 L 53.955 1.96 C 54.119 1.437 54.31 1.097 54.5 0.941 C 54.719 0.784 55.073 0.679 55.564 0.679 L 58.101 0.679 C 58.537 0.679 58.782 0.888 58.782 1.333 C 58.782 1.463 58.755 1.594 58.728 1.751 C 58.7 1.907 58.646 2.116 58.537 2.404 L 51.964 22.6 C 51.8 23.122 51.609 23.462 51.391 23.619 C 51.173 23.776 50.818 23.88 50.354 23.88 L 48.009 23.88 C 47.491 23.88 47.137 23.801 46.918 23.619 C 46.7 23.436 46.509 23.096 46.4 22.573 L 42.173 5.723 L 37.973 22.547 C 37.836 23.07 37.673 23.41 37.454 23.592 C 37.237 23.775 36.855 23.853 36.364 23.853 L 34.018 23.853 Z M 69.064 24.559 C 67.646 24.559 66.227 24.402 64.864 24.088 C 63.5 23.775 62.437 23.435 61.727 23.043 C 61.291 22.808 60.991 22.547 60.882 22.312 C 60.776 22.081 60.72 21.832 60.718 21.58 L 60.718 20.248 C 60.718 19.699 60.936 19.438 61.345 19.438 C 61.509 19.438 61.673 19.464 61.836 19.516 C 62 19.569 62.246 19.673 62.518 19.778 C 63.482 20.183 64.487 20.49 65.518 20.692 C 66.609 20.901 67.673 21.006 68.764 21.006 C 70.482 21.006 71.818 20.718 72.746 20.143 C 73.673 19.569 74.164 18.732 74.164 17.662 C 74.164 16.93 73.918 16.329 73.427 15.833 C 72.937 15.336 72.009 14.892 70.673 14.474 L 66.718 13.298 C 64.727 12.697 63.254 11.809 62.355 10.634 C 61.455 9.484 60.991 8.204 60.991 6.845 C 60.991 5.748 61.236 4.781 61.727 3.945 C 62.218 3.109 62.873 2.377 63.691 1.803 C 64.509 1.202 65.437 0.758 66.527 0.444 C 67.618 0.131 68.764 0 69.964 0 C 70.564 0 71.191 0.026 71.791 0.105 C 72.418 0.183 72.991 0.288 73.564 0.392 C 74.109 0.523 74.627 0.653 75.118 0.81 C 75.609 0.967 75.991 1.124 76.264 1.28 C 76.645 1.489 76.918 1.698 77.082 1.934 C 77.246 2.142 77.327 2.43 77.327 2.796 L 77.327 4.024 C 77.327 4.572 77.109 4.86 76.7 4.86 C 76.482 4.86 76.127 4.755 75.664 4.546 C 74.109 3.867 72.364 3.527 70.427 3.527 C 68.873 3.527 67.646 3.762 66.8 4.259 C 65.955 4.755 65.518 5.513 65.518 6.584 C 65.518 7.316 65.791 7.942 66.336 8.439 C 66.882 8.935 67.891 9.431 69.336 9.876 L 73.209 11.052 C 75.173 11.653 76.591 12.488 77.436 13.559 C 78.282 14.631 78.691 15.859 78.691 17.217 C 78.691 18.341 78.445 19.36 77.982 20.248 C 77.491 21.136 76.836 21.92 75.991 22.547 C 75.146 23.2 74.136 23.67 72.964 24.01 C 71.736 24.376 70.454 24.559 69.064 24.559 Z" fill="rgb(32, 73, 122)"></path><path d="M 74.136 37.281 C 65.163 43.63 52.127 47 40.918 47 C 25.208 47 11.054 41.435 0.363 32.187 C -0.482 31.455 0.281 30.462 1.291 31.037 C 12.854 37.464 27.118 41.357 41.873 41.357 C 51.827 41.357 62.763 39.371 72.827 35.295 C 74.327 34.642 75.609 36.236 74.136 37.281 Z" fill="rgb(32, 73, 122)"></path><path d="M 77.871 33.3 C 76.726 31.89 70.289 32.621 67.371 32.961 C 66.498 33.065 66.362 32.334 67.153 31.785 C 72.28 28.336 80.707 29.329 81.689 30.479 C 82.671 31.655 81.417 39.727 76.617 43.594 C 75.88 44.195 75.171 43.881 75.499 43.098 C 76.589 40.512 79.017 34.685 77.871 33.3 Z" fill="rgb(32, 73, 122)"></path></g></svg>