<svg xmlns="http://www.w3.org/2000/svg" width="221" height="38" fill="none" overflow="visible"><g><path d="M 7.82 1.149 C 8.204 1.487 8.559 1.855 8.917 2.222 L 9.166 2.476 L 9.815 3.142 L 10.48 3.822 L 11.781 5.152 C 12.203 4.8 12.586 4.412 12.969 4.015 L 13.309 3.665 C 13.633 3.332 13.955 3 14.277 2.667 C 14.548 2.385 14.821 2.103 15.094 1.823 C 16.065 0.812 17.151 0.103 18.572 0.004 C 20.018 -0.008 21.275 0.442 22.329 1.475 C 23.317 2.618 23.558 3.853 23.499 5.324 C 23.375 7.06 22.23 8.219 21.09 9.376 L 20.797 9.674 L 20.188 10.294 L 19.407 11.088 C 18.977 11.528 18.547 11.966 18.116 12.403 L 17.995 12.526 C 17.722 12.801 17.722 12.801 17.561 12.801 L 17.561 12.949 L 17.416 12.949 L 17.416 13.096 L 17.271 13.096 L 17.271 13.244 L 17.127 13.244 L 17.127 13.39 L 16.983 13.39 L 16.983 13.537 L 16.838 13.537 L 16.838 13.685 L 16.693 13.685 L 16.693 13.832 L 16.549 13.832 L 16.549 13.979 L 16.405 13.979 L 16.405 14.126 L 16.26 14.126 L 16.26 14.273 L 16.115 14.273 L 16.115 14.421 L 15.971 14.421 L 15.971 14.567 L 15.828 14.567 L 15.828 14.714 L 15.683 14.714 L 15.683 14.862 L 15.539 14.862 L 15.539 15.009 L 15.394 15.009 L 15.394 15.155 L 15.25 15.155 L 15.25 15.303 L 15.105 15.303 L 15.105 15.45 L 14.961 15.45 L 14.961 15.598 L 14.816 15.598 L 14.816 15.744 L 14.672 15.744 L 14.672 15.891 L 14.527 15.891 L 14.527 16.039 L 14.383 16.039 L 14.383 16.186 L 14.238 16.186 L 14.238 16.332 L 14.094 16.332 L 14.094 16.48 L 13.949 16.48 L 13.949 16.627 L 13.805 16.627 L 13.805 16.774 L 13.66 16.774 L 13.66 16.921 L 13.516 16.921 L 13.516 17.068 L 13.371 17.068 L 13.371 17.215 L 13.227 17.215 L 13.227 17.363 L 13.082 17.363 L 13.082 17.509 L 12.938 17.509 L 12.938 17.657 L 12.793 17.657 L 12.793 17.804 L 12.649 17.804 L 12.649 17.951 L 12.504 17.951 L 12.504 18.098 L 12.36 18.098 L 12.36 18.245 L 12.215 18.245 L 12.071 18.54 L 11.927 18.54 L 11.927 18.686 C 11.718 18.592 11.523 18.469 11.349 18.32 L 11.349 18.172 L 11.204 18.172 L 11.204 18.024 L 11.059 18.024 L 11.059 17.877 L 10.915 17.877 L 10.915 17.731 L 10.771 17.731 L 10.771 17.583 L 10.626 17.583 L 10.626 17.436 L 10.481 17.436 L 10.481 17.289 L 10.337 17.289 L 10.337 17.142 L 10.193 17.142 L 10.193 16.995 L 10.048 16.995 L 10.048 16.847 L 9.903 16.847 L 9.903 16.7 L 9.759 16.7 L 9.759 16.554 L 9.615 16.554 L 9.615 16.406 L 9.469 16.406 L 9.469 16.259 L 9.325 16.259 L 9.325 16.112 L 9.181 16.112 L 9.181 15.965 L 9.036 15.965 L 9.036 15.818 L 8.89 15.818 L 8.89 15.671 L 8.746 15.671 L 8.746 15.523 L 8.602 15.523 L 8.602 15.377 L 8.458 15.377 L 8.458 15.23 L 8.312 15.23 L 8.312 15.082 L 8.168 15.082 L 8.168 14.935 L 8.024 14.935 L 8.024 14.788 L 7.88 14.788 L 7.88 14.641 L 7.733 14.641 L 7.733 14.494 L 7.589 14.494 L 7.589 14.346 L 7.445 14.346 L 7.445 14.2 L 7.301 14.2 L 7.301 14.053 L 7.155 14.053 L 7.155 13.905 L 7.012 13.905 L 7.012 13.758 L 6.868 13.758 L 6.868 13.612 L 6.724 13.612 L 6.724 13.464 L 6.579 13.464 L 6.579 13.317 L 6.434 13.317 L 6.434 13.17 L 6.146 13.023 L 6.146 12.876 L 6 12.876 L 6 12.729 L 5.855 12.729 L 5.855 12.581 L 5.737 12.533 C 5.507 12.4 5.332 12.217 5.146 12.028 L 5.021 11.902 L 4.613 11.488 L 4.328 11.198 C 3.875 10.736 3.421 10.276 2.965 9.818 C 2.674 9.524 2.383 9.23 2.094 8.935 C 0.954 7.785 0.03 6.526 0 4.811 C 0.061 3.634 0.418 2.607 1.16 1.696 L 1.326 1.48 C 2.062 0.586 3.22 0.148 4.326 0.017 C 5.618 -0.093 6.823 0.323 7.82 1.149 Z" fill="rgb(32, 73, 122)"></path><path d="M 94.383 7.667 C 94.54 7.667 94.698 7.665 94.855 7.663 C 96.901 7.653 98.731 8.412 100.204 9.87 C 101.459 11.16 102.152 12.965 102.362 14.751 L 102.386 14.955 C 102.663 17.742 102.663 17.742 102.218 18.65 L 90.948 18.65 C 91.089 19.584 91.089 19.584 91.408 20.387 L 91.531 20.629 C 91.836 21.128 92.187 21.439 92.681 21.739 L 92.816 21.821 C 94.784 22.922 97.514 22.472 99.57 21.868 C 99.852 21.781 100.132 21.687 100.412 21.592 C 100.572 22.059 100.704 22.529 100.823 23.01 L 100.875 23.22 L 101.04 23.876 L 101.151 24.325 L 101.423 25.416 C 100.745 25.732 100.745 25.732 100.391 25.828 L 100.191 25.882 L 99.983 25.936 L 99.76 25.993 C 96.508 26.814 92.686 26.907 89.72 25.137 C 87.997 24.08 86.898 22.371 86.395 20.415 C 85.717 17.482 85.86 14.147 87.407 11.506 C 88.15 10.357 89.044 9.395 90.225 8.72 L 90.47 8.577 C 91.694 7.914 93.005 7.662 94.383 7.667 Z M 91.957 12.406 C 91.334 13.145 90.947 14.138 90.947 15.119 L 97.739 15.119 C 97.739 14.077 97.454 13.085 96.754 12.301 C 95.496 11.115 93.158 11.127 91.956 12.406 Z M 37.85 8.498 L 38.081 8.617 C 39.784 9.564 40.933 11.17 41.489 13.042 C 41.78 14.091 41.91 15.095 41.91 16.186 C 41.91 16.338 41.91 16.491 41.912 16.644 L 41.912 16.946 L 41.913 17.214 C 41.888 17.694 41.812 18.172 41.751 18.648 L 30.409 18.648 C 30.783 20.387 30.783 20.387 31.94 21.61 C 33.69 22.726 36.021 22.577 37.967 22.136 C 38.518 22.006 39.063 21.861 39.605 21.695 L 39.799 21.635 L 39.944 21.59 C 40.127 22.286 40.308 22.983 40.488 23.68 L 40.685 24.442 L 40.749 24.681 C 40.769 24.756 40.787 24.829 40.806 24.906 L 40.857 25.101 C 40.884 25.267 40.884 25.267 40.812 25.489 C 40.634 25.569 40.452 25.64 40.266 25.699 L 40.092 25.757 C 39.334 25.998 38.558 26.154 37.777 26.297 L 37.62 26.326 C 34.715 26.831 31.241 26.635 28.762 24.856 C 26.899 23.456 25.995 21.411 25.631 19.128 C 25.547 18.497 25.542 17.871 25.545 17.236 L 25.545 17.055 C 25.549 16.171 25.577 15.316 25.785 14.456 L 25.823 14.288 C 26.156 12.876 26.741 11.532 27.663 10.41 L 27.807 10.41 C 27.827 10.367 27.845 10.324 27.864 10.28 C 28.467 9.146 30.201 8.343 31.361 7.985 L 31.637 7.909 L 31.891 7.838 C 33.855 7.392 36.056 7.566 37.85 8.498 Z M 31.493 12.376 C 30.802 13.165 30.535 14.085 30.409 15.118 L 37.272 15.118 C 37.225 14.449 37.225 14.449 37.055 13.867 L 37.01 13.714 C 36.755 12.848 36.245 12.176 35.465 11.734 C 34.221 11.133 32.478 11.4 31.493 12.376 Z M 161.314 7.91 L 166.226 7.91 L 166.237 10.185 L 166.244 11.617 L 166.256 13.888 L 166.265 15.542 L 166.269 16.416 L 166.274 17.241 L 166.275 17.684 C 166.286 18.923 166.341 20.429 167.238 21.371 L 167.352 21.493 C 168.044 22.162 169.037 22.28 169.952 22.271 L 170.14 22.273 C 170.777 22.271 171.361 22.183 172.006 22.106 L 172.006 7.911 L 176.847 7.911 C 176.985 8.051 176.928 8.26 176.928 8.448 L 176.927 8.652 L 176.928 8.866 L 176.927 9.585 L 176.927 10.099 L 176.926 11.496 L 176.926 12.807 L 176.924 15.406 L 176.923 17.93 L 176.923 18.087 L 176.922 18.867 L 176.919 25.342 C 173.637 26.792 168.749 27.132 165.359 25.857 C 163.825 25.195 162.726 24.094 162.036 22.548 L 162.036 22.326 L 161.892 22.253 C 161.797 22.001 161.74 21.736 161.674 21.477 L 161.617 21.263 C 161.359 20.249 161.292 19.241 161.297 18.197 L 161.297 17.858 L 161.299 16.948 L 161.3 15.993 L 161.303 14.189 L 161.307 11.749 C 161.308 10.469 161.311 9.19 161.314 7.91 Z M 119.92 7.91 L 124.833 7.91 L 124.844 10.042 L 124.852 11.387 L 124.864 13.517 L 124.872 15.07 L 124.877 15.89 C 124.881 16.87 124.885 17.851 124.969 18.829 L 124.986 19.019 C 125.082 19.993 125.368 20.924 126.079 21.614 C 126.799 22.195 127.717 22.264 128.6 22.271 L 128.778 22.273 C 129.403 22.27 129.98 22.182 130.613 22.106 L 130.613 7.911 L 135.526 7.911 L 135.526 25.342 C 134.661 25.694 134.661 25.694 134.207 25.816 L 134.037 25.861 C 130.729 26.705 126.152 27.186 123.071 25.392 C 121.513 24.373 120.581 22.791 120.172 20.981 C 120.088 20.573 120.022 20.162 119.974 19.748 C 119.909 19.182 119.91 18.617 119.912 18.046 L 119.912 17.714 L 119.913 16.817 L 119.913 15.877 L 119.915 14.099 L 119.917 11.694 Z M 50.456 7.667 C 50.677 7.667 50.899 7.665 51.121 7.663 C 53.277 7.656 55.453 7.923 57.204 9.308 L 57.204 9.456 L 57.339 9.511 C 57.519 9.618 57.562 9.704 57.638 9.897 L 57.782 9.897 C 59.696 12.135 59.613 15.338 59.602 18.121 L 59.602 18.972 L 59.598 20.573 C 59.596 21.296 59.595 22.021 59.595 22.744 L 59.588 26.152 L 54.603 26.152 L 54.593 23.855 C 54.586 22.61 54.58 21.366 54.573 20.121 C 54.57 19.271 54.565 18.421 54.56 17.57 C 54.559 17.144 54.557 16.718 54.554 16.292 C 54.544 15.191 54.458 13.966 53.819 13.036 C 53.736 12.912 53.736 12.912 53.671 12.759 C 53.571 12.582 53.485 12.55 53.302 12.471 L 53.168 12.385 C 52.465 11.936 51.706 11.865 50.896 11.86 L 50.72 11.859 C 50.101 11.866 49.521 11.954 48.896 12.03 L 48.896 26.152 L 43.982 26.152 L 43.982 8.72 C 45.835 8.205 45.835 8.205 46.637 8.039 L 46.885 7.985 C 48.073 7.736 49.243 7.664 50.455 7.667 Z M 204.141 9.5 C 204.231 9.604 204.231 9.604 204.231 9.75 L 204.377 9.75 C 204.972 10.444 205.354 11.31 205.591 12.192 L 205.634 12.346 C 205.984 13.76 205.913 15.249 205.908 16.695 L 205.907 17.617 L 205.904 19.358 L 205.9 21.342 C 205.899 22.7 205.896 24.059 205.893 25.418 C 204.673 25.814 204.673 25.814 204.146 25.928 L 204.001 25.96 L 203.55 26.056 L 203.393 26.09 C 202.64 26.25 201.893 26.388 201.125 26.446 L 200.877 26.471 C 198.152 26.705 194.925 26.61 192.702 24.769 C 192.452 24.536 192.232 24.27 192.049 23.978 L 191.945 23.821 C 191.056 22.443 190.886 20.69 191.169 19.087 C 191.479 17.709 192.314 16.512 193.49 15.759 C 195.797 14.404 198.455 14.294 201.053 14.532 C 200.958 13.282 200.958 13.282 200.285 12.26 C 199.363 11.518 197.858 11.48 196.735 11.613 C 195.616 11.766 194.468 11.96 193.394 12.325 C 193.219 11.987 193.087 11.628 193.001 11.255 L 192.954 11.076 L 192.807 10.514 C 192.69 10.063 192.573 9.613 192.456 9.162 L 192.413 9.01 C 192.375 8.825 192.411 8.682 192.456 8.501 C 196.225 7.407 200.929 6.605 204.141 9.5 Z M 196.212 18.62 C 195.771 19.161 195.66 19.799 195.706 20.489 C 195.769 21.074 195.994 21.545 196.425 21.942 C 197.586 22.808 199.138 22.688 200.486 22.49 C 200.794 22.465 200.794 22.465 201.053 22.327 C 201.06 22.189 201.062 22.048 201.062 21.91 L 201.063 21.638 L 201.063 21.041 L 201.062 20.41 L 201.063 19.598 L 201.063 18.678 L 201.062 18.26 L 201.062 18.02 C 201.073 17.845 201.073 17.845 200.981 17.768 C 199.401 17.511 197.437 17.39 196.212 18.621 Z M 215.044 7.525 L 215.215 7.525 C 216.121 7.525 216.996 7.573 217.884 7.763 L 218.08 7.805 C 218.523 7.903 218.963 8.011 219.402 8.131 L 219.551 8.172 C 220.08 8.32 220.08 8.32 220.268 8.426 C 220.356 8.659 220.333 8.817 220.27 9.054 L 220.219 9.254 L 220.161 9.468 L 220.103 9.687 L 219.917 10.383 L 219.792 10.854 L 219.673 11.301 L 219.616 11.515 L 219.563 11.713 L 219.516 11.888 C 219.474 12.03 219.474 12.03 219.402 12.177 L 219.27 12.136 L 218.886 12.019 L 218.493 11.898 C 216.916 11.414 215.242 11.032 213.658 11.695 C 213.373 11.875 213.225 12.014 213.094 12.333 C 213.022 12.746 213.022 13.144 213.196 13.53 C 213.369 13.772 213.569 13.882 213.828 14.009 L 213.98 14.084 C 214.639 14.398 215.339 14.589 216.038 14.787 C 217.74 15.274 219.46 15.83 220.414 17.473 C 220.554 17.786 220.671 18.1 220.774 18.429 L 220.846 18.649 C 221.128 20.142 221.045 21.531 220.414 22.915 C 220.364 23.038 220.315 23.16 220.268 23.282 L 220.124 23.282 L 220.066 23.411 C 219.372 24.755 217.842 25.599 216.466 26.045 C 213.604 26.912 210.478 26.575 207.697 25.563 C 207.714 25.129 207.766 24.731 207.899 24.318 C 208.065 23.772 208.221 23.224 208.366 22.672 L 208.446 22.376 L 208.637 21.665 C 208.863 21.708 209.08 21.76 209.298 21.834 L 209.466 21.89 L 209.644 21.949 C 210.218 22.138 210.787 22.294 211.382 22.401 L 211.607 22.442 C 212.946 22.597 214.535 22.635 215.645 21.738 C 215.979 21.412 216.09 21.127 216.101 20.658 C 216.094 20.242 216.06 19.928 215.789 19.606 C 215.104 19.002 214.062 18.808 213.212 18.561 L 213.064 18.517 C 212.818 18.446 212.573 18.375 212.327 18.306 C 211.777 18.155 211.243 17.949 210.732 17.693 C 210.656 17.655 210.579 17.617 210.503 17.579 C 209.451 17.004 208.616 16.248 208.248 15.059 C 207.811 13.496 207.961 11.783 208.71 10.351 C 208.935 9.984 209.2 9.682 209.504 9.382 L 209.66 9.223 C 211.107 7.829 213.134 7.526 215.044 7.525 Z M 63.136 3.057 L 68.047 3.057 L 68.047 7.912 L 72.165 7.912 L 72.165 11.811 L 68.048 11.811 L 68.062 14.689 C 68.066 15.276 68.07 15.864 68.072 16.452 C 68.074 17.106 68.078 17.76 68.083 18.414 C 68.053 20.083 68.053 20.083 68.626 21.617 C 68.698 21.739 68.698 21.739 68.698 21.887 C 68.95 22.018 69.205 22.143 69.463 22.262 C 70.227 22.553 71.156 22.418 71.949 22.328 C 72.42 23.996 72.42 23.996 72.547 24.485 C 72.589 24.645 72.633 24.804 72.679 24.963 L 72.761 25.261 L 72.839 25.536 C 72.887 25.778 72.884 25.92 72.815 26.153 C 70.632 26.65 68.012 26.836 65.952 25.786 L 65.754 25.692 C 64.866 25.246 64.196 24.57 63.785 23.652 L 63.785 23.505 L 63.64 23.432 C 63.573 23.237 63.513 23.039 63.46 22.839 L 63.413 22.678 C 63.082 21.463 63.115 20.219 63.121 18.97 L 63.121 18.212 L 63.125 16.784 L 63.128 15.155 C 63.129 14.04 63.132 12.926 63.135 11.811 L 60.895 11.811 L 60.895 7.912 L 63.135 7.912 L 63.135 3.058 Z M 149.684 3.057 L 154.525 3.057 L 154.525 7.912 L 158.715 7.912 L 158.715 11.811 L 154.525 11.811 C 154.532 13.255 154.542 14.7 154.555 16.145 L 154.565 17.475 L 154.568 17.979 C 154.518 20.104 154.518 20.104 155.391 21.961 C 156.192 22.531 157.186 22.453 158.119 22.364 L 158.334 22.344 L 158.498 22.328 L 158.903 23.857 L 159.042 24.377 L 159.239 25.123 L 159.302 25.358 C 159.339 25.495 159.375 25.632 159.41 25.769 C 159.437 25.932 159.437 25.932 159.365 26.153 C 156.678 26.685 153.902 26.805 151.527 25.243 C 150.412 24.395 149.958 23.01 149.717 21.671 C 149.661 21.263 149.674 20.849 149.675 20.436 L 149.675 20.154 L 149.676 19.389 L 149.677 18.59 L 149.678 17.076 L 149.68 15.354 L 149.684 11.811 L 147.444 11.811 L 147.444 7.912 L 149.684 7.912 L 149.684 3.058 Z M 113.013 7.656 C 113.216 7.658 113.418 7.658 113.621 7.656 C 114.736 7.658 115.803 7.785 116.868 8.136 L 117.048 8.193 C 117.357 8.292 117.664 8.395 117.97 8.499 C 117.928 8.968 117.843 9.432 117.717 9.886 L 117.664 10.086 L 117.496 10.711 L 117.382 11.137 L 117.103 12.177 C 116.904 12.244 116.689 12.246 116.49 12.18 L 116.303 12.13 L 116.11 12.077 C 114.662 11.679 112.823 11.506 111.454 12.226 C 111.121 12.418 110.831 12.677 110.6 12.987 L 110.418 13.162 C 109.659 13.978 109.406 15.434 109.372 16.517 L 109.364 16.784 C 109.337 18.434 109.554 20.094 110.702 21.345 C 111.626 22.203 112.686 22.345 113.883 22.346 L 114.031 22.346 C 115.011 22.346 115.855 22.216 116.779 21.869 C 116.958 21.813 116.958 21.813 117.248 21.813 L 117.649 23.305 L 117.786 23.812 L 117.981 24.542 L 118.043 24.772 L 118.1 24.986 L 118.151 25.174 C 118.186 25.343 118.186 25.343 118.186 25.637 C 115.584 26.762 112.078 26.957 109.422 25.894 C 108.607 25.549 107.874 25.129 107.205 24.534 C 107.153 24.492 107.102 24.448 107.049 24.404 C 106.93 24.304 106.813 24.2 106.699 24.092 L 106.699 23.946 L 106.483 23.872 C 104.705 21.96 104.237 19.034 104.305 16.512 C 104.427 13.903 105.223 11.599 107.061 9.75 L 107.232 9.573 C 108.77 8.078 110.96 7.633 113.013 7.657 Z M 138.633 3.057 L 143.546 3.057 L 143.551 4.616 L 143.566 9.563 L 143.569 10.331 L 143.57 10.486 L 143.577 12.96 L 143.585 15.502 C 143.59 16.425 143.593 17.349 143.594 18.273 L 143.596 18.764 C 143.557 20.45 143.557 20.45 144.214 21.951 C 144.777 22.395 145.356 22.356 146.038 22.343 L 146.322 22.34 L 147.014 22.329 L 147.38 23.683 L 147.505 24.143 L 147.684 24.806 L 147.74 25.014 C 147.835 25.368 147.911 25.714 147.953 26.08 C 146.071 26.776 143.366 26.812 141.525 25.939 C 141.227 25.781 140.936 25.607 140.656 25.418 L 140.49 25.318 C 139.462 24.639 138.992 23.272 138.744 22.115 C 138.658 21.594 138.618 21.065 138.624 20.536 L 138.624 20.309 L 138.625 19.558 L 138.625 17.859 L 138.626 16.182 L 138.628 13.461 L 138.629 10.819 L 138.629 9.837 L 138.633 3.058 Z M 84.359 7.675 L 84.645 7.675 C 85.404 7.68 85.404 7.68 85.673 7.763 C 85.687 9.284 85.663 10.804 85.601 12.323 L 85.415 12.321 C 85.085 12.317 84.755 12.314 84.425 12.312 C 83.299 12.298 82.348 12.378 81.455 13.119 C 81.338 13.206 81.338 13.206 81.194 13.206 L 81.139 13.367 C 81.049 13.574 81.049 13.574 80.919 13.73 C 79.853 15.156 80.015 17.212 80.008 18.896 C 80.008 19.153 80.005 19.409 80.004 19.665 C 80 20.147 79.997 20.63 79.995 21.112 L 79.985 22.926 C 79.977 24.001 79.971 25.076 79.965 26.151 L 75.052 26.151 L 75.052 7.91 L 79.098 7.91 C 79.237 8.286 79.344 8.578 79.415 8.958 L 79.463 9.203 L 79.509 9.455 L 79.559 9.713 L 79.676 10.337 L 79.825 10.154 C 81.117 8.571 82.292 7.656 84.359 7.675 Z M 188.893 7.68 L 190.285 7.68 C 190.458 7.684 190.629 7.712 190.794 7.763 C 190.805 9.284 190.78 10.804 190.721 12.323 L 190.531 12.319 C 190.193 12.313 189.854 12.309 189.515 12.307 C 188.415 12.287 187.407 12.398 186.531 13.133 L 186.386 13.133 L 186.329 13.259 C 186.234 13.431 186.125 13.595 186.003 13.748 C 185.192 14.914 185.15 16.392 185.143 17.767 L 185.141 18.044 L 185.136 18.785 L 185.131 19.564 L 185.121 21.034 L 185.107 23.023 L 185.086 26.152 L 180.173 26.152 L 180.173 7.911 L 184.146 7.911 C 184.342 8.242 184.434 8.507 184.513 8.876 L 184.549 9.042 C 184.644 9.472 184.727 9.903 184.796 10.337 L 184.871 10.225 L 184.969 10.079 L 185.065 9.935 L 185.158 9.823 L 185.302 9.823 L 185.35 9.701 C 185.854 8.795 186.905 8.107 187.854 7.814 C 188.193 7.723 188.542 7.678 188.893 7.68 Z" fill="rgb(32, 73, 122)"></path><path d="M 7.819 1.148 C 8.209 1.491 8.57 1.865 8.933 2.238 L 9.187 2.498 L 9.848 3.175 L 10.527 3.868 L 11.853 5.226 L 11.781 5.374 L 11.636 5.374 L 11.636 5.52 L 11.492 5.52 L 11.492 5.668 L 11.348 5.668 L 11.348 5.815 L 11.203 5.815 L 11.203 5.962 L 11.058 5.962 L 11.058 6.109 L 10.698 6.403 L 10.552 6.586 C 10.4 6.78 10.236 6.911 10.046 7.065 L 9.902 7.249 C 9.75 7.442 9.586 7.573 9.396 7.728 L 9.252 7.911 C 9.1 8.105 8.936 8.235 8.746 8.39 L 8.602 8.573 C 8.45 8.767 8.285 8.896 8.096 9.051 L 7.952 9.235 C 7.8 9.428 7.635 9.559 7.446 9.714 L 7.316 9.883 C 7.192 10.037 7.054 10.178 6.903 10.305 C 6.536 10.628 6.198 10.976 5.856 11.327 L 5.666 11.521 L 5.206 11.993 C 4.752 11.61 4.335 11.193 3.916 10.77 L 3.804 10.656 L 3.217 10.062 L 2.616 9.458 C 2.386 9.227 2.157 8.995 1.928 8.763 C 0.844 7.678 0.027 6.413 0 4.81 C 0.061 3.633 0.418 2.606 1.16 1.695 L 1.326 1.479 C 2.062 0.586 3.22 0.148 4.326 0.017 C 5.617 -0.093 6.822 0.323 7.819 1.149 Z" fill="rgb(32, 73, 122)"></path><path d="M 172.668 31.181 C 173.679 31.181 173.679 31.181 173.905 31.389 C 173.982 31.528 173.982 31.528 174.05 31.682 L 174.222 32.008 L 174.31 32.182 C 174.465 32.478 174.647 32.756 174.826 33.038 C 175.242 33.705 175.646 34.38 176.037 35.063 C 176.161 35.267 176.294 35.467 176.425 35.668 L 176.497 31.181 L 177.509 31.181 L 177.509 37.947 L 176.569 37.947 C 176.364 37.73 176.194 37.483 176.063 37.213 C 175.965 37.043 175.865 36.873 175.764 36.705 C 175.651 36.515 175.539 36.323 175.427 36.131 C 175.172 35.7 174.912 35.273 174.645 34.849 C 174.341 34.365 174.048 33.877 173.752 33.387 L 173.679 37.947 L 172.668 37.947 Z M 182.515 31.531 C 182.96 31.901 183.191 32.32 183.36 32.873 L 183.36 33.168 C 182.992 33.202 182.644 33.221 182.276 33.168 C 182.125 33.032 182.071 32.916 181.989 32.73 C 181.884 32.516 181.757 32.434 181.551 32.331 C 181.191 32.215 180.871 32.245 180.52 32.372 C 180.169 32.614 180.018 32.853 179.921 33.272 C 179.858 33.687 179.872 34.107 179.874 34.524 L 179.873 34.808 C 179.85 35.651 179.85 35.651 180.148 36.414 C 180.507 36.686 180.762 36.867 181.224 36.837 C 181.51 36.805 181.779 36.679 181.988 36.478 C 182.28 36.075 182.329 35.723 182.348 35.227 L 182.083 35.231 C 181.968 35.231 181.853 35.231 181.739 35.233 L 181.564 35.234 C 181.416 35.235 181.268 35.232 181.12 35.227 L 181.048 35.154 L 181.048 34.198 L 183.432 34.198 C 183.437 34.515 183.441 34.831 183.445 35.148 C 183.449 35.755 183.41 36.35 183.08 36.873 L 182.972 37.05 C 182.629 37.526 182.138 37.873 181.557 37.973 C 180.812 38.044 180.143 37.93 179.544 37.453 C 179.077 37.025 178.804 36.419 178.789 35.78 C 178.787 35.657 178.787 35.533 178.787 35.41 L 178.786 35.209 C 178.785 35.07 178.785 34.931 178.786 34.791 C 178.786 34.58 178.784 34.369 178.782 34.159 L 178.782 33.751 L 178.78 33.562 C 178.786 32.805 178.979 32.258 179.496 31.712 C 180.339 30.944 181.59 30.87 182.515 31.531 Z M 170.517 31.514 C 171.033 31.945 171.31 32.424 171.434 33.093 C 171.453 33.313 171.454 33.532 171.453 33.754 L 171.454 33.939 L 171.453 34.327 C 171.452 34.52 171.453 34.716 171.454 34.912 L 171.453 35.289 L 171.454 35.464 C 171.448 36.218 171.286 36.789 170.784 37.358 C 170.282 37.788 169.789 37.975 169.131 37.97 L 168.976 37.969 C 168.583 37.96 168.313 37.912 167.966 37.726 L 167.838 37.658 C 167.387 37.382 167.052 36.897 166.909 36.384 C 166.792 35.822 166.788 35.259 166.791 34.686 L 166.791 34.207 C 166.789 33.241 166.829 32.439 167.511 31.711 C 168.338 30.939 169.591 30.88 170.517 31.514 Z M 168.038 32.798 C 167.869 33.193 167.86 33.587 167.845 34.011 L 167.836 34.229 C 167.748 35.446 167.748 35.446 168.209 36.509 C 168.466 36.744 168.706 36.914 169.057 36.919 C 169.529 36.888 169.799 36.721 170.152 36.402 C 170.634 35.561 170.537 34.027 170.327 33.099 C 170.224 32.729 169.969 32.424 169.627 32.261 C 168.993 32.037 168.454 32.292 168.038 32.798 Z M 193.549 31.181 L 197.666 31.181 L 197.666 32.21 L 194.559 32.21 L 194.559 34.049 L 197.233 34.049 L 197.233 35.005 L 194.559 35.005 L 194.559 36.918 L 197.666 36.918 L 197.666 37.947 L 193.549 37.947 Z M 202.574 31.695 L 202.647 31.916 C 202.543 32.114 202.543 32.114 202.398 32.333 L 202.254 32.556 L 202.141 32.725 C 201.96 32.651 201.78 32.578 201.601 32.499 C 201.087 32.285 200.515 32.131 199.972 32.34 C 199.757 32.475 199.611 32.625 199.54 32.872 C 199.525 33.124 199.513 33.372 199.612 33.607 C 199.844 33.751 200.081 33.806 200.344 33.865 L 200.596 33.923 C 200.805 33.968 201.014 34.007 201.224 34.044 C 201.785 34.16 202.176 34.383 202.54 34.837 C 202.845 35.316 202.941 35.877 202.827 36.432 C 202.702 36.916 202.542 37.326 202.128 37.616 C 201.34 38.079 200.366 38.054 199.485 37.899 C 198.999 37.741 198.55 37.482 198.168 37.138 C 198.143 37.089 198.119 37.041 198.096 36.991 L 198.674 36.256 C 199.018 36.343 199.295 36.5 199.607 36.669 C 200.175 36.928 200.778 36.909 201.352 36.69 C 201.549 36.595 201.627 36.537 201.708 36.329 C 201.763 35.98 201.762 35.748 201.563 35.451 C 201.224 35.213 200.893 35.172 200.494 35.107 C 199.828 34.995 199.301 34.876 198.831 34.353 C 198.429 33.767 198.397 33.287 198.456 32.578 C 198.536 32.175 198.723 31.814 199.034 31.549 C 200.119 30.875 201.522 30.958 202.574 31.695 Z M 203.801 31.181 L 204.884 31.181 L 204.887 31.613 C 204.891 32.085 204.895 32.557 204.901 33.028 L 204.91 33.885 L 204.918 34.714 L 204.921 35.03 C 204.921 35.178 204.924 35.325 204.926 35.473 L 204.928 35.728 C 204.972 36.085 205.106 36.384 205.385 36.61 C 205.623 36.788 205.623 36.788 205.896 36.845 L 206.131 36.867 C 206.438 36.849 206.733 36.739 206.979 36.55 C 207.296 36.154 207.349 35.854 207.356 35.356 L 207.36 35.075 L 207.364 34.772 L 207.368 34.462 L 207.379 33.647 L 207.391 32.813 L 207.413 31.181 L 208.425 31.181 C 208.43 31.823 208.434 32.465 208.436 33.107 L 208.441 34.002 C 208.443 34.289 208.445 34.577 208.445 34.866 C 208.446 34.975 208.446 35.085 208.448 35.194 C 208.456 36.038 208.397 36.707 207.792 37.346 C 207.191 37.917 206.632 38 205.834 37.974 C 205.279 37.948 204.756 37.701 204.379 37.286 C 203.774 36.481 203.779 35.58 203.787 34.6 L 203.788 34.302 C 203.788 34.043 203.789 33.786 203.791 33.528 L 203.794 32.733 Z M 217.75 31.181 L 218.616 31.181 C 218.855 31.705 219.051 32.237 219.239 32.781 L 219.335 33.052 C 219.59 33.788 219.841 34.525 220.088 35.263 C 220.34 36.016 220.607 36.763 220.887 37.505 C 220.928 37.654 220.928 37.654 220.928 37.947 L 219.845 37.947 L 219.34 36.477 L 217.028 36.403 L 216.81 37.213 C 216.723 37.462 216.623 37.702 216.522 37.947 L 215.438 37.947 C 215.553 37.425 215.727 36.929 215.908 36.426 L 216.104 35.873 L 216.154 35.73 C 216.331 35.227 216.501 34.724 216.671 34.22 C 216.906 33.519 217.147 32.82 217.393 32.123 L 217.476 31.886 C 217.668 31.347 217.668 31.347 217.75 31.181 Z M 218.184 32.726 L 217.813 33.853 L 217.687 34.237 L 217.506 34.787 L 217.448 34.961 C 217.356 35.199 217.356 35.199 217.316 35.447 L 219.05 35.447 C 218.851 34.692 218.636 33.941 218.403 33.197 L 218.256 32.726 Z M 211.462 31.181 L 216.014 31.181 L 216.014 32.137 L 214.28 32.137 L 214.28 37.947 L 213.268 37.947 L 213.268 32.137 L 211.462 32.137 Z M 191.162 31.181 L 192.173 31.181 C 192.182 32.13 192.189 33.078 192.194 34.027 C 192.198 34.317 192.199 34.608 192.2 34.899 L 192.203 35.231 C 192.213 35.984 192.142 36.61 191.767 37.272 C 191.174 37.828 190.581 37.989 189.796 37.973 C 189.328 37.946 188.971 37.772 188.637 37.441 C 188.535 37.319 188.437 37.194 188.344 37.065 C 188.457 36.964 188.572 36.865 188.687 36.766 L 188.88 36.598 C 189.066 36.476 189.066 36.476 189.227 36.488 C 189.355 36.55 189.355 36.55 189.478 36.661 C 189.735 36.83 189.99 36.862 190.294 36.845 C 190.605 36.737 190.859 36.551 191.017 36.256 C 191.086 35.973 191.1 35.705 191.104 35.414 L 191.108 35.129 L 191.112 34.823 L 191.116 34.507 L 191.127 33.682 L 191.14 32.836 C 191.147 32.284 191.155 31.732 191.162 31.181 Z M 209.803 31.181 L 210.815 31.181 L 210.815 37.947 L 209.803 37.947 Z" fill="rgb(32, 73, 122)"></path><path d="M 187.289 33.749 C 187.458 34.008 187.475 34.105 187.433 34.411 C 187.254 34.659 187.15 34.764 186.85 34.82 C 186.639 34.779 186.639 34.779 186.466 34.668 C 186.291 34.393 186.314 34.222 186.349 33.897 C 186.6 33.519 186.913 33.61 187.289 33.749 Z" fill="rgb(32, 73, 122)"></path></g></svg>