<svg width="1896" height="322" viewBox="0 0 1896 322" fill="none" xmlns="http://www.w3.org/2000/svg">
<path d="M66.9873 9.67313C70.2809 12.5184 73.3181 15.6191 76.3777 18.7108C77.0901 19.4261 77.8027 20.1411 78.5157 20.8558C80.3721 22.7184 82.2248 24.5847 84.0766 26.4518C85.9747 28.3641 87.8764 30.2728 89.7777 32.1819C93.4937 35.9139 97.2056 39.6499 100.915 43.3884C104.534 40.4136 107.816 37.151 111.094 33.8104C112.064 32.823 113.037 31.8386 114.01 30.8551C116.776 28.0611 119.54 25.2655 122.294 22.4596C123.986 20.7351 125.686 19.0169 127.389 17.3024C128.029 16.6554 128.667 16.0061 129.303 15.3544C137.614 6.83879 146.918 0.869263 159.089 0.0333029C171.476 -0.0683078 182.245 3.73132 191.271 12.4205C199.729 22.0431 201.801 32.4453 201.293 44.8303C200.226 59.4464 190.425 69.2082 180.655 78.9507C179.82 79.7879 178.984 80.6252 178.149 81.4627C176.412 83.2026 174.673 84.9404 172.933 86.6765C170.698 88.9056 168.469 91.1403 166.242 93.3767C164.525 95.0998 162.805 96.82 161.083 98.5393C160.26 99.363 159.437 100.188 158.615 101.013C157.473 102.159 156.327 103.301 155.18 104.442C154.84 104.784 154.501 105.127 154.151 105.48C151.804 107.802 151.804 107.802 150.425 107.802C150.425 108.21 150.425 108.619 150.425 109.04C150.016 109.04 149.608 109.04 149.187 109.04C149.187 109.449 149.187 109.858 149.187 110.279C148.779 110.279 148.37 110.279 147.949 110.279C147.949 110.688 147.949 111.097 147.949 111.518C147.541 111.518 147.132 111.518 146.712 111.518C146.712 111.927 146.712 112.335 146.712 112.757C146.303 112.757 145.895 112.757 145.474 112.757C145.474 113.165 145.474 113.574 145.474 113.995C145.065 113.995 144.657 113.995 144.236 113.995C144.236 114.404 144.236 114.813 144.236 115.234C143.828 115.234 143.419 115.234 142.998 115.234C142.998 115.643 142.998 116.052 142.998 116.473C142.59 116.473 142.182 116.473 141.761 116.473C141.761 116.882 141.761 117.29 141.761 117.711C141.352 117.711 140.944 117.711 140.523 117.711C140.523 118.12 140.523 118.529 140.523 118.95C140.114 118.95 139.706 118.95 139.285 118.95C139.285 119.359 139.285 119.768 139.285 120.189C138.877 120.189 138.468 120.189 138.047 120.189C138.047 120.598 138.047 121.006 138.047 121.428C137.639 121.428 137.231 121.428 136.81 121.428C136.81 121.836 136.81 122.245 136.81 122.666C136.401 122.666 135.993 122.666 135.572 122.666C135.572 123.075 135.572 123.484 135.572 123.905C135.163 123.905 134.755 123.905 134.334 123.905C134.334 124.314 134.334 124.723 134.334 125.144C133.926 125.144 133.517 125.144 133.096 125.144C133.096 125.553 133.096 125.961 133.096 126.382C132.688 126.382 132.28 126.382 131.859 126.382C131.859 126.791 131.859 127.2 131.859 127.621C131.45 127.621 131.042 127.621 130.621 127.621C130.621 128.03 130.621 128.439 130.621 128.86C130.212 128.86 129.804 128.86 129.383 128.86C129.383 129.269 129.383 129.677 129.383 130.099C128.975 130.099 128.566 130.099 128.145 130.099C128.145 130.507 128.145 130.916 128.145 131.337C127.737 131.337 127.329 131.337 126.908 131.337C126.908 131.746 126.908 132.155 126.908 132.576C126.499 132.576 126.091 132.576 125.67 132.576C125.67 132.985 125.67 133.394 125.67 133.815C125.262 133.815 124.853 133.815 124.432 133.815C124.432 134.224 124.432 134.632 124.432 135.053C124.024 135.053 123.615 135.053 123.194 135.053C123.194 135.462 123.194 135.871 123.194 136.292C122.786 136.292 122.378 136.292 121.957 136.292C121.957 136.701 121.957 137.11 121.957 137.531C121.548 137.531 121.14 137.531 120.719 137.531C120.719 137.94 120.719 138.348 120.719 138.77C120.311 138.77 119.902 138.77 119.481 138.77C119.481 139.178 119.481 139.587 119.481 140.008C119.073 140.008 118.664 140.008 118.243 140.008C118.243 140.417 118.243 140.826 118.243 141.247C117.835 141.247 117.427 141.247 117.006 141.247C117.006 141.656 117.006 142.065 117.006 142.486C116.597 142.486 116.189 142.486 115.768 142.486C115.768 142.895 115.768 143.303 115.768 143.725C115.36 143.725 114.951 143.725 114.53 143.725C114.53 144.133 114.53 144.542 114.53 144.963C114.122 144.963 113.713 144.963 113.292 144.963C113.292 145.372 113.292 145.781 113.292 146.202C112.884 146.202 112.476 146.202 112.055 146.202C112.055 146.611 112.055 147.019 112.055 147.441C111.646 147.441 111.238 147.441 110.817 147.441C110.817 147.849 110.817 148.258 110.817 148.679C110.409 148.679 110 148.679 109.579 148.679C109.579 149.088 109.579 149.497 109.579 149.918C109.171 149.918 108.762 149.918 108.342 149.918C108.342 150.327 108.342 150.736 108.342 151.157C107.933 151.157 107.525 151.157 107.104 151.157C107.104 151.566 107.104 151.974 107.104 152.396C106.695 152.396 106.287 152.396 105.866 152.396C105.866 152.804 105.866 153.213 105.866 153.634C105.458 153.634 105.049 153.634 104.628 153.634C104.22 154.452 103.811 155.269 103.391 156.112C102.982 156.112 102.574 156.112 102.153 156.112C102.153 156.52 102.153 156.929 102.153 157.35C100.327 156.502 98.7337 155.568 97.2018 154.254C97.2018 153.845 97.2018 153.436 97.2018 153.015C96.7933 153.015 96.3849 153.015 95.964 153.015C95.964 152.606 95.964 152.197 95.964 151.776C95.5556 151.776 95.1471 151.776 94.7263 151.776C94.7263 151.367 94.7263 150.959 94.7263 150.537C94.3178 150.537 93.9094 150.537 93.4885 150.537C93.4885 150.129 93.4885 149.72 93.4885 149.299C93.0801 149.299 92.6716 149.299 92.2508 149.299C92.2508 148.89 92.2508 148.481 92.2508 148.06C91.8423 148.06 91.4339 148.06 91.0131 148.06C91.0131 147.651 91.0131 147.242 91.0131 146.821C90.6046 146.821 90.1961 146.821 89.7753 146.821C89.7753 146.413 89.7753 146.004 89.7753 145.583C89.3669 145.583 88.9584 145.583 88.5376 145.583C88.5376 145.174 88.5376 144.765 88.5376 144.344C88.1291 144.344 87.7206 144.344 87.2998 144.344C87.2998 143.935 87.2998 143.526 87.2998 143.105C86.8914 143.105 86.4829 143.105 86.0621 143.105C86.0621 142.696 86.0621 142.288 86.0621 141.866C85.6536 141.866 85.2452 141.866 84.8243 141.866C84.8243 141.458 84.8243 141.049 84.8243 140.628C84.4159 140.628 84.0074 140.628 83.5866 140.628C83.5866 140.219 83.5866 139.81 83.5866 139.389C83.1781 139.389 82.7697 139.389 82.3488 139.389C82.3488 138.98 82.3488 138.571 82.3488 138.15C81.9404 138.15 81.5319 138.15 81.1111 138.15C81.1111 137.742 81.1111 137.333 81.1111 136.912C80.7026 136.912 80.2942 136.912 79.8733 136.912C79.8733 136.503 79.8733 136.094 79.8733 135.673C79.4649 135.673 79.0564 135.673 78.6356 135.673C78.6356 135.264 78.6356 134.855 78.6356 134.434C78.2271 134.434 77.8187 134.434 77.3978 134.434C77.3978 134.025 77.3978 133.617 77.3978 133.195C76.9894 133.195 76.5809 133.195 76.1601 133.195C76.1601 132.787 76.1601 132.378 76.1601 131.957C75.7516 131.957 75.3432 131.957 74.9223 131.957C74.9223 131.548 74.9223 131.139 74.9223 130.718C74.5139 130.718 74.1054 130.718 73.6846 130.718C73.6846 130.309 73.6846 129.9 73.6846 129.479C73.2761 129.479 72.8677 129.479 72.4469 129.479C72.4469 129.07 72.4469 128.662 72.4469 128.241C72.0384 128.241 71.6299 128.241 71.2091 128.241C71.2091 127.832 71.2091 127.423 71.2091 127.002C70.8007 127.002 70.3922 127.002 69.9714 127.002C69.9714 126.593 69.9714 126.184 69.9714 125.763C69.5629 125.763 69.1544 125.763 68.7336 125.763C68.7336 125.354 68.7336 124.946 68.7336 124.524C68.3252 124.524 67.9167 124.524 67.4959 124.524C67.4959 124.116 67.4959 123.707 67.4959 123.286C67.0874 123.286 66.679 123.286 66.2581 123.286C66.2581 122.877 66.2581 122.468 66.2581 122.047C65.8497 122.047 65.4412 122.047 65.0204 122.047C65.0204 121.638 65.0204 121.229 65.0204 120.808C64.6119 120.808 64.2035 120.808 63.7826 120.808C63.7826 120.399 63.7826 119.991 63.7826 119.57C63.3742 119.57 62.9657 119.57 62.5449 119.57C62.5449 119.161 62.5449 118.752 62.5449 118.331C62.1364 118.331 61.728 118.331 61.3071 118.331C61.3071 117.922 61.3071 117.513 61.3071 117.092C60.8987 117.092 60.4902 117.092 60.0694 117.092C60.0694 116.683 60.0694 116.275 60.0694 115.853C59.6609 115.853 59.2525 115.853 58.8316 115.853C58.8316 115.445 58.8316 115.036 58.8316 114.615C58.4232 114.615 58.0147 114.615 57.5939 114.615C57.5939 114.206 57.5939 113.797 57.5939 113.376C57.1854 113.376 56.777 113.376 56.3562 113.376C56.3562 112.967 56.3562 112.558 56.3562 112.137C55.9477 112.137 55.5392 112.137 55.1184 112.137C55.1184 111.728 55.1184 111.32 55.1184 110.898C53.893 110.285 53.893 110.285 52.6429 109.66C52.6429 109.251 52.6429 108.842 52.6429 108.421C52.2345 108.421 51.826 108.421 51.4052 108.421C51.4052 108.012 51.4052 107.604 51.4052 107.182C50.9967 107.182 50.5882 107.182 50.1674 107.182C50.1674 106.774 50.1674 106.365 50.1674 105.944C49.8332 105.81 49.4991 105.676 49.1548 105.538C47.1763 104.411 45.6864 102.88 44.0906 101.281C43.5603 100.756 43.5603 100.756 43.0192 100.221C41.8506 99.0633 40.6867 97.9009 39.5233 96.7379C38.7077 95.9257 37.8921 95.1136 37.0764 94.3016C35.3642 92.5955 33.6546 90.8868 31.9465 89.1766C29.775 87.0034 27.5953 84.8387 25.4131 82.6763C23.723 80.9987 22.0386 79.3154 20.3557 77.6305C19.5557 76.8313 18.7537 76.0341 17.9495 75.239C8.16458 65.553 0.247485 54.9546 0 40.5118C0.524362 30.5957 3.5758 21.9474 9.94065 14.2786C10.4105 13.6774 10.8804 13.0762 11.3645 12.4568C17.6589 4.93006 27.5802 1.24697 37.0523 0.147316C48.1198 -0.782893 58.4437 2.72764 66.9873 9.67313Z" fill="#E11C1A"/>
<path d="M810.494 63.6189C811.844 63.6208 813.192 63.6063 814.542 63.5906C832.068 63.5102 847.735 69.8957 860.358 82.1629C871.113 93.0314 877.045 108.235 878.847 123.273C878.915 123.839 878.984 124.405 879.055 124.988C881.428 148.454 881.428 148.454 877.609 156.099C845.75 156.099 813.89 156.099 781.065 156.099C782.283 163.969 782.283 163.969 785.01 170.731C785.36 171.403 785.709 172.076 786.069 172.768C788.677 176.977 791.69 179.588 795.918 182.112C796.299 182.342 796.68 182.572 797.073 182.809C813.926 192.074 837.319 188.287 854.925 183.197C857.345 182.47 859.745 181.685 862.137 180.873C863.512 184.812 864.647 188.773 865.664 192.818C865.887 193.692 865.887 193.692 866.114 194.585C866.583 196.427 867.048 198.269 867.514 200.112C867.833 201.37 868.153 202.627 868.472 203.885C869.251 206.949 870.027 210.014 870.801 213.08C864.997 215.747 864.997 215.747 861.966 216.547C861.399 216.697 860.833 216.847 860.249 217.002C859.66 217.151 859.07 217.3 858.463 217.454C857.834 217.614 857.205 217.773 856.558 217.937C828.697 224.855 795.962 225.632 770.553 210.736C755.792 201.826 746.38 187.436 742.076 170.963C736.26 146.264 737.491 118.191 750.74 95.9436C757.102 86.2636 764.757 78.1669 774.876 72.4854C775.917 71.8938 775.917 71.8938 776.979 71.2902C787.463 65.6961 798.682 63.5833 810.494 63.6189ZM789.712 103.528C784.374 109.746 781.065 118.114 781.065 126.37C800.262 126.37 819.46 126.37 839.239 126.37C839.239 117.596 836.806 109.243 830.807 102.64C820.033 92.6572 799.997 92.7593 789.712 103.528Z" fill="#2E2723"/>
<path d="M326.227 70.6176C327.208 71.1146 327.208 71.1146 328.209 71.6216C342.802 79.5925 352.642 93.1175 357.4 108.879C359.899 117.719 361 126.172 360.999 135.357C361 136.641 361.011 137.925 361.023 139.209C361.025 140.057 361.026 140.904 361.027 141.752C361.029 142.498 361.032 143.244 361.034 144.013C360.816 148.059 360.181 152.073 359.646 156.089C327.582 156.089 295.519 156.089 262.483 156.089C265.699 170.738 265.699 170.738 275.605 181.028C290.602 190.429 310.567 189.174 327.231 185.456C331.95 184.365 336.622 183.142 341.26 181.743C341.808 181.578 342.357 181.412 342.922 181.242C343.335 181.117 343.749 180.992 344.174 180.863C345.339 185.238 346.495 189.614 347.646 193.992C348.038 195.482 348.433 196.971 348.829 198.46C349.398 200.597 349.96 202.736 350.52 204.876C350.789 205.877 350.789 205.877 351.063 206.899C351.224 207.519 351.386 208.139 351.552 208.778C351.696 209.324 351.84 209.87 351.989 210.432C352.22 211.831 352.22 211.831 351.601 213.689C350.033 214.392 348.55 214.95 346.921 215.47C346.431 215.629 345.942 215.788 345.438 215.952C338.947 217.98 332.294 219.302 325.608 220.502C324.941 220.622 324.941 220.622 324.261 220.744C299.37 224.991 269.615 223.342 248.38 208.362C232.431 196.571 224.678 179.36 221.565 160.127C220.843 154.82 220.801 149.551 220.825 144.205C220.826 143.699 220.828 143.194 220.829 142.673C220.857 135.238 221.099 128.038 222.875 120.786C223.04 120.087 223.04 120.087 223.207 119.375C226.062 107.479 231.074 96.1607 238.966 86.7209C239.374 86.7209 239.783 86.7209 240.204 86.7209C240.366 86.3592 240.528 85.9976 240.694 85.6249C245.856 76.0792 260.708 69.3148 270.647 66.3014C271.425 66.0906 272.203 65.8799 273.004 65.6627C273.724 65.4647 274.445 65.2667 275.187 65.0627C292.008 61.3101 310.871 62.7769 326.227 70.6176ZM271.783 103.274C265.858 109.924 263.569 117.665 262.483 126.36C281.885 126.36 301.287 126.36 321.276 126.36C320.879 120.728 320.879 120.728 319.42 115.831C319.293 115.406 319.166 114.981 319.035 114.544C316.844 107.258 312.481 101.584 305.804 97.8694C295.142 92.8086 280.219 95.061 271.783 103.274Z" fill="#2E2723"/>
<path d="M1383.84 65.668C1397.73 65.668 1411.61 65.668 1425.92 65.668C1425.95 71.9912 1425.98 78.3145 1426.01 84.8294C1426.04 88.8488 1426.06 92.8681 1426.08 96.8875C1426.12 103.259 1426.15 109.631 1426.18 116.003C1426.2 120.645 1426.23 125.287 1426.26 129.929C1426.27 132.383 1426.29 134.837 1426.3 137.291C1426.3 139.609 1426.32 141.927 1426.33 144.245C1426.34 145.484 1426.35 146.723 1426.35 147.963C1426.44 158.403 1426.91 171.084 1434.59 179.011C1434.91 179.352 1435.23 179.692 1435.57 180.044C1441.5 185.684 1450 186.666 1457.83 186.598C1458.63 186.605 1458.63 186.605 1459.45 186.612C1464.9 186.596 1469.91 185.854 1475.43 185.204C1475.43 145.757 1475.43 106.31 1475.43 65.668C1489.11 65.668 1502.8 65.668 1516.9 65.668C1518.08 66.8534 1517.59 68.6154 1517.59 70.193C1517.59 70.7599 1517.59 71.3268 1517.59 71.9109C1517.59 72.8071 1517.59 72.8071 1517.59 73.7213C1517.59 75.7394 1517.59 77.7574 1517.59 79.7755C1517.59 81.2156 1517.59 82.6558 1517.59 84.0959C1517.59 88.0192 1517.58 91.9425 1517.58 95.8658C1517.57 99.5464 1517.57 103.227 1517.57 106.908C1517.57 114.2 1517.57 121.492 1517.56 128.784C1517.56 135.869 1517.55 142.955 1517.55 150.04C1517.55 150.476 1517.55 150.913 1517.55 151.363C1517.55 153.552 1517.55 155.741 1517.55 157.931C1517.54 176.106 1517.53 194.281 1517.51 212.456C1489.4 224.661 1447.53 227.529 1418.5 216.791C1405.36 211.215 1395.94 201.949 1390.03 188.92C1390.03 188.307 1390.03 187.694 1390.03 187.062C1389.62 186.858 1389.21 186.653 1388.79 186.443C1387.99 184.322 1387.49 182.097 1386.93 179.901C1386.77 179.307 1386.61 178.714 1386.44 178.102C1384.23 169.566 1383.65 161.075 1383.7 152.293C1383.7 151.34 1383.7 150.387 1383.7 149.433C1383.7 146.88 1383.7 144.326 1383.71 141.773C1383.72 139.091 1383.72 136.41 1383.72 133.728C1383.73 128.666 1383.74 123.604 1383.75 118.541C1383.77 111.69 1383.77 104.838 1383.78 97.9865C1383.79 87.2136 1383.82 76.4408 1383.84 65.668Z" fill="#2E2723"/>
<path d="M1029.25 65.668C1043.14 65.668 1057.03 65.668 1071.34 65.668C1071.37 71.5904 1071.4 77.5129 1071.43 83.6149C1071.45 87.3915 1071.47 91.1681 1071.5 94.9448C1071.53 100.925 1071.57 106.905 1071.6 112.885C1071.62 117.242 1071.64 121.6 1071.67 125.957C1071.69 128.258 1071.7 130.559 1071.71 132.861C1071.74 141.122 1071.78 149.371 1072.5 157.607C1072.55 158.136 1072.6 158.664 1072.64 159.209C1073.47 167.406 1075.91 175.259 1082.01 181.062C1088.18 185.947 1096.04 186.54 1103.6 186.598C1104.35 186.606 1104.35 186.606 1105.13 186.615C1110.48 186.588 1115.42 185.843 1120.85 185.204C1120.85 145.757 1120.85 106.31 1120.85 65.668C1134.73 65.668 1148.62 65.668 1162.93 65.668C1162.93 114.108 1162.93 162.548 1162.93 212.456C1155.52 215.422 1155.52 215.422 1151.64 216.443C1151.16 216.57 1150.67 216.697 1150.18 216.827C1121.84 223.932 1082.64 227.991 1056.24 212.872C1042.9 204.294 1034.9 190.977 1031.4 175.732C1030.78 172.714 1030.27 169.681 1029.87 166.623C1029.82 166.204 1029.76 165.785 1029.71 165.353C1029.16 160.581 1029.17 155.826 1029.18 151.028C1029.18 150.093 1029.18 149.159 1029.18 148.224C1029.18 145.705 1029.19 143.186 1029.19 140.667C1029.19 138.027 1029.2 135.388 1029.2 132.749C1029.2 127.759 1029.2 122.769 1029.21 117.778C1029.22 111.03 1029.22 104.281 1029.22 97.5325C1029.23 86.911 1029.24 76.2895 1029.25 65.668Z" fill="#2E2723"/>
<path d="M434.21 63.6192C436.107 63.6212 438.003 63.6066 439.899 63.591C458.378 63.5318 477.017 65.7776 492.012 77.4406C492.012 77.8494 492.012 78.2582 492.012 78.6794C492.395 78.8327 492.777 78.986 493.172 79.1439C494.704 80.0459 495.076 80.7716 495.725 82.3955C496.133 82.3955 496.542 82.3955 496.963 82.3955C513.355 101.239 512.651 128.211 512.56 151.643C512.552 154.032 512.551 156.421 512.55 158.809C512.546 163.306 512.536 167.802 512.524 172.298C512.507 178.393 512.5 184.488 512.493 190.583C512.482 200.147 512.457 209.71 512.434 219.274C498.343 219.274 484.251 219.274 469.732 219.274C469.702 212.891 469.672 206.509 469.64 199.933C469.618 195.88 469.596 191.827 469.573 187.774C469.535 181.346 469.499 174.918 469.471 168.491C469.451 163.808 469.426 159.126 469.396 154.444C469.381 151.968 469.367 149.492 469.359 147.015C469.351 144.678 469.337 142.341 469.319 140.003C469.311 138.75 469.309 137.498 469.307 136.245C469.223 126.973 468.491 116.667 463.016 108.832C462.306 107.789 462.306 107.789 461.75 106.495C460.894 105.009 460.149 104.737 458.592 104.073C458.211 103.831 457.83 103.589 457.437 103.34C451.415 99.5764 444.911 98.9634 437.976 98.9247C437.479 98.9212 436.981 98.9178 436.468 98.9142C431.161 98.9752 426.194 99.7267 420.841 100.357C420.841 139.599 420.841 178.842 420.841 219.274C406.954 219.274 393.066 219.274 378.758 219.274C378.758 170.834 378.758 122.394 378.758 72.4858C394.643 68.15 394.643 68.15 401.501 66.7567C402.203 66.6066 402.904 66.4565 403.626 66.3019C413.81 64.202 423.83 63.597 434.21 63.6192Z" fill="#2E2723"/>
<path d="M1750.69 79.0462C1751.47 79.9196 1751.47 79.9196 1751.47 81.1583C1751.88 81.1583 1752.29 81.1583 1752.71 81.1583C1757.81 87.0023 1761.08 94.2974 1763.11 101.713C1763.23 102.142 1763.35 102.571 1763.48 103.012C1766.48 114.919 1765.87 127.459 1765.83 139.637C1765.82 142.226 1765.82 144.816 1765.82 147.406C1765.82 152.29 1765.81 157.175 1765.79 162.06C1765.78 167.629 1765.77 173.198 1765.77 178.767C1765.75 190.205 1765.73 201.643 1765.7 213.082C1755.25 216.421 1755.25 216.421 1750.74 217.386C1750.12 217.519 1750.12 217.519 1749.49 217.654C1748.21 217.929 1746.92 218.197 1745.63 218.462C1745.18 218.555 1744.74 218.649 1744.28 218.745C1737.83 220.091 1731.44 221.256 1724.86 221.753C1724.16 221.82 1723.46 221.887 1722.74 221.956C1699.38 223.932 1671.75 223.125 1652.71 207.626C1650.47 205.649 1648.78 203.437 1647.11 200.965C1646.82 200.53 1646.53 200.095 1646.22 199.647C1638.61 188.03 1637.15 173.27 1639.57 159.778C1642.34 148.028 1649.24 138.292 1659.45 131.752C1679.22 120.35 1701.99 119.417 1724.24 121.417C1723.43 110.896 1723.43 110.896 1717.66 102.294C1709.76 96.0476 1696.87 95.7209 1687.26 96.841C1677.67 98.1234 1667.84 99.7671 1658.64 102.836C1657.04 99.8983 1656.11 97.0436 1655.27 93.831C1655.14 93.3335 1655 92.8359 1654.87 92.3233C1654.44 90.7446 1654.03 89.1644 1653.61 87.5842C1653.33 86.5179 1653.04 85.4518 1652.76 84.3858C1652.03 81.6598 1651.31 78.9327 1650.59 76.2034C1650.41 75.571 1650.41 75.571 1650.23 74.9258C1649.9 73.363 1650.21 72.1634 1650.59 70.6292C1682.88 61.4316 1723.17 54.6765 1750.69 79.0462ZM1682.77 155.852C1678.99 160.401 1678.05 165.776 1678.44 171.585C1678.98 176.509 1680.9 180.471 1684.59 183.822C1694.54 191.107 1707.84 190.098 1719.39 188.435C1722.02 188.225 1722.02 188.225 1724.24 187.069C1724.3 185.894 1724.32 184.716 1724.32 183.54C1724.32 182.408 1724.32 182.408 1724.33 181.254C1724.32 180.424 1724.32 179.595 1724.32 178.765C1724.32 177.921 1724.32 177.076 1724.32 176.231C1724.32 174.459 1724.32 172.687 1724.32 170.914C1724.32 168.638 1724.32 166.361 1724.32 164.085C1724.32 162.34 1724.32 160.595 1724.32 158.85C1724.32 158.01 1724.32 157.171 1724.32 156.331C1724.33 155.16 1724.32 153.988 1724.32 152.816C1724.32 152.148 1724.32 151.481 1724.32 150.792C1724.41 149.32 1724.41 149.32 1723.62 148.668C1710.09 146.511 1693.27 145.486 1682.77 155.852Z" fill="#2E2723"/>
<path d="M1844.1 62.4192C1844.59 62.4188 1845.07 62.4184 1845.57 62.418C1853.33 62.4286 1860.82 62.8276 1868.43 64.4322C1868.99 64.5483 1869.54 64.6645 1870.11 64.7842C1873.91 65.6029 1877.68 66.5198 1881.43 67.5289C1881.85 67.6417 1882.27 67.7545 1882.71 67.8707C1887.24 69.1189 1887.24 69.1189 1888.86 70.0064C1889.61 71.9693 1889.41 73.3046 1888.87 75.3039C1888.73 75.8577 1888.58 76.4115 1888.43 76.9821C1888.18 77.8716 1888.18 77.8716 1887.93 78.779C1887.69 79.6973 1887.69 79.6973 1887.43 80.6341C1886.91 82.5899 1886.37 84.5433 1885.84 86.4968C1885.48 87.8176 1885.13 89.1386 1884.77 90.4597C1884.43 91.7147 1884.09 92.9695 1883.75 94.2243C1883.51 95.1175 1883.51 95.1175 1883.27 96.0288C1883.12 96.5787 1882.97 97.1286 1882.81 97.6952C1882.68 98.1801 1882.55 98.665 1882.41 99.1646C1882.05 100.355 1882.05 100.355 1881.43 101.594C1881.06 101.482 1880.68 101.369 1880.3 101.254C1879.2 100.925 1878.11 100.596 1877.01 100.268C1875.89 99.9314 1874.77 99.5934 1873.65 99.2538C1860.14 95.1746 1845.79 91.9541 1832.23 97.5291C1829.79 99.0569 1828.52 100.221 1827.39 102.91C1826.78 106.39 1826.78 109.739 1828.27 112.995C1829.76 115.031 1831.46 115.954 1833.68 117.02C1834.33 117.337 1834.33 117.337 1834.99 117.66C1840.64 120.305 1846.63 121.904 1852.61 123.581C1867.19 127.673 1881.92 132.358 1890.09 146.187C1891.3 148.823 1892.3 151.481 1893.19 154.239C1893.39 154.852 1893.6 155.465 1893.81 156.097C1896.21 168.664 1895.5 180.36 1890.09 192.02C1889.67 193.05 1889.26 194.081 1888.86 195.117C1888.45 195.117 1888.04 195.117 1887.62 195.117C1887.45 195.471 1887.29 195.826 1887.12 196.191C1881.17 207.512 1868.07 214.613 1856.28 218.372C1831.76 225.678 1804.99 222.834 1781.17 214.317C1781.32 210.663 1781.76 207.312 1782.89 203.827C1784.35 199.239 1785.63 194.611 1786.9 189.968C1787.12 189.14 1787.35 188.311 1787.58 187.482C1788.13 185.486 1788.67 183.488 1789.22 181.491C1791.16 181.854 1793.01 182.293 1794.88 182.918C1795.36 183.075 1795.83 183.231 1796.33 183.392C1796.83 183.557 1797.33 183.721 1797.84 183.891C1802.76 185.477 1807.64 186.785 1812.73 187.685C1813.69 187.855 1813.69 187.855 1814.66 188.028C1826.13 189.343 1839.74 189.666 1849.25 182.11C1852.11 179.358 1853.06 176.961 1853.15 173.013C1853.1 169.517 1852.8 166.86 1850.49 164.149C1844.62 159.069 1835.69 157.434 1828.41 155.352C1827.78 155.172 1827.78 155.172 1827.14 154.988C1825.04 154.386 1822.93 153.791 1820.83 153.208C1816.06 151.871 1811.6 150.264 1807.16 148.046C1806.52 147.728 1805.87 147.41 1805.21 147.083C1796.19 142.243 1789.04 135.878 1785.89 125.865C1782.13 112.708 1783.43 98.2806 1789.85 86.2258C1791.77 83.1307 1794.04 80.5877 1796.64 78.058C1797.08 77.6197 1797.52 77.1814 1797.98 76.7298C1810.38 64.9921 1827.74 62.4319 1844.1 62.4192Z" fill="#2E2723"/>
<path d="M542.818 24.8086C556.705 24.8086 570.593 24.8086 584.901 24.8086C584.901 38.2982 584.901 51.7879 584.901 65.6863C596.542 65.6863 608.183 65.6863 620.177 65.6863C620.177 76.5188 620.177 87.3514 620.177 98.5123C608.536 98.5123 596.895 98.5123 584.901 98.5123C584.958 110.63 584.958 110.63 585.031 122.747C585.064 127.694 585.096 132.642 585.116 137.589C585.132 141.581 585.157 145.573 585.188 149.564C585.198 151.082 585.205 152.599 585.209 154.117C584.957 168.179 584.957 168.179 589.86 181.09C590.471 182.126 590.471 182.126 590.471 183.364C592.187 184.231 593.909 185.075 595.654 185.881C596.331 186.198 596.331 186.198 597.022 186.522C603.566 188.969 611.521 187.838 618.32 187.081C622.346 201.119 622.346 201.119 623.441 205.235C623.804 206.581 624.185 207.922 624.572 209.261C624.809 210.1 625.046 210.939 625.283 211.777C625.503 212.542 625.723 213.307 625.95 214.095C626.354 216.129 626.329 217.323 625.747 219.287C607.043 223.472 584.597 225.032 566.954 216.19C566.393 215.932 565.832 215.673 565.254 215.407C557.642 211.646 551.908 205.958 548.388 198.229C548.388 197.82 548.388 197.411 548.388 196.99C547.979 196.786 547.571 196.581 547.15 196.371C546.566 194.707 546.067 193.075 545.603 191.377C545.471 190.931 545.34 190.486 545.204 190.026C542.363 179.798 542.647 169.319 542.692 158.8C542.7 156.674 542.701 154.548 542.702 152.422C542.706 148.412 542.716 144.403 542.729 140.393C542.743 135.822 542.749 131.25 542.756 126.679C542.768 117.29 542.791 107.901 542.818 98.5123C536.487 98.5123 530.156 98.5123 523.633 98.5123C523.633 87.6797 523.633 76.8471 523.633 65.6863C529.964 65.6863 536.295 65.6863 542.818 65.6863C542.818 52.1966 542.818 38.707 542.818 24.8086Z" fill="#2E2723"/>
<path d="M1284.22 24.8086C1297.91 24.8086 1311.59 24.8086 1325.69 24.8086C1325.69 38.2982 1325.69 51.7879 1325.69 65.6863C1337.53 65.6863 1349.38 65.6863 1361.58 65.6863C1361.58 76.5188 1361.58 87.3514 1361.58 98.5123C1349.74 98.5123 1337.89 98.5123 1325.69 98.5123C1325.76 109.829 1325.76 109.829 1325.85 121.145C1325.89 125.768 1325.92 130.39 1325.95 135.012C1325.97 138.743 1326 142.474 1326.03 146.205C1326.05 147.621 1326.05 149.037 1326.06 150.453C1325.63 168.346 1325.63 168.346 1333.12 183.984C1339.97 188.783 1348.49 188.129 1356.48 187.384C1357.09 187.327 1357.7 187.271 1358.32 187.212C1358.79 187.169 1359.25 187.125 1359.73 187.081C1360.89 191.367 1362.05 195.655 1363.2 199.945C1363.59 201.405 1363.99 202.864 1364.38 204.323C1364.95 206.417 1365.51 208.513 1366.07 210.609C1366.34 211.59 1366.34 211.59 1366.62 212.591C1366.78 213.199 1366.94 213.806 1367.1 214.432C1367.25 214.967 1367.39 215.502 1367.54 216.054C1367.77 217.429 1367.77 217.429 1367.15 219.287C1344.14 223.767 1320.35 224.773 1300.01 211.623C1290.46 204.478 1286.57 192.818 1284.51 181.549C1284.03 178.1 1284.14 174.62 1284.15 171.146C1284.15 170.36 1284.15 169.574 1284.15 168.764C1284.15 166.619 1284.16 164.475 1284.16 162.331C1284.17 160.086 1284.17 157.841 1284.17 155.595C1284.17 151.349 1284.17 147.102 1284.18 142.856C1284.19 138.019 1284.19 133.183 1284.19 128.346C1284.2 118.402 1284.21 108.457 1284.22 98.5123C1277.89 98.5123 1271.56 98.5123 1265.04 98.5123C1265.04 87.6797 1265.04 76.8471 1265.04 65.6863C1271.37 65.6863 1277.7 65.6863 1284.22 65.6863C1284.22 52.1966 1284.22 38.707 1284.22 24.8086Z" fill="#2E2723"/>
<path d="M970.095 63.527C971.83 63.545 973.564 63.5397 975.299 63.5317C984.856 63.542 993.997 64.6072 1003.12 67.5708C1003.88 67.8085 1003.88 67.8085 1004.66 68.051C1007.3 68.878 1009.93 69.7437 1012.55 70.6289C1012.2 74.6694 1011.46 78.3978 1010.38 82.3023C1010.23 82.8581 1010.08 83.4138 1009.93 83.9864C1009.45 85.7415 1008.97 87.4949 1008.49 89.2483C1008.17 90.4462 1007.84 91.6442 1007.52 92.8423C1006.72 95.7617 1005.93 98.6796 1005.13 101.597C1003.1 102.164 1001.92 102.178 999.876 101.621C999.084 101.413 999.084 101.413 998.276 101.2C997.728 101.05 997.181 100.9 996.617 100.745C984.221 97.3952 968.468 95.9402 956.734 101.998C953.675 103.829 951.614 105.594 949.428 108.41C948.912 108.898 948.396 109.387 947.864 109.89C941.354 116.765 939.195 129.014 938.907 138.139C938.882 138.881 938.858 139.622 938.832 140.387C938.602 154.275 940.462 168.257 950.301 178.792C958.213 186.017 967.289 187.213 977.548 187.223C978.175 187.224 978.175 187.224 978.814 187.225C987.207 187.217 994.436 186.134 1002.35 183.209C1003.89 182.733 1003.89 182.733 1006.36 182.733C1007.51 186.92 1008.66 191.109 1009.8 195.298C1010.19 196.724 1010.58 198.149 1010.97 199.573C1011.53 201.62 1012.09 203.668 1012.65 205.717C1012.83 206.354 1013 206.992 1013.18 207.649C1013.34 208.244 1013.51 208.839 1013.67 209.452C1013.81 209.974 1013.96 210.497 1014.1 211.035C1014.41 212.462 1014.41 212.462 1014.41 214.939C992.115 224.408 962.085 226.049 939.333 217.1C932.347 214.191 926.063 210.652 920.341 205.649C919.899 205.288 919.457 204.927 919.002 204.555C917.977 203.714 916.988 202.828 916.009 201.933C916.009 201.524 916.009 201.115 916.009 200.694C915.396 200.49 914.784 200.285 914.152 200.075C898.921 183.973 894.918 159.336 895.499 138.098C896.551 116.125 903.357 96.7232 919.103 81.158C919.587 80.667 920.072 80.176 920.571 79.6701C933.749 67.0793 952.503 63.328 970.095 63.527Z" fill="#2E2723"/>
<path d="M1189.55 24.8086C1203.44 24.8086 1217.33 24.8086 1231.64 24.8086C1231.65 31.3076 1231.65 31.3076 1231.67 37.9379C1231.71 51.8193 1231.76 65.7006 1231.81 79.582C1231.82 81.7401 1231.82 83.8983 1231.83 86.0564C1231.83 86.4861 1231.84 86.9157 1231.84 87.3583C1231.86 94.3042 1231.88 101.25 1231.9 108.196C1231.92 115.329 1231.94 122.462 1231.97 129.596C1231.99 133.6 1232 137.604 1232.01 141.608C1232.02 145.38 1232.03 149.152 1232.05 152.924C1232.05 154.305 1232.06 155.686 1232.06 157.067C1231.72 171.268 1231.72 171.268 1237.36 183.906C1242.18 187.634 1247.14 187.313 1252.99 187.197C1254.19 187.184 1254.19 187.184 1255.42 187.171C1257.4 187.149 1259.37 187.119 1261.34 187.081C1262.39 190.881 1263.44 194.683 1264.48 198.486C1264.84 199.778 1265.19 201.07 1265.55 202.362C1266.06 204.223 1266.57 206.085 1267.08 207.948C1267.24 208.521 1267.4 209.095 1267.57 209.686C1268.38 212.679 1269.03 215.585 1269.39 218.668C1253.26 224.529 1230.1 224.837 1214.33 217.481C1211.75 216.167 1209.31 214.669 1206.88 213.094C1206.41 212.817 1205.94 212.54 1205.46 212.254C1196.65 206.534 1192.62 195.023 1190.51 185.283C1189.72 180.806 1189.46 176.519 1189.48 171.982C1189.48 171.351 1189.48 170.719 1189.48 170.069C1189.48 167.962 1189.48 165.854 1189.48 163.747C1189.48 162.233 1189.48 160.719 1189.48 159.205C1189.48 155.95 1189.48 152.695 1189.49 149.439C1189.49 144.733 1189.49 140.027 1189.49 135.32C1189.5 127.684 1189.5 120.047 1189.51 112.41C1189.51 104.994 1189.52 97.578 1189.52 90.1618C1189.52 89.7043 1189.52 89.2468 1189.52 88.7754C1189.52 86.4802 1189.52 84.1849 1189.52 81.8896C1189.53 62.8626 1189.54 43.8356 1189.55 24.8086Z" fill="#2E2723"/>
<path d="M724.625 63.6902C725.435 63.6906 726.245 63.691 727.08 63.6914C733.582 63.7215 733.582 63.7215 735.881 64.4257C735.957 77.2446 735.84 90.0172 735.262 102.826C734.738 102.819 734.215 102.813 733.675 102.806C731.696 102.785 729.717 102.77 727.737 102.758C726.888 102.752 726.038 102.743 725.188 102.732C715.543 102.613 707.403 103.287 699.756 109.532C698.748 110.258 698.748 110.258 697.51 110.258C697.281 110.929 697.281 110.929 697.046 111.613C696.273 113.355 696.273 113.355 695.151 114.671C686.025 126.675 687.414 143.987 687.358 158.178C687.348 160.333 687.332 162.489 687.316 164.645C687.287 168.707 687.264 172.769 687.244 176.831C687.218 181.92 687.183 187.01 687.149 192.099C687.088 201.155 687.04 210.21 686.99 219.265C673.102 219.265 659.215 219.265 644.906 219.265C644.906 168.577 644.906 117.889 644.906 65.6644C656.343 65.6644 667.78 65.6644 679.563 65.6644C680.748 68.8259 681.662 71.2906 682.278 74.4903C682.478 75.5142 682.478 75.5142 682.683 76.5588C682.881 77.6043 682.881 77.6043 683.083 78.6709C683.222 79.3871 683.361 80.1032 683.505 80.8411C683.845 82.5944 684.181 84.3484 684.514 86.1032C684.934 85.5939 685.353 85.0845 685.786 84.5597C696.849 71.2298 706.922 63.522 724.625 63.6902Z" fill="#2E2723"/>
<path d="M1620.08 63.7212C1620.87 63.7204 1621.66 63.7196 1622.47 63.7188C1622.88 63.72 1623.29 63.7213 1623.71 63.7227C1624.95 63.726 1626.2 63.7227 1627.44 63.7188C1628.63 63.7199 1628.63 63.7199 1629.83 63.7212C1630.55 63.7219 1631.27 63.7226 1632.01 63.7233C1633.58 63.7904 1634.87 63.9602 1636.37 64.4228C1636.45 77.2409 1636.27 90.0147 1635.75 102.823C1635.21 102.813 1634.67 102.804 1634.12 102.794C1632.09 102.761 1630.06 102.738 1628.03 102.721C1627.15 102.712 1626.28 102.699 1625.41 102.683C1615.99 102.511 1607.36 103.45 1599.85 109.636C1599.44 109.636 1599.03 109.636 1598.61 109.636C1598.45 109.989 1598.29 110.342 1598.12 110.705C1597.32 112.218 1596.37 113.467 1595.33 114.823C1588.38 124.639 1588.02 137.089 1587.97 148.668C1587.96 149.437 1587.95 150.205 1587.95 150.996C1587.93 153.078 1587.92 155.159 1587.91 157.241C1587.89 159.426 1587.87 161.61 1587.86 163.795C1587.83 167.921 1587.8 172.047 1587.77 176.172C1587.74 181.755 1587.7 187.339 1587.65 192.922C1587.59 201.702 1587.53 210.482 1587.47 219.262C1573.59 219.262 1559.7 219.262 1545.39 219.262C1545.39 168.574 1545.39 117.886 1545.39 65.6615C1556.62 65.6615 1567.86 65.6615 1579.43 65.6615C1581.1 68.4539 1581.89 70.6889 1582.56 73.7906C1582.67 74.2536 1582.77 74.7166 1582.88 75.1937C1583.69 78.8109 1584.4 82.4427 1585 86.1003C1585.21 85.7874 1585.42 85.4744 1585.63 85.1519C1586.05 84.5484 1586.05 84.5484 1586.47 83.9326C1586.74 83.5302 1587.01 83.1278 1587.3 82.7132C1587.56 82.4003 1587.82 82.0873 1588.09 81.7648C1588.5 81.7648 1588.91 81.7648 1589.33 81.7648C1589.47 81.4295 1589.6 81.0942 1589.74 80.7487C1594.06 73.1166 1603.06 67.3182 1611.18 64.851C1614.21 64.0719 1616.94 63.7242 1620.08 63.7212Z" fill="#2E2723"/>
<path d="M66.9789 9.66481C70.3226 12.5554 73.4052 15.7065 76.513 18.8463C77.2393 19.5755 77.9659 20.3044 78.6927 21.033C80.5857 22.9322 82.475 24.8351 84.3635 26.7389C86.2989 28.6886 88.2379 30.6347 90.1766 32.5811C93.9659 36.3865 97.7512 40.1959 101.534 44.0078C101.33 44.4165 101.125 44.8253 100.915 45.2465C100.507 45.2465 100.098 45.2465 99.6773 45.2465C99.6773 45.6553 99.6773 46.064 99.6773 46.4852C99.2688 46.4852 98.8604 46.4852 98.4395 46.4852C98.4395 46.894 98.4395 47.3027 98.4395 47.7239C98.0311 47.7239 97.6226 47.7239 97.2018 47.7239C97.2018 48.1327 97.2018 48.5415 97.2018 48.9626C96.7933 48.9626 96.3849 48.9626 95.964 48.9626C95.964 49.3714 95.964 49.7802 95.964 50.2013C95.5556 50.2013 95.1471 50.2013 94.7263 50.2013C94.7263 50.6101 94.7263 51.0189 94.7263 51.4401C93.6976 52.2694 92.6657 53.0946 91.6319 53.9175C91.2235 54.4285 90.815 54.9394 90.3942 55.4659C89.0926 57.0942 87.6841 58.1931 86.0621 59.4917C85.6536 60.0027 85.2452 60.5137 84.8243 61.0401C83.5227 62.6684 82.1143 63.7673 80.4922 65.066C80.0838 65.5769 79.6753 66.0879 79.2545 66.6143C77.9529 68.2426 76.5444 69.3415 74.9223 70.6402C74.5139 71.1512 74.1054 71.6621 73.6846 72.1886C72.383 73.8169 70.9746 74.9157 69.3525 76.2144C68.944 76.7254 68.5356 77.2364 68.1147 77.7628C66.8131 79.3911 65.4047 80.49 63.7826 81.7886C63.4125 82.2613 63.0423 82.7339 62.6609 83.2209C61.525 84.6175 60.4948 85.6235 59.1338 86.7725C55.994 89.4912 53.0873 92.4245 50.1674 95.3758C49.3597 96.1884 49.3597 96.1884 48.5356 97.0173C47.2215 98.3397 45.9088 99.6636 44.5976 100.989C40.7044 97.7626 37.1244 94.2523 33.54 90.6895C33.0648 90.2177 33.0648 90.2177 32.58 89.7364C30.9025 88.0704 29.2269 86.4024 27.5529 84.7328C25.8446 83.0301 24.1292 81.3346 22.412 79.6408C21.074 78.318 19.7416 76.9896 18.4106 75.6598C17.7817 75.0333 17.1507 74.4089 16.5174 73.7868C7.23084 64.6534 0.231065 53.9963 0 40.5118C0.524362 30.5957 3.5758 21.9474 9.94065 14.2785C10.4105 13.6774 10.8804 13.0762 11.3645 12.4568C17.6589 4.93005 27.5802 1.24696 37.0523 0.147311C48.1124 -0.782279 58.44 2.72291 66.9789 9.66481Z" fill="#B11C25"/>
<path d="M1481.04 263.863C1489.7 263.863 1489.7 263.863 1491.64 265.617C1492.29 266.788 1492.29 266.788 1492.88 268.083C1493.37 269 1493.86 269.917 1494.35 270.833C1494.6 271.317 1494.85 271.8 1495.11 272.298C1496.43 274.79 1497.99 277.133 1499.53 279.502C1502.52 284.217 1505.42 288.99 1508.26 293.795C1508.55 294.282 1508.84 294.768 1509.14 295.269C1509.52 295.906 1509.52 295.906 1509.9 296.556C1510.96 298.28 1512.1 299.959 1513.22 301.644C1513.42 289.176 1513.63 276.709 1513.84 263.863C1516.7 263.863 1519.56 263.863 1522.5 263.863C1522.5 282.667 1522.5 301.471 1522.5 320.844C1519.85 320.844 1517.19 320.844 1514.46 320.844C1512.45 318.728 1511.47 317.182 1510.13 314.651C1509.28 313.221 1508.42 311.801 1507.56 310.381C1506.59 308.777 1505.63 307.166 1504.67 305.554C1502.5 301.915 1500.25 298.332 1497.97 294.759C1495.38 290.68 1492.86 286.565 1490.32 282.444C1490.12 295.116 1489.91 307.788 1489.7 320.844C1486.84 320.844 1483.98 320.844 1481.04 320.844C1481.04 302.041 1481.04 283.237 1481.04 263.863Z" fill="#2E2723"/>
<path d="M1565.38 266.818C1569.19 269.934 1571.16 273.463 1572.61 278.121C1572.61 278.939 1572.61 279.756 1572.61 280.599C1569.46 280.884 1566.48 281.044 1563.33 280.599C1562.03 279.454 1561.57 278.48 1560.87 276.911C1559.97 275.113 1558.89 274.419 1557.12 273.551C1554.04 272.573 1551.29 272.824 1548.28 273.902C1545.28 275.928 1543.99 277.95 1543.16 281.475C1542.62 284.964 1542.73 288.497 1542.75 292.018C1542.75 292.806 1542.74 293.593 1542.74 294.405C1542.55 301.508 1542.55 301.508 1545.11 307.925C1548.18 310.223 1550.36 311.747 1554.32 311.489C1557.03 311.092 1558.77 310.315 1560.86 308.47C1563.36 305.077 1563.78 302.108 1563.95 297.941C1563.2 297.948 1562.45 297.955 1561.67 297.962C1560.69 297.968 1559.71 297.974 1558.73 297.979C1557.98 297.987 1557.98 297.987 1557.22 297.995C1555.96 298 1554.69 297.973 1553.43 297.941C1553.12 297.634 1553.12 297.634 1552.81 297.321C1552.81 294.664 1552.81 292.007 1552.81 289.27C1559.55 289.27 1566.29 289.27 1573.23 289.27C1573.26 291.288 1573.28 293.306 1573.31 295.386C1573.32 296.008 1573.33 296.631 1573.34 297.273C1573.38 302.388 1573.04 307.393 1570.22 311.799C1569.91 312.289 1569.61 312.779 1569.29 313.284C1566.35 317.298 1562.15 320.22 1557.17 321.062C1550.78 321.667 1545.06 320.693 1539.93 316.676C1535.86 312.866 1533.65 308.161 1533.45 302.591C1533.44 301.553 1533.44 300.515 1533.44 299.477C1533.44 298.92 1533.43 298.364 1533.43 297.79C1533.43 296.618 1533.43 295.445 1533.43 294.272C1533.43 292.494 1533.42 290.717 1533.4 288.939C1533.4 287.794 1533.4 286.648 1533.4 285.503C1533.39 284.979 1533.39 284.456 1533.38 283.916C1533.43 277.541 1535.09 272.932 1539.52 268.337C1546.74 261.909 1557.39 261.214 1565.38 266.818Z" fill="#2E2723"/>
<path d="M1462.6 266.671C1467.03 270.305 1469.4 274.335 1470.46 279.961C1470.63 281.821 1470.64 283.666 1470.63 285.533C1470.63 286.049 1470.63 286.564 1470.63 287.096C1470.63 288.18 1470.63 289.264 1470.63 290.348C1470.62 291.993 1470.63 293.637 1470.63 295.281C1470.63 296.342 1470.63 297.402 1470.63 298.462C1470.63 298.946 1470.63 299.43 1470.64 299.929C1470.58 306.286 1469.2 311.083 1464.89 315.884C1460.59 319.509 1456.38 321.078 1450.74 321.032C1450.08 321.027 1450.08 321.027 1449.41 321.023C1446.04 320.947 1443.72 320.545 1440.76 318.98C1440.4 318.791 1440.03 318.602 1439.66 318.407C1435.8 316.08 1432.92 311.995 1431.7 307.684C1430.7 302.948 1430.67 298.203 1430.7 293.386C1430.7 292.04 1430.7 290.696 1430.69 289.35C1430.68 281.219 1431.02 274.459 1436.86 268.326C1443.94 261.835 1454.68 261.337 1462.6 266.671ZM1441.38 277.483C1439.92 280.816 1439.85 284.123 1439.71 287.703C1439.69 288.307 1439.67 288.911 1439.64 289.533C1438.88 299.776 1438.88 299.776 1442.84 308.732C1445.04 310.708 1447.1 312.142 1450.1 312.187C1454.14 311.916 1456.46 310.518 1459.48 307.832C1463.61 300.745 1462.78 287.832 1460.99 280.019C1459.89 276.672 1458.14 274.573 1454.99 272.957C1449.56 271.07 1444.94 273.227 1441.38 277.483Z" fill="#2E2723"/>
<path d="M1659.9 263.863C1671.54 263.863 1683.18 263.863 1695.17 263.863C1695.17 266.725 1695.17 269.586 1695.17 272.534C1686.39 272.534 1677.61 272.534 1668.56 272.534C1668.56 277.644 1668.56 282.754 1668.56 288.018C1676.12 288.018 1683.68 288.018 1691.46 288.018C1691.46 290.675 1691.46 293.332 1691.46 296.07C1683.9 296.07 1676.35 296.07 1668.56 296.07C1668.56 301.384 1668.56 306.698 1668.56 312.173C1677.34 312.173 1686.13 312.173 1695.17 312.173C1695.17 315.035 1695.17 317.896 1695.17 320.844C1683.53 320.844 1671.89 320.844 1659.9 320.844C1659.9 302.041 1659.9 283.237 1659.9 263.863Z" fill="#2E2723"/>
<path d="M1737.21 268.199C1737.52 269.119 1737.52 269.119 1737.83 270.057C1736.95 271.729 1736.95 271.729 1735.71 273.58C1735.3 274.196 1734.89 274.811 1734.47 275.445C1734.15 275.916 1733.83 276.386 1733.5 276.87C1731.95 276.254 1730.41 275.632 1728.88 274.969C1724.47 273.172 1719.57 271.866 1714.92 273.628C1713.07 274.762 1711.83 276.031 1711.22 278.109C1711.09 280.234 1710.99 282.323 1711.84 284.303C1713.82 285.511 1715.86 285.971 1718.11 286.47C1718.82 286.631 1719.53 286.791 1720.26 286.957C1722.06 287.335 1723.85 287.664 1725.65 287.98C1730.45 288.952 1733.8 290.832 1736.92 294.66C1739.53 298.687 1740.36 303.408 1739.38 308.09C1738.31 312.161 1736.94 315.612 1733.39 318.06C1726.64 321.95 1718.29 321.743 1710.75 320.443C1706.51 319.145 1702.83 316.902 1699.46 314.032C1699.26 313.623 1699.05 313.214 1698.84 312.793C1701.29 309.727 1701.29 309.727 1703.79 306.6C1706.75 307.339 1709.12 308.658 1711.8 310.083C1716.66 312.263 1721.83 312.102 1726.74 310.253C1728.43 309.463 1729.09 308.976 1729.79 307.219C1730.27 304.28 1730.25 302.327 1728.55 299.825C1725.64 297.827 1722.81 297.48 1719.39 296.934C1713.69 295.992 1709.17 294.987 1705.15 290.574C1701.7 285.647 1701.43 281.607 1701.94 275.632C1702.63 272.248 1704.22 269.194 1706.89 266.961C1716.18 261.294 1728.19 261.992 1737.21 268.199Z" fill="#2E2723"/>
<path d="M1747.71 263.863C1750.78 263.863 1753.84 263.863 1757 263.863C1757.01 265.063 1757.01 266.263 1757.02 267.5C1757.06 271.473 1757.1 275.445 1757.14 279.418C1757.17 281.826 1757.19 284.233 1757.21 286.641C1757.23 288.966 1757.25 291.291 1757.28 293.617C1757.29 294.502 1757.3 295.388 1757.3 296.273C1757.31 297.517 1757.33 298.76 1757.35 300.004C1757.35 300.711 1757.36 301.418 1757.37 302.146C1757.74 305.152 1758.89 307.678 1761.29 309.58C1763.32 311.073 1763.32 311.073 1765.66 311.554C1766.32 311.618 1766.99 311.682 1767.67 311.747C1770.55 311.507 1772.59 310.746 1774.94 309.076C1777.65 305.741 1778.11 303.217 1778.17 299.02C1778.18 298.239 1778.19 297.458 1778.2 296.653C1778.21 295.804 1778.22 294.955 1778.23 294.105C1778.25 293.234 1778.26 292.363 1778.27 291.492C1778.31 289.203 1778.34 286.914 1778.37 284.625C1778.4 282.287 1778.43 279.95 1778.47 277.613C1778.53 273.03 1778.6 268.446 1778.66 263.863C1781.52 263.863 1784.38 263.863 1787.32 263.863C1787.36 269.269 1787.4 274.675 1787.42 280.08C1787.43 282.591 1787.44 285.101 1787.46 287.612C1787.48 290.037 1787.49 292.463 1787.5 294.889C1787.5 295.811 1787.51 296.734 1787.52 297.656C1787.59 304.761 1787.09 310.396 1781.9 315.778C1776.76 320.59 1771.96 321.286 1765.13 321.062C1760.19 320.751 1756.1 318.863 1752.66 315.27C1747.48 308.497 1747.53 300.905 1747.59 292.654C1747.59 291.817 1747.6 290.981 1747.6 290.144C1747.6 287.97 1747.61 285.795 1747.63 283.62C1747.64 281.39 1747.65 279.16 1747.65 276.93C1747.67 272.575 1747.69 268.219 1747.71 263.863Z" fill="#2E2723"/>
<path d="M1867.2 263.863C1869.65 263.863 1872.1 263.863 1874.63 263.863C1876.67 268.274 1878.35 272.753 1879.97 277.334C1880.23 278.087 1880.5 278.84 1880.78 279.616C1882.97 285.81 1885.11 292.024 1887.23 298.242C1889.07 303.598 1890.98 308.924 1892.99 314.219C1893.18 314.732 1893.37 315.246 1893.57 315.776C1893.74 316.219 1893.9 316.663 1894.08 317.12C1894.43 318.367 1894.43 318.367 1894.43 320.844C1891.37 320.844 1888.31 320.844 1885.15 320.844C1883.72 316.757 1882.29 312.669 1880.82 308.457C1874.28 308.253 1867.75 308.048 1861.01 307.838C1860.4 310.086 1859.79 312.334 1859.16 314.651C1858.4 316.756 1857.55 318.781 1856.68 320.844C1853.62 320.844 1850.55 320.844 1847.4 320.844C1848.39 316.436 1849.88 312.271 1851.42 308.031C1851.98 306.477 1852.54 304.922 1853.1 303.367C1853.24 302.969 1853.39 302.571 1853.53 302.162C1855.05 297.939 1856.51 293.696 1857.96 289.451C1859.98 283.552 1862.04 277.667 1864.15 271.799C1864.38 271.14 1864.62 270.481 1864.86 269.802C1866.5 265.264 1866.5 265.264 1867.2 263.863ZM1870.92 276.87C1869.86 280.033 1868.8 283.198 1867.74 286.362C1867.38 287.439 1867.02 288.517 1866.66 289.594C1866.15 291.138 1865.63 292.684 1865.11 294.229C1864.95 294.713 1864.79 295.198 1864.62 295.697C1863.83 297.7 1863.83 297.7 1863.49 299.786C1868.39 299.786 1873.29 299.786 1878.34 299.786C1876.76 293.976 1875.14 288.218 1873.31 282.483C1873.14 281.941 1872.97 281.399 1872.79 280.841C1872.37 279.517 1871.95 278.193 1871.53 276.87C1871.33 276.87 1871.13 276.87 1870.92 276.87Z" fill="#2E2723"/>
<path d="M1813.35 263.863C1826.22 263.863 1839.08 263.863 1852.34 263.863C1852.34 266.52 1852.34 269.177 1852.34 271.915C1847.44 271.915 1842.54 271.915 1837.49 271.915C1837.49 288.062 1837.49 304.208 1837.49 320.844C1834.63 320.844 1831.77 320.844 1828.82 320.844C1828.82 304.698 1828.82 288.551 1828.82 271.915C1823.72 271.915 1818.61 271.915 1813.35 271.915C1813.35 269.258 1813.35 266.601 1813.35 263.863Z" fill="#2E2723"/>
<path d="M1639.46 263.863C1642.32 263.863 1645.17 263.863 1648.12 263.863C1648.18 269.318 1648.22 274.772 1648.25 280.226C1648.26 282.76 1648.28 285.293 1648.31 287.826C1648.33 290.276 1648.35 292.726 1648.36 295.175C1648.36 296.105 1648.37 297.035 1648.38 297.964C1648.47 304.302 1647.86 309.584 1644.64 315.154C1639.56 319.84 1634.48 321.195 1627.76 321.055C1623.76 320.833 1620.69 319.37 1617.83 316.577C1616.95 315.564 1616.12 314.493 1615.32 313.412C1616.29 312.564 1617.27 311.727 1618.26 310.896C1619.08 310.195 1619.08 310.195 1619.91 309.48C1621.51 308.457 1621.51 308.457 1622.88 308.556C1623.98 309.076 1623.98 309.076 1625.03 310.005C1627.24 311.439 1629.42 311.704 1632.03 311.554C1634.69 310.645 1636.86 309.089 1638.22 306.599C1638.81 304.22 1638.93 301.96 1638.96 299.512C1638.98 298.719 1638.99 297.925 1639 297.108C1639.01 296.248 1639.02 295.388 1639.03 294.529C1639.05 293.644 1639.06 292.76 1639.07 291.876C1639.11 289.555 1639.14 287.235 1639.17 284.914C1639.2 282.544 1639.23 280.173 1639.27 277.802C1639.33 273.156 1639.4 268.51 1639.46 263.863Z" fill="#2E2723"/>
<path d="M1799.14 263.863C1802 263.863 1804.86 263.863 1807.8 263.863C1807.8 282.667 1807.8 301.471 1807.8 320.844C1804.95 320.844 1802.09 320.844 1799.14 320.844C1799.14 302.041 1799.14 283.237 1799.14 263.863Z" fill="#2E2723"/>
<path d="M1604.19 285.532C1605.64 287.711 1605.78 288.54 1605.43 291.106C1603.89 293.189 1603 294.079 1600.44 294.551C1598.62 294.203 1598.62 294.203 1597.15 293.274C1595.64 290.957 1595.84 289.512 1596.14 286.77C1598.29 283.604 1600.97 284.361 1604.19 285.532Z" fill="#2F2723"/>
</svg>
