<svg xmlns="http://www.w3.org/2000/svg" width="183" height="40" fill="none" overflow="visible"><g><path d="M 0 3.02 C 0 1.352 1.259 0 2.813 0 L 23.263 0 C 25.067 0 26.039 2.273 24.863 3.741 L 12.799 18.811 C 12.111 19.67 12.12 20.943 12.82 21.79 L 24.747 36.232 C 25.954 37.694 24.988 40 23.168 40 L 2.813 40 C 1.259 40 0 38.648 0 36.98 Z" fill="rgb(32, 73, 122)"></path><path d="M 175.684 28.152 L 178.802 16.09 L 183 16.09 L 177.818 32.173 C 176.82 35.274 176.03 37.194 175.449 37.934 C 174.866 38.685 173.702 39.059 171.956 39.059 C 171.605 39.059 171.323 39.055 171.111 39.044 C 170.899 39.044 170.58 39.029 170.155 38.999 L 170.155 35.578 L 170.654 35.609 C 171.024 35.629 171.395 35.614 171.762 35.563 C 172.113 35.513 172.409 35.399 172.649 35.219 C 172.88 35.048 173.093 34.693 173.287 34.154 C 173.49 33.614 173.573 33.283 173.536 33.163 L 167.993 16.09 L 172.386 16.09 Z M 167.01 29.396 L 167.01 32.591 L 165.139 32.667 C 163.273 32.736 161.998 32.387 161.315 31.617 C 160.872 31.126 160.649 30.371 160.649 29.351 L 160.649 19.283 L 158.543 19.283 L 158.543 16.238 L 160.649 16.238 L 160.649 11.677 L 164.557 11.677 L 164.557 16.238 L 167.01 16.238 L 167.01 19.283 L 164.557 19.283 L 164.557 27.925 C 164.557 28.595 164.636 29.015 164.793 29.185 C 164.95 29.345 165.43 29.425 166.234 29.425 L 166.608 29.425 L 167.01 29.395 Z M 156.257 16.09 L 156.257 32.443 L 152.253 32.443 L 152.253 16.09 Z M 154.42 10.193 C 155.435 10.193 156.258 11.077 156.258 12.166 C 156.258 13.256 155.435 14.139 154.42 14.139 L 154.09 14.139 C 153.09 14.118 152.289 13.241 152.289 12.167 C 152.289 11.092 153.09 10.215 154.09 10.194 L 154.42 10.194 Z" fill="rgb(32, 73, 122)"></path><path d="M 156.509 11.59 C 156.509 12.987 155.375 14.12 153.977 14.12 C 152.578 14.12 151.445 12.987 151.445 11.59 C 151.445 10.193 152.578 9.061 153.977 9.061 C 155.375 9.061 156.509 10.193 156.509 11.59 Z M 141.796 18.979 C 140.456 18.979 139.537 19.595 139.039 20.825 C 138.78 21.474 138.651 22.304 138.651 23.315 L 138.651 32.167 L 134.715 32.167 L 134.715 15.843 L 138.526 15.843 L 138.526 18.229 C 139.034 17.389 139.514 16.783 139.967 16.413 C 140.78 15.754 141.81 15.424 143.057 15.424 C 144.618 15.424 145.893 15.869 146.882 16.759 C 147.879 17.639 148.379 19.105 148.379 21.154 L 148.379 32.167 L 144.332 32.167 L 144.332 22.22 C 144.332 21.359 144.226 20.699 144.013 20.239 C 143.625 19.399 142.886 18.978 141.796 18.978 Z M 127.024 29.859 C 126.927 30.005 126.835 30.155 126.747 30.309 C 126.6 30.558 126.424 30.778 126.221 30.969 C 125.602 31.569 125.001 31.979 124.419 32.199 C 123.846 32.418 123.172 32.529 122.396 32.529 C 120.161 32.529 118.655 31.659 117.879 29.918 C 117.445 28.958 117.228 27.543 117.228 25.673 L 117.228 15.815 L 121.274 15.815 L 121.274 25.673 C 121.274 26.603 121.375 27.304 121.579 27.773 C 121.939 28.604 122.645 29.018 123.699 29.018 C 125.048 29.018 125.971 28.428 126.47 27.248 C 126.729 26.608 126.858 25.763 126.858 24.712 L 126.858 15.815 L 130.863 15.815 L 130.863 32.169 L 127.024 32.169 Z M 106.706 32.169 L 104.336 20.257 L 101.939 32.169 L 97.838 32.169 L 93.597 15.815 L 97.838 15.815 L 100.194 27.548 L 102.369 15.815 L 106.374 15.815 L 108.674 27.593 L 111.029 15.815 L 115.145 15.815 L 110.766 32.169 Z M 90.496 17.883 C 91.771 19.613 92.409 21.659 92.409 24.019 C 92.409 26.42 91.771 28.476 90.496 30.186 C 89.221 31.886 87.286 32.736 84.69 32.736 C 82.095 32.736 80.159 31.886 78.884 30.186 C 77.609 28.476 76.972 26.42 76.972 24.019 C 76.972 21.659 77.609 19.613 78.884 17.883 C 80.159 16.153 82.095 15.288 84.69 15.288 C 87.286 15.288 89.221 16.153 90.496 17.884 Z M 84.676 18.904 C 83.522 18.904 82.631 19.349 82.002 20.239 C 81.383 21.119 81.074 22.379 81.074 24.019 C 81.074 25.66 81.383 26.925 82.002 27.816 C 82.631 28.705 83.522 29.151 84.676 29.151 C 85.831 29.151 86.718 28.705 87.337 27.816 C 87.956 26.925 88.266 25.66 88.266 24.019 C 88.266 22.379 87.956 21.119 87.337 20.239 C 86.718 19.348 85.831 18.904 84.676 18.904 Z M 67.664 18.979 C 66.325 18.979 65.405 19.595 64.907 20.825 C 64.648 21.474 64.519 22.304 64.519 23.315 L 64.519 32.167 L 60.583 32.167 L 60.583 15.843 L 64.394 15.843 L 64.394 18.229 C 64.902 17.389 65.382 16.783 65.835 16.413 C 66.648 15.754 67.678 15.424 68.925 15.424 C 70.486 15.424 71.761 15.869 72.749 16.759 C 73.747 17.639 74.247 19.105 74.247 21.154 L 74.247 32.167 L 70.2 32.167 L 70.2 22.22 C 70.2 21.359 70.094 20.699 69.882 20.239 C 69.493 19.399 68.754 18.978 67.664 18.978 Z M 58.464 32.17 L 52.977 32.17 L 46.672 22.508 L 44.635 24.773 L 44.635 32.17 L 40.437 32.17 L 40.437 10.055 L 44.635 10.055 L 44.635 19.163 L 52.52 10.057 L 58.035 10.057 L 49.665 19.163 L 58.464 32.171 Z" fill="rgb(32, 73, 122)"></path></g></svg>