<svg width="1448" height="483" viewBox="0 0 1448 483" fill="none" xmlns="http://www.w3.org/2000/svg">
<path d="M1085.5 0.00107905C1086.92 -0.0234123 1088.48 0.369684 1089.91 1.11143C1091.12 1.74529 1092.62 3.02361 1093.24 3.94737C1093.87 4.87609 1094.6 6.51688 1094.88 7.59776C1095.29 9.20448 1095.15 10.5952 1094.13 15.214C1093.45 18.3244 1091.68 26.3924 1090.21 33.1485C1088.73 39.9048 1086.41 50.9607 1085.04 57.7169C1083.68 64.4646 1082.62 70.0067 1082.68 70.045C1082.74 70.0696 1086.11 69.9223 1090.16 69.7159C1094.2 69.5095 1104.02 69.0967 1111.99 68.7921C1123.05 68.3695 1126.86 68.3792 1128.17 68.8214C1129.11 69.1408 1130.5 69.8143 1131.24 70.3155C1131.98 70.8169 1133 72.0595 1133.52 73.0714C1134.03 74.0835 1134.6 75.6904 1134.79 76.6339C1134.97 77.5822 1134.88 79.2927 1134.59 80.4425C1134.3 81.5922 1133.43 83.2476 1132.67 84.1271C1131.9 85.0066 1130.41 86.1424 1129.36 86.6534C1127.7 87.4543 1125.27 87.6656 1111.5 88.2159C1102.72 88.5648 1091.83 89.0309 1087.29 89.2521C1082.74 89.4731 1078.95 89.7678 1078.86 89.9005C1078.78 90.0381 1077.7 95.8955 1076.46 102.922C1075.22 109.948 1073.34 121.225 1072.27 127.982C1071.21 134.738 1069.67 145.022 1068.85 150.83C1068.03 156.643 1066.82 165.816 1066.15 171.221C1065.47 176.626 1064.48 185.249 1063.95 190.384C1063.41 195.519 1062.63 204.143 1062.22 209.548C1061.8 214.953 1061.24 224.018 1060.97 229.693C1060.7 235.369 1060.48 244.104 1060.49 249.102C1060.49 254.099 1060.71 261.509 1060.97 265.563C1061.23 269.616 1061.69 274.923 1061.97 277.356C1062.26 279.788 1062.93 284.102 1063.47 286.937C1064.01 289.777 1065.01 293.978 1065.7 296.273C1066.4 298.567 1067.76 302.085 1068.75 304.09C1069.73 306.09 1071.53 308.837 1072.74 310.189C1073.95 311.545 1075.83 313.053 1076.91 313.539C1078.1 314.08 1080.03 314.434 1081.82 314.439C1083.44 314.439 1085.97 314.114 1087.46 313.716C1088.94 313.318 1091.55 312.271 1093.25 311.387C1094.96 310.507 1097.83 308.684 1099.63 307.338C1101.43 305.992 1105.01 302.768 1107.57 300.179C1110.13 297.584 1114.2 292.941 1116.6 289.851C1119.01 286.76 1123.01 281.139 1125.5 277.356C1127.98 273.572 1131.73 267.489 1133.83 263.843C1135.92 260.197 1139.92 252.566 1142.71 246.891C1145.71 240.793 1148 235.468 1148.32 233.87C1148.61 232.386 1149.75 227.63 1150.84 223.306C1151.93 218.982 1153.66 212.903 1154.67 209.793C1155.68 206.688 1157.33 202.045 1158.33 199.475C1159.34 196.91 1161.57 191.932 1163.3 188.419C1165.03 184.906 1167.49 180.503 1168.76 178.636C1170.4 176.248 1171.75 174.882 1173.3 174.047C1175.14 173.054 1176.05 172.882 1178.8 173.02C1181.84 173.172 1182.13 173.098 1182.72 172.018C1183.07 171.374 1184.58 169.713 1186.07 168.332C1187.56 166.946 1190.32 165.005 1192.2 164.008C1194.08 163.015 1197.27 161.738 1199.3 161.173C1201.32 160.603 1204.97 160.003 1207.39 159.841C1210.63 159.62 1212.93 159.763 1215.98 160.382C1218.27 160.844 1221.58 161.822 1223.34 162.554C1225.09 163.291 1227.85 164.755 1229.47 165.807C1231.09 166.863 1234.29 169.615 1236.58 171.929C1238.87 174.243 1241.85 177.796 1243.19 179.82C1244.53 181.85 1246.66 185.608 1247.91 188.173C1249.17 190.743 1250.92 194.832 1251.8 197.264C1252.68 199.696 1254.12 204.56 1255 208.073C1255.88 211.587 1256.95 216.839 1257.38 219.743C1257.81 222.647 1258.38 228.731 1258.66 233.256C1258.99 238.769 1258.99 244.002 1258.66 249.102C1258.39 253.291 1258.3 256.829 1258.45 256.964C1258.61 257.102 1261.64 257.204 1265.19 257.194C1269.8 257.19 1272.64 256.93 1275.09 256.296C1276.98 255.809 1280.73 254.331 1283.43 253.014C1286.12 251.702 1289.76 249.525 1291.52 248.189C1293.27 246.847 1297.4 243.024 1300.68 239.688C1303.97 236.351 1307.81 232.19 1309.2 230.431C1310.6 228.677 1313.57 224.475 1315.79 221.095C1318.01 217.719 1321.19 212.521 1322.84 209.548C1324.49 206.575 1327.17 201.214 1328.79 197.632C1330.41 194.05 1331.74 190.9 1331.74 190.63C1331.74 190.36 1330.14 189.401 1328.19 188.507C1326.23 187.608 1323.09 185.854 1321.2 184.606C1319.31 183.362 1316.22 181.043 1314.33 179.451C1312.44 177.864 1309.39 174.7 1307.55 172.42C1305.46 169.831 1303.21 166.239 1301.56 162.868C1300.11 159.896 1298.56 156.029 1298.13 154.27C1297.69 152.516 1297.13 149.307 1296.88 147.145C1296.6 144.712 1296.61 141.715 1296.91 139.282C1297.17 137.12 1297.94 133.696 1298.62 131.667C1299.3 129.643 1300.58 126.788 1301.45 125.328C1302.33 123.869 1304.38 121.329 1306.01 119.678C1307.91 117.747 1310.36 115.953 1312.87 114.636C1315.02 113.511 1318.21 112.194 1319.97 111.712C1322.18 111.108 1324.96 110.838 1329.05 110.828C1333.34 110.818 1335.73 111.054 1337.88 111.702C1339.49 112.194 1342.34 113.403 1344.21 114.391C1346.51 115.614 1348.64 117.299 1350.83 119.652C1352.82 121.785 1354.76 124.532 1355.87 126.777C1356.87 128.792 1358.14 132.099 1358.7 134.123C1359.26 136.152 1359.92 140.241 1360.17 143.214C1360.45 146.555 1360.45 150.968 1360.17 154.761C1359.91 158.141 1359.35 162.893 1358.93 165.325C1358.51 167.758 1357.84 171.187 1357.45 172.942C1357.06 174.7 1356.87 176.248 1357.04 176.381C1357.2 176.518 1360.8 176.621 1365.02 176.611C1369.25 176.607 1376.56 176.208 1381.29 175.722C1386.01 175.24 1389.93 174.917 1390.01 175C1390.08 175.099 1388.18 180.36 1385.78 186.699C1383.38 193.053 1380.19 202.005 1378.69 206.6C1377.19 211.194 1375.08 218.048 1373.99 221.831C1372.91 225.615 1371.14 232.248 1370.06 236.572C1368.98 240.896 1367.44 247.643 1366.63 251.559C1365.82 255.48 1364.71 261.779 1364.16 265.563C1363.61 269.346 1362.92 275.871 1362.62 280.058C1362.22 285.59 1362.21 289.291 1362.59 293.57C1362.89 296.813 1363.46 300.794 1363.88 302.415C1364.29 304.037 1365.29 306.743 1366.09 308.434C1366.96 310.257 1368.3 312.11 1369.39 312.994C1370.4 313.81 1372.34 314.807 1373.68 315.21C1375.03 315.608 1376.85 315.938 1377.73 315.933C1378.61 315.928 1380.48 315.49 1381.9 314.959C1383.32 314.428 1385.91 312.812 1387.67 311.372C1389.42 309.927 1392.27 306.989 1394 304.842C1395.74 302.695 1398.52 298.842 1400.19 296.273C1401.86 293.708 1404.77 288.73 1406.66 285.217C1408.55 281.704 1411.47 275.847 1413.16 272.196C1414.84 268.551 1417.66 262.025 1419.41 257.701C1421.16 253.377 1424.33 244.645 1426.46 238.292C1428.91 230.956 1430.73 226.317 1431.43 225.575C1432.05 224.932 1433.43 223.998 1434.51 223.497C1435.59 222.996 1437.36 222.588 1438.43 222.588C1439.51 222.588 1441.28 223.001 1442.36 223.502C1443.44 223.998 1444.91 225.045 1445.64 225.821C1446.36 226.603 1447.19 227.846 1447.48 228.588C1447.77 229.33 1448 231.045 1448 232.396C1448 234.115 1446.99 237.909 1444.63 245.048C1442.78 250.654 1439.42 259.887 1437.16 265.563C1434.91 271.238 1430.71 280.638 1427.82 286.445C1424.94 292.258 1420.99 299.555 1419.05 302.66C1417.11 305.77 1413.94 310.404 1412.01 312.964C1410.09 315.529 1406.63 319.514 1404.34 321.823C1402.05 324.138 1398.74 327.057 1396.98 328.31C1395.23 329.568 1392.36 331.263 1390.61 332.088C1388.85 332.908 1386.1 333.921 1384.48 334.339C1382.86 334.757 1379.77 335.09 1377.61 335.085C1375.45 335.08 1372.25 334.771 1370.5 334.402C1368.74 334.029 1365.87 333.071 1364.12 332.27C1362.36 331.469 1359.61 329.818 1357.99 328.6C1356.37 327.386 1353.97 324.973 1352.66 323.248C1351.35 321.519 1349.66 318.89 1348.91 317.401C1348.17 315.918 1346.98 312.876 1346.27 310.646C1345.57 308.415 1344.62 304.435 1344.16 301.801C1343.57 298.322 1343.34 294.116 1343.34 286.445C1343.34 279.414 1343.62 273.582 1344.18 269.002C1344.65 265.219 1345.57 259.028 1346.23 255.244C1346.89 251.461 1347.88 246.267 1348.44 243.697C1349 241.133 1350.42 235.163 1351.6 230.431C1352.79 225.704 1354.86 218.185 1356.2 213.724C1357.54 209.267 1359.31 203.518 1360.13 200.948C1360.95 198.388 1361.57 196.258 1361.52 196.217C1361.47 196.187 1358.99 196.001 1350.63 195.465L1347.76 202.261C1346.18 206 1343.33 212.044 1341.43 215.69C1339.53 219.34 1336.34 224.976 1334.32 228.219C1332.31 231.462 1328.43 237.103 1325.7 240.749C1322.87 244.518 1317.96 250.159 1314.34 253.805C1310.83 257.338 1306.05 261.651 1303.71 263.386C1301.38 265.125 1297.84 267.484 1295.86 268.629C1293.88 269.774 1290.38 271.518 1288.09 272.506C1285.79 273.499 1281.82 274.766 1279.26 275.331C1275.39 276.181 1272.88 276.353 1254.49 276.373L1252.39 282.761C1251.23 286.274 1249.07 291.694 1247.57 294.799C1246.08 297.909 1243.39 302.661 1241.6 305.363C1239.51 308.523 1236.33 312.321 1232.69 315.996C1228.94 319.775 1225.51 322.689 1222.6 324.57C1220.17 326.143 1216.64 328.137 1214.75 329.002C1212.86 329.872 1209.88 331.061 1208.13 331.655C1206.37 332.245 1202.84 333.135 1200.28 333.621C1197.72 334.113 1193.52 334.668 1190.96 334.85C1188.14 335.051 1184.65 334.952 1182.13 334.599C1179.84 334.279 1176.3 333.493 1174.28 332.85C1172.26 332.201 1169.17 330.84 1167.42 329.823C1165.66 328.801 1162.46 326.187 1160.3 324.01C1157.92 321.607 1155.49 318.517 1154.11 316.149C1152.86 314.001 1151.01 310.144 1150 307.574C1148.99 305.01 1147.65 300.587 1147.02 297.747C1146.4 294.912 1145.63 290.711 1145.33 288.411C1145.02 286.117 1144.73 284.18 1144.69 284.111C1144.64 284.043 1143.08 286.255 1141.22 289.025C1139.35 291.797 1136.5 295.83 1134.87 297.992C1133.25 300.154 1130.22 303.914 1128.15 306.346C1126.08 308.778 1122.07 312.979 1119.25 315.682C1116.42 318.384 1112.14 322.006 1109.74 323.735C1107.33 325.46 1103.16 327.941 1100.46 329.248C1097.76 330.55 1093.9 332.048 1091.87 332.574C1089.85 333.1 1086.32 333.676 1084.03 333.858C1081.07 334.088 1078.71 333.956 1075.93 333.415C1073.66 332.973 1070.36 331.837 1068.08 330.717C1065.64 329.513 1062.89 327.617 1060.78 325.671C1058.93 323.961 1056.47 321.126 1055.32 319.367C1054.18 317.613 1052.46 314.625 1051.51 312.734C1050.57 310.842 1049.02 306.975 1048.07 304.135C1047.13 301.3 1046.1 297.649 1045.22 293.079L1041.52 298.73C1039.48 301.84 1036.36 306.262 1034.57 308.557C1032.78 310.856 1029.11 314.945 1026.4 317.648C1023.69 320.35 1020.09 323.558 1018.41 324.772C1016.72 325.99 1013.96 327.818 1012.28 328.84C1010.6 329.862 1007.45 331.381 1005.3 332.206C1003.14 333.037 999.772 334.024 997.815 334.402C995.857 334.781 992.325 335.085 989.966 335.08C987.607 335.075 984.128 334.742 982.239 334.334C980.351 333.926 977.148 332.786 975.127 331.798C972.483 330.511 970.477 329.027 968 326.531C965.449 323.962 964.012 321.961 962.491 318.875C961.358 316.58 959.974 312.93 959.42 310.768C958.861 308.606 958.361 306.778 958.302 306.704C958.247 306.632 957.212 307.846 956.001 309.407C954.789 310.965 951.699 314.424 949.134 317.097C946.568 319.765 942.59 323.356 940.299 325.086C938.003 326.811 934.472 329.081 932.451 330.138C930.425 331.189 927.334 332.516 925.583 333.086C923.827 333.656 920.516 334.359 918.226 334.658C915.199 335.046 912.81 335.047 909.519 334.649C907.022 334.354 903.27 333.483 901.18 332.717C899.09 331.955 896.053 330.486 894.435 329.449C892.816 328.413 890.388 326.437 889.039 325.062C887.69 323.681 885.9 321.563 885.056 320.345C884.217 319.131 882.868 316.812 882.059 315.191C881.249 313.569 880.229 311.082 879.787 309.662C879.346 308.242 878.791 307.136 878.556 307.205C878.325 307.275 876.471 309.54 874.445 312.242C872.415 314.945 868.691 319.165 866.16 321.617C863.634 324.074 859.911 327.155 857.89 328.467C855.864 329.774 852.774 331.44 851.023 332.157C849.266 332.88 846.235 333.837 844.277 334.279C842.32 334.727 838.68 335.096 836.184 335.096C833.245 335.101 830.263 334.751 827.722 334.112C825.564 333.567 822.361 332.408 820.61 331.528C818.484 330.464 816.101 328.621 813.462 326C810.524 323.082 808.993 321.057 807.502 318.139C806.398 315.977 805.03 312.773 804.456 311.014C803.887 309.26 803.093 306.051 802.686 303.889C802.279 301.727 801.739 296.975 801.484 293.324C801.189 289.099 801.194 283.836 801.498 278.829C801.758 274.505 802.318 268.314 802.739 265.071C803.156 261.829 804.049 256.193 804.716 252.542C805.383 248.896 806.698 242.483 807.635 238.292C808.577 234.106 810.342 227.03 811.559 222.568C812.775 218.112 815.101 210.152 816.73 204.88C818.352 199.617 819.616 195.281 819.535 195.244C819.452 195.215 816.567 195.047 806.874 194.561L805.835 199.352C805.266 201.985 803.705 208.014 802.376 212.741C801.042 217.473 798.614 225.32 796.976 230.185C795.337 235.049 792.276 243.343 790.172 248.61C788.068 253.883 784.663 261.843 782.603 266.3C780.547 270.761 777.187 277.503 775.142 281.286C773.096 285.07 769.564 291.153 767.298 294.799C765.027 298.45 761.358 303.859 759.146 306.832C756.933 309.8 752.803 314.645 749.973 317.598C747.138 320.551 743.056 324.291 740.898 325.907C738.739 327.524 734.987 329.808 732.559 330.987C730.131 332.167 726.486 333.484 724.465 333.916C721.821 334.476 719.476 334.619 716.126 334.412C713.561 334.25 710.141 333.764 708.523 333.331C706.904 332.894 704.256 331.877 702.637 331.071C701.018 330.266 698.599 328.791 697.265 327.804C695.931 326.811 693.723 324.644 692.36 322.993C690.996 321.337 689.167 318.63 686.694 313.962L684.531 316.787C683.339 318.34 680.965 320.974 679.258 322.64C677.546 324.301 674.823 326.575 673.204 327.691C671.586 328.806 668.662 330.373 666.705 331.174C664.748 331.975 660.887 333.007 658.12 333.464C653.858 334.171 652.347 334.211 648.188 333.739C645.49 333.43 641.624 332.614 639.603 331.921C637.577 331.228 634.487 329.808 632.735 328.767C630.979 327.725 628.11 325.46 626.359 323.726C624.602 321.991 622.13 318.92 620.855 316.9C619.584 314.876 617.785 311.348 616.853 309.048C615.926 306.753 614.714 303.102 614.169 300.941C613.62 298.779 612.83 295.02 612.408 292.588C611.991 290.156 611.643 287.448 611.643 286.568C611.643 285.689 611.422 284.972 611.152 284.972C610.883 284.972 608.597 288.121 606.075 291.974C603.554 295.826 599.865 301.079 597.873 303.644C595.881 306.214 591.6 311.044 588.358 314.38C585.11 317.716 580.911 321.627 579.023 323.071C577.134 324.521 573.71 326.825 571.419 328.201C569.123 329.577 566.033 331.16 564.552 331.715C563.066 332.27 560.196 333.154 558.175 333.685C555.659 334.343 552.867 334.649 549.345 334.649C546.157 334.649 543.071 334.349 541.251 333.862C539.632 333.425 536.984 332.417 535.365 331.621C533.747 330.825 531.157 329.125 529.611 327.843C528.066 326.56 525.584 323.961 524.093 322.069C522.607 320.178 520.404 316.639 519.202 314.207C518 311.775 516.253 307.466 515.326 304.626C514.394 301.791 513.066 296.705 512.374 293.324C511.678 289.949 510.75 284.2 510.314 280.549C509.872 276.903 509.425 273.862 509.318 273.793C509.209 273.726 508.091 275.494 506.831 277.724C505.575 279.955 502.647 284.765 500.326 288.411C498.006 292.062 494.146 297.698 491.752 300.941C489.358 304.184 486.179 308.277 484.683 310.031C483.191 311.79 480.41 314.846 478.502 316.831C476.589 318.811 473.484 321.711 471.596 323.274C469.707 324.831 466.505 327.175 464.484 328.482C462.458 329.784 459.479 331.395 457.86 332.054C456.242 332.717 453.814 333.553 452.465 333.911C451.116 334.275 448.576 334.707 446.824 334.879C445.068 335.051 442.311 334.943 440.693 334.639C439.074 334.339 436.425 333.469 434.806 332.712C433.187 331.95 430.45 330.02 428.729 328.418C427.002 326.821 424.696 324.182 423.602 322.561C422.508 320.939 420.797 317.844 419.796 315.682C418.795 313.52 417.299 309.653 416.465 307.083C415.631 304.518 414.414 300.096 413.757 297.256C413.1 294.421 412.492 291.59 412.403 290.971C412.315 290.352 412.099 289.802 411.928 289.742C411.761 289.683 409.298 292.735 406.468 296.519C403.633 300.302 399.556 305.501 397.402 308.066C395.249 310.635 391.394 314.837 388.838 317.401C386.277 319.971 382.657 323.327 380.798 324.86C378.934 326.393 375.535 328.782 373.244 330.167C370.949 331.553 367.529 333.169 365.641 333.764C362.918 334.619 361.084 334.835 356.812 334.806C353.496 334.781 350.184 334.447 348.227 333.941C346.471 333.488 343.493 332.349 341.605 331.41C339.716 330.467 336.866 328.535 335.277 327.11C333.682 325.69 331.701 323.533 330.872 322.315C330.038 321.101 328.694 318.826 326.399 314.424L323.087 318.369C321.267 320.541 318.285 323.539 316.465 325.032C314.645 326.526 311.496 328.61 309.475 329.656C307.449 330.703 304.579 331.916 303.098 332.354C301.611 332.791 298.521 333.341 296.231 333.582C293.778 333.838 290.29 333.833 287.769 333.572C285.409 333.327 281.765 332.56 279.675 331.867C277.585 331.179 274.436 329.769 272.685 328.737C270.929 327.706 268.118 325.509 266.431 323.853C264.743 322.197 262.31 319.239 261.02 317.278C259.73 315.318 257.979 312.061 257.13 310.031C256.281 308.007 255.04 304.469 254.378 302.169C253.711 299.874 252.867 296.278 252.499 294.18C252.136 292.082 251.724 290.366 251.592 290.366C251.454 290.368 250.242 292.407 248.894 294.902C247.545 297.399 244.308 302.651 241.703 306.576C239.099 310.502 235.223 315.707 233.089 318.139C230.96 320.571 227.791 323.755 226.055 325.219C224.318 326.683 221.351 328.885 219.462 330.113C217.574 331.342 214.371 333.016 212.35 333.837C208.813 335.272 208.381 335.331 201.313 335.321C194.681 335.312 193.66 335.193 191.011 334.122C189.392 333.473 186.419 331.818 184.408 330.452C182.221 328.968 179.602 326.58 177.904 324.526C176.345 322.635 173.97 318.875 172.631 316.173C171.292 313.47 169.624 309.269 168.928 306.837C168.231 304.405 167.182 299.874 166.593 296.764C165.602 291.506 165.524 289.53 165.48 268.265C165.445 252.615 165.229 244.1 164.807 241.24C164.463 238.946 163.767 235.408 163.252 233.379C162.742 231.355 161.349 227.703 160.157 225.271C158.72 222.332 157.111 219.955 155.369 218.181C153.824 216.608 151.538 214.948 149.807 214.132C148.188 213.37 145.426 212.51 140.486 211.694L135.091 215.272C132.123 217.242 127.154 220.116 124.054 221.669C120.949 223.222 116.755 225.04 114.734 225.713C111.172 226.897 111.04 227.001 110.667 228.809C110.456 229.836 109.411 235.432 108.342 241.24C107.277 247.053 105.644 256.782 104.717 262.86C103.79 268.944 102.47 278.338 101.778 283.743C101.092 289.148 100.087 297.884 99.5519 303.151C99.0172 308.424 98.3355 316.384 98.0412 320.841C97.5997 327.577 97.3197 329.322 96.4025 331.159C95.6863 332.589 94.5232 333.862 93.1203 334.761C91.4379 335.832 90.3297 336.156 88.2453 336.181C86.4058 336.205 84.8797 335.882 83.4621 335.164C82.2407 334.545 80.8182 333.258 80.0285 332.049C79.067 330.58 78.6306 329.209 78.508 327.258C78.4099 325.754 78.6944 320.217 79.1408 314.944C79.5823 309.677 80.5922 299.506 81.3869 292.342C82.1766 285.183 83.5012 274.57 84.3302 268.757C85.1543 262.949 86.7246 252.885 87.8136 246.4C88.9026 239.914 90.6681 230.298 91.7374 225.025C92.8068 219.758 94.4305 212.241 95.3478 208.319C96.8832 201.75 97.0692 200.03 97.7706 186.208C98.1876 177.968 98.8013 164.7 99.1349 156.726C99.4783 148.554 99.7481 126.369 99.758 105.87C99.7678 80.659 99.5715 66.6454 99.1251 60.1739C98.7671 55.0393 98.0407 47.4132 97.5109 43.2218C96.9811 39.0356 96.0984 33.8371 95.5441 31.6749C94.9947 29.5131 94.0624 26.9875 93.4787 26.0636C92.89 25.1349 91.6392 23.8615 90.6974 23.2325C89.4172 22.3826 88.2885 22.088 86.2824 22.088C84.2224 22.088 82.7707 22.4816 80.1515 23.7442C78.2631 24.6532 75.3934 26.392 73.7746 27.6007C72.1559 28.8094 69.1929 31.3303 67.1867 33.1925C65.1854 35.0596 61.3542 39.133 58.671 42.2384C55.9927 45.3487 51.4693 50.9852 48.6242 54.7687C45.7742 58.5522 41.0895 65.185 38.2101 69.5089C35.3307 73.8328 30.9947 80.6876 28.5714 84.7413C26.1433 88.795 22.6609 94.8783 20.8263 98.254C18.9868 101.635 17.0145 104.917 16.4406 105.551C15.8715 106.185 14.572 107.123 13.5617 107.639C12.507 108.169 10.7211 108.567 9.39174 108.567C7.96924 108.563 6.20838 108.13 4.87416 107.462C3.45166 106.75 2.19085 105.585 1.27846 104.15C0.0374149 102.19 -0.105071 101.58 0.051899 98.7452C0.213779 95.861 0.577048 94.9077 3.83413 88.9181C5.81589 85.2721 9.75961 78.4174 12.5949 73.6856C15.4301 68.9589 19.9575 61.7707 22.6554 57.7169C25.3533 53.6632 29.7097 47.4713 32.3439 43.9581C34.9731 40.4449 38.8829 35.4722 41.0314 32.9024C43.1849 30.3375 47.4569 25.7291 50.5275 22.6632C53.5982 19.602 57.8372 15.7303 59.9367 14.0646C62.041 12.3989 65.4593 9.99058 67.5392 8.70811C69.619 7.42566 73.0335 5.71125 75.1232 4.90049C77.2129 4.08483 80.637 3.15543 82.7267 2.83604C85.6549 2.38405 87.4258 2.38407 90.4523 2.82627C93.1257 3.22428 95.5492 3.99136 98.0558 5.22959C100.587 6.48743 102.936 8.21184 105.585 10.7667C108.67 13.7393 109.809 15.2579 111.305 18.4073C112.335 20.5692 113.64 24.2201 114.204 26.5148C114.773 28.8143 115.671 33.6794 116.2 37.3253C116.73 40.9762 117.495 48.0518 117.893 53.0489C118.295 58.0511 118.874 69.9909 119.183 79.5821C119.497 89.5223 119.609 105.211 119.443 116.066C119.281 126.536 119.256 135.107 119.394 135.107C119.527 135.106 121.199 132.064 123.107 128.35C125.015 124.635 128.027 119.382 129.793 116.68C131.559 113.977 134.468 109.889 136.248 107.59C138.029 105.295 141.384 101.536 143.699 99.2364C146.015 96.9418 149.272 94.0673 150.944 92.8487C152.617 91.6351 155.364 89.8024 157.047 88.7853C158.73 87.7632 161.761 86.2455 163.787 85.4103C165.808 84.575 169.119 83.4342 171.145 82.879C174.142 82.0585 176.32 81.8674 182.917 81.8526C189.196 81.833 191.782 82.029 194.445 82.7218C196.334 83.2132 199.478 84.3635 201.435 85.2823C203.5 86.2502 206.173 88.0531 207.812 89.5812C209.44 91.1043 211.339 93.5366 212.311 95.3546C213.233 97.084 214.277 99.6048 214.63 100.956C214.983 102.307 215.41 104.961 215.577 106.853C215.783 109.167 215.606 111.899 215.037 115.206C214.576 117.909 213.433 122.331 212.501 125.033C211.564 127.736 209.538 132.492 207.993 135.598C206.448 138.708 203.662 143.681 201.803 146.653C199.944 149.626 196.863 154.245 194.96 156.913C193.057 159.581 188.965 164.887 185.87 168.705C182.775 172.523 175.491 180.454 159.127 197.027L161.824 198.561C163.306 199.401 166.51 202.109 168.938 204.58C171.42 207.111 174.23 210.57 175.368 212.506C176.472 214.393 178.086 217.596 178.944 219.62C179.808 221.65 181.049 225.295 181.701 227.728C182.354 230.16 183.27 234.254 183.732 236.818C184.448 240.779 184.586 245.024 184.63 264.825C184.664 281.404 184.86 289.232 185.307 291.851C185.655 293.88 186.376 297.305 186.915 299.467C187.45 301.629 188.633 304.945 189.535 306.837C190.443 308.729 191.933 311.161 192.846 312.242C193.758 313.323 195.598 314.733 196.927 315.382C198.884 316.33 199.87 316.507 202.048 316.311C203.696 316.158 205.771 315.509 207.385 314.645C208.837 313.863 211.373 312.109 213.027 310.748C214.675 309.382 217.427 306.621 219.139 304.607C220.846 302.592 223.862 298.509 225.834 295.536C227.806 292.563 230.642 287.919 232.128 285.217C233.614 282.514 236.081 277.542 237.611 274.161C239.147 270.786 241.507 265.258 242.865 261.877C244.219 258.501 247.271 249.878 249.645 242.714C253.103 232.293 254.221 228.17 255.251 222.077C255.957 217.891 257.513 209.818 258.71 204.143C259.902 198.467 262.198 188.63 263.817 182.276C265.43 175.928 267.147 169.286 267.633 167.517C268.119 165.753 269.085 163.541 269.781 162.603C270.473 161.669 271.91 160.46 272.97 159.92C274.211 159.286 275.844 158.942 277.59 158.952C279.376 158.957 280.853 159.286 281.951 159.93C282.869 160.465 284.301 161.752 285.14 162.794C286.366 164.317 286.695 165.236 286.827 167.462C286.95 169.649 286.351 172.646 283.996 181.54C282.348 187.756 280.023 197.263 278.821 202.668C277.625 208.073 276.094 215.483 275.432 219.129C274.765 222.78 273.652 229.575 272.96 234.238C272.268 238.901 271.385 246.198 270.992 250.453C270.6 254.708 270.14 261.288 269.963 265.071C269.782 268.983 269.884 275.238 270.203 279.567C270.512 283.758 271.213 289.393 271.763 292.096C272.312 294.798 273.401 298.671 274.186 300.695C274.971 302.725 276.388 305.54 277.335 306.96C278.287 308.38 280.111 310.301 281.392 311.234C282.672 312.168 285.046 313.293 286.665 313.74C288.573 314.271 290.815 314.487 293.042 314.369C295.554 314.232 297.329 313.78 299.664 312.69C301.646 311.761 303.976 310.094 305.83 308.281C307.464 306.675 309.7 304.037 310.799 302.415C311.893 300.794 313.791 297.476 315.018 295.044C316.239 292.612 318.04 288.632 319.021 286.2C320.002 283.768 321.685 279.016 322.759 275.636C323.833 272.26 325.711 265.514 326.928 260.65C328.149 255.785 330.22 246.39 331.539 239.767C332.854 233.148 335.723 217.006 337.916 203.897C340.109 190.792 342.572 176.641 343.396 172.449C344.215 168.264 345.165 164.285 345.514 163.606C345.857 162.932 346.942 161.659 347.918 160.779C348.899 159.9 350.636 158.942 351.783 158.652C352.931 158.358 354.638 158.268 355.585 158.45C356.527 158.637 357.852 159.07 358.528 159.414C359.201 159.758 360.471 160.844 361.349 161.821C362.227 162.804 363.183 164.544 363.473 165.693C363.929 167.482 363.752 169.099 362.261 176.872C361.299 181.874 358.837 196.026 356.786 208.319C354.736 220.618 351.955 236.317 350.606 243.206C349.257 250.1 346.932 260.492 345.441 266.3C343.949 272.113 342.507 278.191 342.242 279.813C341.977 281.434 341.747 285.969 341.737 289.885C341.728 294.798 341.983 298.228 342.557 300.941C343.018 303.103 343.93 306.09 344.582 307.574C345.235 309.063 346.598 311.097 347.613 312.1C348.624 313.102 350.444 314.267 351.66 314.69C352.872 315.112 355.301 315.446 357.057 315.431C359.691 315.406 360.75 315.126 363.144 313.824C364.738 312.955 367.608 310.896 369.521 309.255C371.434 307.614 374.75 304.405 376.884 302.13C379.023 299.855 382.976 295.231 385.669 291.851C388.362 288.475 392.684 282.721 395.274 279.07C397.859 275.42 401.896 269.449 408.503 259.175L408.72 233.624C408.862 216.653 409.205 204.526 409.735 197.509C410.176 191.701 410.868 183.521 411.276 179.329C411.683 175.143 412.678 166.518 413.487 160.165C414.297 153.817 415.734 143.975 416.676 138.3C417.623 132.625 419.295 123.559 420.394 118.154C421.497 112.749 423.269 104.789 424.333 100.465C425.398 96.141 427.129 89.6206 428.184 85.9698C429.233 82.3241 431.009 76.6835 432.122 73.4405C433.241 70.1976 435.1 65.225 436.253 62.3849C437.411 59.5497 439.466 55.0141 440.824 52.3116C442.178 49.6091 444.592 45.4079 446.187 42.9757C447.786 40.5435 450.513 37.0351 452.249 35.1827C453.986 33.3254 456.841 30.8589 458.597 29.6993C460.348 28.5397 463.218 27.0947 464.974 26.4855C467.21 25.7141 469.334 25.3801 472.086 25.3653C474.759 25.3555 477.105 25.685 479.444 26.4073C481.333 26.9921 484.286 28.3033 486.008 29.3253C487.73 30.3473 490.442 32.6229 492.041 34.3771C493.773 36.2786 495.721 39.1583 496.859 41.5021C497.913 43.664 499.217 47.2015 499.762 49.3634C500.306 51.5253 500.978 55.1761 501.258 57.4708C501.538 59.7704 501.764 64.5765 501.764 74.669L503.603 74.423C504.613 74.2903 510.848 73.8329 517.46 73.4005C524.068 72.973 529.611 72.4768 529.773 72.295C529.939 72.1127 530.783 68.3197 531.647 63.8585C532.515 59.4018 534.87 48.0124 536.876 38.5538C538.882 29.0951 541.236 18.1419 542.114 14.211C543.174 9.43522 544.121 6.42327 544.96 5.1212C545.701 3.97149 547.104 2.72877 548.394 2.0753C549.723 1.40705 551.479 0.973766 552.902 0.968852C554.231 0.968852 556.017 1.36689 557.071 1.89756C558.082 2.4135 559.396 3.35261 559.985 3.98643C560.578 4.62029 561.407 5.9713 561.824 6.9835C562.246 7.99571 562.59 9.38162 562.59 10.0548C562.59 10.7342 561.137 17.8636 559.361 25.9015C557.591 33.9401 554.737 47.3735 553.02 55.7511C551.308 64.1288 550.012 71.0969 550.15 71.2296C550.295 71.3667 558.606 71.081 568.633 70.5997C578.664 70.1182 592.718 69.5096 599.87 69.2442C607.018 68.9838 626.555 68.6301 643.282 68.4581C662.379 68.2665 681.269 68.3641 694.052 68.7228C705.246 69.0372 720.256 69.6226 727.408 70.0206C734.555 70.4137 743.385 70.969 747.029 71.254C750.669 71.5341 757.071 72.0894 761.255 72.4874C765.434 72.8805 771.728 73.5531 775.235 73.9757C778.742 74.3982 782.16 75.0321 782.838 75.381C783.51 75.7298 784.737 76.7669 785.561 77.6759C786.385 78.5897 787.351 80.2209 787.709 81.3019C788.067 82.3829 788.259 84.044 788.136 84.9874C788.018 85.9358 787.327 87.7588 786.606 89.0411C785.536 90.9376 784.762 91.6212 779.651 93.9747L770.085 92.9181C764.822 92.3432 758.199 91.6502 755.368 91.3849C752.533 91.1195 745.47 90.569 739.672 90.171C733.869 89.7681 724.598 89.2177 719.069 88.9425C713.536 88.6722 697.976 88.2061 684.486 87.9015C666.504 87.5035 652.435 87.5035 631.755 87.9015C616.239 88.2012 598.03 88.6576 591.285 88.923C584.54 89.1834 571.738 89.7533 562.835 90.1856C553.934 90.6228 546.504 91.1239 546.319 91.3009C546.142 91.4778 544.872 98.033 543.498 105.87C542.125 113.707 540.123 125.761 539.054 132.65C537.984 139.543 536.341 150.82 535.404 157.709C534.463 164.603 533.138 175.104 532.461 181.049C531.784 186.994 530.794 196.836 530.259 202.914C529.724 208.997 529.017 218.171 528.689 223.306C528.355 228.441 528.08 239.938 528.075 248.857C528.07 258.065 528.331 267.936 528.679 271.705C529.017 275.356 529.626 280.55 530.033 283.252C530.44 285.954 531.288 290.268 531.926 292.833C532.559 295.403 533.658 299.049 534.369 300.941C535.081 302.832 536.233 305.378 536.93 306.592C537.631 307.811 539 309.781 539.971 310.98C541.021 312.272 542.738 313.618 544.194 314.291C545.705 314.994 547.584 315.431 549.1 315.436C550.449 315.436 552.877 315.096 554.496 314.679C556.115 314.256 558.871 313.121 560.627 312.158C562.378 311.19 565.14 309.388 566.759 308.15C568.378 306.911 571.468 304.106 573.626 301.919C575.784 299.728 578.959 296.18 580.686 294.032C582.412 291.89 585.306 288.033 587.121 285.463C588.936 282.898 592.664 277.036 595.406 272.442C598.144 267.847 602.239 260.33 604.5 255.735C606.761 251.142 609.626 245.005 610.862 242.101C612.805 237.541 613.286 235.693 614.375 228.588C615.072 224.063 616.519 215.935 617.593 210.53C618.672 205.125 620.433 196.944 621.507 192.35C622.586 187.756 624.583 179.796 625.946 174.661C627.305 169.527 628.704 164.775 629.042 164.097C629.385 163.424 630.469 162.151 631.445 161.272C632.427 160.392 634.109 159.453 635.189 159.183C636.268 158.913 637.98 158.834 638.99 159.001C640.001 159.173 641.379 159.596 642.056 159.94C642.728 160.288 643.861 161.197 644.572 161.964C645.279 162.73 646.142 163.915 646.485 164.588C646.829 165.266 647.109 166.922 647.104 168.274C647.103 169.699 645.936 175.07 644.327 181.049C642.807 186.724 640.658 195.348 639.559 200.212C638.46 205.077 636.69 213.7 635.625 219.375C634.561 225.05 633.157 233.674 632.505 238.538C631.858 243.403 631.092 250.203 630.803 253.648C630.518 257.092 630.283 264.669 630.283 270.477C630.283 276.943 630.563 283.183 631.004 286.568C631.401 289.61 632.289 294.086 632.981 296.519C633.667 298.951 634.943 302.366 635.812 304.106C636.685 305.85 638.446 308.336 639.726 309.633C641.006 310.935 643.106 312.492 644.386 313.102C646.338 314.025 647.545 314.202 651.866 314.207C656.497 314.207 657.311 314.07 659.96 312.817C662.001 311.854 664.026 310.271 666.582 307.643C668.603 305.559 671.306 302.096 672.586 299.939C673.866 297.786 676.001 293.595 677.33 290.622C678.664 287.649 680.848 281.9 682.192 277.847C683.536 273.793 685.659 266.388 686.91 261.386C688.166 256.389 690.069 247.986 691.149 242.714C692.228 237.446 695.093 221.414 697.516 207.091C699.944 192.768 702.602 177.511 703.426 173.187C704.255 168.863 705.354 164.495 705.869 163.483C706.384 162.47 707.522 161.099 708.401 160.441C709.279 159.787 710.986 159.02 712.202 158.75C713.433 158.47 715.165 158.422 716.126 158.638C717.068 158.849 718.285 159.251 718.824 159.531C719.364 159.816 720.522 160.844 721.4 161.826C722.278 162.804 723.254 164.544 723.568 165.693C724.078 167.531 723.93 168.932 722.336 177.363C721.34 182.636 718.667 198 716.396 211.513C714.12 225.025 711.677 239.067 710.971 242.714C710.26 246.365 708.705 253.549 707.518 258.684C706.331 263.818 704.937 269.567 704.422 271.459C703.907 273.351 703.181 276.446 702.813 278.338C702.406 280.446 702.155 284.917 702.175 289.885C702.199 295.762 702.435 298.907 703.033 301.31C703.49 303.133 704.412 305.732 705.089 307.083C705.761 308.434 706.943 310.257 707.708 311.137C708.478 312.016 710.298 313.249 711.755 313.883C713.599 314.684 715.385 315.043 717.598 315.063C720.055 315.087 721.459 314.788 723.73 313.761C725.348 313.024 727.884 311.51 729.37 310.39C730.852 309.269 733.697 306.685 735.689 304.646C737.685 302.607 741.138 298.509 743.365 295.536C745.597 292.564 749.065 287.477 751.081 284.234C753.092 280.991 756.316 275.409 758.243 271.827C760.171 268.245 763.311 261.946 765.219 257.823C767.132 253.701 770.315 246.242 772.302 241.24C774.284 236.243 777.144 228.505 778.654 224.043C780.165 219.587 782.377 212.511 783.574 208.319C784.766 204.133 786.307 198.271 786.993 195.298C787.68 192.325 788.185 189.868 788.116 189.839C788.045 189.803 786.55 189.151 784.801 188.375C783.045 187.604 780.067 186.109 778.179 185.053C776.29 183.996 773.307 182.08 771.556 180.788C769.8 179.501 766.602 176.602 764.439 174.342C762.28 172.087 759.642 168.912 758.577 167.29C757.518 165.669 755.928 162.794 755.055 160.902C754.182 159.011 752.979 155.473 752.386 153.041C751.626 149.921 751.307 147.1 751.302 143.459C751.302 140.192 751.611 137.042 752.155 134.86C752.626 132.969 753.76 129.873 754.677 127.982C755.589 126.09 757.39 123.27 758.675 121.717C759.96 120.164 762.222 117.977 763.708 116.857C765.19 115.736 767.73 114.193 769.349 113.432C770.968 112.67 773.725 111.663 775.481 111.192C777.644 110.612 780.484 110.342 784.31 110.347C789.048 110.357 790.422 110.538 792.895 111.506C794.513 112.14 796.721 113.211 797.8 113.894C798.879 114.572 800.866 116.252 802.215 117.633C803.564 119.014 805.585 121.904 806.713 124.061C807.836 126.218 809.195 129.643 809.725 131.667C810.254 133.696 810.985 137.12 811.348 139.282C811.775 141.837 811.986 146.913 811.942 153.777C811.907 159.59 811.579 166.804 810.554 175.28L813.497 175.59C815.116 175.757 819.089 175.889 822.326 175.879C825.564 175.874 832.628 175.447 838.024 174.931C843.419 174.42 847.942 174.091 848.079 174.204C848.209 174.323 846.082 180.325 843.346 187.554C840.609 194.786 837.587 203.135 836.63 206.108C835.673 209.08 834.231 213.724 833.422 216.427C832.618 219.129 831.068 224.657 829.979 228.711C828.89 232.765 827.227 239.511 826.285 243.697C825.344 247.889 824.009 254.521 823.327 258.438C822.645 262.359 821.757 268.55 821.355 272.196C820.948 275.847 820.614 282.368 820.61 286.692C820.605 291.522 820.884 296.209 821.34 298.853C821.747 301.216 822.512 304.311 823.042 305.732C823.572 307.152 824.657 309.309 825.451 310.523C826.334 311.879 827.811 313.245 829.268 314.061C830.578 314.788 832.859 315.534 834.345 315.721C835.993 315.927 838.092 315.819 839.74 315.441C841.222 315.101 843.762 314.134 845.381 313.289C847.039 312.424 850.145 310.006 852.494 307.751C854.785 305.55 857.904 302.012 859.425 299.89C860.946 297.767 863.58 293.595 865.282 290.622C866.98 287.649 869.737 282.121 871.404 278.338C873.072 274.555 875.108 269.47 875.932 267.037C876.751 264.605 878.002 259.41 878.708 255.489C879.415 251.573 880.773 245.382 881.725 241.732C882.681 238.086 884.355 232.337 885.448 228.956C886.542 225.58 888.533 220.052 889.872 216.672C891.211 213.296 893.777 207.547 895.572 203.897C897.368 200.251 900.596 194.61 902.739 191.367C905.506 187.186 908.224 183.893 912.065 180.051C915.047 177.068 919.143 173.501 921.169 172.115C923.19 170.735 926.721 168.662 929.017 167.512C931.307 166.367 934.732 164.898 936.62 164.254C938.509 163.61 941.378 162.775 942.997 162.392C944.616 162.013 948.256 161.468 951.091 161.178C954.667 160.814 957.812 160.805 961.393 161.153C964.223 161.434 967.868 162.008 969.486 162.441C971.105 162.868 973.641 163.763 975.127 164.431C976.608 165.099 978.904 166.455 980.224 167.447C981.543 168.445 983.196 170.253 983.898 171.467C984.844 173.113 985.168 174.366 985.168 176.381C985.168 178.182 984.843 179.639 984.193 180.749C983.658 181.668 982.372 183.107 981.337 183.942C979.586 185.362 979.174 185.471 975.622 185.471C971.998 185.471 971.678 185.382 969.657 183.775C968.485 182.842 966.528 181.771 965.317 181.402C964.1 181.029 960.789 180.602 957.958 180.449C954.162 180.248 951.709 180.4 948.639 181.014C946.343 181.471 942.703 182.611 940.545 183.54C938.387 184.474 935.429 185.953 933.972 186.827C932.515 187.702 929.454 190.188 927.168 192.35C924.882 194.512 922.018 197.607 920.806 199.229C919.594 200.85 917.431 204.167 916.003 206.6C914.571 209.032 912.153 213.788 910.627 217.163C909.102 220.544 906.894 225.959 905.727 229.202C904.559 232.445 902.897 237.53 902.033 240.503C901.17 243.476 899.836 248.674 899.075 252.05C898.31 255.43 897.225 261.288 896.666 265.071C896.102 268.855 895.509 275.489 895.342 279.813C895.16 284.687 895.263 289.448 895.616 292.342C895.93 294.912 896.623 298.671 897.152 300.695C897.687 302.725 898.908 305.707 899.869 307.328C900.831 308.95 902.023 310.719 902.519 311.26C903.014 311.8 904.598 312.896 906.04 313.692C908.208 314.895 909.371 315.181 912.829 315.358C916.268 315.534 917.598 315.372 920.433 314.429C922.321 313.8 925.411 312.242 927.3 310.97C929.188 309.697 932.72 306.586 935.153 304.061C937.582 301.535 940.81 297.811 942.32 295.781C943.836 293.757 946.5 289.885 948.241 287.183C949.983 284.48 952.523 280.279 953.882 277.847C955.246 275.415 957.905 270.329 959.798 266.545C961.691 262.761 965.003 255.578 967.156 250.576C969.305 245.579 972.513 237.619 974.274 232.887C976.039 228.16 979.032 219.424 980.925 213.479C982.818 207.534 984.923 200.792 985.595 198.492C986.596 195.087 987.17 193.991 988.7 192.567C989.73 191.603 991.462 190.522 992.541 190.168C993.699 189.785 995.41 189.638 996.71 189.81C997.922 189.967 999.688 190.62 1000.63 191.254C1001.58 191.893 1002.84 193.17 1003.45 194.099C1004.04 195.027 1004.67 196.895 1004.84 198.246C1005.09 200.359 1004.69 202.173 1001.94 211.268C1000.18 217.08 997.383 225.704 995.715 230.431C994.052 235.163 991.305 242.567 989.612 246.891C987.92 251.215 985.163 257.848 983.49 261.632C981.818 265.415 980.043 270.279 979.542 272.442C979.042 274.603 978.272 278.805 977.83 281.777C977.394 284.75 977.026 290.171 977.021 293.817C977.016 297.467 977.153 301.334 977.334 302.415C977.511 303.496 978.08 305.707 978.59 307.328C979.1 308.95 980.298 311.216 981.244 312.365C982.618 314.021 983.559 314.62 985.796 315.254C987.783 315.814 989.524 315.961 991.683 315.745C993.37 315.573 996.019 314.954 997.569 314.369C999.12 313.78 1001.6 312.581 1003.09 311.701C1004.57 310.822 1007.33 308.778 1009.22 307.156C1011.11 305.535 1013.77 302.921 1015.13 301.344C1016.5 299.772 1018.74 297.049 1020.1 295.29C1021.47 293.536 1024.02 289.885 1025.76 287.183C1027.51 284.48 1030.39 279.616 1032.16 276.373C1033.94 273.13 1036.7 267.494 1041.22 257.21L1041.51 239.275C1041.67 229.413 1042.04 218.244 1042.32 214.461C1042.61 210.678 1043.29 202.718 1043.83 196.773C1044.38 190.827 1045.46 180.547 1046.25 173.924C1047.03 167.305 1048.58 155.473 1049.69 147.636C1050.8 139.799 1053.24 124.213 1055.12 112.995C1056.99 101.782 1058.67 92.1607 1058.84 91.6202C1059.15 90.6673 1059.02 90.6482 1054.54 91.0216C1052.01 91.2329 1042.32 91.9452 1033.01 92.6085C1020.67 93.488 1015.62 93.6791 1014.37 93.3155C1013.42 93.0403 1011.91 92.328 1010.99 91.7286C1010.08 91.1291 1008.93 89.9748 1008.43 89.1642C1007.93 88.3534 1007.37 86.5838 1007.18 85.2325C1006.9 83.1643 1007.05 82.3339 1008.15 79.9513C1009.21 77.6715 1009.91 76.87 1011.79 75.7989C1014.08 74.5067 1014.54 74.4479 1033.5 73.1212C1044.15 72.3743 1055.06 71.5879 1062.61 70.9835L1066.16 53.5401C1068.11 43.9488 1071.16 29.5173 1072.94 21.4786C1074.72 13.441 1076.62 5.97809 1077.16 4.89561C1077.7 3.81474 1078.75 2.50739 1079.49 1.98643C1080.23 1.4705 1081.39 0.822171 1082.06 0.542095C1082.74 0.266986 1084.28 0.0256433 1085.5 0.00107905ZM523.713 92.4171C522.295 92.4515 516.247 92.8392 510.268 93.2765C504.289 93.7186 499.286 94.1906 499.148 94.3233C499.01 94.4609 498.314 97.2222 497.603 100.465C496.887 103.708 495.636 108.907 494.821 112.013C494.007 115.123 492.486 120.538 491.446 124.051C490.402 127.564 488.081 134.752 486.285 140.02C484.49 145.292 481.577 153.361 479.816 157.955C478.05 162.549 475.185 169.738 473.444 173.924C471.702 178.115 468.371 185.854 466.041 191.121C463.711 196.394 458.007 208.334 453.361 217.655C448.716 226.981 443.011 238.037 440.681 242.224C438.356 246.415 434.662 252.935 432.485 256.719L428.516 263.598C429.075 270.074 429.551 274.496 429.939 277.602C430.326 280.712 431.214 286.127 431.91 289.64C432.612 293.153 433.946 298.351 434.878 301.187C435.81 304.027 437.281 307.648 438.14 309.24C439.003 310.827 440.426 312.876 441.304 313.785C442.613 315.146 443.266 315.437 444.983 315.446C446.13 315.451 448.059 315.107 449.276 314.68C450.487 314.252 452.807 313.102 454.426 312.119C456.074 311.122 460.195 307.516 463.79 303.919C467.66 300.052 472.173 294.868 475.146 290.868C477.863 287.222 482.126 281.031 484.623 277.109C487.12 273.193 490.794 267.111 492.79 263.598C494.792 260.085 498.456 253.121 500.938 248.119C503.42 243.122 506.26 237.261 507.246 235.099C508.997 231.261 509.047 230.981 509.341 223.552C509.503 219.365 509.969 211.955 510.366 207.091C510.769 202.227 511.539 193.937 512.078 188.665C512.623 183.398 513.839 173.005 514.785 165.57C515.732 158.141 517.283 146.865 518.23 140.512C519.171 134.163 521.27 121.117 522.884 111.521C524.498 101.931 525.925 93.6916 526.053 93.2179C526.254 92.471 525.94 92.368 523.713 92.4171ZM1178.23 202.914C1177.98 202.914 1176.86 205.292 1175.75 208.196C1174.63 211.1 1172.97 216.024 1172.07 219.129C1171.15 222.239 1169.86 226.991 1169.18 229.693C1168.5 232.396 1167.41 237.594 1166.73 241.24C1166.06 244.891 1165.14 251.083 1164.67 254.999C1164.13 259.49 1163.82 265.755 1163.82 271.95C1163.82 277.355 1164.08 283.659 1164.41 285.954C1164.74 288.254 1165.45 292.013 1166.01 294.308C1166.56 296.607 1167.94 300.474 1169.07 302.906C1170.29 305.52 1172.05 308.336 1173.38 309.785C1174.63 311.146 1176.92 312.891 1178.52 313.696C1181.08 314.989 1181.99 315.171 1186.79 315.333C1190.79 315.471 1193.39 315.274 1196.85 314.571C1199.41 314.051 1203.27 312.861 1205.43 311.933C1207.59 311.004 1210.68 309.373 1212.3 308.307C1213.92 307.236 1216.91 304.7 1218.94 302.671C1220.97 300.637 1223.88 297.099 1225.41 294.799C1226.93 292.504 1229.17 288.524 1230.4 285.954C1231.61 283.389 1233.39 278.908 1234.35 276.004C1235.31 273.101 1236.09 270.615 1236.09 270.477C1236.09 270.344 1233.94 269.086 1231.31 267.686C1228.68 266.285 1224.76 263.931 1222.6 262.457C1220.44 260.978 1217.02 258.433 1215 256.792C1212.97 255.151 1208.99 251.481 1206.15 248.631C1203.3 245.781 1199.55 241.683 1197.81 239.525C1196.06 237.363 1193.02 233.162 1191.03 230.19C1189.05 227.212 1186.12 222.127 1184.54 218.884C1182.96 215.641 1180.99 210.722 1180.18 207.95C1179.36 205.18 1178.49 202.915 1178.23 202.914ZM1209.84 179.472C1206.31 179.359 1204.94 179.525 1202.98 180.321C1201.63 180.867 1200 181.811 1199.37 182.41C1198.74 183.015 1197.86 184.169 1197.42 184.98C1196.82 186.075 1196.62 187.722 1196.63 191.367C1196.64 194.478 1196.97 197.455 1197.52 199.475C1197.99 201.234 1199.18 204.55 1200.17 206.845C1201.14 209.144 1202.87 212.683 1204.01 214.707C1205.15 216.736 1207.37 220.2 1208.94 222.411C1210.52 224.622 1213.46 228.347 1215.48 230.686C1217.51 233.024 1221.15 236.705 1223.58 238.862C1226.01 241.019 1230.26 244.316 1233.02 246.189C1235.79 248.061 1238.38 249.594 1238.79 249.594C1239.41 249.594 1239.52 248.379 1239.52 241.609C1239.52 237.217 1239.18 230.75 1238.78 227.236C1238.36 223.723 1237.46 218.309 1236.75 215.198C1236.06 212.093 1234.71 207.336 1233.77 204.634C1232.83 201.932 1231.28 198.173 1230.33 196.281C1229.39 194.39 1227.68 191.515 1226.53 189.894C1225.39 188.272 1223.25 185.84 1221.79 184.488C1220.33 183.137 1218.04 181.486 1216.7 180.822C1214.76 179.864 1213.35 179.585 1209.84 179.472ZM472.213 44.6954C471.605 44.7003 470.447 45.1132 469.638 45.6241C468.828 46.1302 467.248 47.5113 466.13 48.6905C465.007 49.8699 463.035 52.4983 461.74 54.5226C460.445 56.5519 458.238 60.6406 456.835 63.6134C455.432 66.5862 453.175 72.0056 451.817 75.6515C450.458 79.3022 448.138 86.4856 446.661 91.6202C445.185 96.7549 443.061 104.936 441.938 109.801C440.819 114.665 438.935 123.953 437.753 130.439C436.571 136.925 434.928 146.987 434.104 152.795C433.28 158.608 432.166 167.231 431.636 171.958C431.101 176.69 430.331 184.537 429.919 189.401C429.512 194.266 428.957 201.897 428.688 206.354C428.413 210.815 428.193 216.505 428.188 219.006C428.188 221.87 428.369 223.462 428.678 223.306C428.948 223.173 431.68 218.028 434.751 211.881C437.822 205.734 442.04 197.057 444.125 192.596C446.21 188.139 450.178 179.181 452.944 172.695C455.711 166.209 459.582 156.701 461.544 151.567C463.506 146.432 466.837 137.037 468.946 130.684C471.051 124.335 473.763 115.491 474.975 111.029C476.186 106.573 477.741 100.382 478.433 97.2716C479.119 94.1663 480.135 88.9677 480.68 85.7247C481.224 82.4817 481.842 76.6979 482.048 72.8702C482.249 69.0426 482.244 63.6281 482.028 60.8321C481.818 58.0363 481.205 54.4243 480.67 52.8028C480.14 51.1815 478.983 48.9853 478.105 47.9288C477.222 46.8676 475.789 45.7027 474.911 45.3487C474.033 44.9901 472.821 44.6955 472.213 44.6954ZM184.88 101.025C182.854 100.892 180.097 100.956 178.748 101.167C177.399 101.373 174.858 102.017 173.107 102.592C171.351 103.172 168.594 104.435 166.976 105.407C165.357 106.375 162.84 108.096 161.388 109.221C159.936 110.351 157.395 112.714 155.747 114.478C154.099 116.237 151.426 119.441 149.807 121.598C148.188 123.755 145.476 127.843 143.774 130.678C142.076 133.518 139.177 138.938 137.332 142.722C135.483 146.505 132.535 153.252 130.784 157.708C129.028 162.17 126.257 169.908 124.628 174.905C122.995 179.907 120.458 188.418 118.982 193.823C117.51 199.227 116.392 203.703 116.499 203.774C116.607 203.842 117.745 203.302 119.026 202.569C120.306 201.842 123.45 199.862 126.016 198.177C128.576 196.487 133.325 192.993 136.563 190.413C139.8 187.839 145.426 182.905 149.07 179.456C152.71 176.007 158.391 170.311 161.688 166.798C164.984 163.285 169.81 157.757 172.42 154.514C175.025 151.271 178.655 146.52 180.485 143.95C182.314 141.385 185.189 136.962 186.876 134.122C188.564 131.287 190.79 127.14 191.825 124.909C192.86 122.679 194.264 118.92 194.945 116.557C195.73 113.83 196.177 111.044 196.172 108.941C196.162 106.13 195.976 105.398 194.936 104.15C194.121 103.172 192.841 102.44 191.134 101.968C189.716 101.575 186.901 101.152 184.88 101.025ZM1329.58 130.295C1325.73 130.172 1324.75 130.319 1322.44 131.346C1320.76 132.098 1319.35 133.155 1318.65 134.192C1318.03 135.101 1317.2 136.948 1316.78 138.299C1316.37 139.65 1316.04 141.974 1316.05 143.458C1316.06 144.947 1316.41 147.487 1316.83 149.109C1317.25 150.73 1318.41 153.604 1319.39 155.496C1320.59 157.82 1322.45 160.209 1325.11 162.867C1327.71 165.462 1330.55 167.672 1333.46 169.372C1335.89 170.787 1337.93 171.893 1338 171.829C1338.06 171.765 1338.69 169.058 1339.37 165.816C1340.24 161.732 1340.72 157.648 1340.91 152.548C1341.1 147.684 1341 144.008 1340.6 141.738C1340.28 139.847 1339.47 137.139 1338.82 135.719C1338.12 134.201 1336.89 132.584 1335.83 131.788C1334.22 130.58 1333.55 130.423 1329.58 130.295ZM783.571 129.706C781.953 129.726 779.848 130.011 778.897 130.335C777.945 130.664 776.341 131.539 775.341 132.28C774.335 133.022 772.908 134.791 772.167 136.211C770.946 138.545 770.818 139.263 770.848 143.704C770.872 147.502 771.118 149.232 771.932 151.32C772.511 152.809 774.061 155.571 775.375 157.463C776.69 159.355 778.961 161.935 780.423 163.192C781.885 164.45 784.734 166.494 786.76 167.742C788.781 168.985 790.714 170.002 791.053 169.997C791.391 169.997 791.763 169.604 791.886 169.133C792.009 168.661 792.367 165.069 792.681 161.148C793.005 157.104 793.112 151.689 792.921 148.618C792.74 145.646 792.299 141.779 791.941 140.02C791.582 138.265 790.768 135.631 790.13 134.167C789.487 132.708 788.413 131.096 787.741 130.59C786.839 129.912 785.73 129.677 783.571 129.706Z" fill="#EC007F"/>
<path fill-rule="evenodd" clip-rule="evenodd" d="M251.344 427.166C256.2 427.274 261.002 427.608 262.013 427.908C263.435 428.325 263.852 428.699 263.847 429.554C263.842 430.163 263.715 431.436 263.273 434.099H253.129C243.201 434.099 242.936 434.123 240.542 435.362C239.105 436.104 237.736 437.263 237.216 438.182C236.731 439.042 235.995 440.909 235.583 442.329C235.131 443.882 234.724 447.945 234.557 452.525C234.386 457.375 234.504 461.659 234.881 464.318C235.21 466.612 235.872 469.379 236.358 470.46C236.838 471.541 237.874 473.005 238.649 473.708C239.424 474.415 240.831 475.25 241.778 475.56C242.725 475.87 244.265 476.13 245.212 476.13C246.159 476.13 248.366 475.683 250.117 475.137C251.873 474.592 254.355 473.482 257.966 471.197V450.559L265.569 450.805V481.761H262.631C260.394 481.761 259.673 481.584 259.599 481.024C259.545 480.616 259.378 479.456 258.947 476.602L257.107 478.007C256.097 478.783 254.493 479.81 253.551 480.292C252.609 480.773 250.618 481.579 249.136 482.085C247.409 482.675 245.114 482.994 242.759 482.98C239.723 482.965 238.546 482.704 236.014 481.501C233.797 480.444 232.468 479.398 231.207 477.707C230.251 476.425 229.024 474.155 228.475 472.671C227.93 471.187 227.17 467.87 226.787 465.3C226.4 462.731 226.086 458.033 226.086 454.859C226.081 451.685 226.321 447.371 226.611 445.277C226.905 443.184 227.587 440.143 228.136 438.521C228.681 436.9 229.736 434.688 230.481 433.608C231.227 432.527 232.787 430.979 233.949 430.168C235.117 429.357 237.52 428.306 239.291 427.834C241.96 427.122 244.039 427.004 251.344 427.166Z" fill="#979787"/>
<path fill-rule="evenodd" clip-rule="evenodd" d="M678.225 427.028C681.801 426.999 686.323 427.21 688.28 427.495C690.238 427.785 692.102 428.173 692.421 428.355C692.818 428.586 692.921 429.564 692.46 434.099H682.095C672.284 434.099 671.612 434.158 669.64 435.204C668.492 435.814 667.099 436.919 666.545 437.661C665.986 438.403 665.191 440.231 664.769 441.715C664.352 443.199 663.832 446.85 663.617 449.822C663.406 452.795 663.42 457.768 663.661 460.878C663.896 463.988 664.426 467.688 664.843 469.108C665.279 470.602 666.265 472.386 667.188 473.354C668.149 474.356 669.66 475.255 670.989 475.614C672.279 475.968 674.315 476.091 675.895 475.914C677.543 475.732 680.167 474.852 686.686 471.688L686.932 450.805L694.535 450.559V482.007H688.648L688.158 476.602L685.092 478.719C683.405 479.884 680.535 481.324 678.715 481.913C676.596 482.601 674.168 482.989 671.97 482.989C669.258 482.989 667.894 482.699 665.471 481.604C663.455 480.695 661.767 479.476 660.546 478.041C659.525 476.847 658.235 474.646 657.676 473.162C657.117 471.678 656.347 468.691 655.964 466.529C655.567 464.278 655.263 459.34 655.258 454.982C655.253 450.795 655.474 445.931 655.744 444.172C656.018 442.413 656.548 440.093 656.926 439.012C657.298 437.931 658.054 436.163 658.593 435.082C659.138 434.001 660.438 432.359 661.483 431.431C662.528 430.507 664.382 429.318 665.593 428.792C666.805 428.266 668.684 427.667 669.763 427.461C670.842 427.249 674.649 427.058 678.225 427.028Z" fill="#979787"/>
<path fill-rule="evenodd" clip-rule="evenodd" d="M829.683 427.19C834.809 427.308 840.053 427.637 841.333 427.927C843.389 428.389 843.634 428.576 843.423 429.553C843.295 430.163 843.183 431.435 843.173 434.099H832.504C824.062 434.099 821.501 434.251 820.226 434.836C819.259 435.278 818.396 436.157 818.058 437.047C817.748 437.857 817.503 439.847 817.508 441.469C817.513 443.09 817.827 445.071 818.205 445.867C818.582 446.663 819.554 447.699 820.363 448.171C821.172 448.638 825.092 449.92 829.07 451.021C833.048 452.117 837.355 453.547 838.635 454.195C839.916 454.844 841.451 455.895 842.04 456.529C842.633 457.163 843.619 458.789 844.227 460.141C845.15 462.18 845.341 463.472 845.356 467.757C845.365 470.902 845.105 473.683 844.693 474.882C844.321 475.963 843.604 477.456 843.104 478.198C842.604 478.94 841.363 479.972 840.352 480.488C839.342 481.004 837.022 481.775 835.202 482.208C833.382 482.635 829.737 482.994 827.108 482.999C824.479 483.004 819.617 482.616 810.297 481.269L810.307 479.55C810.317 478.606 810.43 477.333 810.557 476.724C810.798 475.619 810.817 475.619 822.227 475.496C832.141 475.388 833.828 475.26 834.981 474.513C835.707 474.041 836.541 473.044 836.83 472.302C837.12 471.56 837.36 469.516 837.355 467.757C837.355 465.998 837.066 463.934 836.708 463.167C836.349 462.396 835.565 461.458 834.956 461.079C834.348 460.696 830.046 459.291 825.391 457.949C819.725 456.318 816.282 455.05 814.967 454.117C813.888 453.35 812.5 451.96 811.877 451.026C811.259 450.092 810.494 448.446 810.18 447.365C809.866 446.284 809.615 443.189 809.625 440.486C809.64 436.688 809.866 435.071 810.616 433.362C811.151 432.143 812.348 430.556 813.275 429.824C814.207 429.097 816.179 428.158 817.665 427.74C819.819 427.131 822.247 427.018 829.683 427.19Z" fill="#979787"/>
<path fill-rule="evenodd" clip-rule="evenodd" d="M1205.06 427.028C1208.63 426.999 1213.15 427.21 1215.11 427.495C1217.07 427.785 1218.95 428.173 1219.29 428.355C1219.73 428.596 1219.82 429.465 1219.3 434.099H1208.93C1199.12 434.099 1198.44 434.158 1196.47 435.204C1195.32 435.814 1193.93 436.919 1193.38 437.661C1192.82 438.403 1192.02 440.231 1191.59 441.715C1191.17 443.199 1190.68 446.85 1190.51 449.822C1190.33 452.795 1190.33 457.66 1190.5 460.632C1190.67 463.605 1191.18 467.31 1191.62 468.863C1192.12 470.617 1193.03 472.317 1194.02 473.354C1194.98 474.356 1196.49 475.255 1197.82 475.614C1199.11 475.968 1201.15 476.091 1202.73 475.914C1204.37 475.732 1207 474.852 1213.52 471.688L1213.76 450.805L1221.37 450.559V482.007H1215.48L1214.99 476.602L1211.92 478.719C1210.24 479.884 1207.37 481.324 1205.55 481.913C1203.43 482.601 1201 482.989 1198.8 482.989C1196.18 482.989 1194.7 482.69 1192.55 481.736C1191 481.044 1189.1 479.884 1188.33 479.157C1187.57 478.425 1186.43 476.946 1185.79 475.865C1185.15 474.784 1184.15 472.243 1183.57 470.214C1182.68 467.172 1182.45 464.853 1182.26 456.947C1182.06 449.361 1182.18 446.496 1182.81 443.189C1183.25 440.894 1184.12 437.907 1184.74 436.556C1185.37 435.204 1186.63 433.249 1187.55 432.212C1188.48 431.175 1190.34 429.79 1191.69 429.141C1193.04 428.487 1195.14 427.755 1196.35 427.52C1197.56 427.279 1201.48 427.058 1205.06 427.028Z" fill="#979787"/>
<path fill-rule="evenodd" clip-rule="evenodd" d="M286.367 427.957H294.265V446.874C294.265 459.522 294.456 466.647 294.839 468.372C295.207 470.023 295.972 471.57 296.973 472.671C297.958 473.752 299.425 474.661 300.936 475.123C302.334 475.55 304.88 475.821 307.019 475.767C309.815 475.693 311.227 475.388 312.905 474.504C314.475 473.678 315.436 472.71 316.231 471.162C316.844 469.964 317.555 467.551 317.815 465.792C318.07 464.033 318.286 454.805 318.301 427.957H325.968L325.894 447.98C325.83 465.286 325.708 468.401 324.977 470.951C324.516 472.573 323.594 474.838 322.936 475.988C322.274 477.137 321.018 478.626 320.14 479.295C319.262 479.963 316.947 481.068 314.99 481.751C312.076 482.764 310.526 482.99 306.405 482.98C302.913 482.975 300.406 482.69 298.189 482.036C296.433 481.52 294.01 480.351 292.793 479.437C291.582 478.523 290.081 477.015 289.458 476.086C288.839 475.152 287.961 473.285 287.51 471.934C286.814 469.831 286.671 466.475 286.529 448.717L286.367 427.957Z" fill="#979787"/>
<path fill-rule="evenodd" clip-rule="evenodd" d="M1056.97 427.957H1064.89L1064.9 445.523C1064.9 455.478 1065.13 464.475 1065.42 466.283C1065.71 468.042 1066.42 470.362 1067.01 471.443C1067.78 472.848 1068.78 473.747 1070.53 474.602C1072.52 475.575 1073.73 475.796 1076.91 475.781C1079.65 475.771 1081.49 475.486 1083 474.833C1084.19 474.322 1085.68 473.29 1086.31 472.548C1086.94 471.806 1087.79 470.037 1088.2 468.617C1088.8 466.514 1088.94 462.519 1088.93 427.957H1096.78L1096.77 447.243C1096.76 461.571 1096.59 467.35 1096.09 469.723C1095.73 471.482 1094.98 473.801 1094.43 474.882C1093.88 475.963 1092.69 477.54 1091.79 478.39C1090.89 479.236 1089.49 480.263 1088.68 480.661C1087.87 481.063 1085.94 481.751 1084.39 482.189C1082.7 482.67 1079.75 482.99 1077.03 482.985C1073.89 482.985 1071.52 482.68 1069.31 481.997C1067.55 481.452 1065.23 480.493 1064.15 479.855C1063.08 479.221 1061.49 477.624 1060.63 476.302C1059.76 474.98 1058.68 472.573 1058.21 470.951C1057.49 468.431 1057.33 465.089 1057.16 447.98L1056.97 427.957Z" fill="#979787"/>
<path d="M517.213 427.063C519.911 427.019 523.551 427.215 525.307 427.5C527.063 427.785 529.706 428.552 531.192 429.21C532.678 429.869 534.596 431.126 535.46 432.005C536.318 432.89 537.585 434.826 538.271 436.31C538.953 437.794 539.865 440.782 540.297 442.944C540.822 445.572 541.082 449.557 541.087 454.982C541.092 460.652 540.846 464.268 540.277 467.02C539.831 469.182 538.968 472.056 538.354 473.408C537.746 474.759 536.491 476.622 535.568 477.545C534.646 478.469 532.679 479.775 531.192 480.449C529.706 481.117 526.616 481.992 524.325 482.385C520.862 482.975 518.699 483.004 511.571 482.547C506.847 482.247 502.379 482.001 500.289 482.006V454.982C500.289 440.118 500.343 427.927 500.412 427.888C500.489 427.853 503.189 427.671 506.421 427.485C509.658 427.298 514.515 427.112 517.213 427.063ZM508.133 475.619C523.436 475.389 524.83 475.241 526.503 474.391C527.567 473.85 529.064 472.524 529.824 471.443C530.658 470.259 531.531 468.007 532.021 465.791C532.571 463.29 532.831 459.817 532.826 454.982C532.821 451.061 532.542 446.423 532.198 444.663C531.86 442.904 531.193 440.693 530.712 439.749C530.236 438.806 529.098 437.352 528.186 436.522C527.146 435.578 525.566 434.797 523.952 434.433C522.534 434.114 518.394 433.853 514.755 433.853H508.133V475.619Z" fill="#979787"/>
<path fill-rule="evenodd" clip-rule="evenodd" d="M423.772 427.756C430.11 427.909 435.628 428.12 436.035 428.233C436.604 428.39 436.742 429.108 436.526 434.346H425.244C418.867 434.346 413.427 434.557 412.735 434.837C411.994 435.132 411.313 435.957 411.008 436.925C410.734 437.805 410.513 441.121 410.528 450.069H433.583V456.457H410.528L410.65 464.761C410.758 472.289 410.861 473.158 411.754 474.107C412.696 475.104 413.216 475.153 436.281 475.374L436.526 478.244C436.668 479.914 436.565 481.236 436.281 481.398C436.011 481.551 430.492 481.791 424.017 481.924C414.83 482.121 411.705 482.022 409.792 481.487C408.291 481.069 406.643 480.126 405.549 479.069C404.533 478.087 403.528 476.49 403.219 475.374C402.851 474.052 402.714 467.055 402.797 454C402.915 435.692 402.978 434.483 403.906 432.675C404.445 431.623 405.549 430.302 406.358 429.737C407.168 429.176 408.821 428.439 410.037 428.095C411.661 427.643 415.281 427.555 423.772 427.756Z" fill="#979787"/>
<path fill-rule="evenodd" clip-rule="evenodd" d="M736.485 427.795C742.96 427.948 748.424 428.159 748.625 428.262C748.826 428.365 748.993 429.776 748.993 434.345L736.99 434.468C726.228 434.576 724.898 434.679 724.113 435.466C723.373 436.212 723.221 437.382 722.995 450.069L745.805 450.315L746.05 456.457H722.995L723.118 464.761C723.225 472.293 723.328 473.158 724.221 474.106C725.163 475.104 725.683 475.153 748.748 475.374L749.037 481.27L744.48 481.639C741.969 481.845 736.274 482.007 731.824 482.007C727.37 482.002 722.902 481.781 721.891 481.511C720.881 481.246 719.262 480.307 718.3 479.428C717.339 478.548 716.226 476.946 715.828 475.865C715.225 474.224 715.127 470.603 715.249 454C715.387 434.719 715.421 434.046 716.432 432.38C717.006 431.436 718.217 430.174 719.129 429.579C720.042 428.984 721.67 428.277 722.75 428.007C723.951 427.707 729.264 427.623 736.485 427.795Z" fill="#979787"/>
<path fill-rule="evenodd" clip-rule="evenodd" d="M970.713 427.761C976.511 427.899 981.868 428.11 982.609 428.228C983.619 428.395 983.958 428.729 983.953 429.555C983.948 430.164 983.781 431.495 983.222 434.365L972.553 434.355C966.441 434.35 961.413 434.557 960.78 434.837C960.172 435.112 959.402 435.883 959.063 436.556C958.661 437.357 958.45 440.094 958.45 451.052H980.524V457.439H958.45V482.007H950.602L950.724 458.054C950.842 434.621 950.866 434.06 951.887 432.38C952.461 431.437 953.672 430.174 954.585 429.579C955.497 428.985 957.126 428.277 958.205 428.007C959.377 427.712 964.395 427.614 970.713 427.761Z" fill="#979787"/>
<path fill-rule="evenodd" clip-rule="evenodd" d="M343.32 427.957H385.506V434.836H368.337V482.007H360.489V434.836H343.32V427.957Z" fill="#979787"/>
<path fill-rule="evenodd" clip-rule="evenodd" d="M561.602 427.957H569.46V482.007L561.857 481.761L561.602 427.957Z" fill="#979787"/>
<path fill-rule="evenodd" clip-rule="evenodd" d="M598.774 427.942C603.214 427.928 604.165 428.065 604.842 428.802C605.284 429.284 609.62 438.413 614.481 449.086C619.342 459.763 623.894 469.767 624.596 471.32C625.297 472.873 626.092 474.145 626.362 474.145C626.681 474.145 626.852 466.121 626.852 427.957H634.662L634.559 454.284C634.456 479.978 634.431 480.631 633.475 481.344C632.714 481.909 631.326 482.036 627.402 481.919C622.624 481.771 622.261 481.688 621.515 480.557C621.074 479.894 616.473 470.057 611.283 458.692C606.098 447.327 601.624 437.421 601.35 436.679C601.075 435.937 600.633 435.328 600.364 435.328C600.04 435.328 599.873 443.435 599.873 482.007L592.27 481.761L592.118 456.009C591.985 433.22 592.054 430.124 592.741 429.107C593.467 428.021 593.815 427.957 598.774 427.942Z" fill="#979787"/>
<path fill-rule="evenodd" clip-rule="evenodd" d="M860.836 427.957H902.531V434.836H885.363V482.007H877.514V434.836H860.836V427.957Z" fill="#979787"/>
<path fill-rule="evenodd" clip-rule="evenodd" d="M920.18 427.957H928.529L928.283 481.761H920.435L920.18 427.957Z" fill="#979787"/>
<path fill-rule="evenodd" clip-rule="evenodd" d="M997.688 427.957H1039.87V434.836H1022.7V482.007H1014.86V434.836H997.688V427.957Z" fill="#979787"/>
<path fill-rule="evenodd" clip-rule="evenodd" d="M1125.65 427.942C1130.04 427.928 1130.99 428.065 1131.67 428.802C1132.11 429.284 1136.45 438.413 1141.3 449.086C1146.16 459.763 1150.76 469.767 1151.53 471.325C1152.31 472.882 1153.16 474.155 1153.43 474.15C1153.75 474.15 1153.88 466.19 1153.7 427.957H1161.49L1161.39 454.284C1161.28 479.987 1161.25 480.631 1160.3 481.319C1159.63 481.801 1158.01 482.017 1155.15 482.007C1152.86 482.002 1150.45 481.83 1149.81 481.634C1149.04 481.398 1148.17 480.331 1147.29 478.567C1146.55 477.084 1141.98 467.133 1137.14 456.456C1132.28 445.784 1128.17 436.659 1128 436.187C1127.82 435.716 1127.46 435.328 1127.19 435.328C1126.87 435.328 1126.7 443.435 1126.7 482.007L1119.09 481.761V455.67C1119.09 434.379 1119.22 429.431 1119.76 428.768C1120.31 428.11 1121.4 427.952 1125.65 427.942Z" fill="#979787"/>
<path fill-rule="evenodd" clip-rule="evenodd" d="M478.949 459.158L479.194 464.808H455.158L455.08 462.19C455.03 460.745 455.183 459.418 455.413 459.232C455.644 459.045 461.03 458.956 478.949 459.158Z" fill="#979787"/>
<path fill-rule="evenodd" clip-rule="evenodd" d="M767.645 458.893L791.416 459.158L791.661 464.809H767.625L767.645 458.893Z" fill="#979787"/>
</svg>
