<svg xmlns="http://www.w3.org/2000/svg" width="146" height="49" fill="none" overflow="visible"><path d="M 25.342 43.336 C 25.832 43.347 26.316 43.381 26.418 43.411 C 26.562 43.453 26.604 43.491 26.603 43.578 C 26.603 43.64 26.59 43.769 26.545 44.039 L 25.523 44.039 C 24.521 44.039 24.495 44.042 24.253 44.167 C 24.108 44.242 23.97 44.36 23.918 44.453 C 23.869 44.541 23.795 44.73 23.753 44.874 C 23.708 45.032 23.667 45.444 23.65 45.908 C 23.633 46.4 23.645 46.835 23.683 47.105 C 23.716 47.338 23.783 47.618 23.831 47.728 C 23.88 47.838 23.984 47.986 24.062 48.057 C 24.141 48.129 24.283 48.214 24.378 48.245 C 24.473 48.277 24.629 48.303 24.724 48.303 C 24.82 48.303 25.042 48.258 25.219 48.202 C 25.396 48.147 25.646 48.034 26.01 47.803 L 26.01 45.709 L 26.777 45.734 L 26.777 48.874 L 26.481 48.874 C 26.255 48.874 26.182 48.856 26.175 48.8 C 26.169 48.758 26.153 48.641 26.109 48.351 L 25.924 48.494 C 25.822 48.572 25.66 48.676 25.565 48.725 C 25.47 48.774 25.269 48.856 25.12 48.907 C 24.946 48.967 24.714 48.999 24.477 48.998 C 24.171 48.997 24.052 48.97 23.797 48.848 C 23.573 48.741 23.439 48.635 23.312 48.463 C 23.216 48.333 23.092 48.103 23.037 47.952 C 22.982 47.802 22.905 47.465 22.867 47.204 C 22.827 46.944 22.796 46.467 22.796 46.145 C 22.795 45.823 22.82 45.385 22.849 45.173 C 22.878 44.961 22.947 44.652 23.003 44.488 C 23.057 44.323 23.164 44.099 23.239 43.989 C 23.314 43.88 23.471 43.723 23.589 43.64 C 23.706 43.558 23.949 43.451 24.127 43.404 C 24.396 43.331 24.606 43.319 25.342 43.336 Z M 52.15 43.325 C 52.422 43.321 52.789 43.341 52.966 43.37 C 53.143 43.399 53.409 43.476 53.559 43.543 C 53.709 43.61 53.903 43.738 53.99 43.827 C 54.076 43.916 54.204 44.113 54.273 44.263 C 54.342 44.414 54.434 44.717 54.477 44.936 C 54.53 45.203 54.556 45.607 54.557 46.158 C 54.557 46.733 54.533 47.1 54.475 47.379 C 54.43 47.598 54.343 47.89 54.281 48.027 C 54.22 48.164 54.093 48.353 54 48.447 C 53.907 48.54 53.709 48.673 53.559 48.741 C 53.409 48.809 53.098 48.898 52.867 48.938 C 52.518 48.998 52.3 49 51.581 48.954 C 51.105 48.924 50.654 48.899 50.443 48.899 L 50.443 46.158 C 50.443 44.65 50.449 43.413 50.456 43.409 C 50.463 43.406 50.735 43.387 51.062 43.368 C 51.388 43.349 51.878 43.33 52.15 43.325 Z M 51.235 48.251 C 52.778 48.228 52.918 48.213 53.087 48.127 C 53.194 48.072 53.345 47.937 53.422 47.828 C 53.506 47.707 53.594 47.479 53.643 47.254 C 53.699 47.001 53.725 46.648 53.724 46.158 C 53.724 45.76 53.696 45.289 53.661 45.111 C 53.627 44.932 53.56 44.708 53.511 44.612 C 53.463 44.517 53.349 44.369 53.257 44.285 C 53.152 44.189 52.992 44.11 52.83 44.073 C 52.687 44.041 52.269 44.014 51.902 44.014 L 51.235 44.014 Z M 68.385 43.322 C 68.745 43.319 69.201 43.34 69.399 43.369 C 69.596 43.399 69.784 43.438 69.816 43.456 C 69.856 43.48 69.867 43.579 69.82 44.039 L 68.775 44.039 C 67.786 44.039 67.718 44.045 67.519 44.151 C 67.404 44.213 67.263 44.325 67.207 44.4 C 67.151 44.476 67.071 44.661 67.028 44.812 C 66.986 44.962 66.934 45.333 66.912 45.634 C 66.891 45.936 66.892 46.44 66.916 46.756 C 66.94 47.071 66.994 47.447 67.036 47.591 C 67.08 47.742 67.179 47.923 67.272 48.021 C 67.369 48.123 67.521 48.214 67.655 48.251 C 67.785 48.287 67.991 48.299 68.15 48.281 C 68.316 48.263 68.581 48.174 69.238 47.852 L 69.263 45.734 L 70.029 45.709 L 70.029 48.899 L 69.436 48.899 L 69.386 48.351 L 69.077 48.566 C 68.907 48.684 68.618 48.83 68.434 48.89 C 68.221 48.96 67.976 48.999 67.754 48.999 C 67.481 48.999 67.343 48.97 67.099 48.858 C 66.896 48.766 66.725 48.643 66.602 48.497 C 66.499 48.376 66.369 48.153 66.313 48.002 C 66.257 47.851 66.179 47.548 66.14 47.329 C 66.1 47.101 66.07 46.6 66.069 46.158 C 66.069 45.733 66.091 45.239 66.118 45.061 C 66.146 44.883 66.199 44.647 66.237 44.538 C 66.275 44.428 66.351 44.248 66.405 44.139 C 66.46 44.029 66.591 43.863 66.697 43.768 C 66.802 43.675 66.989 43.554 67.111 43.501 C 67.233 43.447 67.423 43.387 67.532 43.366 C 67.64 43.344 68.024 43.325 68.385 43.322 Z M 83.656 43.338 C 84.172 43.35 84.701 43.384 84.83 43.413 C 85.037 43.46 85.062 43.479 85.041 43.578 C 85.028 43.64 85.017 43.769 85.016 44.039 L 83.94 44.039 C 83.089 44.039 82.831 44.055 82.702 44.114 C 82.604 44.159 82.517 44.248 82.483 44.338 C 82.452 44.42 82.427 44.622 82.428 44.787 C 82.428 44.951 82.46 45.152 82.498 45.233 C 82.536 45.314 82.634 45.419 82.716 45.467 C 82.797 45.514 83.193 45.644 83.594 45.756 C 83.995 45.867 84.429 46.012 84.558 46.078 C 84.687 46.144 84.842 46.25 84.901 46.315 C 84.961 46.379 85.061 46.544 85.122 46.681 C 85.215 46.888 85.234 47.019 85.236 47.454 C 85.237 47.773 85.211 48.055 85.169 48.177 C 85.131 48.286 85.059 48.438 85.009 48.513 C 84.958 48.588 84.833 48.693 84.731 48.745 C 84.629 48.798 84.395 48.876 84.212 48.92 C 84.028 48.963 83.661 48.999 83.396 49 C 83.131 49 82.641 48.961 81.701 48.825 L 81.702 48.65 C 81.703 48.554 81.714 48.425 81.727 48.363 C 81.751 48.251 81.753 48.251 82.904 48.239 C 83.903 48.228 84.073 48.215 84.19 48.139 C 84.263 48.091 84.347 47.99 84.376 47.915 C 84.405 47.84 84.43 47.632 84.429 47.454 C 84.429 47.275 84.4 47.066 84.364 46.988 C 84.328 46.91 84.249 46.815 84.187 46.776 C 84.126 46.737 83.692 46.595 83.223 46.459 C 82.651 46.293 82.304 46.165 82.172 46.07 C 82.063 45.992 81.923 45.851 81.86 45.756 C 81.798 45.662 81.721 45.495 81.689 45.385 C 81.657 45.275 81.632 44.961 81.633 44.687 C 81.635 44.302 81.657 44.138 81.733 43.964 C 81.787 43.841 81.908 43.68 82.001 43.605 C 82.095 43.532 82.294 43.436 82.444 43.394 C 82.661 43.332 82.906 43.321 83.656 43.338 Z M 121.505 43.322 C 121.865 43.319 122.321 43.34 122.518 43.369 C 122.716 43.399 122.905 43.438 122.939 43.456 C 122.984 43.481 122.993 43.569 122.94 44.039 L 121.895 44.039 C 120.906 44.039 120.838 44.045 120.639 44.151 C 120.523 44.213 120.383 44.325 120.327 44.4 C 120.271 44.476 120.19 44.661 120.147 44.812 C 120.104 44.962 120.055 45.333 120.038 45.634 C 120.02 45.936 120.02 46.429 120.037 46.731 C 120.054 47.032 120.105 47.408 120.15 47.566 C 120.2 47.744 120.292 47.916 120.392 48.021 C 120.489 48.123 120.641 48.214 120.775 48.251 C 120.905 48.287 121.11 48.299 121.27 48.281 C 121.436 48.263 121.7 48.174 122.358 47.852 L 122.382 45.734 L 123.149 45.709 L 123.149 48.899 L 122.556 48.899 L 122.506 48.351 L 122.197 48.566 C 122.027 48.684 121.738 48.83 121.554 48.89 C 121.34 48.96 121.096 48.999 120.874 48.999 C 120.61 48.999 120.46 48.969 120.243 48.872 C 120.087 48.802 119.896 48.684 119.818 48.61 C 119.741 48.536 119.626 48.386 119.562 48.276 C 119.498 48.167 119.397 47.909 119.338 47.703 C 119.249 47.394 119.225 47.159 119.206 46.357 C 119.186 45.587 119.198 45.297 119.262 44.961 C 119.306 44.728 119.394 44.425 119.456 44.288 C 119.519 44.151 119.647 43.953 119.74 43.848 C 119.833 43.742 120.021 43.602 120.157 43.536 C 120.293 43.47 120.504 43.396 120.627 43.372 C 120.749 43.347 121.144 43.325 121.505 43.322 Z M 28.874 43.416 L 29.67 43.416 L 29.67 45.335 C 29.67 46.618 29.689 47.341 29.728 47.516 C 29.765 47.684 29.842 47.841 29.943 47.952 C 30.043 48.062 30.191 48.154 30.343 48.201 C 30.484 48.244 30.741 48.272 30.956 48.266 C 31.238 48.259 31.381 48.228 31.55 48.138 C 31.708 48.054 31.805 47.956 31.885 47.799 C 31.947 47.678 32.019 47.433 32.045 47.254 C 32.07 47.076 32.092 46.14 32.094 43.416 L 32.867 43.416 L 32.859 45.447 C 32.853 47.203 32.841 47.519 32.767 47.778 C 32.72 47.942 32.627 48.172 32.561 48.289 C 32.494 48.405 32.368 48.556 32.279 48.624 C 32.191 48.692 31.957 48.804 31.76 48.873 C 31.466 48.976 31.31 48.999 30.894 48.998 C 30.542 48.998 30.289 48.969 30.066 48.902 C 29.889 48.85 29.644 48.731 29.522 48.639 C 29.4 48.546 29.248 48.393 29.185 48.299 C 29.123 48.204 29.035 48.014 28.989 47.877 C 28.919 47.664 28.905 47.324 28.89 45.522 Z M 106.573 43.416 L 107.371 43.416 L 107.372 45.198 C 107.372 46.208 107.395 47.121 107.424 47.304 C 107.454 47.483 107.525 47.718 107.585 47.828 C 107.662 47.97 107.764 48.061 107.94 48.148 C 108.141 48.247 108.263 48.269 108.583 48.268 C 108.86 48.267 109.045 48.238 109.198 48.172 C 109.318 48.12 109.468 48.015 109.531 47.94 C 109.595 47.864 109.68 47.685 109.721 47.541 C 109.783 47.328 109.796 46.922 109.795 43.416 L 110.586 43.416 L 110.586 45.373 C 110.585 46.826 110.568 47.412 110.518 47.653 C 110.48 47.832 110.405 48.067 110.35 48.177 C 110.295 48.286 110.175 48.446 110.084 48.532 C 109.993 48.618 109.852 48.722 109.77 48.763 C 109.689 48.804 109.494 48.873 109.337 48.918 C 109.167 48.967 108.87 48.999 108.596 48.999 C 108.279 48.999 108.04 48.968 107.817 48.898 C 107.64 48.843 107.406 48.746 107.297 48.681 C 107.188 48.617 107.029 48.455 106.942 48.321 C 106.855 48.186 106.745 47.942 106.698 47.778 C 106.625 47.522 106.609 47.183 106.592 45.447 Z M 109.894 0.113 C 110.017 0.177 110.168 0.307 110.23 0.4 C 110.293 0.495 110.367 0.661 110.395 0.771 C 110.436 0.934 110.423 1.075 110.32 1.543 C 110.251 1.859 110.072 2.677 109.924 3.363 C 109.776 4.048 109.541 5.17 109.403 5.855 C 109.266 6.541 109.158 7.103 109.165 7.106 C 109.172 7.108 109.511 7.094 109.919 7.073 C 110.327 7.052 111.317 7.01 112.12 6.979 C 113.235 6.936 113.62 6.937 113.752 6.982 C 113.847 7.014 113.987 7.083 114.061 7.133 C 114.136 7.184 114.239 7.31 114.291 7.413 C 114.343 7.516 114.401 7.679 114.419 7.774 C 114.438 7.871 114.429 8.044 114.399 8.161 C 114.37 8.277 114.282 8.445 114.205 8.535 C 114.128 8.624 113.978 8.739 113.871 8.791 C 113.704 8.872 113.46 8.894 112.071 8.949 C 111.186 8.985 110.088 9.032 109.63 9.055 C 109.171 9.077 108.789 9.107 108.781 9.12 C 108.772 9.134 108.663 9.729 108.538 10.441 C 108.414 11.154 108.224 12.298 108.116 12.984 C 108.008 13.669 107.853 14.712 107.771 15.302 C 107.688 15.891 107.566 16.822 107.498 17.37 C 107.43 17.919 107.33 18.793 107.276 19.314 C 107.223 19.835 107.144 20.71 107.102 21.258 C 107.06 21.807 107.003 22.726 106.976 23.302 C 106.949 23.878 106.927 24.764 106.928 25.271 C 106.928 25.778 106.95 26.53 106.977 26.941 C 107.003 27.352 107.048 27.891 107.077 28.137 C 107.106 28.384 107.174 28.822 107.228 29.11 C 107.282 29.398 107.384 29.824 107.454 30.057 C 107.523 30.289 107.661 30.646 107.76 30.85 C 107.86 31.053 108.041 31.331 108.163 31.468 C 108.285 31.606 108.475 31.759 108.584 31.808 C 108.703 31.863 108.898 31.899 109.078 31.9 C 109.242 31.9 109.497 31.867 109.647 31.826 C 109.796 31.786 110.06 31.68 110.231 31.59 C 110.403 31.501 110.693 31.316 110.874 31.179 C 111.056 31.043 111.416 30.716 111.675 30.453 C 111.933 30.19 112.343 29.719 112.585 29.405 C 112.828 29.092 113.232 28.521 113.482 28.137 C 113.733 27.754 114.111 27.137 114.323 26.767 C 114.534 26.397 114.937 25.623 115.218 25.047 C 115.52 24.428 115.751 23.888 115.784 23.726 C 115.813 23.575 115.927 23.093 116.038 22.654 C 116.148 22.216 116.322 21.599 116.424 21.283 C 116.525 20.968 116.692 20.497 116.793 20.237 C 116.894 19.976 117.119 19.471 117.294 19.115 C 117.468 18.759 117.716 18.312 117.845 18.122 C 118.01 17.88 118.146 17.742 118.303 17.657 C 118.488 17.556 118.58 17.539 118.856 17.553 C 119.164 17.568 119.193 17.561 119.252 17.451 C 119.288 17.386 119.44 17.217 119.59 17.077 C 119.74 16.937 120.018 16.74 120.208 16.638 C 120.398 16.538 120.72 16.408 120.924 16.351 C 121.128 16.293 121.495 16.232 121.74 16.216 C 122.066 16.193 122.298 16.208 122.606 16.271 C 122.837 16.317 123.17 16.417 123.347 16.491 C 123.524 16.566 123.802 16.714 123.966 16.821 C 124.129 16.928 124.451 17.207 124.683 17.442 C 124.914 17.677 125.214 18.037 125.349 18.243 C 125.485 18.448 125.699 18.83 125.825 19.09 C 125.952 19.351 126.129 19.765 126.218 20.012 C 126.307 20.259 126.452 20.752 126.54 21.109 C 126.629 21.465 126.737 21.998 126.78 22.293 C 126.823 22.587 126.881 23.204 126.909 23.664 C 126.942 24.223 126.942 24.754 126.909 25.271 C 126.882 25.696 126.872 26.055 126.888 26.069 C 126.904 26.083 127.21 26.093 127.568 26.092 C 128.032 26.092 128.319 26.065 128.565 26.001 C 128.756 25.952 129.134 25.802 129.406 25.668 C 129.678 25.535 130.045 25.314 130.222 25.178 C 130.399 25.042 130.815 24.655 131.146 24.316 C 131.478 23.978 131.864 23.555 132.005 23.377 C 132.146 23.199 132.445 22.773 132.67 22.43 C 132.894 22.087 133.214 21.56 133.38 21.258 C 133.547 20.957 133.817 20.413 133.98 20.05 C 134.144 19.686 134.278 19.367 134.278 19.339 C 134.278 19.312 134.117 19.215 133.919 19.124 C 133.722 19.033 133.405 18.855 133.215 18.728 C 133.024 18.602 132.713 18.367 132.522 18.205 C 132.332 18.044 132.024 17.723 131.838 17.492 C 131.628 17.229 131.401 16.865 131.235 16.523 C 131.089 16.221 130.933 15.829 130.889 15.65 C 130.844 15.473 130.788 15.147 130.763 14.928 C 130.735 14.681 130.736 14.377 130.765 14.13 C 130.792 13.911 130.869 13.563 130.939 13.357 C 131.007 13.152 131.136 12.862 131.224 12.714 C 131.312 12.566 131.519 12.309 131.683 12.141 C 131.875 11.945 132.122 11.763 132.375 11.63 C 132.592 11.516 132.914 11.382 133.091 11.333 C 133.314 11.272 133.594 11.244 134.006 11.243 C 134.439 11.242 134.68 11.266 134.896 11.332 C 135.06 11.382 135.347 11.505 135.535 11.605 C 135.767 11.729 135.981 11.9 136.203 12.139 C 136.403 12.355 136.599 12.634 136.711 12.861 C 136.811 13.066 136.94 13.401 136.996 13.607 C 137.053 13.813 137.12 14.227 137.145 14.529 C 137.173 14.868 137.172 15.316 137.144 15.7 C 137.118 16.043 137.062 16.525 137.019 16.772 C 136.977 17.019 136.909 17.367 136.87 17.545 C 136.83 17.723 136.811 17.88 136.828 17.894 C 136.845 17.908 137.207 17.918 137.633 17.917 C 138.059 17.917 138.797 17.876 139.273 17.827 C 139.749 17.778 140.145 17.745 140.153 17.754 C 140.16 17.762 139.968 18.296 139.727 18.94 C 139.484 19.585 139.163 20.493 139.011 20.959 C 138.86 21.425 138.647 22.121 138.538 22.505 C 138.429 22.888 138.25 23.561 138.141 24 C 138.033 24.439 137.877 25.123 137.795 25.52 C 137.714 25.918 137.602 26.557 137.547 26.941 C 137.491 27.325 137.422 27.987 137.391 28.412 C 137.35 28.973 137.35 29.348 137.389 29.782 C 137.418 30.111 137.476 30.515 137.518 30.68 C 137.56 30.844 137.66 31.119 137.741 31.29 C 137.829 31.475 137.964 31.663 138.074 31.753 C 138.176 31.836 138.371 31.937 138.507 31.978 C 138.643 32.018 138.826 32.052 138.915 32.051 C 139.003 32.051 139.192 32.006 139.335 31.952 C 139.478 31.899 139.739 31.735 139.916 31.588 C 140.093 31.442 140.381 31.144 140.555 30.926 C 140.731 30.708 141.011 30.317 141.179 30.057 C 141.347 29.796 141.641 29.291 141.832 28.935 C 142.022 28.579 142.317 27.984 142.487 27.614 C 142.657 27.244 142.941 26.582 143.117 26.144 C 143.294 25.705 143.614 24.819 143.828 24.175 C 144.076 23.43 144.259 22.96 144.33 22.884 C 144.392 22.819 144.531 22.724 144.64 22.674 C 144.749 22.623 144.927 22.581 145.036 22.581 C 145.144 22.581 145.322 22.623 145.431 22.674 C 145.54 22.724 145.689 22.831 145.762 22.909 C 145.835 22.989 145.918 23.115 145.947 23.19 C 145.976 23.265 146 23.439 146 23.576 C 146 23.751 145.898 24.136 145.66 24.86 C 145.473 25.429 145.135 26.365 144.907 26.941 C 144.68 27.517 144.257 28.47 143.966 29.06 C 143.675 29.649 143.277 30.39 143.081 30.705 C 142.886 31.02 142.566 31.49 142.372 31.75 C 142.177 32.01 141.829 32.414 141.598 32.649 C 141.367 32.884 141.033 33.18 140.856 33.307 C 140.679 33.434 140.39 33.606 140.213 33.69 C 140.036 33.773 139.758 33.876 139.595 33.918 C 139.432 33.961 139.12 33.995 138.903 33.994 C 138.685 33.994 138.362 33.962 138.185 33.925 C 138.008 33.887 137.719 33.79 137.542 33.709 C 137.365 33.627 137.087 33.46 136.924 33.336 C 136.761 33.213 136.519 32.968 136.387 32.793 C 136.254 32.618 136.085 32.351 136.009 32.2 C 135.934 32.05 135.814 31.741 135.743 31.515 C 135.672 31.288 135.576 30.885 135.53 30.617 C 135.47 30.265 135.447 29.838 135.447 29.06 C 135.447 28.346 135.475 27.755 135.532 27.29 C 135.579 26.906 135.672 26.278 135.739 25.894 C 135.805 25.51 135.905 24.984 135.961 24.723 C 136.018 24.463 136.161 23.857 136.28 23.377 C 136.4 22.897 136.609 22.135 136.744 21.682 C 136.879 21.23 137.058 20.647 137.14 20.386 C 137.223 20.126 137.286 19.91 137.28 19.906 C 137.275 19.903 137.026 19.884 136.182 19.83 L 135.892 20.519 C 135.733 20.899 135.446 21.512 135.255 21.882 C 135.063 22.252 134.741 22.824 134.538 23.153 C 134.335 23.482 133.944 24.054 133.668 24.424 C 133.383 24.806 132.889 25.378 132.523 25.748 C 132.169 26.107 131.687 26.544 131.451 26.72 C 131.216 26.897 130.86 27.136 130.66 27.252 C 130.46 27.368 130.107 27.545 129.876 27.645 C 129.645 27.746 129.244 27.875 128.986 27.932 C 128.596 28.018 128.343 28.036 126.488 28.038 L 126.276 28.686 C 126.16 29.042 125.942 29.592 125.791 29.907 C 125.64 30.223 125.37 30.705 125.189 30.979 C 124.979 31.299 124.657 31.685 124.29 32.058 C 123.913 32.441 123.567 32.736 123.273 32.927 C 123.028 33.087 122.672 33.289 122.482 33.377 C 122.291 33.465 121.991 33.586 121.814 33.646 C 121.637 33.706 121.281 33.796 121.023 33.846 C 120.764 33.895 120.341 33.952 120.083 33.97 C 119.799 33.991 119.447 33.981 119.193 33.945 C 118.961 33.912 118.605 33.833 118.401 33.767 C 118.197 33.702 117.886 33.563 117.709 33.46 C 117.532 33.357 117.209 33.091 116.992 32.871 C 116.751 32.627 116.506 32.313 116.367 32.073 C 116.241 31.855 116.055 31.464 115.953 31.203 C 115.851 30.943 115.716 30.494 115.652 30.206 C 115.59 29.919 115.513 29.492 115.482 29.259 C 115.451 29.026 115.422 28.83 115.418 28.823 C 115.413 28.816 115.255 29.04 115.067 29.321 C 114.879 29.603 114.592 30.012 114.427 30.231 C 114.264 30.45 113.958 30.832 113.75 31.079 C 113.541 31.325 113.137 31.751 112.853 32.026 C 112.568 32.3 112.136 32.667 111.894 32.843 C 111.651 33.018 111.23 33.269 110.958 33.402 C 110.686 33.534 110.296 33.686 110.092 33.739 C 109.888 33.793 109.532 33.851 109.301 33.87 C 109.003 33.893 108.765 33.88 108.485 33.825 C 108.255 33.78 107.923 33.665 107.693 33.551 C 107.447 33.429 107.17 33.236 106.957 33.039 C 106.771 32.866 106.523 32.578 106.407 32.4 C 106.291 32.222 106.118 31.918 106.023 31.727 C 105.927 31.535 105.771 31.142 105.676 30.854 C 105.581 30.567 105.477 30.196 105.388 29.733 L 105.015 30.306 C 104.81 30.621 104.494 31.07 104.314 31.303 C 104.134 31.536 103.763 31.951 103.49 32.225 C 103.217 32.499 102.855 32.825 102.685 32.948 C 102.515 33.071 102.237 33.257 102.067 33.361 C 101.897 33.464 101.58 33.618 101.363 33.702 C 101.145 33.786 100.806 33.886 100.608 33.925 C 100.411 33.963 100.055 33.994 99.817 33.994 C 99.579 33.993 99.228 33.959 99.038 33.918 C 98.848 33.877 98.525 33.761 98.321 33.661 C 98.054 33.53 97.852 33.38 97.602 33.126 C 97.345 32.866 97.2 32.663 97.047 32.35 C 96.932 32.117 96.793 31.747 96.737 31.527 C 96.681 31.308 96.63 31.122 96.624 31.115 C 96.619 31.107 96.515 31.231 96.392 31.389 C 96.27 31.547 95.959 31.898 95.7 32.169 C 95.441 32.44 95.04 32.804 94.809 32.98 C 94.578 33.155 94.222 33.385 94.018 33.492 C 93.814 33.599 93.502 33.733 93.325 33.791 C 93.148 33.849 92.814 33.92 92.583 33.951 C 92.278 33.99 92.037 33.99 91.706 33.95 C 91.454 33.92 91.075 33.832 90.865 33.754 C 90.654 33.677 90.348 33.528 90.185 33.422 C 90.021 33.317 89.777 33.117 89.641 32.977 C 89.505 32.837 89.324 32.622 89.239 32.499 C 89.154 32.376 89.018 32.14 88.937 31.976 C 88.855 31.811 88.752 31.559 88.708 31.415 C 88.663 31.271 88.607 31.159 88.584 31.166 C 88.56 31.173 88.373 31.403 88.169 31.677 C 87.964 31.951 87.589 32.379 87.334 32.628 C 87.079 32.877 86.704 33.19 86.5 33.323 C 86.296 33.455 85.984 33.624 85.807 33.697 C 85.63 33.77 85.325 33.868 85.127 33.912 C 84.93 33.958 84.563 33.995 84.311 33.995 C 84.015 33.996 83.714 33.96 83.458 33.895 C 83.241 33.84 82.918 33.722 82.741 33.633 C 82.527 33.525 82.286 33.338 82.02 33.072 C 81.724 32.776 81.57 32.571 81.419 32.275 C 81.308 32.056 81.17 31.731 81.112 31.552 C 81.055 31.374 80.975 31.049 80.934 30.829 C 80.893 30.61 80.838 30.128 80.813 29.758 C 80.783 29.329 80.783 28.795 80.814 28.287 C 80.84 27.848 80.897 27.22 80.939 26.891 C 80.981 26.562 81.071 25.991 81.138 25.62 C 81.206 25.25 81.338 24.6 81.433 24.175 C 81.528 23.75 81.706 23.032 81.828 22.579 C 81.951 22.127 82.186 21.32 82.35 20.785 C 82.513 20.25 82.641 19.81 82.633 19.807 C 82.624 19.804 82.333 19.787 81.356 19.738 L 81.251 20.224 C 81.194 20.491 81.037 21.103 80.903 21.582 C 80.768 22.062 80.523 22.859 80.358 23.352 C 80.193 23.846 79.884 24.687 79.672 25.221 C 79.46 25.756 79.117 26.564 78.909 27.016 C 78.702 27.469 78.363 28.152 78.157 28.536 C 77.95 28.92 77.594 29.537 77.366 29.907 C 77.137 30.277 76.767 30.826 76.544 31.128 C 76.321 31.429 75.904 31.92 75.619 32.22 C 75.333 32.52 74.921 32.899 74.704 33.063 C 74.486 33.227 74.108 33.459 73.863 33.578 C 73.618 33.698 73.251 33.832 73.047 33.876 C 72.78 33.932 72.544 33.947 72.206 33.926 C 71.947 33.909 71.603 33.86 71.439 33.816 C 71.276 33.772 71.009 33.669 70.846 33.587 C 70.683 33.505 70.439 33.356 70.304 33.255 C 70.17 33.155 69.947 32.935 69.81 32.767 C 69.672 32.599 69.488 32.325 69.238 31.851 L 69.02 32.138 C 68.9 32.295 68.661 32.563 68.489 32.732 C 68.316 32.9 68.042 33.131 67.878 33.244 C 67.715 33.357 67.42 33.516 67.223 33.597 C 67.026 33.679 66.636 33.783 66.357 33.83 C 65.928 33.901 65.775 33.905 65.356 33.858 C 65.084 33.826 64.694 33.743 64.49 33.673 C 64.286 33.603 63.974 33.459 63.798 33.353 C 63.621 33.247 63.332 33.018 63.155 32.842 C 62.978 32.666 62.729 32.354 62.6 32.149 C 62.472 31.944 62.29 31.586 62.196 31.353 C 62.103 31.12 61.981 30.75 61.926 30.53 C 61.87 30.311 61.791 29.93 61.748 29.683 C 61.706 29.436 61.671 29.161 61.671 29.072 C 61.671 28.983 61.649 28.91 61.622 28.91 C 61.594 28.91 61.364 29.23 61.11 29.62 C 60.856 30.011 60.484 30.544 60.283 30.804 C 60.082 31.065 59.65 31.555 59.323 31.894 C 58.996 32.232 58.572 32.629 58.382 32.775 C 58.192 32.922 57.846 33.156 57.615 33.296 C 57.384 33.435 57.072 33.596 56.923 33.652 C 56.773 33.709 56.484 33.798 56.28 33.852 C 56.026 33.919 55.745 33.95 55.39 33.95 C 55.068 33.95 54.757 33.919 54.574 33.87 C 54.41 33.826 54.143 33.723 53.98 33.643 C 53.817 33.562 53.556 33.39 53.4 33.259 C 53.244 33.129 52.994 32.866 52.844 32.674 C 52.694 32.482 52.472 32.123 52.35 31.876 C 52.229 31.629 52.053 31.192 51.96 30.904 C 51.866 30.616 51.732 30.101 51.662 29.758 C 51.592 29.415 51.498 28.832 51.454 28.461 C 51.41 28.092 51.365 27.783 51.354 27.776 C 51.343 27.769 51.23 27.949 51.103 28.175 C 50.976 28.401 50.681 28.889 50.447 29.259 C 50.213 29.629 49.824 30.201 49.583 30.53 C 49.341 30.859 49.021 31.274 48.87 31.452 C 48.72 31.631 48.439 31.941 48.247 32.142 C 48.054 32.343 47.741 32.637 47.55 32.796 C 47.36 32.954 47.037 33.192 46.833 33.324 C 46.629 33.456 46.329 33.62 46.166 33.687 C 46.002 33.754 45.757 33.839 45.621 33.875 C 45.485 33.912 45.229 33.956 45.053 33.973 C 44.876 33.991 44.598 33.98 44.434 33.949 C 44.271 33.918 44.004 33.83 43.841 33.753 C 43.678 33.676 43.402 33.48 43.228 33.318 C 43.054 33.156 42.822 32.888 42.711 32.724 C 42.601 32.559 42.428 32.245 42.327 32.026 C 42.227 31.806 42.076 31.414 41.992 31.153 C 41.908 30.893 41.785 30.444 41.719 30.156 C 41.652 29.869 41.591 29.582 41.582 29.519 C 41.573 29.456 41.551 29.4 41.534 29.394 C 41.517 29.388 41.269 29.698 40.984 30.082 C 40.698 30.465 40.287 30.993 40.07 31.253 C 39.852 31.514 39.464 31.94 39.206 32.2 C 38.948 32.461 38.583 32.801 38.395 32.957 C 38.207 33.112 37.865 33.355 37.634 33.495 C 37.402 33.636 37.058 33.8 36.867 33.86 C 36.593 33.947 36.408 33.969 35.977 33.966 C 35.642 33.963 35.309 33.929 35.111 33.878 C 34.934 33.832 34.634 33.717 34.444 33.621 C 34.253 33.526 33.966 33.33 33.806 33.185 C 33.645 33.041 33.445 32.822 33.361 32.699 C 33.277 32.575 33.142 32.345 32.91 31.898 L 32.576 32.298 C 32.393 32.519 32.092 32.823 31.909 32.974 C 31.725 33.126 31.408 33.337 31.204 33.443 C 31 33.55 30.71 33.673 30.561 33.717 C 30.411 33.761 30.1 33.817 29.869 33.842 C 29.621 33.868 29.27 33.867 29.015 33.841 C 28.777 33.816 28.41 33.738 28.199 33.668 C 27.989 33.598 27.671 33.455 27.494 33.35 C 27.317 33.245 27.034 33.023 26.864 32.855 C 26.694 32.687 26.448 32.387 26.318 32.188 C 26.188 31.989 26.012 31.658 25.926 31.452 C 25.841 31.247 25.715 30.888 25.649 30.655 C 25.581 30.422 25.496 30.057 25.459 29.844 C 25.423 29.631 25.381 29.457 25.368 29.457 C 25.354 29.457 25.232 29.664 25.096 29.918 C 24.96 30.171 24.633 30.704 24.371 31.102 C 24.108 31.5 23.717 32.028 23.502 32.275 C 23.287 32.522 22.968 32.845 22.793 32.993 C 22.618 33.142 22.319 33.365 22.128 33.49 C 21.938 33.614 21.615 33.784 21.411 33.868 C 21.054 34.013 21.011 34.019 20.298 34.018 C 19.629 34.017 19.527 34.005 19.259 33.896 C 19.096 33.831 18.796 33.663 18.594 33.524 C 18.373 33.374 18.109 33.131 17.938 32.923 C 17.781 32.731 17.541 32.35 17.406 32.075 C 17.271 31.801 17.103 31.375 17.033 31.128 C 16.963 30.882 16.857 30.422 16.797 30.106 C 16.697 29.573 16.689 29.373 16.685 27.215 C 16.682 25.628 16.66 24.764 16.617 24.474 C 16.583 24.241 16.512 23.882 16.46 23.676 C 16.409 23.471 16.269 23.1 16.148 22.854 C 16.003 22.555 15.841 22.314 15.666 22.134 C 15.51 21.975 15.279 21.806 15.105 21.724 C 14.942 21.646 14.663 21.559 14.165 21.476 L 13.621 21.839 C 13.322 22.039 12.821 22.331 12.508 22.488 C 12.195 22.646 11.772 22.83 11.568 22.898 C 11.209 23.019 11.196 23.029 11.158 23.212 C 11.137 23.317 11.032 23.884 10.924 24.474 C 10.817 25.063 10.652 26.05 10.558 26.667 C 10.465 27.284 10.332 28.237 10.262 28.786 C 10.193 29.334 10.092 30.22 10.038 30.755 C 9.984 31.289 9.915 32.097 9.885 32.549 C 9.841 33.232 9.813 33.409 9.72 33.596 C 9.648 33.741 9.531 33.87 9.389 33.961 C 9.22 34.07 9.108 34.103 8.898 34.105 C 8.712 34.108 8.558 34.075 8.415 34.002 C 8.292 33.939 8.149 33.809 8.069 33.686 C 7.972 33.537 7.928 33.398 7.916 33.2 C 7.906 33.048 7.935 32.486 7.98 31.951 C 8.024 31.417 8.126 30.385 8.206 29.658 C 8.286 28.932 8.419 27.855 8.503 27.265 C 8.586 26.676 8.744 25.655 8.854 24.997 C 8.964 24.339 9.142 23.364 9.25 22.829 C 9.358 22.294 9.521 21.532 9.614 21.134 C 9.769 20.467 9.787 20.293 9.858 18.891 C 9.9 18.055 9.962 16.709 9.996 15.9 C 10.03 15.071 10.057 12.82 10.058 10.74 C 10.059 8.183 10.04 6.761 9.995 6.105 C 9.959 5.584 9.885 4.81 9.832 4.385 C 9.778 3.96 9.689 3.433 9.634 3.213 C 9.578 2.994 9.484 2.738 9.425 2.644 C 9.366 2.55 9.24 2.421 9.145 2.357 C 9.016 2.271 8.902 2.241 8.7 2.241 C 8.492 2.241 8.346 2.281 8.082 2.409 C 7.891 2.501 7.602 2.677 7.439 2.8 C 7.275 2.923 6.977 3.178 6.774 3.367 C 6.572 3.557 6.186 3.97 5.916 4.285 C 5.646 4.601 5.19 5.172 4.903 5.556 C 4.615 5.94 4.143 6.613 3.853 7.052 C 3.562 7.49 3.125 8.186 2.881 8.597 C 2.636 9.008 2.285 9.625 2.1 9.968 C 1.914 10.311 1.716 10.644 1.658 10.708 C 1.6 10.772 1.469 10.868 1.367 10.92 C 1.261 10.974 1.081 11.014 0.947 11.014 C 0.804 11.014 0.626 10.97 0.491 10.902 C 0.348 10.83 0.221 10.712 0.129 10.566 C 0.004 10.367 -0.011 10.305 0.005 10.018 C 0.022 9.725 0.058 9.628 0.387 9.021 C 0.586 8.651 0.984 7.955 1.27 7.475 C 1.556 6.996 2.012 6.267 2.284 5.855 C 2.556 5.444 2.996 4.816 3.261 4.46 C 3.526 4.103 3.92 3.599 4.137 3.338 C 4.354 3.078 4.785 2.61 5.095 2.299 C 5.404 1.989 5.832 1.596 6.043 1.427 C 6.255 1.258 6.6 1.014 6.81 0.883 C 7.02 0.753 7.364 0.579 7.575 0.497 C 7.785 0.414 8.13 0.32 8.341 0.288 C 8.636 0.242 8.815 0.242 9.12 0.287 C 9.39 0.327 9.634 0.405 9.887 0.53 C 10.142 0.658 10.379 0.833 10.646 1.092 C 10.957 1.394 11.072 1.548 11.223 1.867 C 11.327 2.087 11.458 2.457 11.515 2.69 C 11.572 2.923 11.663 3.417 11.716 3.787 C 11.77 4.157 11.847 4.875 11.887 5.382 C 11.928 5.889 11.986 7.101 12.017 8.074 C 12.049 9.082 12.06 10.674 12.043 11.775 C 12.027 12.837 12.024 13.706 12.038 13.706 C 12.052 13.706 12.22 13.398 12.413 13.021 C 12.605 12.644 12.909 12.111 13.087 11.837 C 13.265 11.563 13.558 11.148 13.738 10.915 C 13.917 10.682 14.256 10.301 14.489 10.067 C 14.722 9.835 15.051 9.543 15.22 9.419 C 15.388 9.296 15.665 9.11 15.835 9.007 C 16.004 8.904 16.31 8.749 16.514 8.665 C 16.718 8.58 17.052 8.464 17.256 8.408 C 17.558 8.325 17.778 8.305 18.443 8.304 C 19.076 8.302 19.337 8.322 19.606 8.392 C 19.796 8.442 20.113 8.559 20.31 8.652 C 20.519 8.75 20.788 8.933 20.953 9.088 C 21.118 9.242 21.309 9.489 21.407 9.674 C 21.5 9.849 21.605 10.105 21.641 10.242 C 21.677 10.379 21.72 10.648 21.736 10.84 C 21.757 11.075 21.739 11.352 21.682 11.688 C 21.635 11.962 21.52 12.41 21.426 12.685 C 21.332 12.959 21.128 13.441 20.972 13.756 C 20.816 14.072 20.535 14.576 20.348 14.878 C 20.16 15.179 19.849 15.648 19.658 15.919 C 19.466 16.189 19.053 16.728 18.741 17.115 C 18.429 17.502 17.695 18.307 16.045 19.988 L 16.317 20.144 C 16.466 20.229 16.789 20.504 17.034 20.754 C 17.284 21.011 17.567 21.362 17.682 21.559 C 17.793 21.75 17.956 22.075 18.043 22.28 C 18.13 22.486 18.255 22.856 18.321 23.103 C 18.386 23.35 18.479 23.765 18.525 24.025 C 18.598 24.427 18.611 24.857 18.616 26.866 C 18.619 28.548 18.639 29.342 18.684 29.608 C 18.719 29.814 18.792 30.161 18.846 30.381 C 18.9 30.6 19.02 30.936 19.111 31.128 C 19.202 31.32 19.352 31.567 19.444 31.677 C 19.536 31.786 19.722 31.929 19.856 31.995 C 20.053 32.091 20.153 32.109 20.372 32.089 C 20.538 32.074 20.748 32.008 20.91 31.92 C 21.057 31.841 21.312 31.663 21.479 31.525 C 21.645 31.387 21.923 31.106 22.095 30.902 C 22.268 30.698 22.572 30.283 22.771 29.982 C 22.969 29.68 23.255 29.209 23.405 28.935 C 23.555 28.661 23.804 28.156 23.958 27.813 C 24.113 27.471 24.351 26.91 24.488 26.567 C 24.624 26.225 24.932 25.35 25.171 24.623 C 25.52 23.566 25.633 23.148 25.737 22.53 C 25.808 22.105 25.965 21.286 26.085 20.71 C 26.206 20.134 26.437 19.136 26.6 18.492 C 26.763 17.848 26.936 17.174 26.985 16.994 C 27.034 16.815 27.131 16.591 27.202 16.496 C 27.271 16.401 27.416 16.279 27.523 16.224 C 27.648 16.159 27.813 16.125 27.989 16.126 C 28.169 16.126 28.318 16.159 28.429 16.225 C 28.521 16.279 28.666 16.41 28.75 16.515 C 28.874 16.67 28.907 16.763 28.92 16.989 C 28.933 17.211 28.872 17.515 28.635 18.417 C 28.469 19.048 28.234 20.012 28.113 20.561 C 27.993 21.109 27.838 21.861 27.771 22.23 C 27.704 22.601 27.592 23.29 27.522 23.763 C 27.452 24.236 27.363 24.977 27.324 25.408 C 27.284 25.84 27.238 26.507 27.22 26.891 C 27.202 27.288 27.212 27.923 27.244 28.362 C 27.275 28.787 27.346 29.359 27.401 29.633 C 27.457 29.907 27.567 30.3 27.646 30.505 C 27.725 30.711 27.868 30.997 27.963 31.141 C 28.059 31.285 28.243 31.48 28.372 31.575 C 28.501 31.669 28.741 31.783 28.904 31.829 C 29.096 31.883 29.322 31.905 29.547 31.893 C 29.8 31.879 29.979 31.833 30.215 31.722 C 30.415 31.628 30.65 31.459 30.836 31.275 C 31.001 31.112 31.227 30.844 31.337 30.68 C 31.448 30.515 31.639 30.179 31.763 29.932 C 31.886 29.685 32.068 29.282 32.166 29.035 C 32.265 28.788 32.435 28.306 32.543 27.963 C 32.652 27.621 32.841 26.936 32.964 26.443 C 33.087 25.949 33.296 24.996 33.429 24.324 C 33.561 23.653 33.851 22.015 34.072 20.685 C 34.293 19.356 34.541 17.92 34.624 17.495 C 34.707 17.07 34.803 16.666 34.838 16.598 C 34.872 16.529 34.982 16.4 35.08 16.311 C 35.179 16.222 35.354 16.125 35.47 16.095 C 35.586 16.065 35.758 16.056 35.853 16.075 C 35.948 16.094 36.082 16.138 36.15 16.172 C 36.218 16.207 36.346 16.317 36.434 16.417 C 36.523 16.516 36.619 16.693 36.648 16.809 C 36.694 16.991 36.677 17.155 36.526 17.944 C 36.429 18.451 36.181 19.887 35.974 21.134 C 35.768 22.381 35.487 23.974 35.351 24.673 C 35.215 25.372 34.981 26.427 34.83 27.016 C 34.68 27.606 34.535 28.222 34.508 28.387 C 34.481 28.551 34.458 29.011 34.457 29.409 C 34.456 29.907 34.482 30.255 34.54 30.53 C 34.586 30.75 34.678 31.053 34.744 31.203 C 34.81 31.354 34.947 31.561 35.049 31.662 C 35.151 31.764 35.335 31.882 35.457 31.925 C 35.58 31.968 35.824 32.002 36.002 32 C 36.267 31.998 36.374 31.969 36.615 31.837 C 36.776 31.749 37.065 31.54 37.258 31.374 C 37.451 31.207 37.786 30.882 38.001 30.651 C 38.216 30.42 38.615 29.951 38.887 29.608 C 39.158 29.266 39.594 28.682 39.855 28.311 C 40.116 27.941 40.523 27.335 41.189 26.293 L 41.211 23.701 C 41.225 21.979 41.26 20.749 41.313 20.037 C 41.358 19.448 41.427 18.618 41.468 18.193 C 41.509 17.768 41.61 16.893 41.691 16.249 C 41.773 15.605 41.918 14.606 42.013 14.03 C 42.108 13.455 42.277 12.535 42.388 11.987 C 42.499 11.438 42.678 10.631 42.785 10.192 C 42.892 9.753 43.067 9.092 43.173 8.722 C 43.279 8.352 43.458 7.779 43.57 7.45 C 43.683 7.121 43.871 6.617 43.987 6.329 C 44.104 6.041 44.311 5.581 44.448 5.307 C 44.584 5.033 44.828 4.607 44.988 4.36 C 45.15 4.113 45.425 3.757 45.6 3.569 C 45.775 3.381 46.063 3.131 46.24 3.013 C 46.416 2.895 46.706 2.749 46.883 2.687 C 47.108 2.609 47.322 2.575 47.6 2.573 C 47.869 2.572 48.106 2.606 48.342 2.679 C 48.532 2.738 48.83 2.871 49.004 2.975 C 49.177 3.079 49.451 3.31 49.612 3.487 C 49.786 3.68 49.983 3.973 50.098 4.21 C 50.204 4.43 50.335 4.789 50.39 5.008 C 50.445 5.227 50.513 5.598 50.541 5.83 C 50.569 6.064 50.592 6.551 50.592 7.575 L 50.778 7.55 C 50.88 7.537 51.508 7.49 52.175 7.446 C 52.841 7.403 53.4 7.353 53.416 7.334 C 53.433 7.316 53.518 6.931 53.605 6.478 C 53.693 6.026 53.93 4.871 54.132 3.911 C 54.335 2.952 54.572 1.841 54.661 1.442 C 54.768 0.957 54.863 0.652 54.948 0.52 C 55.022 0.403 55.164 0.277 55.294 0.21 C 55.428 0.143 55.605 0.099 55.748 0.098 C 55.882 0.098 56.062 0.139 56.169 0.193 C 56.271 0.245 56.403 0.34 56.463 0.404 C 56.522 0.469 56.606 0.606 56.648 0.708 C 56.691 0.811 56.725 0.952 56.725 1.02 C 56.725 1.089 56.579 1.812 56.4 2.628 C 56.221 3.443 55.933 4.806 55.76 5.656 C 55.588 6.506 55.457 7.213 55.471 7.226 C 55.485 7.24 56.323 7.211 57.335 7.162 C 58.346 7.113 59.763 7.052 60.484 7.025 C 61.205 6.998 63.175 6.962 64.861 6.945 C 66.787 6.926 68.691 6.936 69.98 6.972 C 71.109 7.004 72.623 7.063 73.344 7.103 C 74.064 7.143 74.955 7.2 75.322 7.229 C 75.689 7.257 76.334 7.313 76.756 7.354 C 77.178 7.394 77.812 7.462 78.166 7.505 C 78.52 7.548 78.864 7.612 78.933 7.647 C 79 7.683 79.124 7.788 79.207 7.88 C 79.29 7.973 79.388 8.138 79.424 8.248 C 79.46 8.358 79.479 8.526 79.467 8.622 C 79.455 8.718 79.385 8.903 79.312 9.033 C 79.205 9.226 79.126 9.295 78.611 9.534 L 77.647 9.426 C 77.116 9.368 76.448 9.298 76.163 9.271 C 75.877 9.244 75.165 9.188 74.58 9.148 C 73.995 9.107 73.06 9.051 72.503 9.023 C 71.945 8.996 70.376 8.948 69.016 8.917 C 67.203 8.877 65.784 8.877 63.699 8.917 C 62.135 8.948 60.299 8.994 59.619 9.021 C 58.938 9.048 57.648 9.105 56.75 9.149 C 55.852 9.194 55.103 9.244 55.085 9.262 C 55.067 9.28 54.939 9.945 54.8 10.74 C 54.662 11.536 54.46 12.758 54.352 13.457 C 54.244 14.157 54.079 15.301 53.984 15.999 C 53.889 16.699 53.756 17.764 53.687 18.367 C 53.619 18.97 53.519 19.969 53.465 20.585 C 53.411 21.203 53.34 22.133 53.307 22.654 C 53.273 23.175 53.246 24.342 53.245 25.246 C 53.245 26.18 53.271 27.182 53.306 27.564 C 53.34 27.935 53.401 28.461 53.443 28.736 C 53.484 29.01 53.569 29.447 53.633 29.708 C 53.697 29.968 53.808 30.338 53.88 30.53 C 53.951 30.722 54.068 30.98 54.138 31.103 C 54.209 31.227 54.347 31.427 54.445 31.549 C 54.55 31.68 54.724 31.816 54.87 31.885 C 55.023 31.956 55.212 32 55.365 32.001 C 55.501 32.001 55.746 31.966 55.909 31.924 C 56.072 31.881 56.35 31.766 56.527 31.668 C 56.704 31.57 56.982 31.387 57.146 31.261 C 57.309 31.136 57.62 30.851 57.838 30.629 C 58.056 30.407 58.376 30.047 58.55 29.829 C 58.724 29.612 59.016 29.221 59.199 28.96 C 59.382 28.7 59.758 28.105 60.034 27.639 C 60.31 27.173 60.723 26.41 60.951 25.944 C 61.179 25.478 61.468 24.855 61.593 24.561 C 61.788 24.098 61.837 23.911 61.947 23.19 C 62.017 22.731 62.163 21.906 62.271 21.358 C 62.38 20.81 62.557 19.98 62.666 19.514 C 62.775 19.048 62.976 18.24 63.113 17.719 C 63.25 17.198 63.391 16.716 63.425 16.647 C 63.46 16.579 63.569 16.45 63.668 16.361 C 63.767 16.272 63.936 16.176 64.045 16.149 C 64.154 16.122 64.327 16.114 64.429 16.131 C 64.53 16.148 64.669 16.191 64.738 16.226 C 64.805 16.261 64.92 16.353 64.991 16.431 C 65.063 16.509 65.15 16.629 65.184 16.697 C 65.219 16.766 65.247 16.934 65.247 17.071 C 65.247 17.216 65.129 17.761 64.967 18.367 C 64.813 18.943 64.597 19.818 64.486 20.311 C 64.375 20.805 64.197 21.68 64.089 22.255 C 63.982 22.831 63.84 23.706 63.775 24.199 C 63.709 24.693 63.632 25.383 63.603 25.732 C 63.574 26.082 63.551 26.85 63.551 27.44 C 63.551 28.096 63.579 28.729 63.623 29.072 C 63.663 29.381 63.753 29.835 63.823 30.082 C 63.892 30.328 64.02 30.675 64.108 30.851 C 64.196 31.028 64.374 31.28 64.503 31.412 C 64.632 31.544 64.843 31.702 64.973 31.764 C 65.169 31.858 65.291 31.876 65.727 31.876 C 66.194 31.876 66.276 31.862 66.543 31.735 C 66.749 31.637 66.953 31.477 67.211 31.21 C 67.414 30.999 67.687 30.647 67.816 30.429 C 67.945 30.21 68.16 29.785 68.294 29.483 C 68.429 29.182 68.649 28.599 68.784 28.187 C 68.92 27.776 69.134 27.025 69.26 26.517 C 69.387 26.01 69.579 25.158 69.688 24.623 C 69.796 24.089 70.085 22.462 70.33 21.009 C 70.574 19.556 70.842 18.008 70.926 17.57 C 71.009 17.131 71.12 16.688 71.172 16.585 C 71.224 16.482 71.339 16.343 71.427 16.277 C 71.516 16.21 71.688 16.133 71.81 16.105 C 71.935 16.077 72.109 16.072 72.206 16.094 C 72.301 16.115 72.424 16.156 72.478 16.184 C 72.533 16.213 72.649 16.317 72.738 16.417 C 72.826 16.516 72.925 16.693 72.956 16.809 C 73.008 16.996 72.993 17.138 72.832 17.993 C 72.732 18.528 72.462 20.087 72.233 21.458 C 72.004 22.829 71.757 24.253 71.686 24.623 C 71.615 24.994 71.458 25.722 71.338 26.243 C 71.218 26.764 71.078 27.347 71.026 27.539 C 70.974 27.731 70.901 28.045 70.864 28.237 C 70.823 28.451 70.797 28.905 70.799 29.409 C 70.802 30.005 70.826 30.324 70.886 30.568 C 70.932 30.753 71.025 31.016 71.093 31.153 C 71.161 31.29 71.28 31.475 71.357 31.565 C 71.435 31.654 71.618 31.779 71.765 31.843 C 71.951 31.924 72.131 31.961 72.354 31.963 C 72.602 31.965 72.744 31.935 72.973 31.831 C 73.136 31.756 73.392 31.602 73.541 31.489 C 73.691 31.375 73.978 31.113 74.179 30.906 C 74.38 30.699 74.728 30.283 74.953 29.982 C 75.178 29.68 75.527 29.164 75.731 28.835 C 75.933 28.506 76.258 27.94 76.453 27.577 C 76.647 27.213 76.964 26.574 77.156 26.156 C 77.349 25.738 77.67 24.981 77.87 24.474 C 78.07 23.967 78.358 23.182 78.511 22.729 C 78.663 22.277 78.886 21.559 79.007 21.134 C 79.127 20.709 79.282 20.114 79.352 19.813 C 79.421 19.511 79.472 19.262 79.465 19.259 C 79.458 19.256 79.307 19.189 79.13 19.11 C 78.953 19.032 78.653 18.881 78.463 18.773 C 78.272 18.666 77.972 18.472 77.795 18.341 C 77.618 18.21 77.295 17.916 77.077 17.687 C 76.86 17.458 76.594 17.136 76.486 16.971 C 76.379 16.807 76.219 16.515 76.131 16.323 C 76.043 16.132 75.922 15.773 75.862 15.526 C 75.785 15.209 75.753 14.923 75.753 14.554 C 75.753 14.222 75.784 13.903 75.839 13.681 C 75.886 13.49 76.001 13.176 76.093 12.984 C 76.185 12.792 76.367 12.506 76.496 12.348 C 76.626 12.191 76.854 11.969 77.004 11.855 C 77.153 11.741 77.409 11.585 77.572 11.508 C 77.736 11.43 78.014 11.328 78.191 11.28 C 78.409 11.221 78.695 11.194 79.081 11.195 C 79.559 11.196 79.697 11.214 79.947 11.312 C 80.11 11.376 80.332 11.485 80.441 11.554 C 80.55 11.623 80.75 11.794 80.886 11.934 C 81.022 12.074 81.226 12.367 81.34 12.586 C 81.453 12.805 81.59 13.152 81.643 13.357 C 81.697 13.563 81.771 13.911 81.807 14.13 C 81.85 14.389 81.871 14.904 81.867 15.601 C 81.864 16.19 81.83 16.922 81.727 17.782 L 82.024 17.813 C 82.187 17.83 82.588 17.844 82.914 17.843 C 83.241 17.842 83.953 17.799 84.497 17.747 C 85.041 17.695 85.497 17.661 85.511 17.673 C 85.524 17.684 85.309 18.293 85.033 19.027 C 84.757 19.761 84.453 20.608 84.356 20.909 C 84.26 21.211 84.114 21.682 84.033 21.956 C 83.952 22.23 83.795 22.791 83.686 23.203 C 83.576 23.614 83.408 24.298 83.313 24.723 C 83.218 25.148 83.084 25.821 83.015 26.218 C 82.946 26.616 82.857 27.244 82.816 27.614 C 82.775 27.984 82.741 28.646 82.741 29.085 C 82.74 29.575 82.769 30.05 82.815 30.318 C 82.856 30.558 82.933 30.872 82.986 31.016 C 83.04 31.16 83.149 31.379 83.229 31.502 C 83.318 31.64 83.467 31.778 83.614 31.861 C 83.746 31.935 83.976 32.011 84.126 32.03 C 84.292 32.051 84.504 32.04 84.67 32.001 C 84.819 31.967 85.075 31.869 85.239 31.783 C 85.406 31.695 85.719 31.45 85.956 31.221 C 86.187 30.998 86.501 30.639 86.655 30.424 C 86.808 30.208 87.074 29.785 87.245 29.483 C 87.416 29.182 87.694 28.621 87.863 28.237 C 88.031 27.853 88.236 27.337 88.319 27.091 C 88.402 26.844 88.528 26.317 88.599 25.919 C 88.67 25.522 88.807 24.894 88.903 24.523 C 89 24.154 89.168 23.57 89.279 23.227 C 89.389 22.885 89.59 22.324 89.725 21.981 C 89.86 21.639 90.118 21.056 90.299 20.685 C 90.48 20.315 90.806 19.743 91.022 19.414 C 91.301 18.99 91.575 18.656 91.962 18.266 C 92.263 17.963 92.676 17.602 92.88 17.461 C 93.084 17.321 93.44 17.111 93.672 16.994 C 93.903 16.878 94.248 16.729 94.438 16.663 C 94.629 16.598 94.918 16.513 95.081 16.474 C 95.244 16.436 95.611 16.381 95.897 16.351 C 96.258 16.314 96.575 16.313 96.936 16.349 C 97.221 16.377 97.589 16.436 97.752 16.479 C 97.915 16.523 98.171 16.614 98.321 16.681 C 98.47 16.749 98.702 16.887 98.835 16.987 C 98.968 17.089 99.134 17.272 99.205 17.395 C 99.301 17.562 99.333 17.689 99.333 17.894 C 99.333 18.076 99.3 18.224 99.235 18.337 C 99.181 18.43 99.051 18.576 98.947 18.661 C 98.77 18.805 98.729 18.816 98.371 18.816 C 98.005 18.816 97.973 18.807 97.769 18.644 C 97.651 18.549 97.454 18.44 97.332 18.403 C 97.209 18.365 96.875 18.322 96.59 18.306 C 96.207 18.286 95.96 18.301 95.65 18.364 C 95.419 18.41 95.052 18.526 94.834 18.62 C 94.616 18.715 94.318 18.865 94.171 18.953 C 94.024 19.042 93.716 19.294 93.485 19.514 C 93.255 19.733 92.966 20.047 92.844 20.212 C 92.721 20.376 92.503 20.713 92.359 20.959 C 92.215 21.206 91.971 21.689 91.817 22.031 C 91.664 22.374 91.441 22.923 91.323 23.252 C 91.206 23.581 91.038 24.097 90.951 24.399 C 90.864 24.7 90.729 25.228 90.653 25.57 C 90.575 25.913 90.466 26.507 90.41 26.891 C 90.353 27.275 90.293 27.948 90.276 28.387 C 90.258 28.881 90.268 29.364 90.304 29.658 C 90.336 29.919 90.405 30.3 90.459 30.505 C 90.513 30.711 90.636 31.014 90.733 31.178 C 90.83 31.343 90.95 31.522 91 31.577 C 91.05 31.632 91.209 31.743 91.355 31.824 C 91.574 31.946 91.691 31.975 92.039 31.993 C 92.386 32.011 92.52 31.994 92.806 31.899 C 92.996 31.835 93.308 31.677 93.498 31.548 C 93.689 31.418 94.045 31.103 94.29 30.847 C 94.535 30.591 94.861 30.213 95.013 30.007 C 95.166 29.801 95.434 29.409 95.61 29.134 C 95.786 28.86 96.042 28.434 96.179 28.187 C 96.316 27.941 96.584 27.425 96.775 27.041 C 96.966 26.657 97.3 25.928 97.517 25.421 C 97.734 24.914 98.057 24.106 98.235 23.626 C 98.413 23.147 98.715 22.26 98.905 21.657 C 99.096 21.054 99.309 20.37 99.376 20.137 C 99.477 19.791 99.535 19.68 99.689 19.536 C 99.793 19.438 99.968 19.328 100.077 19.292 C 100.193 19.254 100.366 19.239 100.497 19.256 C 100.619 19.272 100.797 19.338 100.893 19.403 C 100.988 19.467 101.115 19.597 101.176 19.691 C 101.236 19.785 101.3 19.975 101.317 20.112 C 101.342 20.326 101.302 20.51 101.024 21.433 C 100.847 22.023 100.565 22.897 100.397 23.377 C 100.229 23.857 99.952 24.608 99.781 25.047 C 99.611 25.486 99.333 26.159 99.164 26.542 C 98.995 26.926 98.816 27.42 98.766 27.639 C 98.715 27.858 98.638 28.285 98.593 28.586 C 98.549 28.888 98.512 29.438 98.512 29.807 C 98.511 30.178 98.525 30.57 98.543 30.68 C 98.561 30.789 98.619 31.014 98.67 31.178 C 98.721 31.343 98.842 31.573 98.938 31.689 C 99.076 31.857 99.171 31.918 99.397 31.982 C 99.597 32.039 99.772 32.054 99.99 32.032 C 100.16 32.015 100.427 31.952 100.584 31.893 C 100.74 31.833 100.99 31.711 101.14 31.622 C 101.289 31.533 101.568 31.325 101.758 31.161 C 101.949 30.996 102.217 30.731 102.355 30.571 C 102.492 30.412 102.718 30.135 102.856 29.957 C 102.994 29.779 103.25 29.409 103.426 29.134 C 103.602 28.86 103.892 28.367 104.071 28.038 C 104.251 27.709 104.529 27.137 104.985 26.094 L 105.014 24.274 C 105.031 23.274 105.067 22.141 105.096 21.757 C 105.125 21.373 105.193 20.566 105.248 19.962 C 105.303 19.359 105.413 18.316 105.492 17.644 C 105.571 16.973 105.727 15.773 105.839 14.978 C 105.951 14.182 106.197 12.601 106.386 11.463 C 106.575 10.326 106.744 9.35 106.762 9.295 C 106.793 9.198 106.78 9.196 106.328 9.234 C 106.073 9.255 105.095 9.328 104.157 9.395 C 102.913 9.484 102.404 9.504 102.278 9.467 C 102.182 9.439 102.029 9.367 101.937 9.306 C 101.845 9.245 101.729 9.128 101.679 9.046 C 101.628 8.963 101.572 8.784 101.553 8.647 C 101.524 8.437 101.54 8.353 101.651 8.111 C 101.757 7.88 101.828 7.798 102.018 7.69 C 102.248 7.559 102.295 7.553 104.207 7.418 C 105.281 7.342 106.381 7.263 107.142 7.201 L 107.499 5.432 C 107.696 4.459 108.004 2.994 108.183 2.179 C 108.363 1.363 108.554 0.606 108.608 0.497 C 108.663 0.387 108.769 0.254 108.843 0.201 C 108.918 0.149 109.035 0.083 109.103 0.055 C 109.171 0.027 109.327 0.003 109.449 0 C 109.593 -0.002 109.75 0.037 109.894 0.113 Z M 46.999 4.94 C 46.886 5.059 46.687 5.326 46.556 5.531 C 46.426 5.737 46.203 6.152 46.062 6.453 C 45.92 6.755 45.693 7.305 45.556 7.675 C 45.419 8.045 45.185 8.774 45.036 9.295 C 44.887 9.816 44.673 10.646 44.56 11.139 C 44.447 11.633 44.257 12.575 44.138 13.233 C 44.018 13.891 43.853 14.912 43.77 15.501 C 43.687 16.091 43.574 16.965 43.521 17.445 C 43.467 17.925 43.389 18.721 43.348 19.215 C 43.307 19.708 43.251 20.482 43.224 20.934 C 43.196 21.387 43.174 21.964 43.173 22.218 C 43.173 22.509 43.192 22.67 43.223 22.654 C 43.25 22.641 43.525 22.119 43.835 21.495 C 44.145 20.872 44.57 19.991 44.78 19.539 C 44.99 19.087 45.39 18.178 45.669 17.52 C 45.948 16.862 46.339 15.897 46.536 15.376 C 46.734 14.855 47.07 13.902 47.283 13.258 C 47.495 12.614 47.769 11.716 47.891 11.264 C 48.013 10.812 48.17 10.184 48.239 9.868 C 48.309 9.553 48.411 9.026 48.466 8.697 C 48.521 8.368 48.583 7.781 48.604 7.393 C 48.624 7.004 48.624 6.455 48.602 6.171 C 48.581 5.888 48.519 5.521 48.465 5.357 C 48.411 5.192 48.295 4.969 48.206 4.862 C 48.117 4.755 47.973 4.637 47.884 4.601 C 47.796 4.564 47.674 4.534 47.612 4.534 C 47.551 4.535 47.434 4.577 47.353 4.629 C 47.271 4.68 47.112 4.82 46.999 4.94 Z M 50.329 9.569 C 50.315 9.583 50.244 9.863 50.173 10.192 C 50.101 10.521 49.974 11.048 49.892 11.364 C 49.81 11.679 49.657 12.228 49.552 12.585 C 49.447 12.941 49.213 13.671 49.032 14.205 C 48.851 14.74 48.557 15.558 48.379 16.024 C 48.201 16.49 47.912 17.22 47.737 17.644 C 47.561 18.07 47.225 18.855 46.991 19.389 C 46.756 19.924 46.18 21.135 45.712 22.081 C 45.244 23.027 44.668 24.149 44.433 24.573 C 44.199 24.999 43.827 25.66 43.607 26.044 L 43.207 26.742 C 43.263 27.399 43.311 27.847 43.35 28.162 C 43.389 28.478 43.479 29.027 43.549 29.384 C 43.62 29.74 43.754 30.268 43.848 30.555 C 43.942 30.843 44.091 31.211 44.177 31.372 C 44.264 31.533 44.408 31.741 44.496 31.833 C 44.628 31.971 44.694 32.001 44.867 32.002 C 44.983 32.002 45.177 31.967 45.3 31.924 C 45.422 31.881 45.656 31.764 45.819 31.664 C 45.985 31.563 46.401 31.197 46.763 30.832 C 47.154 30.44 47.609 29.914 47.908 29.508 C 48.182 29.138 48.612 28.51 48.864 28.113 C 49.116 27.715 49.486 27.098 49.688 26.742 C 49.889 26.385 50.259 25.679 50.509 25.172 C 50.759 24.665 51.046 24.07 51.145 23.851 C 51.322 23.461 51.327 23.433 51.356 22.679 C 51.373 22.254 51.42 21.503 51.46 21.009 C 51.5 20.516 51.578 19.675 51.632 19.14 C 51.687 18.605 51.81 17.551 51.905 16.797 C 52.001 16.043 52.157 14.899 52.253 14.255 C 52.347 13.611 52.559 12.287 52.722 11.314 C 52.885 10.341 53.029 9.505 53.041 9.457 C 53.062 9.381 53.03 9.371 52.805 9.376 C 52.663 9.379 52.053 9.418 51.45 9.463 C 50.847 9.508 50.342 9.556 50.329 9.569 Z M 17.454 10.408 C 17.277 10.467 16.999 10.595 16.836 10.694 C 16.673 10.792 16.419 10.966 16.273 11.08 C 16.126 11.195 15.87 11.435 15.704 11.614 C 15.538 11.792 15.268 12.117 15.105 12.336 C 14.942 12.555 14.668 12.97 14.496 13.257 C 14.325 13.545 14.033 14.095 13.847 14.479 C 13.661 14.863 13.363 15.547 13.187 15.999 C 13.01 16.452 12.73 17.237 12.566 17.744 C 12.401 18.252 12.146 19.115 11.997 19.663 C 11.848 20.212 11.736 20.666 11.746 20.673 C 11.757 20.68 11.872 20.625 12.001 20.551 C 12.13 20.477 12.447 20.276 12.706 20.105 C 12.964 19.933 13.443 19.579 13.769 19.317 C 14.096 19.056 14.663 18.556 15.031 18.206 C 15.398 17.856 15.97 17.278 16.303 16.922 C 16.635 16.565 17.122 16.004 17.385 15.675 C 17.648 15.346 18.014 14.864 18.198 14.604 C 18.382 14.343 18.672 13.895 18.842 13.607 C 19.013 13.319 19.237 12.898 19.342 12.672 C 19.446 12.446 19.587 12.064 19.656 11.825 C 19.735 11.548 19.78 11.265 19.78 11.052 C 19.779 10.767 19.76 10.693 19.655 10.566 C 19.573 10.467 19.444 10.392 19.272 10.345 C 19.129 10.305 18.845 10.262 18.641 10.249 C 18.437 10.235 18.159 10.242 18.023 10.263 C 17.887 10.284 17.631 10.35 17.454 10.408 Z M 78.177 13.42 C 78.075 13.495 77.932 13.674 77.857 13.819 C 77.734 14.055 77.721 14.128 77.724 14.579 C 77.726 14.964 77.751 15.14 77.833 15.351 C 77.891 15.502 78.048 15.783 78.18 15.974 C 78.313 16.166 78.542 16.428 78.689 16.556 C 78.837 16.683 79.124 16.891 79.328 17.017 C 79.532 17.143 79.727 17.247 79.761 17.246 C 79.795 17.246 79.833 17.206 79.845 17.158 C 79.857 17.111 79.894 16.746 79.925 16.348 C 79.958 15.938 79.969 15.389 79.949 15.077 C 79.931 14.776 79.887 14.383 79.851 14.205 C 79.814 14.027 79.732 13.76 79.668 13.611 C 79.603 13.463 79.495 13.3 79.427 13.248 C 79.336 13.18 79.224 13.156 79.007 13.159 C 78.844 13.161 78.631 13.189 78.535 13.222 C 78.439 13.256 78.278 13.345 78.177 13.42 Z M 132.958 13.614 C 132.896 13.706 132.811 13.893 132.77 14.03 C 132.728 14.167 132.695 14.403 132.695 14.554 C 132.696 14.705 132.732 14.963 132.774 15.127 C 132.817 15.292 132.933 15.583 133.032 15.775 C 133.154 16.011 133.341 16.253 133.609 16.523 C 133.871 16.786 134.157 17.01 134.451 17.183 C 134.696 17.326 134.902 17.439 134.909 17.432 C 134.915 17.426 134.978 17.151 135.047 16.822 C 135.135 16.408 135.183 15.993 135.202 15.476 C 135.222 14.983 135.211 14.61 135.171 14.379 C 135.138 14.187 135.057 13.913 134.991 13.769 C 134.921 13.615 134.797 13.451 134.69 13.37 C 134.528 13.247 134.461 13.231 134.059 13.218 C 133.672 13.206 133.573 13.221 133.34 13.325 C 133.171 13.401 133.029 13.509 132.958 13.614 Z M 120.734 18.766 C 120.675 18.877 120.654 19.044 120.655 19.414 C 120.656 19.73 120.689 20.032 120.744 20.237 C 120.792 20.415 120.913 20.751 121.011 20.984 C 121.11 21.218 121.284 21.576 121.399 21.782 C 121.514 21.988 121.738 22.339 121.896 22.563 C 122.055 22.788 122.352 23.166 122.556 23.403 C 122.76 23.64 123.127 24.014 123.372 24.232 C 123.617 24.451 124.045 24.786 124.324 24.976 C 124.603 25.166 124.864 25.321 124.905 25.321 C 124.968 25.321 124.98 25.198 124.98 24.511 C 124.98 24.065 124.945 23.409 124.904 23.053 C 124.863 22.697 124.771 22.147 124.701 21.832 C 124.63 21.517 124.495 21.034 124.4 20.76 C 124.305 20.486 124.149 20.104 124.053 19.913 C 123.958 19.721 123.786 19.429 123.67 19.264 C 123.555 19.1 123.34 18.853 123.192 18.716 C 123.045 18.579 122.814 18.412 122.678 18.344 C 122.483 18.247 122.341 18.219 121.987 18.207 C 121.631 18.196 121.493 18.213 121.295 18.293 C 121.159 18.349 120.995 18.444 120.931 18.505 C 120.868 18.567 120.779 18.684 120.734 18.766 Z M 118.178 22.23 C 118.086 22.546 117.955 23.028 117.887 23.302 C 117.819 23.576 117.708 24.104 117.64 24.474 C 117.573 24.844 117.479 25.472 117.432 25.869 C 117.378 26.325 117.346 26.961 117.346 27.589 C 117.346 28.137 117.373 28.777 117.406 29.01 C 117.439 29.243 117.511 29.624 117.567 29.857 C 117.623 30.091 117.762 30.483 117.876 30.73 C 117.998 30.995 118.176 31.28 118.31 31.427 C 118.436 31.566 118.668 31.743 118.828 31.824 C 119.086 31.955 119.179 31.974 119.663 31.99 C 120.066 32.004 120.328 31.984 120.677 31.913 C 120.935 31.86 121.325 31.74 121.542 31.645 C 121.76 31.551 122.071 31.386 122.235 31.277 C 122.398 31.169 122.699 30.912 122.904 30.706 C 123.109 30.499 123.402 30.14 123.556 29.907 C 123.71 29.674 123.936 29.271 124.059 29.01 C 124.182 28.75 124.361 28.295 124.458 28 C 124.554 27.706 124.633 27.454 124.633 27.44 C 124.633 27.426 124.416 27.299 124.151 27.156 C 123.886 27.014 123.491 26.776 123.273 26.626 C 123.056 26.476 122.71 26.218 122.507 26.051 C 122.302 25.885 121.901 25.512 121.614 25.223 C 121.328 24.934 120.949 24.518 120.774 24.3 C 120.597 24.08 120.29 23.654 120.09 23.353 C 119.89 23.05 119.595 22.535 119.436 22.206 C 119.276 21.877 119.078 21.378 118.996 21.096 C 118.913 20.815 118.825 20.585 118.8 20.585 C 118.774 20.585 118.662 20.827 118.549 21.121 C 118.437 21.416 118.269 21.915 118.178 22.23 Z M 42.728 43.396 C 43.367 43.411 43.924 43.432 43.965 43.444 C 44.022 43.46 44.036 43.533 44.014 44.064 L 42.876 44.064 C 42.233 44.064 41.685 44.085 41.615 44.114 C 41.541 44.144 41.472 44.228 41.441 44.326 C 41.413 44.415 41.391 44.751 41.393 45.659 L 43.717 45.659 L 43.717 46.307 L 41.393 46.307 L 41.405 47.15 C 41.416 47.913 41.426 48.002 41.516 48.098 C 41.611 48.199 41.664 48.204 43.989 48.226 L 44.014 48.517 C 44.028 48.687 44.018 48.821 43.989 48.837 C 43.962 48.853 43.406 48.877 42.753 48.891 C 41.826 48.911 41.511 48.901 41.318 48.846 C 41.167 48.804 41.001 48.708 40.891 48.601 C 40.788 48.502 40.687 48.34 40.656 48.226 C 40.619 48.092 40.605 47.382 40.613 46.058 C 40.625 44.201 40.631 44.078 40.725 43.895 C 40.779 43.788 40.891 43.654 40.972 43.596 C 41.054 43.54 41.221 43.465 41.343 43.43 C 41.507 43.384 41.872 43.375 42.728 43.396 Z M 74.259 43.4 C 74.912 43.415 75.462 43.436 75.483 43.447 C 75.503 43.457 75.52 43.6 75.52 44.064 L 74.31 44.076 C 73.224 44.087 73.09 44.098 73.011 44.178 C 72.937 44.253 72.921 44.372 72.899 45.659 L 75.198 45.684 L 75.223 46.307 L 72.899 46.307 L 72.911 47.15 C 72.922 47.914 72.932 48.002 73.022 48.098 C 73.117 48.199 73.17 48.204 75.495 48.226 L 75.524 48.825 L 75.065 48.862 C 74.812 48.883 74.237 48.899 73.789 48.899 C 73.34 48.899 72.889 48.876 72.787 48.849 C 72.685 48.822 72.522 48.727 72.425 48.638 C 72.328 48.548 72.216 48.386 72.176 48.276 C 72.115 48.11 72.105 47.742 72.118 46.058 C 72.131 44.102 72.135 44.034 72.237 43.865 C 72.295 43.769 72.417 43.641 72.509 43.58 C 72.601 43.52 72.765 43.448 72.874 43.421 C 72.995 43.391 73.531 43.382 74.259 43.4 Z M 97.876 43.396 C 98.46 43.41 99 43.431 99.075 43.443 C 99.177 43.46 99.211 43.494 99.211 43.578 C 99.21 43.64 99.193 43.775 99.137 44.066 L 98.061 44.065 C 97.445 44.065 96.938 44.085 96.874 44.114 C 96.813 44.142 96.735 44.22 96.701 44.288 C 96.66 44.37 96.639 44.647 96.639 45.759 L 98.865 45.759 L 98.865 46.407 L 96.639 46.407 L 96.639 48.899 L 95.848 48.899 L 95.86 46.469 C 95.872 44.092 95.875 44.035 95.977 43.865 C 96.035 43.769 96.157 43.641 96.249 43.58 C 96.341 43.52 96.506 43.448 96.614 43.421 C 96.733 43.391 97.239 43.381 97.876 43.396 Z M 34.617 43.416 L 38.87 43.416 L 38.87 44.114 L 37.139 44.114 L 37.139 48.899 L 36.348 48.899 L 36.348 44.114 L 34.617 44.114 Z M 56.625 43.416 L 57.418 43.416 L 57.418 48.899 L 56.651 48.874 Z M 60.373 43.414 C 60.821 43.413 60.917 43.427 60.985 43.502 C 61.03 43.551 61.467 44.477 61.957 45.559 C 62.447 46.643 62.906 47.658 62.977 47.815 C 63.048 47.973 63.128 48.102 63.155 48.102 C 63.187 48.102 63.204 47.288 63.204 43.416 L 63.992 43.416 L 63.981 46.087 C 63.971 48.693 63.969 48.76 63.872 48.832 C 63.795 48.889 63.655 48.902 63.26 48.89 C 62.778 48.875 62.741 48.867 62.666 48.752 C 62.622 48.685 62.158 47.687 61.635 46.534 C 61.112 45.381 60.661 44.376 60.633 44.301 C 60.605 44.226 60.561 44.164 60.534 44.164 C 60.501 44.164 60.484 44.986 60.484 48.899 L 59.717 48.874 L 59.702 46.262 C 59.689 43.95 59.696 43.636 59.765 43.533 C 59.838 43.422 59.873 43.416 60.373 43.414 Z M 86.797 43.416 L 91.001 43.416 L 91.001 44.114 L 89.27 44.114 L 89.27 48.899 L 88.478 48.899 L 88.478 44.114 L 86.797 44.114 Z M 92.78 43.416 L 93.622 43.416 L 93.597 48.874 L 92.806 48.874 Z M 100.595 43.416 L 104.849 43.416 L 104.849 44.114 L 103.118 44.114 L 103.118 48.899 L 102.327 48.899 L 102.327 44.114 L 100.595 44.114 Z M 113.498 43.414 C 113.941 43.413 114.037 43.427 114.105 43.502 C 114.149 43.551 114.587 44.477 115.076 45.559 C 115.565 46.643 116.029 47.658 116.108 47.816 C 116.186 47.974 116.272 48.103 116.299 48.102 C 116.332 48.102 116.344 47.295 116.326 43.416 L 117.112 43.416 L 117.101 46.087 C 117.091 48.694 117.088 48.76 116.991 48.83 C 116.924 48.878 116.761 48.9 116.472 48.899 C 116.241 48.899 115.999 48.881 115.933 48.861 C 115.856 48.837 115.768 48.729 115.68 48.55 C 115.606 48.4 115.145 47.39 114.656 46.307 C 114.167 45.224 113.752 44.299 113.734 44.251 C 113.717 44.203 113.68 44.164 113.653 44.164 C 113.621 44.164 113.603 44.986 113.603 48.899 L 112.837 48.874 L 112.837 46.227 C 112.837 44.068 112.849 43.566 112.904 43.498 C 112.959 43.431 113.07 43.415 113.498 43.414 Z M 48.292 46.581 L 48.317 47.155 L 45.893 47.155 L 45.885 46.889 C 45.88 46.742 45.895 46.608 45.919 46.589 C 45.942 46.57 46.485 46.561 48.292 46.581 Z M 77.401 46.554 L 79.798 46.581 L 79.822 47.155 L 77.399 47.155 Z" fill="rgb(32, 73, 122)"></path></svg>