<svg xmlns="http://www.w3.org/2000/svg" width="157" height="44" fill="none" overflow="visible"><g><path d="M 83.199 20.5 C 77.812 20.5 74.604 17.506 74.604 11.632 L 74.604 0.115 L 78.958 0.115 L 78.958 11.517 C 78.958 14.742 80.563 16.469 83.313 16.469 C 85.949 16.469 87.553 14.857 87.553 11.632 L 87.553 0.115 L 92.023 0.115 L 92.023 11.402 C 92.023 17.506 88.585 20.615 83.199 20.615 M 109.442 20.5 L 99.357 7.486 L 99.357 20.5 L 94.888 20.5 L 94.888 0.115 L 99.128 0.115 L 108.754 12.668 L 108.754 0.115 L 113.338 0.115 L 113.338 20.5 L 109.442 20.5 M 24.066 43.879 L 20.055 43.879 L 15.471 30.635 L 10.887 43.879 L 6.991 43.879 L 0 23.494 L 4.813 23.494 L 9.053 37.199 L 13.637 23.494 L 17.534 23.494 L 22.003 37.199 L 26.243 23.494 L 30.942 23.494 L 24.066 43.879 M 46.756 33.744 C 46.756 30.289 44.235 27.525 40.682 27.525 C 39.062 27.494 37.499 28.126 36.353 29.278 C 35.207 30.43 34.577 32.001 34.609 33.629 C 34.609 37.084 37.13 39.963 40.682 39.963 C 44.235 39.963 46.756 37.084 46.756 33.744 Z M 40.682 43.879 C 34.494 43.879 30.025 39.272 30.025 33.744 C 30.023 30.934 31.157 28.244 33.166 26.29 C 35.175 24.336 37.888 23.285 40.682 23.379 C 46.871 23.379 51.34 27.986 51.34 33.629 C 51.342 36.439 50.208 39.129 48.199 41.083 C 46.19 43.037 43.477 44.088 40.682 43.994 Z M 69.103 43.879 L 69.103 30.52 L 63.373 39.272 L 63.258 39.272 L 57.643 30.635 L 57.643 43.879 L 53.288 43.879 L 53.288 23.494 L 58.101 23.494 L 63.373 32.132 L 68.759 23.494 L 73.572 23.494 L 73.572 43.879 L 69.103 43.879 M 76.552 43.879 L 76.552 23.494 L 91.793 23.494 L 91.793 27.41 L 80.907 27.41 L 80.907 31.556 L 90.533 31.556 L 90.533 35.587 L 80.907 35.587 L 80.907 39.963 L 92.023 39.963 L 92.023 43.879 L 76.552 43.879 M 109.442 43.879 L 99.357 30.865 L 99.357 43.879 L 94.888 43.879 L 94.888 23.494 L 99.128 23.494 L 108.754 36.048 L 108.754 23.494 L 113.338 23.494 L 113.338 43.879 L 109.442 43.879 M 64.175 18.772 C 62.8 18.081 61.196 17.39 59.591 17.966 C 58.696 17.683 57.736 17.683 56.841 17.966 C 55.466 18.657 53.518 19.579 52.028 18.542 L 52.945 19.233 C 53.976 19.924 55.236 19.809 56.382 19.348 C 57.185 19.003 57.872 17.851 59.133 18.197 C 58.101 18.657 57.185 19.348 56.382 20.154 L 56.841 20.5 C 57.643 19.579 58.56 18.772 59.591 18.312 C 60.623 18.772 61.539 19.694 62.342 20.5 L 62.8 20.039 C 61.979 19.292 61.052 18.671 60.05 18.197 L 60.966 18.197 C 61.998 18.657 62.8 19.463 63.946 19.694 C 65.092 19.809 66.238 19.348 67.04 18.542 L 66.467 18.772 C 65.726 19.036 64.917 19.036 64.175 18.772 Z M 52.601 14.972 C 53.174 15.778 53.174 16.699 54.091 17.275 L 55.236 17.736 L 54.091 17.621 C 52.601 17.39 51.111 17.621 50.08 16.469 C 50.538 17.275 51.226 17.966 52.142 18.312 C 53.747 18.888 55.236 17.966 56.726 17.851 C 55.007 17.851 53.976 15.778 52.601 14.972 Z M 66.467 14.972 C 65.55 15.548 64.748 16.584 63.946 17.275 L 62.342 17.851 C 63.488 17.851 64.634 18.427 65.78 18.427 C 67.155 18.427 68.415 17.506 69.103 16.354 C 68.072 17.506 66.582 17.39 65.207 17.506 L 63.946 17.736 C 65.436 17.506 65.894 15.893 66.467 14.857 Z M 59.591 13.935 L 59.706 14.051 L 59.706 15.202 C 60.05 14.972 60.393 14.972 60.737 14.972 C 60.508 14.742 60.279 14.857 60.279 14.511 C 60.164 14.511 60.279 14.281 60.279 14.051 L 59.706 14.051 Z M 54.778 13.705 L 53.861 14.626 C 55.466 15.893 57.299 16.699 59.247 16.815 L 59.247 15.548 C 57.528 15.548 56.039 14.857 54.778 13.705 Z M 64.29 13.59 C 64.1 13.825 63.867 14.021 63.602 14.166 C 62.8 14.511 62.685 15.317 61.883 15.663 C 61.539 15.893 61.31 15.433 61.081 15.317 C 60.623 15.433 60.164 15.548 59.706 15.433 L 59.706 16.815 C 61.883 16.699 63.717 15.893 65.207 14.511 Z M 56.382 12.899 C 56.382 12.899 56.612 13.014 56.497 13.129 C 56.268 13.36 55.924 13.129 55.58 13.475 L 55.007 13.244 C 56.137 14.308 57.59 14.957 59.133 15.087 L 59.247 15.087 L 59.247 13.935 C 58.101 13.935 57.185 13.475 56.382 12.784 Z M 56.268 12.668 L 56.268 12.784 M 50.882 12.438 L 51.111 13.014 C 51.34 14.396 51.455 15.893 52.601 16.699 L 51.569 16.008 C 50.423 15.202 48.819 14.857 48.131 13.475 C 48.361 14.626 49.163 15.433 49.965 16.124 C 50.996 17.045 52.372 16.93 53.632 17.275 C 53.174 16.93 52.945 16.584 52.715 16.124 C 52.257 14.742 51.913 13.475 50.882 12.438 Z M 63.029 12.438 C 62.456 12.899 63.373 12.899 63.373 13.244 C 63.373 13.36 62.915 13.59 63.144 13.82 L 63.144 13.935 L 63.946 13.244 L 63.602 13.244 C 63.602 12.899 63.258 12.668 63.029 12.438 Z M 68.186 12.323 L 67.499 13.244 C 66.582 14.396 66.696 16.124 65.436 17.16 L 67.613 16.815 C 69.103 16.354 70.707 14.857 71.051 13.36 C 70.707 14.051 70.134 14.511 69.561 14.857 C 68.53 15.317 67.499 15.893 66.696 16.584 C 68.072 15.548 67.728 13.705 68.301 12.323 Z M 57.185 11.286 L 56.268 12.208 C 57.07 12.784 57.987 13.244 58.789 13.36 C 58.445 13.36 58.331 13.014 58.216 12.784 C 58.216 12.553 58.445 12.553 58.331 12.323 L 58.789 12.093 L 58.56 12.093 C 57.987 11.977 57.528 11.747 57.185 11.286 Z M 61.31 11.171 L 61.081 11.286 L 60.737 11.286 L 60.737 11.402 L 60.393 11.402 C 60.393 11.747 60.279 11.286 60.05 11.402 C 60.05 11.171 59.82 11.402 59.706 11.402 C 59.706 11.402 59.706 11.632 59.477 11.632 C 59.477 11.747 59.247 11.632 59.247 11.862 L 60.05 11.862 C 60.05 12.093 60.393 11.862 60.508 11.977 L 60.623 11.862 C 60.852 11.862 61.196 11.632 61.31 11.402 Z M 60.852 10.941 C 60.852 10.941 61.081 10.941 61.196 10.711 C 60.966 10.711 60.737 10.826 60.852 10.941 Z M 58.331 10.135 L 57.528 10.941 C 57.987 11.286 58.445 11.517 59.018 11.632 L 59.133 11.286 L 59.362 11.286 L 59.362 10.48 C 59.133 10.711 58.904 10.48 58.674 10.48 Z M 63.488 10.135 C 63.258 9.904 63.258 10.25 63.144 10.25 L 63.029 10.135 L 62.685 10.595 C 62.342 10.48 62.456 10.941 62.112 10.826 C 62.112 11.056 62.342 10.826 62.342 10.826 L 62.456 10.826 C 62.456 10.595 62.685 10.48 62.8 10.595 L 62.915 11.056 L 62.915 11.286 C 62.685 11.517 62.8 11.862 62.456 11.862 L 61.31 11.632 C 61.539 11.747 61.883 11.747 62.112 11.977 L 62.8 11.977 L 62.915 11.402 L 63.144 11.747 C 63.488 11.171 63.946 10.711 64.061 10.02 L 63.488 10.02 Z M 50.08 10.135 L 49.965 11.517 C 49.621 12.438 49.85 13.475 50.309 14.281 L 49.965 13.82 C 49.277 12.553 47.673 11.862 47.444 10.365 L 47.558 11.862 C 48.131 13.59 49.965 14.511 51.226 15.317 C 50.309 13.82 50.767 11.632 50.08 10.02 Z M 61.31 10.135 C 61.196 10.25 61.539 10.25 61.539 10.48 L 61.539 10.25 L 61.31 10.02 Z M 68.988 9.904 C 68.186 11.517 68.759 13.705 67.842 15.317 L 67.957 15.087 C 69.791 14.166 71.968 12.553 71.624 10.135 C 71.624 10.365 71.509 10.711 71.28 10.941 C 70.593 12.093 69.447 13.014 68.874 14.166 L 68.759 14.166 L 68.759 13.935 C 69.676 12.784 68.988 11.286 68.988 9.904 Z M 57.872 9.789 L 57.758 10.02 L 57.987 9.789 Z M 56.612 9.444 L 57.185 10.595 L 57.528 10.25 L 57.528 10.135 L 57.414 9.789 L 57.414 10.02 L 57.07 9.789 L 56.955 9.559 Z M 53.174 8.868 L 53.403 10.595 L 53.403 10.48 C 53.518 10.25 53.518 9.904 53.747 9.674 C 53.976 9.674 53.976 9.329 54.32 9.329 L 54.434 9.559 L 54.434 8.753 L 53.059 8.753 Z M 51.34 8.868 C 51.455 10.941 52.257 12.784 53.632 14.281 L 54.549 13.36 L 54.091 12.899 C 53.861 12.899 53.747 12.668 53.747 12.553 L 53.288 12.323 C 53.288 12.323 53.288 12.093 53.059 12.093 C 53.059 11.977 52.715 11.977 52.715 11.747 L 52.601 11.862 L 52.257 11.632 C 51.913 11.632 52.142 11.286 51.913 11.171 L 52.028 10.48 L 52.372 10.48 L 52.486 10.365 C 52.715 10.135 52.83 10.365 52.945 10.595 C 52.744 10.003 52.666 9.376 52.715 8.753 C 52.258 8.799 51.797 8.799 51.34 8.753 Z M 54.778 8.868 C 54.778 9.213 54.893 9.444 54.778 9.789 C 54.778 9.674 55.122 9.559 54.893 9.329 C 55.007 9.329 54.893 8.983 55.122 8.868 Z M 64.748 8.868 L 64.748 9.329 C 64.519 9.674 64.977 9.674 64.748 9.904 C 64.748 10.02 64.748 9.904 64.634 9.904 C 64.404 10.711 63.946 11.517 63.488 12.208 C 63.488 12.208 63.602 12.438 63.831 12.438 L 63.831 12.208 C 64.175 12.208 64.175 12.668 64.29 12.899 C 65.092 11.977 65.55 11.056 65.78 9.904 C 65.894 9.559 65.78 9.098 66.009 8.753 L 64.748 8.753 Z M 66.353 8.868 C 66.353 10.595 65.665 12.208 64.634 13.244 L 65.55 14.166 C 66.582 13.014 67.269 11.632 67.613 10.02 L 67.728 8.868 L 66.467 8.868 Z M 63.488 8.868 L 63.717 9.098 C 63.717 9.329 64.175 9.444 64.175 9.674 L 64.29 8.868 Z M 63.717 8.407 M 55.695 8.292 C 55.466 8.292 55.695 8.638 55.695 8.868 L 55.466 8.868 C 55.466 9.213 55.351 9.213 55.122 9.213 C 55.122 9.444 55.236 9.559 55.122 9.674 C 55.351 9.904 55.58 10.135 55.466 10.48 C 55.695 10.711 55.58 11.056 55.695 11.286 L 55.924 11.747 L 55.695 11.977 L 55.695 12.093 L 56.841 10.941 C 56.436 10.484 56.159 9.928 56.039 9.329 L 55.924 9.329 L 55.809 9.674 C 55.695 9.674 55.58 9.674 55.58 9.444 L 55.695 9.444 L 55.695 8.983 L 55.924 9.213 L 56.153 9.098 L 56.153 8.407 L 55.809 8.292 Z M 59.133 7.14 C 59.247 7.371 59.362 7.601 59.133 7.601 C 59.133 7.831 58.789 7.831 58.674 8.062 C 58.331 8.062 58.445 8.638 58.331 8.868 C 58.101 8.868 58.216 8.638 58.101 8.522 L 58.101 8.638 C 57.643 8.407 57.758 8.983 57.528 8.983 L 58.216 8.983 L 58.331 8.753 L 58.56 8.753 L 58.56 9.098 C 58.56 9.098 58.56 9.444 58.331 9.329 L 58.331 9.444 L 58.56 9.213 C 58.674 9.213 58.789 9.098 58.674 8.983 L 59.362 8.983 C 59.477 9.213 59.362 9.329 59.362 9.444 L 59.247 9.674 L 58.674 9.789 C 58.904 10.02 59.247 10.135 59.591 10.135 C 59.935 10.135 59.706 9.674 59.935 9.559 L 60.393 9.559 L 60.393 8.753 C 60.393 8.638 60.393 8.407 60.164 8.407 L 60.164 8.177 C 60.393 8.177 60.164 7.947 60.164 7.831 C 59.935 7.831 59.935 7.371 59.591 7.486 C 59.477 7.486 59.247 7.371 59.247 7.14 L 59.477 7.14 L 59.247 7.14 Z M 47.673 6.68 C 47.329 7.716 47.329 8.983 47.673 9.904 C 47.902 11.056 48.934 11.747 49.507 12.553 L 49.507 11.402 C 49.736 10.02 50.309 8.753 50.194 7.256 C 50.08 8.407 49.048 9.098 49.048 10.135 L 49.048 11.517 L 48.819 10.826 C 48.704 9.329 47.558 8.292 47.673 6.68 Z M 71.28 6.565 C 71.509 7.831 70.707 8.868 70.364 10.02 C 70.249 10.365 70.364 10.941 70.02 11.286 L 70.134 10.711 C 70.364 9.213 68.988 8.407 68.759 7.14 L 68.759 8.062 C 68.874 9.559 69.905 10.826 69.676 12.438 L 70.478 11.286 C 71.624 10.135 71.968 8.062 71.28 6.565 Z M 59.247 5.643 C 58.56 5.643 57.872 5.989 57.414 6.449 L 57.872 6.68 L 57.872 6.795 C 57.872 7.025 57.872 6.795 57.987 6.795 L 58.331 6.795 C 58.331 7.025 58.56 6.795 58.56 6.795 C 58.56 6.795 58.789 6.795 58.674 6.565 L 58.904 6.334 C 58.904 6.795 59.247 6.334 59.247 6.565 Z M 59.706 5.643 L 59.706 6.449 L 60.05 6.565 L 60.508 6.219 L 60.623 6.334 C 60.623 6.795 60.279 6.91 60.05 7.14 C 60.393 6.795 60.508 7.371 60.737 7.14 C 60.737 6.795 61.31 6.91 61.425 6.565 L 61.196 6.565 C 61.196 6.334 61.425 6.334 61.425 6.219 C 60.896 5.914 60.311 5.718 59.706 5.643 Z M 56.153 5.298 C 55.84 5.647 55.571 6.034 55.351 6.449 L 54.893 8.292 L 55.351 8.292 L 55.351 7.947 C 55.351 7.716 55.466 7.256 55.924 7.256 C 56.039 7.256 55.924 7.025 55.924 7.025 C 56.268 7.025 56.382 6.68 56.612 6.565 C 56.841 6.565 56.841 6.219 57.07 6.219 Z M 63.029 5.298 L 61.883 6.565 L 61.998 6.68 C 61.998 6.68 61.998 6.334 62.227 6.334 L 63.029 6.334 L 63.373 6.795 L 63.373 7.025 L 63.717 7.025 C 63.946 7.025 63.946 7.14 64.061 7.256 L 64.061 7.371 C 64.061 7.601 63.831 7.601 63.946 7.716 L 64.061 7.716 C 64.404 7.486 64.175 7.14 64.061 6.91 C 64.061 6.68 63.717 6.565 63.602 6.449 L 63.602 6.219 C 63.602 5.874 63.258 5.643 63.144 5.298 Z M 55.007 4.146 C 53.861 5.298 53.288 6.795 53.174 8.292 L 54.434 8.292 C 54.434 7.14 55.007 5.989 55.809 5.067 L 54.893 4.146 Z M 59.82 3.801 L 59.82 4.952 C 60.623 5.067 61.425 5.413 61.883 5.874 L 62.8 5.067 C 61.998 4.376 60.966 3.916 59.82 3.916 Z M 59.362 3.801 C 58.216 3.801 57.299 4.376 56.497 4.952 L 57.299 5.874 C 57.872 5.413 58.56 5.067 59.362 5.067 Z M 49.048 3.455 C 48.592 4.025 48.278 4.696 48.131 5.413 C 47.902 6.91 48.704 8.062 48.934 9.329 C 49.163 7.716 50.996 6.68 51.111 4.837 C 50.538 5.874 49.277 6.334 49.048 7.486 L 49.048 8.062 L 48.934 8.062 L 48.934 7.256 C 49.163 5.989 48.475 4.607 49.163 3.455 Z M 70.02 3.34 C 70.593 4.146 70.249 5.413 70.249 6.449 L 70.249 7.831 L 70.249 7.256 C 69.905 6.104 68.645 5.643 68.186 4.722 C 68.186 5.067 68.186 5.298 68.415 5.643 C 68.874 6.91 70.134 7.831 70.364 9.213 C 70.478 7.831 71.509 6.91 71.051 5.298 C 70.936 4.607 70.593 3.916 70.02 3.34 Z M 53.632 2.994 C 52.278 4.438 51.467 6.312 51.34 8.292 L 52.715 8.292 L 52.715 7.14 C 53.059 5.989 53.632 4.837 54.549 3.916 Z M 65.436 2.994 L 64.519 3.801 L 64.519 4.031 C 64.977 4.261 65.092 4.607 65.436 4.837 C 65.436 5.067 65.78 5.298 65.78 5.643 C 66.238 6.449 66.353 7.371 66.467 8.292 L 67.613 8.292 C 67.499 6.104 66.696 4.376 65.321 2.879 Z M 55.122 3.801 L 56.039 4.722 C 56.841 3.916 57.987 3.34 59.247 3.34 L 59.247 2.188 C 57.733 2.254 56.283 2.821 55.122 3.801 Z M 63.373 2.073 L 63.373 2.303 C 63.602 2.303 63.602 2.649 63.831 2.534 L 63.831 2.188 C 63.717 2.073 63.488 2.188 63.373 2.188 Z M 59.706 2.073 L 59.706 3.34 C 60.737 3.34 61.654 3.685 62.456 4.261 L 62.342 4.031 L 62.342 3.685 L 62.685 4.031 C 63.258 4.031 62.915 4.722 63.373 4.952 L 63.373 5.183 C 63.602 5.183 63.717 5.298 63.717 5.528 C 63.717 5.758 64.061 5.528 64.175 5.528 L 64.175 5.874 C 64.29 5.874 64.175 5.989 64.175 6.104 L 64.404 6.219 L 64.404 6.91 C 64.634 7.14 64.404 7.371 64.404 7.601 C 64.175 7.601 64.175 8.062 63.831 7.947 L 63.831 8.292 L 64.29 8.292 C 64.061 7.947 64.404 7.601 64.519 7.14 L 64.748 7.14 L 64.748 8.292 L 65.894 8.292 C 65.873 7.504 65.718 6.725 65.436 5.989 L 65.092 5.989 L 64.634 5.413 L 64.29 5.298 C 63.946 5.298 64.061 4.837 63.831 4.952 L 63.488 4.607 L 63.373 4.031 L 63.029 4.031 C 62.915 4.146 62.8 4.031 62.8 3.916 C 62.685 3.801 62.8 3.685 62.8 3.455 C 62.571 3.34 62.685 2.879 62.342 2.764 L 60.623 2.188 L 59.706 2.188 Z M 49.392 2.994 C 48.819 4.031 49.392 5.298 49.163 6.449 C 49.392 5.989 49.85 5.528 50.309 5.298 C 51.111 4.607 51.913 3.685 52.028 2.649 C 51.455 3.801 49.85 4.031 49.507 5.413 C 50.08 4.261 49.736 2.764 50.882 1.958 C 50.309 2.073 49.736 2.534 49.507 3.11 Z M 68.072 1.843 C 68.988 2.303 68.874 3.34 69.218 4.146 L 69.447 5.298 C 68.988 3.916 67.499 3.801 66.926 2.534 L 67.155 3.225 C 67.499 4.722 69.218 5.067 69.905 6.334 C 69.676 5.413 70.02 4.376 69.791 3.455 C 69.561 2.649 68.874 1.958 68.072 1.728 Z M 60.737 1.037 L 60.164 1.267 C 60.164 1.267 59.82 1.267 59.935 1.382 L 60.279 1.612 C 60.623 1.382 61.081 1.612 61.425 1.382 C 61.31 1.037 60.966 1.037 60.737 1.037 Z M 53.174 0.806 C 52.372 1.037 51.569 1.382 50.996 1.958 C 50.538 2.649 50.423 3.34 50.194 3.916 L 50.882 3.34 C 51.913 2.649 52.142 1.497 53.174 0.806 Z M 65.78 0.691 L 66.353 1.267 C 67.04 2.188 67.842 3.225 68.645 3.801 C 68.645 3.455 68.53 2.994 68.301 2.649 C 67.957 1.497 66.696 1.037 65.78 0.691 Z M 53.861 2.764 L 54.893 3.685 C 56.039 2.534 57.528 1.843 59.247 1.728 L 59.247 0.691 C 57.185 0.691 55.466 1.497 53.861 2.879 Z M 59.706 0.461 L 59.706 1.612 L 59.82 1.612 L 59.82 1.843 C 60.393 1.843 60.966 1.843 61.539 2.073 C 62.112 2.073 62.571 2.764 63.144 2.419 C 63.258 2.649 63.488 2.419 63.602 2.764 C 63.831 2.764 63.946 2.994 64.061 3.11 L 64.29 3.57 C 64.519 3.225 64.748 2.879 65.092 2.764 C 63.948 1.682 62.514 0.961 60.966 0.691 L 59.82 0.461 Z M 67.04 4.607 C 68.664 7.525 68.44 11.128 66.467 13.82 C 64.281 16.718 60.541 17.955 57.07 16.93 C 53.755 16.001 51.328 13.151 50.926 9.716 C 50.524 6.282 52.227 2.944 55.236 1.267 C 57.528 -0.23 60.966 -0.346 63.373 1.037 C 64.863 1.728 66.353 3.11 67.04 4.492 Z M 140.383 5.874 C 143.003 5.797 145.61 5.488 148.176 4.952 L 148.176 0.115 L 140.383 0.115 L 140.383 5.874 M 155.281 5.874 C 154.02 6.68 152.531 7.256 151.041 7.716 L 151.041 13.705 C 153.419 11.792 155.371 9.399 156.771 6.68 L 156.771 4.952 L 155.281 5.989 M 148.176 15.548 L 148.176 8.753 C 145.769 9.213 143.134 9.559 140.383 9.674 L 140.383 17.506 C 143.134 17.275 145.769 16.584 148.176 15.433 M 151.041 0 L 151.041 3.801 C 153.096 3.165 155.032 2.192 156.771 0.921 L 156.771 0 L 151.041 0" fill="rgb(32, 73, 122)"></path><path d="M 136.716 0.115 L 129.038 0.115 L 129.038 4.837 C 131.33 5.413 133.966 5.758 136.716 5.989 L 136.716 0 M 126.058 3.801 L 126.058 0.115 L 120.328 0.115 L 120.328 1.037 C 122.108 2.269 124.033 3.275 126.058 4.031 M 136.716 9.789 C 134.08 9.789 131.445 9.329 129.038 8.868 L 129.038 15.433 C 131.33 16.584 133.966 17.39 136.716 17.621 L 136.716 9.789 M 126.058 12.784 L 126.058 7.371 C 123.996 6.795 121.933 5.874 120.328 4.952 L 120.328 6.449 C 121.818 8.753 123.766 11.056 126.058 12.668 M 129.038 37.43 L 129.038 33.744 L 136.716 33.744 L 136.716 30.059 L 129.038 30.059 L 129.038 26.374 L 136.716 26.374 L 136.716 20.27 C 130.344 19.73 124.447 16.663 120.328 11.747 L 120.328 43.994 L 136.601 43.994 L 136.601 37.545 L 128.923 37.545" fill="rgb(32, 73, 122)"></path><path d="M 140.383 20.039 L 140.383 26.374 L 147.832 26.374 L 147.832 29.944 L 140.383 29.944 L 140.383 33.629 L 147.832 33.629 L 147.832 37.314 L 140.383 37.314 L 140.383 43.649 L 157 43.649 L 157 11.517 C 152.874 16.503 146.928 19.615 140.498 20.154" fill="rgb(32, 73, 122)"></path></g></svg>