<svg xmlns="http://www.w3.org/2000/svg" width="147" height="50" fill="none" overflow="visible"><g><path d="M 0 1.27 C 0 0.726 0.125 0.4 0.411 0.255 C 0.68 0.11 0.93 0.038 1.162 0.038 C 1.413 0.038 1.627 0.092 1.806 0.237 C 1.985 0.364 2.092 0.527 2.146 0.744 L 2.2 1.197 L 2.2 13.262 L 0 13.262 Z M 12.415 8.461 C 12.415 8.244 12.38 8.099 12.308 8.026 C 12.237 7.954 12.076 7.936 11.825 7.845 L 10.198 7.338 L 10.198 6.016 L 13.274 6.016 C 13.792 6.016 14.114 6.052 14.257 6.143 C 14.4 6.215 14.49 6.432 14.526 6.795 L 14.543 7.085 L 14.543 9.458 C 14.543 10.689 14.114 11.667 13.238 12.392 C 12.38 13.099 11.146 13.443 9.536 13.461 C 7.694 13.461 6.317 12.954 5.388 11.921 C 4.476 10.907 4.028 9.313 4.011 7.139 C 4.011 6.65 4.064 5.817 4.172 4.603 C 4.279 3.407 4.78 2.339 5.709 1.397 C 6.604 0.473 7.82 0.02 9.357 0.002 L 9.983 0.002 C 10.162 0.038 10.484 0.092 10.985 0.165 C 11.468 0.219 11.986 0.437 12.576 0.835 C 13.149 1.197 13.542 1.56 13.792 1.922 C 14.025 2.248 14.132 2.556 14.15 2.882 C 14.15 3.226 14.043 3.48 13.81 3.679 C 13.596 3.86 13.381 3.951 13.131 3.951 C 12.88 3.951 12.63 3.842 12.362 3.625 L 11.897 3.063 C 11.325 2.375 10.466 2.031 9.304 2.012 C 8.32 2.012 7.587 2.32 7.086 2.973 C 6.604 3.588 6.371 4.603 6.353 6.034 L 6.353 7.483 C 6.353 7.628 6.389 8.081 6.461 8.842 C 6.532 9.602 6.8 10.255 7.301 10.816 C 7.784 11.36 8.553 11.631 9.608 11.649 C 10.538 11.649 11.235 11.45 11.7 11.052 C 12.165 10.653 12.397 10.073 12.415 9.294 Z M 23.827 7.121 L 22.611 9.041 L 19.732 9.041 L 19.267 9.023 C 19.052 8.987 18.873 8.896 18.712 8.715 C 18.569 8.552 18.498 8.353 18.498 8.099 C 18.498 7.918 18.551 7.719 18.694 7.483 C 18.82 7.248 19.141 7.121 19.678 7.121 Z M 28.08 1.27 C 28.08 0.726 28.205 0.4 28.491 0.255 C 28.76 0.11 29.01 0.038 29.242 0.038 C 29.493 0.038 29.707 0.092 29.886 0.237 C 30.065 0.364 30.172 0.527 30.226 0.744 L 30.28 1.197 L 30.28 13.262 L 28.08 13.262 Z M 32.484 4.512 C 32.484 3.751 32.805 3.371 33.449 3.353 C 33.771 3.353 34.021 3.444 34.2 3.625 L 34.397 3.878 C 34.451 3.969 34.504 4.005 34.576 4.023 C 34.612 4.023 34.665 4.005 34.755 3.969 L 35.059 3.788 C 35.273 3.643 35.524 3.534 35.81 3.462 C 36.096 3.389 36.4 3.353 36.74 3.335 C 36.865 3.335 36.972 3.335 37.097 3.353 L 37.419 3.353 C 38.295 3.462 38.957 3.788 39.44 4.349 C 39.905 4.893 40.137 5.599 40.137 6.505 L 40.137 12.501 L 38.027 13.805 L 38.027 6.795 L 38.009 6.469 C 37.973 6.07 37.83 5.762 37.544 5.509 C 37.294 5.255 36.954 5.128 36.525 5.128 C 36.221 5.128 35.899 5.201 35.541 5.382 C 35.22 5.527 34.987 5.744 34.808 6.07 C 34.665 6.36 34.594 6.758 34.594 7.302 L 34.594 13.262 L 32.484 13.262 Z M 42.271 4.603 L 42.325 4.041 C 42.361 3.842 42.468 3.679 42.665 3.516 C 42.843 3.371 43.058 3.299 43.326 3.299 C 43.487 3.299 43.702 3.353 43.97 3.48 C 44.22 3.588 44.363 3.951 44.363 4.585 L 44.363 13.262 L 42.271 13.262 Z M 43.308 0.002 C 43.988 0.038 44.506 0.6 44.471 1.288 C 44.435 1.976 43.881 2.502 43.201 2.465 C 42.521 2.429 42.003 1.868 42.039 1.179 C 42.074 0.491 42.629 -0.034 43.308 0.002 Z M 46.486 3.444 C 46.593 3.444 46.647 3.425 46.683 3.389 C 46.701 3.353 46.701 3.244 46.718 3.027 L 46.718 1.415 L 48.829 0.219 L 48.847 3.099 C 48.847 3.244 48.864 3.335 48.9 3.389 C 48.936 3.425 49.025 3.444 49.168 3.444 L 49.526 3.444 C 49.83 3.444 50.063 3.516 50.259 3.661 C 50.438 3.806 50.527 4.005 50.545 4.259 C 50.545 4.947 50.223 5.291 49.58 5.309 L 49.222 5.309 C 49.025 5.309 48.918 5.327 48.864 5.382 C 48.829 5.418 48.811 5.545 48.811 5.798 L 48.811 12.501 L 46.701 14.022 L 46.701 5.418 C 46.665 5.346 46.575 5.309 46.414 5.309 L 46.128 5.309 C 45.914 5.309 45.735 5.237 45.592 5.056 C 45.467 4.875 45.413 4.639 45.395 4.331 C 45.395 4.078 45.449 3.878 45.592 3.697 C 45.735 3.534 45.914 3.462 46.128 3.444 Z M 51.382 4.603 L 51.435 4.041 C 51.471 3.842 51.579 3.679 51.775 3.516 C 51.954 3.371 52.169 3.299 52.437 3.299 C 52.598 3.299 52.812 3.353 53.081 3.48 C 53.331 3.588 53.474 3.951 53.474 4.585 L 53.474 13.262 L 51.382 13.262 Z M 52.419 0.002 C 53.099 0.038 53.617 0.6 53.581 1.288 C 53.546 1.976 52.991 2.502 52.312 2.465 C 51.632 2.429 51.114 1.868 51.149 1.179 C 51.185 0.491 51.739 -0.034 52.419 0.002 Z M 62.983 12.175 C 62.983 12.501 62.965 12.736 62.893 12.917 C 62.84 13.062 62.714 13.189 62.518 13.316 C 62.339 13.425 62.16 13.479 61.945 13.479 C 61.624 13.479 61.355 13.334 61.141 13.026 L 61.069 12.899 L 61.033 12.863 C 60.98 12.736 60.89 12.718 60.765 12.772 L 60.568 12.899 L 60.461 12.972 L 60.3 13.062 C 60.014 13.207 59.71 13.316 59.388 13.388 C 59.084 13.443 58.727 13.461 58.315 13.479 C 57.457 13.479 56.76 13.262 56.205 12.827 C 55.132 11.957 55.132 10.671 55.096 10.236 C 55.096 9.294 55.454 8.57 56.169 8.026 C 56.885 7.501 57.94 7.248 59.37 7.229 L 59.817 7.211 L 60.425 7.229 L 60.64 7.211 L 60.747 7.211 C 60.855 7.211 60.926 7.157 60.998 7.048 C 61.033 6.958 61.051 6.777 61.069 6.505 C 61.069 6.052 60.926 5.708 60.64 5.436 C 60.372 5.183 59.978 5.056 59.424 5.038 C 59.281 5.038 59.174 5.038 59.102 5.056 C 57.725 5.056 57.654 3.317 59.12 3.317 C 59.549 3.317 60.533 3.425 61.516 3.643 C 62.482 3.86 62.965 4.693 62.983 6.179 Z M 60.855 8.842 L 60.64 8.842 L 60.354 8.86 L 60.175 8.86 L 59.656 8.878 L 59.46 8.878 L 59.12 8.896 C 58.548 8.896 58.119 8.987 57.832 9.186 C 57.564 9.367 57.403 9.584 57.332 9.838 C 57.278 10.092 57.26 10.273 57.242 10.399 C 57.242 10.744 57.35 11.033 57.6 11.287 C 57.832 11.523 58.083 11.649 58.351 11.704 C 58.601 11.74 58.816 11.758 58.995 11.758 C 59.585 11.758 60.068 11.577 60.461 11.178 C 60.837 10.798 61.016 10.309 61.033 9.693 L 61.033 9.204 C 61.033 9.023 61.033 8.932 61.016 8.896 C 61.016 8.86 60.962 8.842 60.855 8.842 Z M 65.103 3.444 C 65.211 3.444 65.264 3.425 65.3 3.389 C 65.318 3.353 65.318 3.244 65.336 3.027 L 65.336 1.415 L 67.446 0.219 L 67.464 3.099 C 67.464 3.244 67.482 3.335 67.518 3.389 C 67.553 3.425 67.643 3.444 67.786 3.444 L 68.144 3.444 C 68.448 3.444 68.68 3.516 68.877 3.661 C 69.056 3.806 69.145 4.005 69.163 4.259 C 69.163 4.947 68.841 5.291 68.197 5.309 L 67.84 5.309 C 67.643 5.309 67.536 5.327 67.482 5.382 C 67.446 5.418 67.428 5.545 67.428 5.798 L 67.428 12.501 L 65.318 14.022 L 65.318 5.418 C 65.282 5.346 65.193 5.309 65.032 5.309 L 64.746 5.309 C 64.531 5.309 64.352 5.237 64.209 5.056 C 64.084 4.875 64.031 4.639 64.013 4.331 C 64.013 4.078 64.066 3.878 64.209 3.697 C 64.352 3.534 64.531 3.462 64.746 3.444 Z M 69.999 4.603 L 70.053 4.041 C 70.089 3.842 70.196 3.679 70.393 3.516 C 70.572 3.371 70.786 3.299 71.054 3.299 C 71.215 3.299 71.43 3.353 71.698 3.48 C 71.948 3.588 72.092 3.951 72.092 4.585 L 72.092 13.262 L 69.999 13.262 Z M 71.036 0.002 C 71.716 0.038 72.235 0.6 72.199 1.288 C 72.163 1.976 71.609 2.502 70.929 2.465 C 70.25 2.429 69.731 1.868 69.767 1.179 C 69.803 0.491 70.357 -0.034 71.036 0.002 Z M 76.807 9.802 C 76.861 9.947 76.879 10.055 76.914 10.128 C 76.95 10.2 76.986 10.236 77.058 10.236 L 77.147 10.182 C 77.201 10.073 77.236 9.947 77.29 9.802 L 78.738 4.222 C 78.81 3.914 78.935 3.679 79.114 3.498 C 79.275 3.335 79.49 3.262 79.776 3.244 C 80.098 3.244 80.348 3.353 80.527 3.57 C 80.706 3.77 80.795 4.005 80.795 4.277 C 80.795 4.422 80.759 4.621 80.688 4.875 L 78.578 12.048 C 78.434 12.573 78.256 12.935 78.005 13.153 C 77.791 13.352 77.469 13.443 77.04 13.461 C 76.646 13.461 76.342 13.37 76.092 13.153 C 75.877 12.935 75.698 12.573 75.52 12.048 L 73.302 3.806 L 74.894 3.335 Z M 90.109 8.461 C 90.109 8.244 90.073 8.099 90.001 8.026 C 89.93 7.954 89.769 7.936 89.518 7.845 L 87.891 7.338 L 87.891 6.016 L 90.967 6.016 C 91.486 6.016 91.807 6.052 91.95 6.143 C 92.094 6.215 92.183 6.432 92.219 6.795 L 92.237 7.085 L 92.237 9.458 C 92.237 10.689 91.807 11.667 90.931 12.392 C 90.073 13.099 88.839 13.443 87.23 13.461 C 85.388 13.461 84.011 12.954 83.081 11.921 C 82.169 10.907 81.722 9.313 81.704 7.139 C 81.704 6.65 81.757 5.817 81.865 4.603 C 81.972 3.407 82.473 2.339 83.403 1.397 C 84.297 0.473 85.513 0.02 87.051 0.002 L 87.677 0.002 C 87.855 0.038 88.177 0.092 88.678 0.165 C 89.161 0.219 89.679 0.437 90.27 0.835 C 90.842 1.197 91.235 1.56 91.486 1.922 C 91.718 2.248 91.825 2.556 91.843 2.882 C 91.843 3.226 91.736 3.48 91.503 3.679 C 91.289 3.86 91.074 3.951 90.824 3.951 C 90.574 3.951 90.323 3.842 90.055 3.625 L 89.59 3.063 C 89.018 2.375 88.159 2.031 86.997 2.012 C 86.014 2.012 85.28 2.32 84.78 2.973 C 84.297 3.588 84.064 4.603 84.046 6.034 L 84.046 7.483 C 84.046 7.628 84.082 8.081 84.154 8.842 C 84.225 9.602 84.493 10.255 84.994 10.816 C 85.477 11.36 86.246 11.631 87.301 11.649 C 88.231 11.649 88.928 11.45 89.393 11.052 C 89.858 10.653 90.091 10.073 90.109 9.294 Z M 94.099 4.567 C 94.099 3.697 94.421 3.262 95.082 3.244 C 95.511 3.244 95.815 3.389 96.012 3.697 L 96.084 3.824 L 96.119 3.914 C 96.155 3.969 96.209 3.987 96.28 4.005 L 96.477 3.914 L 96.709 3.77 C 97.157 3.444 97.586 3.28 98.015 3.28 C 98.498 3.28 98.873 3.371 99.141 3.552 C 99.141 3.552 99.106 3.57 98.426 5.364 L 97.854 5.327 L 97.621 5.327 C 97.121 5.327 96.763 5.454 96.531 5.744 C 96.316 5.998 96.209 6.451 96.209 7.121 L 96.209 13.262 L 94.099 13.28 Z M 100.287 4.639 L 102.397 3.335 L 102.397 9.548 C 102.397 11.033 102.862 11.776 103.81 11.794 C 104.024 11.794 104.4 11.74 104.936 11.595 C 105.473 11.45 105.741 10.925 105.759 10.019 L 105.777 9.494 L 105.795 9.222 L 105.795 3.516 L 107.905 3.516 L 107.905 12.138 C 107.905 12.7 107.78 13.062 107.529 13.243 C 107.279 13.388 107.064 13.461 106.85 13.479 C 106.546 13.479 106.295 13.37 106.081 13.135 L 106.045 13.08 L 105.956 12.972 C 105.925 12.906 105.865 12.859 105.795 12.845 C 105.759 12.845 105.705 12.863 105.634 12.899 L 105.544 12.954 L 105.348 13.08 C 105.097 13.225 104.811 13.334 104.471 13.406 C 104.149 13.461 103.756 13.479 103.255 13.497 C 102.254 13.497 101.521 13.207 101.02 12.628 C 100.537 12.048 100.305 11.215 100.287 10.092 Z M 109.968 4.458 C 109.968 3.914 110.075 3.588 110.326 3.444 C 110.576 3.317 110.808 3.262 111.023 3.244 C 111.452 3.244 111.721 3.389 111.864 3.715 L 111.899 3.788 L 111.935 3.896 C 111.971 3.987 112.025 4.023 112.114 4.041 C 112.15 4.041 112.221 4.023 112.329 3.951 L 112.668 3.751 C 113.169 3.425 113.759 3.262 114.457 3.262 C 114.993 3.262 115.583 3.407 116.227 3.697 C 116.871 3.969 117.353 4.548 117.675 5.436 C 117.997 6.306 118.158 7.574 118.158 9.258 C 118.158 10.418 117.908 11.341 117.407 12.03 C 116.906 12.7 116.37 13.099 115.78 13.262 C 115.208 13.406 114.761 13.479 114.403 13.497 C 113.795 13.497 113.258 13.352 112.758 13.026 L 112.615 12.954 L 112.561 12.899 L 112.436 12.809 L 112.382 12.772 C 112.257 12.682 112.168 12.682 112.114 12.772 L 112.078 12.917 L 112.06 13.135 L 112.06 15.182 L 109.968 16.305 Z M 112.096 9.023 C 112.096 9.82 112.203 10.399 112.454 10.78 C 112.704 11.142 112.99 11.36 113.33 11.468 C 113.67 11.541 113.92 11.577 114.117 11.577 C 114.653 11.577 115.082 11.396 115.422 11.033 C 115.744 10.671 115.905 10.164 115.923 9.494 C 115.923 7.918 115.798 6.795 115.529 6.124 C 115.279 5.454 114.832 5.128 114.153 5.11 C 114.009 5.11 113.741 5.146 113.348 5.237 C 112.99 5.309 112.686 5.581 112.418 6.07 C 112.185 6.541 112.078 7.302 112.06 8.371 Z M 119.841 4.458 C 119.841 3.914 119.948 3.588 120.199 3.444 C 120.449 3.317 120.681 3.262 120.896 3.244 C 121.325 3.244 121.593 3.389 121.736 3.715 L 121.772 3.788 L 121.808 3.896 C 121.844 3.987 121.897 4.023 121.987 4.041 C 122.023 4.041 122.094 4.023 122.201 3.951 L 122.541 3.751 C 123.042 3.425 123.632 3.262 124.329 3.262 C 124.866 3.262 125.456 3.407 126.1 3.697 C 126.744 3.969 127.226 4.548 127.548 5.436 C 127.87 6.306 128.031 7.574 128.031 9.258 C 128.031 10.418 127.781 11.341 127.28 12.03 C 126.779 12.7 126.243 13.099 125.653 13.262 C 125.081 13.406 124.633 13.479 124.276 13.497 C 123.668 13.497 123.131 13.352 122.631 13.026 L 122.488 12.954 L 122.434 12.899 L 122.309 12.809 L 122.255 12.772 C 122.13 12.682 122.04 12.682 121.987 12.772 L 121.951 12.917 L 121.933 13.135 L 121.933 15.182 L 119.841 16.305 Z M 121.969 9.023 C 121.969 9.82 122.076 10.399 122.327 10.78 C 122.577 11.142 122.863 11.36 123.203 11.468 C 123.543 11.541 123.793 11.577 123.99 11.577 C 124.526 11.577 124.955 11.396 125.295 11.033 C 125.617 10.671 125.778 10.164 125.796 9.494 C 125.796 7.918 125.671 6.795 125.402 6.124 C 125.152 5.454 124.705 5.128 124.025 5.11 C 123.882 5.11 123.614 5.146 123.221 5.237 C 122.863 5.309 122.559 5.581 122.291 6.07 C 122.058 6.541 121.951 7.302 121.933 8.371 Z M 132.021 9.077 C 131.806 9.077 131.663 9.095 131.574 9.15 C 131.502 9.186 131.466 9.276 131.466 9.458 L 131.502 9.874 C 131.538 10.399 131.735 10.816 132.092 11.16 C 132.432 11.468 132.879 11.613 133.433 11.631 C 133.576 11.631 133.916 11.577 134.202 11.541 C 134.953 11.432 135.222 13.262 134.489 13.406 C 134.041 13.497 133.612 13.479 133.344 13.497 C 132.056 13.497 131.055 13.08 130.34 12.247 C 129.642 11.414 129.303 10.182 129.285 8.552 C 129.285 8.244 129.32 7.7 129.392 6.903 C 129.464 6.106 129.732 5.382 130.232 4.712 C 130.733 4.041 131.323 3.643 132.021 3.48 C 132.7 3.335 133.219 3.262 133.594 3.244 C 134.757 3.244 135.669 3.643 136.33 4.44 C 136.974 5.237 137.296 6.342 137.314 7.755 L 137.296 8.117 C 137.296 8.534 137.242 8.787 137.117 8.914 C 137.01 9.023 136.76 9.077 136.33 9.077 Z M 135.204 6.722 L 135.186 6.487 C 134.971 5.545 134.381 5.074 133.416 5.056 C 132.951 5.056 132.557 5.183 132.217 5.454 C 131.896 5.708 131.699 6.052 131.592 6.523 L 131.556 6.686 C 131.556 6.74 131.556 6.795 131.538 6.849 L 131.538 6.958 C 131.538 7.211 131.681 7.338 132.003 7.338 L 134.721 7.338 C 134.918 7.338 135.043 7.302 135.114 7.229 C 135.168 7.157 135.186 6.994 135.204 6.722 Z" fill="rgb(32, 73, 122)"></path><path d="M 1.245 23.549 L 1.245 32.771 L 0.142 32.771 L 0.142 23.549 Z M 4.237 28.61 L 4.237 32.771 L 3.188 32.771 L 3.188 25.854 L 4.201 25.854 L 4.201 26.934 L 4.29 26.934 C 4.447 26.587 4.701 26.293 5.019 26.088 C 5.345 25.872 5.766 25.764 6.282 25.764 C 6.744 25.764 7.148 25.86 7.495 26.052 C 7.842 26.241 8.112 26.53 8.304 26.917 C 8.496 27.301 8.593 27.787 8.593 28.375 L 8.593 32.77 L 7.544 32.77 L 7.544 28.447 C 7.544 27.904 7.405 27.481 7.126 27.178 C 6.848 26.871 6.465 26.718 5.979 26.718 C 5.644 26.718 5.345 26.792 5.081 26.939 C 4.818 27.088 4.604 27.312 4.463 27.583 C 4.312 27.865 4.237 28.208 4.237 28.61 Z M 13.354 25.854 L 13.354 26.755 L 9.816 26.755 L 9.816 25.854 L 13.354 25.854 Z M 10.847 24.197 L 11.896 24.197 L 11.896 30.79 C 11.896 31.09 11.939 31.315 12.025 31.465 C 12.114 31.612 12.226 31.712 12.363 31.763 C 12.502 31.811 12.649 31.835 12.803 31.835 C 12.919 31.835 13.013 31.829 13.087 31.817 L 13.265 31.78 L 13.478 32.735 C 13.407 32.762 13.309 32.789 13.181 32.817 C 13.021 32.85 12.859 32.865 12.696 32.861 C 12.396 32.86 12.099 32.794 11.825 32.668 C 11.543 32.538 11.301 32.335 11.123 32.078 C 10.939 31.814 10.847 31.48 10.847 31.078 Z M 17.596 32.915 C 16.939 32.915 16.371 32.768 15.894 32.474 C 15.42 32.176 15.053 31.762 14.796 31.231 C 14.541 30.696 14.414 30.075 14.414 29.367 C 14.414 28.658 14.541 28.034 14.796 27.494 C 15.054 26.95 15.412 26.527 15.872 26.224 C 16.334 25.917 16.873 25.764 17.49 25.764 C 17.845 25.764 18.196 25.824 18.543 25.944 C 18.897 26.069 19.22 26.268 19.49 26.53 C 19.774 26.797 20.002 27.151 20.17 27.592 C 20.339 28.034 20.424 28.577 20.424 29.223 L 20.424 29.673 L 15.16 29.673 L 15.16 28.754 L 19.357 28.754 C 19.357 28.364 19.28 28.016 19.126 27.71 C 18.981 27.411 18.756 27.159 18.477 26.985 C 18.198 26.808 17.869 26.719 17.49 26.719 C 17.072 26.719 16.71 26.824 16.405 27.034 C 16.106 27.237 15.865 27.517 15.707 27.845 C 15.544 28.178 15.461 28.545 15.463 28.917 L 15.463 29.529 C 15.463 30.051 15.552 30.494 15.729 30.857 C 15.911 31.217 16.161 31.492 16.481 31.681 C 16.801 31.867 17.173 31.96 17.596 31.96 C 17.872 31.96 18.121 31.921 18.343 31.843 C 18.561 31.767 18.759 31.644 18.926 31.483 C 19.089 31.321 19.215 31.12 19.304 30.88 L 20.317 31.168 C 20.212 31.513 20.028 31.828 19.779 32.086 C 19.527 32.347 19.216 32.552 18.845 32.699 C 18.475 32.843 18.059 32.915 17.596 32.915 Z M 21.894 32.771 L 21.894 25.854 L 22.908 25.854 L 22.908 26.899 L 22.979 26.899 C 23.103 26.556 23.329 26.279 23.655 26.065 C 23.981 25.853 24.348 25.746 24.757 25.746 C 24.834 25.746 24.93 25.747 25.046 25.75 C 25.162 25.753 25.249 25.758 25.308 25.764 L 25.308 26.846 C 25.227 26.829 25.146 26.815 25.064 26.805 C 24.933 26.783 24.801 26.773 24.668 26.773 C 24.336 26.773 24.04 26.844 23.779 26.985 C 23.527 27.118 23.315 27.317 23.166 27.562 C 23.017 27.805 22.943 28.082 22.943 28.395 L 22.943 32.771 L 21.894 32.771 Z M 27.405 30.249 L 27.387 28.934 L 27.6 28.934 L 30.587 25.855 L 31.885 25.855 L 28.702 29.114 L 28.614 29.114 L 27.404 30.249 Z M 26.427 32.771 L 26.427 23.549 L 27.476 23.549 L 27.476 32.771 Z M 30.765 32.771 L 28.098 29.349 L 28.844 28.61 L 32.099 32.771 Z M 37.413 29.943 L 37.413 25.854 L 38.463 25.854 L 38.463 32.77 L 37.413 32.77 L 37.413 31.6 L 37.342 31.6 C 37.182 31.951 36.933 32.25 36.596 32.496 C 36.258 32.739 35.831 32.861 35.315 32.861 C 34.889 32.861 34.509 32.766 34.177 32.577 C 33.845 32.385 33.585 32.097 33.395 31.712 C 33.205 31.325 33.11 30.837 33.11 30.249 L 33.11 25.854 L 34.16 25.854 L 34.16 30.177 C 34.16 30.681 34.299 31.083 34.577 31.383 C 34.859 31.684 35.217 31.834 35.653 31.834 C 35.914 31.834 36.179 31.766 36.449 31.631 C 36.722 31.496 36.95 31.289 37.133 31.01 C 37.32 30.731 37.413 30.375 37.413 29.943 Z M 41.308 23.549 L 41.308 32.771 L 40.259 32.771 L 40.259 23.549 Z M 46.073 25.854 L 46.073 26.755 L 42.535 26.755 L 42.535 25.854 L 46.073 25.854 Z M 43.566 24.197 L 44.616 24.197 L 44.616 30.79 C 44.616 31.09 44.658 31.315 44.744 31.465 C 44.833 31.612 44.946 31.712 45.082 31.763 C 45.222 31.811 45.368 31.835 45.522 31.835 C 45.638 31.835 45.733 31.829 45.807 31.817 L 45.984 31.78 L 46.198 32.735 C 46.127 32.762 46.028 32.789 45.9 32.817 C 45.741 32.85 45.578 32.865 45.416 32.861 C 45.115 32.86 44.818 32.794 44.544 32.668 C 44.262 32.538 44.02 32.335 43.842 32.078 C 43.658 31.814 43.566 31.48 43.566 31.078 Z M 51.829 29.943 L 51.829 25.854 L 52.879 25.854 L 52.879 32.77 L 51.829 32.77 L 51.829 31.6 L 51.758 31.6 C 51.598 31.951 51.349 32.25 51.012 32.496 C 50.674 32.739 50.247 32.861 49.731 32.861 C 49.304 32.861 48.925 32.766 48.593 32.577 C 48.261 32.385 48.001 32.097 47.811 31.712 C 47.621 31.325 47.526 30.837 47.526 30.249 L 47.526 25.854 L 48.576 25.854 L 48.576 30.177 C 48.576 30.681 48.715 31.083 48.993 31.383 C 49.275 31.684 49.633 31.834 50.069 31.834 C 50.33 31.834 50.595 31.766 50.865 31.631 C 51.137 31.496 51.366 31.289 51.549 31.01 C 51.736 30.731 51.829 30.375 51.829 29.943 Z M 54.675 32.771 L 54.675 25.854 L 55.688 25.854 L 55.688 26.899 L 55.759 26.899 C 55.884 26.556 56.109 26.279 56.435 26.065 C 56.761 25.853 57.128 25.746 57.537 25.746 C 57.614 25.746 57.711 25.747 57.826 25.75 C 57.942 25.753 58.029 25.758 58.089 25.764 L 58.089 26.846 C 58.008 26.829 57.926 26.815 57.844 26.805 C 57.713 26.783 57.581 26.773 57.448 26.773 C 57.117 26.773 56.82 26.844 56.56 26.985 C 56.308 27.118 56.095 27.317 55.946 27.562 C 55.798 27.805 55.724 28.082 55.724 28.395 L 55.724 32.771 L 54.675 32.771 Z M 61.862 32.915 C 61.204 32.915 60.636 32.768 60.159 32.474 C 59.685 32.176 59.319 31.762 59.061 31.231 C 58.807 30.696 58.679 30.075 58.679 29.367 C 58.679 28.658 58.807 28.034 59.061 27.494 C 59.319 26.95 59.678 26.527 60.137 26.224 C 60.599 25.917 61.139 25.764 61.755 25.764 C 62.114 25.765 62.47 25.826 62.809 25.944 C 63.162 26.069 63.485 26.268 63.756 26.53 C 64.04 26.797 64.267 27.151 64.436 27.592 C 64.605 28.034 64.689 28.577 64.689 29.223 L 64.689 29.673 L 59.426 29.673 L 59.426 28.754 L 63.622 28.754 C 63.622 28.364 63.545 28.016 63.391 27.71 C 63.247 27.411 63.022 27.159 62.742 26.985 C 62.464 26.808 62.135 26.719 61.755 26.719 C 61.337 26.719 60.976 26.824 60.67 27.034 C 60.372 27.237 60.131 27.517 59.973 27.845 C 59.81 28.178 59.726 28.545 59.728 28.917 L 59.728 29.529 C 59.728 30.051 59.817 30.494 59.995 30.857 C 60.176 31.217 60.426 31.492 60.746 31.681 C 61.066 31.867 61.438 31.96 61.862 31.96 C 62.138 31.96 62.386 31.921 62.609 31.843 C 62.826 31.767 63.025 31.644 63.191 31.483 C 63.354 31.321 63.48 31.12 63.569 30.88 L 64.582 31.168 C 64.478 31.513 64.293 31.828 64.044 32.086 C 63.793 32.347 63.482 32.552 63.111 32.699 C 62.741 32.843 62.324 32.915 61.862 32.915 Z M 67.209 23.549 L 67.209 32.771 L 66.16 32.771 L 66.16 23.549 Z M 70.054 23.549 L 70.054 32.771 L 69.005 32.771 L 69.005 23.549 Z M 74.713 32.915 C 74.055 32.915 73.488 32.768 73.011 32.474 C 72.536 32.176 72.171 31.762 71.913 31.231 C 71.658 30.696 71.53 30.075 71.53 29.367 C 71.53 28.658 71.658 28.034 71.913 27.494 C 72.171 26.95 72.529 26.527 72.988 26.224 C 73.451 25.917 73.99 25.764 74.607 25.764 C 74.962 25.764 75.313 25.824 75.66 25.944 C 76.013 26.069 76.336 26.268 76.607 26.53 C 76.891 26.797 77.118 27.151 77.287 27.592 C 77.456 28.034 77.54 28.577 77.54 29.223 L 77.54 29.673 L 72.277 29.673 L 72.277 28.754 L 76.474 28.754 C 76.474 28.364 76.396 28.016 76.243 27.71 C 76.098 27.411 75.873 27.159 75.593 26.985 C 75.315 26.808 74.986 26.719 74.607 26.719 C 74.189 26.719 73.827 26.824 73.522 27.034 C 73.223 27.237 72.982 27.517 72.824 27.845 C 72.661 28.178 72.577 28.545 72.579 28.917 L 72.579 29.529 C 72.579 30.051 72.668 30.494 72.846 30.857 C 73.027 31.217 73.277 31.492 73.597 31.681 C 73.917 31.867 74.289 31.96 74.713 31.96 C 74.989 31.96 75.238 31.921 75.46 31.843 C 75.678 31.767 75.876 31.644 76.042 31.483 C 76.211 31.313 76.34 31.107 76.42 30.88 L 77.433 31.168 C 77.329 31.513 77.144 31.828 76.896 32.086 C 76.644 32.347 76.333 32.552 75.962 32.699 C 75.592 32.843 75.175 32.915 74.713 32.915 Z M 82.549 32.771 L 82.549 23.549 L 85.731 23.549 C 86.366 23.549 86.889 23.66 87.301 23.882 C 87.712 24.101 88.019 24.397 88.221 24.769 C 88.422 25.138 88.523 25.548 88.523 25.998 C 88.523 26.395 88.454 26.722 88.314 26.98 C 88.187 27.227 88.001 27.438 87.772 27.592 C 87.55 27.743 87.305 27.855 87.047 27.926 L 87.047 28.016 C 87.326 28.034 87.606 28.133 87.888 28.313 C 88.169 28.493 88.404 28.751 88.594 29.087 C 88.784 29.424 88.879 29.835 88.879 30.321 C 88.879 30.783 88.775 31.199 88.568 31.569 C 88.36 31.938 88.032 32.231 87.585 32.447 C 87.137 32.663 86.555 32.771 85.838 32.771 Z M 83.651 31.78 L 85.838 31.78 C 86.558 31.78 87.069 31.639 87.372 31.357 C 87.677 31.072 87.829 30.727 87.829 30.321 C 87.832 30.016 87.75 29.717 87.594 29.456 C 87.437 29.189 87.213 28.976 86.923 28.817 C 86.632 28.655 86.288 28.574 85.891 28.574 L 83.651 28.574 L 83.651 31.78 Z M 83.651 27.601 L 85.696 27.601 C 86.028 27.601 86.327 27.535 86.594 27.404 C 86.854 27.28 87.075 27.087 87.234 26.845 C 87.394 26.605 87.474 26.323 87.474 25.998 C 87.474 25.593 87.335 25.249 87.056 24.967 C 86.778 24.682 86.336 24.54 85.731 24.54 L 83.651 24.54 Z M 93.285 32.915 C 92.627 32.915 92.06 32.768 91.583 32.474 C 91.109 32.176 90.743 31.762 90.485 31.231 C 90.23 30.696 90.103 30.075 90.103 29.367 C 90.103 28.658 90.23 28.034 90.485 27.494 C 90.743 26.95 91.102 26.527 91.561 26.224 C 92.023 25.917 92.563 25.764 93.179 25.764 C 93.534 25.764 93.885 25.824 94.232 25.944 C 94.586 26.069 94.909 26.268 95.179 26.53 C 95.464 26.797 95.69 27.151 95.859 27.592 C 96.028 28.034 96.113 28.577 96.113 29.223 L 96.113 29.673 L 90.849 29.673 L 90.849 28.754 L 95.046 28.754 C 95.046 28.364 94.969 28.016 94.814 27.71 C 94.67 27.411 94.445 27.16 94.166 26.985 C 93.887 26.808 93.558 26.719 93.179 26.719 C 92.761 26.719 92.399 26.824 92.094 27.034 C 91.795 27.237 91.554 27.517 91.396 27.845 C 91.233 28.178 91.15 28.545 91.152 28.917 L 91.152 29.529 C 91.152 30.051 91.241 30.494 91.418 30.857 C 91.599 31.217 91.849 31.492 92.17 31.681 C 92.49 31.867 92.862 31.96 93.285 31.96 C 93.561 31.96 93.81 31.921 94.032 31.843 C 94.25 31.767 94.448 31.644 94.615 31.483 C 94.783 31.313 94.912 31.107 94.992 30.88 L 96.006 31.168 C 95.901 31.513 95.717 31.828 95.468 32.086 C 95.216 32.347 94.905 32.552 94.535 32.699 C 94.164 32.843 93.748 32.915 93.285 32.915 Z M 100.339 35.509 C 99.833 35.509 99.397 35.442 99.032 35.311 C 98.668 35.181 98.364 35.01 98.121 34.797 C 97.896 34.604 97.702 34.376 97.548 34.122 L 98.383 33.527 C 98.478 33.654 98.598 33.798 98.744 33.96 C 98.888 34.124 99.087 34.268 99.339 34.387 C 99.594 34.51 99.927 34.572 100.339 34.572 C 100.89 34.572 101.346 34.437 101.704 34.167 C 102.063 33.897 102.242 33.473 102.242 32.897 L 102.242 31.492 L 102.153 31.492 C 102.051 31.654 101.941 31.81 101.824 31.96 C 101.685 32.143 101.483 32.307 101.219 32.451 C 100.959 32.592 100.606 32.663 100.161 32.663 C 99.61 32.663 99.116 32.531 98.677 32.266 C 98.241 32.002 97.896 31.618 97.641 31.114 C 97.389 30.609 97.263 29.997 97.263 29.277 C 97.263 28.568 97.386 27.951 97.632 27.426 C 97.878 26.898 98.221 26.489 98.659 26.201 C 99.098 25.91 99.604 25.764 100.179 25.764 C 100.624 25.764 100.976 25.839 101.237 25.99 C 101.501 26.136 101.702 26.304 101.842 26.494 C 101.984 26.68 102.093 26.833 102.171 26.953 L 102.277 26.953 L 102.277 25.854 L 103.291 25.854 L 103.291 32.969 C 103.291 33.563 103.157 34.047 102.891 34.419 C 102.627 34.794 102.271 35.069 101.824 35.243 C 101.379 35.42 100.885 35.508 100.339 35.508 Z M 100.304 31.708 C 100.725 31.708 101.08 31.611 101.371 31.415 C 101.661 31.221 101.882 30.94 102.033 30.573 C 102.184 30.207 102.26 29.769 102.26 29.258 C 102.26 28.76 102.186 28.321 102.037 27.939 C 101.889 27.558 101.67 27.259 101.379 27.043 C 101.089 26.827 100.73 26.719 100.304 26.719 C 99.859 26.719 99.489 26.833 99.192 27.061 C 98.899 27.289 98.678 27.596 98.53 27.98 C 98.385 28.364 98.312 28.79 98.312 29.258 C 98.312 29.739 98.386 30.164 98.534 30.533 C 98.685 30.899 98.908 31.187 99.201 31.398 C 99.498 31.605 99.865 31.708 100.304 31.708 Z M 107.949 32.915 C 107.291 32.915 106.723 32.768 106.246 32.474 C 105.772 32.176 105.406 31.762 105.148 31.231 C 104.893 30.696 104.766 30.075 104.766 29.367 C 104.766 28.658 104.893 28.034 105.148 27.494 C 105.406 26.95 105.765 26.527 106.224 26.224 C 106.686 25.917 107.226 25.764 107.842 25.764 C 108.201 25.765 108.557 25.826 108.896 25.944 C 109.249 26.069 109.572 26.268 109.842 26.53 C 110.127 26.797 110.354 27.151 110.522 27.592 C 110.691 28.034 110.776 28.577 110.776 29.223 L 110.776 29.673 L 105.513 29.673 L 105.513 28.754 L 109.709 28.754 C 109.709 28.364 109.632 28.016 109.478 27.71 C 109.334 27.411 109.108 27.159 108.829 26.985 C 108.55 26.808 108.221 26.719 107.842 26.719 C 107.424 26.719 107.063 26.824 106.758 27.034 C 106.459 27.237 106.218 27.517 106.059 27.845 C 105.897 28.178 105.813 28.545 105.815 28.917 L 105.815 29.529 C 105.815 30.051 105.904 30.494 106.082 30.857 C 106.263 31.217 106.513 31.492 106.833 31.681 C 107.153 31.867 107.525 31.96 107.949 31.96 C 108.224 31.96 108.473 31.921 108.696 31.843 C 108.913 31.767 109.112 31.644 109.278 31.483 C 109.441 31.321 109.567 31.12 109.656 30.88 L 110.669 31.168 C 110.564 31.513 110.38 31.828 110.131 32.086 C 109.879 32.347 109.568 32.552 109.198 32.699 C 108.828 32.843 108.411 32.915 107.949 32.915 Z M 115.003 35.509 C 114.496 35.509 114.06 35.442 113.696 35.311 C 113.331 35.181 113.027 35.01 112.785 34.797 C 112.559 34.604 112.365 34.376 112.211 34.122 L 113.047 33.527 C 113.142 33.654 113.262 33.798 113.407 33.96 C 113.552 34.124 113.751 34.268 114.002 34.387 C 114.257 34.51 114.591 34.572 115.003 34.572 C 115.554 34.572 116.009 34.437 116.367 34.167 C 116.726 33.897 116.905 33.473 116.905 32.897 L 116.905 31.492 L 116.816 31.492 C 116.739 31.618 116.63 31.774 116.488 31.96 C 116.348 32.143 116.146 32.307 115.883 32.451 C 115.622 32.592 115.269 32.663 114.825 32.663 C 114.274 32.663 113.779 32.531 113.34 32.266 C 112.904 32.002 112.559 31.618 112.304 31.114 C 112.053 30.609 111.927 29.997 111.927 29.277 C 111.927 28.568 112.05 27.951 112.295 27.426 C 112.541 26.898 112.884 26.489 113.322 26.201 C 113.761 25.91 114.268 25.764 114.843 25.764 C 115.287 25.764 115.64 25.839 115.901 25.99 C 116.164 26.136 116.366 26.304 116.505 26.494 C 116.648 26.68 116.757 26.833 116.834 26.953 L 116.941 26.953 L 116.941 25.854 L 117.954 25.854 L 117.954 32.969 C 117.954 33.563 117.821 34.047 117.554 34.419 C 117.29 34.794 116.935 35.069 116.488 35.243 C 116.043 35.42 115.548 35.508 115.003 35.508 Z M 114.967 31.708 C 115.388 31.708 115.744 31.611 116.034 31.415 C 116.324 31.221 116.545 30.94 116.696 30.573 C 116.847 30.207 116.923 29.769 116.923 29.258 C 116.923 28.76 116.849 28.321 116.701 27.939 C 116.552 27.558 116.333 27.259 116.043 27.043 C 115.753 26.827 115.394 26.719 114.967 26.719 C 114.523 26.719 114.152 26.833 113.856 27.061 C 113.562 27.289 113.342 27.596 113.194 27.98 C 113.048 28.364 112.975 28.79 112.975 29.258 C 112.975 29.739 113.05 30.164 113.198 30.533 C 113.349 30.899 113.571 31.187 113.865 31.398 C 114.161 31.605 114.528 31.708 114.967 31.708 Z M 120.799 28.61 L 120.799 32.771 L 119.749 32.771 L 119.749 25.854 L 120.763 25.854 L 120.763 26.934 L 120.852 26.934 C 121.009 26.587 121.262 26.293 121.581 26.088 C 121.907 25.872 122.328 25.764 122.843 25.764 C 123.306 25.764 123.71 25.86 124.057 26.052 C 124.404 26.241 124.673 26.53 124.866 26.917 C 125.059 27.301 125.155 27.787 125.155 28.375 L 125.155 32.77 L 124.106 32.77 L 124.106 28.447 C 124.106 27.904 123.966 27.481 123.688 27.178 C 123.409 26.871 123.027 26.718 122.541 26.718 C 122.206 26.718 121.907 26.792 121.643 26.939 C 121.38 27.089 121.165 27.312 121.025 27.583 C 120.874 27.865 120.799 28.208 120.799 28.61 Z M 131.25 29.943 L 131.25 25.854 L 132.299 25.854 L 132.299 32.77 L 131.25 32.77 L 131.25 31.6 L 131.178 31.6 C 131.018 31.951 130.769 32.25 130.432 32.496 C 130.094 32.739 129.667 32.861 129.151 32.861 C 128.725 32.861 128.345 32.766 128.014 32.577 C 127.682 32.385 127.421 32.097 127.231 31.712 C 127.041 31.325 126.947 30.837 126.947 30.249 L 126.947 25.854 L 127.996 25.854 L 127.996 30.177 C 127.996 30.681 128.135 31.083 128.413 31.383 C 128.695 31.684 129.054 31.834 129.489 31.834 C 129.75 31.834 130.015 31.766 130.285 31.631 C 130.557 31.496 130.786 31.289 130.97 31.01 C 131.156 30.731 131.25 30.375 131.25 29.943 Z M 135.144 28.61 L 135.144 32.771 L 134.095 32.771 L 134.095 25.854 L 135.109 25.854 L 135.109 26.934 L 135.198 26.934 C 135.354 26.587 135.608 26.293 135.926 26.088 C 136.252 25.872 136.673 25.764 137.189 25.764 C 137.651 25.764 138.056 25.86 138.403 26.052 C 138.749 26.241 139.019 26.53 139.211 26.917 C 139.404 27.301 139.501 27.787 139.501 28.375 L 139.501 32.77 L 138.451 32.77 L 138.451 28.447 C 138.451 27.904 138.312 27.481 138.033 27.178 C 137.755 26.871 137.373 26.718 136.887 26.718 C 136.552 26.718 136.252 26.792 135.989 26.939 C 135.726 27.088 135.511 27.312 135.371 27.583 C 135.219 27.865 135.144 28.208 135.144 28.61 Z M 144.048 35.509 C 143.542 35.509 143.106 35.442 142.741 35.311 C 142.377 35.181 142.073 35.01 141.83 34.797 C 141.605 34.604 141.411 34.376 141.257 34.122 L 142.092 33.527 C 142.187 33.654 142.307 33.798 142.452 33.96 C 142.598 34.124 142.796 34.268 143.048 34.387 C 143.303 34.51 143.636 34.572 144.048 34.572 C 144.599 34.572 145.054 34.437 145.413 34.167 C 145.771 33.897 145.951 33.473 145.951 32.897 L 145.951 31.492 L 145.862 31.492 C 145.76 31.654 145.65 31.81 145.533 31.96 C 145.394 32.143 145.192 32.307 144.928 32.451 C 144.668 32.592 144.315 32.663 143.871 32.663 C 143.319 32.663 142.824 32.531 142.386 32.266 C 141.95 32.002 141.605 31.618 141.35 31.114 C 141.098 30.609 140.972 29.997 140.972 29.277 C 140.972 28.568 141.095 27.951 141.341 27.426 C 141.587 26.898 141.929 26.489 142.368 26.201 C 142.807 25.91 143.313 25.764 143.888 25.764 C 144.333 25.764 144.686 25.839 144.946 25.99 C 145.21 26.136 145.412 26.304 145.551 26.494 C 145.693 26.68 145.803 26.833 145.88 26.953 L 145.987 26.953 L 145.987 25.854 L 147 25.854 L 147 32.969 C 147 33.563 146.866 34.047 146.6 34.419 C 146.336 34.794 145.98 35.069 145.533 35.243 C 145.088 35.42 144.593 35.508 144.048 35.508 Z M 144.013 31.708 C 144.433 31.708 144.789 31.611 145.079 31.415 C 145.37 31.221 145.591 30.94 145.742 30.573 C 145.893 30.207 145.969 29.769 145.969 29.258 C 145.969 28.76 145.894 28.321 145.746 27.939 C 145.598 27.558 145.379 27.259 145.088 27.043 C 144.798 26.827 144.439 26.719 144.013 26.719 C 143.568 26.719 143.198 26.833 142.901 27.061 C 142.608 27.289 142.387 27.596 142.239 27.98 C 142.094 28.364 142.021 28.79 142.021 29.258 C 142.021 29.739 142.095 30.164 142.243 30.533 C 142.395 30.899 142.617 31.187 142.91 31.398 C 143.207 31.605 143.574 31.708 144.013 31.708 Z M 4.303 44.435 L 4.303 40.345 L 5.352 40.345 L 5.352 47.262 L 4.303 47.262 L 4.303 46.091 L 4.231 46.091 C 4.072 46.442 3.823 46.741 3.485 46.987 C 3.147 47.23 2.72 47.352 2.205 47.352 C 1.778 47.352 1.399 47.257 1.067 47.068 C 0.735 46.876 0.474 46.588 0.284 46.204 C 0.095 45.816 0 45.329 0 44.74 L 0 40.345 L 1.049 40.345 L 1.049 44.668 C 1.049 45.172 1.188 45.575 1.467 45.875 C 1.748 46.175 2.107 46.325 2.542 46.325 C 2.804 46.325 3.069 46.258 3.338 46.123 C 3.611 45.988 3.839 45.781 4.023 45.501 C 4.21 45.222 4.303 44.866 4.303 44.434 Z M 8.197 43.102 L 8.197 47.262 L 7.149 47.262 L 7.149 40.346 L 8.162 40.346 L 8.162 41.426 L 8.251 41.426 C 8.408 41.079 8.661 40.785 8.98 40.58 C 9.306 40.364 9.726 40.256 10.242 40.256 C 10.704 40.256 11.109 40.352 11.456 40.544 C 11.802 40.733 12.072 41.022 12.265 41.409 C 12.457 41.793 12.554 42.279 12.554 42.867 L 12.554 47.262 L 11.505 47.262 L 11.505 42.939 C 11.505 42.396 11.365 41.973 11.087 41.67 C 10.808 41.363 10.426 41.21 9.94 41.21 C 9.605 41.21 9.306 41.284 9.042 41.431 C 8.779 41.58 8.564 41.804 8.424 42.075 C 8.273 42.358 8.197 42.7 8.197 43.102 Z M 16.924 47.406 C 16.355 47.406 15.852 47.261 15.417 46.97 C 14.981 46.676 14.64 46.261 14.395 45.727 C 14.149 45.19 14.025 44.555 14.025 43.822 C 14.025 43.096 14.149 42.465 14.395 41.931 C 14.64 41.397 14.983 40.984 15.421 40.693 C 15.86 40.402 16.367 40.256 16.941 40.256 C 17.386 40.256 17.737 40.331 17.995 40.481 C 18.256 40.628 18.454 40.796 18.591 40.985 C 18.73 41.171 18.838 41.325 18.915 41.445 L 19.004 41.445 L 19.004 38.04 L 20.053 38.04 L 20.053 47.262 L 19.04 47.262 L 19.04 46.2 L 18.915 46.2 C 18.838 46.326 18.728 46.485 18.586 46.677 C 18.444 46.866 18.241 47.036 17.977 47.186 C 17.714 47.333 17.362 47.406 16.924 47.406 Z M 17.066 46.452 C 17.487 46.452 17.842 46.341 18.133 46.119 C 18.423 45.893 18.644 45.583 18.795 45.187 C 18.947 44.787 19.022 44.326 19.022 43.804 C 19.022 43.288 18.948 42.836 18.799 42.449 C 18.652 42.059 18.432 41.755 18.142 41.539 C 17.851 41.32 17.493 41.21 17.066 41.21 C 16.621 41.21 16.251 41.326 15.955 41.557 C 15.661 41.786 15.441 42.096 15.292 42.489 C 15.147 42.88 15.075 43.318 15.075 43.804 C 15.075 44.297 15.149 44.744 15.297 45.146 C 15.448 45.545 15.67 45.864 15.964 46.101 C 16.26 46.335 16.628 46.452 17.066 46.452 Z M 25.533 47.262 L 25.533 38.04 L 28.716 38.04 C 29.35 38.04 29.873 38.151 30.285 38.374 C 30.696 38.593 31.003 38.889 31.205 39.261 C 31.406 39.63 31.507 40.04 31.507 40.49 C 31.507 40.886 31.437 41.214 31.298 41.472 C 31.162 41.73 30.981 41.934 30.756 42.084 C 30.534 42.234 30.289 42.347 30.031 42.417 L 30.031 42.507 C 30.31 42.526 30.59 42.624 30.871 42.804 C 31.153 42.985 31.389 43.243 31.578 43.579 C 31.768 43.915 31.863 44.326 31.863 44.813 C 31.863 45.275 31.759 45.691 31.551 46.06 C 31.344 46.429 31.017 46.722 30.569 46.938 C 30.122 47.154 29.539 47.262 28.822 47.262 Z M 26.635 46.272 L 28.822 46.272 C 29.542 46.272 30.054 46.131 30.356 45.849 C 30.661 45.563 30.814 45.218 30.814 44.813 C 30.814 44.5 30.735 44.212 30.578 43.948 C 30.421 43.681 30.197 43.468 29.907 43.309 C 29.616 43.147 29.273 43.066 28.876 43.066 L 26.635 43.066 Z M 26.635 42.093 L 28.68 42.093 C 29.012 42.093 29.311 42.027 29.578 41.895 C 29.837 41.772 30.059 41.579 30.218 41.337 C 30.378 41.097 30.458 40.814 30.458 40.49 C 30.458 40.085 30.319 39.741 30.04 39.459 C 29.762 39.173 29.32 39.031 28.716 39.031 L 26.635 39.031 Z M 33.407 47.262 L 33.407 40.346 L 34.456 40.346 L 34.456 47.262 Z M 33.94 39.193 C 33.736 39.193 33.559 39.123 33.411 38.981 C 33.271 38.851 33.191 38.666 33.194 38.473 C 33.194 38.275 33.266 38.105 33.411 37.964 C 33.553 37.825 33.743 37.749 33.94 37.752 C 34.145 37.752 34.32 37.823 34.465 37.964 C 34.613 38.105 34.687 38.275 34.687 38.473 C 34.687 38.671 34.613 38.841 34.465 38.981 C 34.325 39.12 34.136 39.197 33.94 39.193 Z M 37.301 38.04 L 37.301 47.262 L 36.252 47.262 L 36.252 38.04 L 37.302 38.04 Z M 41.676 47.406 C 41.107 47.406 40.604 47.261 40.169 46.97 C 39.733 46.676 39.392 46.261 39.146 45.727 C 38.9 45.19 38.777 44.555 38.777 43.822 C 38.777 43.096 38.9 42.465 39.146 41.931 C 39.392 41.397 39.734 40.984 40.173 40.693 C 40.612 40.402 41.119 40.256 41.693 40.256 C 42.138 40.256 42.489 40.331 42.747 40.481 C 43.008 40.628 43.206 40.796 43.343 40.985 C 43.482 41.171 43.59 41.325 43.667 41.445 L 43.756 41.445 L 43.756 38.04 L 44.805 38.04 L 44.805 47.262 L 43.792 47.262 L 43.792 46.2 L 43.667 46.2 C 43.564 46.363 43.455 46.523 43.338 46.677 C 43.196 46.866 42.993 47.036 42.729 47.186 C 42.466 47.333 42.114 47.406 41.676 47.406 Z M 41.818 46.452 C 42.239 46.452 42.594 46.341 42.885 46.119 C 43.176 45.893 43.396 45.583 43.547 45.187 C 43.698 44.787 43.774 44.326 43.774 43.804 C 43.774 43.288 43.7 42.836 43.551 42.449 C 43.404 42.059 43.184 41.755 42.893 41.539 C 42.603 41.32 42.245 41.21 41.818 41.21 C 41.373 41.21 41.003 41.326 40.706 41.557 C 40.413 41.786 40.192 42.096 40.044 42.489 C 39.899 42.88 39.827 43.318 39.827 43.804 C 39.827 44.297 39.901 44.744 40.049 45.146 C 40.2 45.545 40.422 45.864 40.715 46.101 C 41.012 46.335 41.379 46.452 41.818 46.452 Z M 51.05 44.435 L 51.05 40.345 L 52.099 40.345 L 52.099 47.262 L 51.05 47.262 L 51.05 46.091 L 50.979 46.091 C 50.819 46.442 50.57 46.741 50.232 46.987 C 49.894 47.23 49.467 47.352 48.952 47.352 C 48.525 47.352 48.146 47.257 47.814 47.068 C 47.482 46.876 47.221 46.588 47.031 46.204 C 46.842 45.816 46.747 45.329 46.747 44.74 L 46.747 40.345 L 47.796 40.345 L 47.796 44.668 C 47.796 45.172 47.935 45.575 48.214 45.875 C 48.496 46.175 48.854 46.325 49.29 46.325 C 49.551 46.325 49.816 46.258 50.085 46.123 C 50.358 45.988 50.586 45.781 50.77 45.501 C 50.957 45.222 51.05 44.866 51.05 44.434 Z M 54.944 43.102 L 54.944 47.262 L 53.895 47.262 L 53.895 40.346 L 54.909 40.346 L 54.909 41.426 L 54.998 41.426 C 55.155 41.079 55.408 40.785 55.727 40.58 C 56.053 40.364 56.473 40.256 56.989 40.256 C 57.452 40.256 57.856 40.352 58.203 40.544 C 58.55 40.733 58.819 41.022 59.012 41.409 C 59.205 41.793 59.301 42.279 59.301 42.867 L 59.301 47.262 L 58.252 47.262 L 58.252 42.939 C 58.252 42.396 58.112 41.973 57.834 41.67 C 57.555 41.363 57.173 41.21 56.687 41.21 C 56.352 41.21 56.053 41.284 55.789 41.431 C 55.526 41.581 55.311 41.804 55.171 42.075 C 55.02 42.358 54.944 42.7 54.944 43.102 Z M 63.849 50 C 63.342 50 62.906 49.934 62.542 49.802 C 62.177 49.673 61.873 49.502 61.63 49.289 C 61.405 49.096 61.211 48.868 61.057 48.613 L 61.893 48.019 C 61.987 48.145 62.107 48.289 62.253 48.451 C 62.398 48.616 62.596 48.759 62.849 48.879 C 63.103 49.002 63.437 49.063 63.849 49.063 C 64.4 49.063 64.854 48.929 65.213 48.658 C 65.572 48.388 65.751 47.965 65.751 47.388 L 65.751 45.984 L 65.662 45.984 C 65.585 46.109 65.475 46.266 65.333 46.452 C 65.194 46.635 64.993 46.799 64.729 46.943 C 64.468 47.084 64.115 47.154 63.671 47.154 C 63.119 47.154 62.625 47.022 62.186 46.758 C 61.751 46.494 61.405 46.109 61.15 45.605 C 60.898 45.101 60.772 44.489 60.772 43.768 C 60.772 43.06 60.895 42.443 61.141 41.917 C 61.388 41.389 61.73 40.981 62.168 40.693 C 62.607 40.402 63.114 40.256 63.689 40.256 C 64.133 40.256 64.486 40.331 64.746 40.481 C 65.01 40.628 65.212 40.796 65.351 40.985 C 65.493 41.171 65.603 41.325 65.68 41.445 L 65.787 41.445 L 65.787 40.346 L 66.8 40.346 L 66.8 47.46 C 66.8 48.055 66.667 48.538 66.4 48.91 C 66.136 49.286 65.781 49.56 65.333 49.735 C 64.889 49.912 64.394 50 63.849 50 Z M 63.813 46.2 C 64.234 46.2 64.589 46.102 64.88 45.907 C 65.17 45.712 65.391 45.431 65.542 45.065 C 65.693 44.699 65.769 44.26 65.769 43.75 C 65.769 43.252 65.695 42.812 65.547 42.431 C 65.399 42.05 65.179 41.751 64.889 41.535 C 64.598 41.319 64.24 41.21 63.813 41.21 C 63.368 41.21 62.998 41.325 62.702 41.553 C 62.408 41.781 62.187 42.087 62.039 42.471 C 61.894 42.856 61.822 43.282 61.822 43.75 C 61.822 44.23 61.896 44.655 62.044 45.024 C 62.195 45.391 62.417 45.679 62.71 45.889 C 63.007 46.096 63.374 46.2 63.813 46.2 Z M 74.853 47.406 C 74.195 47.406 73.628 47.259 73.151 46.965 C 72.677 46.668 72.311 46.254 72.053 45.722 C 71.798 45.188 71.671 44.567 71.671 43.858 C 71.671 43.15 71.798 42.526 72.053 41.985 C 72.311 41.442 72.67 41.018 73.129 40.715 C 73.591 40.409 74.131 40.256 74.747 40.256 C 75.102 40.256 75.453 40.316 75.8 40.436 C 76.154 40.56 76.477 40.76 76.747 41.022 C 77.032 41.289 77.258 41.643 77.427 42.084 C 77.596 42.526 77.681 43.069 77.681 43.714 L 77.681 44.164 L 72.417 44.164 L 72.417 43.246 L 76.614 43.246 C 76.614 42.856 76.537 42.507 76.382 42.201 C 76.238 41.902 76.013 41.651 75.734 41.476 C 75.455 41.299 75.126 41.21 74.747 41.21 C 74.329 41.21 73.967 41.315 73.662 41.526 C 73.363 41.729 73.122 42.009 72.964 42.336 C 72.801 42.669 72.718 43.036 72.72 43.408 L 72.72 44.02 C 72.72 44.543 72.809 44.985 72.987 45.349 C 73.167 45.709 73.418 45.984 73.738 46.173 C 74.058 46.359 74.43 46.452 74.853 46.452 C 75.129 46.452 75.378 46.413 75.6 46.335 C 75.818 46.259 76.016 46.136 76.183 45.975 C 76.346 45.812 76.471 45.611 76.56 45.371 L 77.574 45.659 C 77.469 46.005 77.285 46.32 77.036 46.578 C 76.784 46.839 76.473 47.043 76.103 47.19 C 75.732 47.334 75.316 47.406 74.853 47.406 Z M 79.916 47.334 C 79.697 47.334 79.508 47.255 79.351 47.096 C 79.198 46.946 79.113 46.739 79.116 46.524 C 79.116 46.302 79.194 46.111 79.351 45.952 C 79.499 45.797 79.703 45.71 79.916 45.713 C 80.135 45.713 80.323 45.793 80.481 45.952 C 80.638 46.111 80.716 46.302 80.716 46.524 C 80.716 46.671 80.679 46.806 80.605 46.929 C 80.535 47.051 80.436 47.153 80.316 47.226 C 80.195 47.299 80.057 47.336 79.916 47.334 Z M 82.989 38.04 L 85.692 45.803 L 85.798 45.803 L 88.501 38.04 L 89.657 38.04 L 86.314 47.262 L 85.176 47.262 L 81.833 38.04 Z M 90.362 47.334 C 90.143 47.334 89.954 47.255 89.797 47.096 C 89.644 46.946 89.559 46.739 89.562 46.524 C 89.562 46.302 89.64 46.111 89.797 45.952 C 89.945 45.797 90.149 45.71 90.362 45.713 C 90.581 45.713 90.769 45.793 90.926 45.952 C 91.084 46.111 91.162 46.302 91.162 46.524 C 91.162 46.671 91.125 46.806 91.051 46.929 C 90.981 47.051 90.881 47.154 90.762 47.226 C 90.641 47.299 90.503 47.336 90.362 47.334 Z" fill="rgb(32, 73, 122)"></path></g></svg>