<svg width="1640" height="977" viewBox="0 0 1640 977" fill="none" xmlns="http://www.w3.org/2000/svg">
<path d="M466.11 356.445C466.11 376.307 468.268 392.412 472.044 404.222C476.36 416.032 481.755 428.915 489.307 442.872C492.005 447.167 493.084 451.461 493.084 455.219C493.084 460.587 489.847 465.955 482.833 471.323L448.847 493.869C443.991 497.09 439.136 498.701 434.82 498.701C429.426 498.701 424.031 496.017 418.636 491.185C411.083 483.133 404.61 474.544 399.215 465.955C393.82 456.829 388.426 446.63 382.491 434.283C340.412 483.67 287.544 508.363 223.886 508.363C178.57 508.363 142.426 495.48 115.991 469.713C89.5572 443.946 76.0703 409.59 76.0703 366.645C76.0703 321.016 92.2545 283.975 125.162 256.061C158.07 228.147 201.768 214.19 257.333 214.19C275.676 214.19 294.557 215.8 314.518 218.484C334.478 221.168 354.978 225.463 376.557 230.294V191.107C376.557 150.309 367.926 121.858 351.202 105.217C333.939 88.5755 304.807 80.5233 263.268 80.5233C244.386 80.5233 224.965 82.6705 205.005 87.5018C185.044 92.3332 165.623 98.2381 146.741 105.754C138.11 109.511 131.636 111.658 127.86 112.732C124.083 113.806 121.386 114.343 119.228 114.343C111.676 114.343 107.899 108.974 107.899 97.7013V71.3975C107.899 62.8084 108.978 56.3667 111.676 52.609C114.373 48.8513 119.228 45.0936 126.781 41.3359C145.662 31.6733 168.32 23.6211 194.755 17.1793C221.189 10.2008 249.241 6.97988 278.912 6.97988C343.11 6.97988 390.044 21.4738 420.255 50.4617C449.926 79.4497 465.031 123.468 465.031 182.518V356.445H466.11ZM247.083 438.041C264.886 438.041 283.228 434.82 302.649 428.378C322.07 421.936 339.333 410.127 353.899 394.022C362.531 383.823 369.005 372.55 372.241 359.666C375.478 346.783 377.636 331.215 377.636 312.963V290.417C361.991 286.66 345.268 283.439 328.005 281.291C310.741 279.144 294.018 278.071 277.294 278.071C241.149 278.071 214.715 285.049 196.912 299.543C179.11 314.037 170.478 334.436 170.478 361.277C170.478 386.507 176.952 405.295 190.439 418.179C203.386 431.599 222.268 438.041 247.083 438.041ZM680.281 496.017C670.57 496.017 664.097 494.406 659.781 490.649C655.465 487.428 651.689 479.912 648.452 469.713L521.676 54.7562C518.439 44.02 516.82 37.0414 516.82 33.2837C516.82 24.6947 521.136 19.8634 529.768 19.8634H582.636C592.886 19.8634 599.899 21.4738 603.676 25.2315C607.991 28.4524 611.228 35.9678 614.465 46.1672L705.097 401.538L789.255 46.1672C791.952 35.431 795.189 28.4524 799.505 25.2315C803.82 22.0106 811.373 19.8634 821.083 19.8634H864.241C874.491 19.8634 881.505 21.4738 885.82 25.2315C890.136 28.4524 893.912 35.9678 896.07 46.1672L981.307 405.832L1074.64 46.1672C1077.87 35.431 1081.65 28.4524 1085.43 25.2315C1089.74 22.0106 1096.75 19.8634 1106.47 19.8634H1156.64C1165.27 19.8634 1170.12 24.1579 1170.12 33.2837C1170.12 35.9678 1169.58 38.6519 1169.04 41.8727C1168.5 45.0936 1167.43 49.3881 1165.27 55.2931L1035.25 470.25C1032.02 480.986 1028.24 487.964 1023.93 491.185C1019.61 494.406 1012.6 496.553 1003.43 496.553H957.031C946.781 496.553 939.768 494.943 935.452 491.185C931.136 487.428 927.36 480.449 925.202 469.713L841.583 123.468L758.505 469.176C755.807 479.912 752.57 486.891 748.255 490.649C743.939 494.406 736.386 496.017 726.676 496.017H680.281ZM1373.5 510.511C1345.45 510.511 1317.4 507.29 1290.43 500.848C1263.45 494.406 1242.41 487.428 1228.39 479.375C1219.75 474.544 1213.82 469.176 1211.66 464.345C1209.5 459.513 1208.43 454.145 1208.43 449.314V421.936C1208.43 410.663 1212.74 405.295 1220.83 405.295C1224.07 405.295 1227.31 405.832 1230.54 406.906C1233.78 407.979 1238.64 410.127 1244.03 412.274C1262.37 420.326 1282.33 426.768 1303.37 431.062C1324.95 435.357 1345.99 437.504 1367.57 437.504C1401.56 437.504 1427.99 431.599 1446.33 419.789C1464.68 407.979 1474.39 390.801 1474.39 368.792C1474.39 353.761 1469.53 341.414 1459.82 331.215C1450.11 321.016 1431.77 311.89 1405.33 303.301L1327.11 279.144C1287.73 266.797 1258.6 248.546 1240.79 224.389C1222.99 200.769 1213.82 174.466 1213.82 146.551C1213.82 124.005 1218.68 104.143 1228.39 86.965C1238.1 69.787 1251.04 54.7562 1267.23 42.9464C1283.41 30.5997 1301.75 21.4738 1323.33 15.0321C1344.91 8.59032 1367.57 5.90625 1391.31 5.90625C1403.18 5.90625 1415.58 6.44306 1427.45 8.0535C1439.86 9.66394 1451.19 11.8112 1462.52 13.9584C1473.31 16.6425 1483.56 19.3266 1493.27 22.5475C1502.98 25.7683 1510.53 28.9892 1515.93 32.2101C1523.48 36.5046 1528.87 40.7991 1532.11 45.6304C1535.35 49.9249 1536.97 55.8299 1536.97 63.3453V88.5755C1536.97 99.8485 1532.65 105.754 1524.56 105.754C1520.24 105.754 1513.23 103.606 1504.06 99.3117C1473.31 85.3546 1438.78 78.376 1400.48 78.376C1369.73 78.376 1345.45 83.2073 1328.73 93.4068C1312 103.606 1303.37 119.174 1303.37 141.183C1303.37 156.214 1308.77 169.097 1319.56 179.297C1330.35 189.496 1350.31 199.696 1378.9 208.822L1455.5 232.978C1494.35 245.325 1522.4 262.503 1539.12 284.512C1555.85 306.522 1563.94 331.752 1563.94 359.666C1563.94 382.749 1559.08 403.685 1549.91 421.936C1540.2 440.188 1527.25 456.293 1510.53 469.176C1493.81 482.596 1473.85 492.259 1450.65 499.238C1426.37 506.753 1401.02 510.511 1373.5 510.511Z" fill="#FFFFFF"/>
<path fill-rule="evenodd" clip-rule="evenodd" d="M1475.46 771.404C1297.98 901.849 1040.11 971.098 818.383 971.098C507.646 971.098 227.66 856.757 16.1859 666.725C-0.537803 651.694 14.5675 631.295 34.528 643.105C263.265 775.161 545.41 855.146 837.265 855.146C1034.17 855.146 1250.5 814.349 1449.57 730.606C1479.24 717.185 1504.59 749.931 1475.46 771.404Z" fill="#FF9900"/>
<path fill-rule="evenodd" clip-rule="evenodd" d="M1549.37 687.66C1526.71 658.672 1399.39 673.702 1341.67 680.681C1324.41 682.828 1321.71 667.798 1337.35 656.524C1438.77 585.665 1605.47 606.064 1624.89 629.684C1644.31 653.84 1619.5 819.716 1524.55 899.164C1509.99 911.511 1495.96 905.069 1502.43 888.965C1524.01 835.82 1572.02 716.111 1549.37 687.66Z" fill="#FF9900"/>
</svg>
