<svg width="458" height="150" viewBox="0 0 458 150" fill="none" xmlns="http://www.w3.org/2000/svg">
<rect width="457.226" height="149.414" rx="74.7071" fill="#FF383C"/>
<path d="M116.291 42.5305V55.5568H93.8696V68.5042H115.343V81.5305H93.8696V94.6358H116.291V107.662H79.0275V42.5305H116.291ZM145.192 107.662L117.876 42.5305H134.613L151.034 85.32L167.455 42.5305H184.192L156.876 107.662H145.192ZM223.995 42.5305V55.5568H201.574V68.5042H223.048V81.5305H201.574V94.6358H223.995V107.662H186.732V42.5305H223.995ZM247.37 67.241V107.662H232.528V42.5305H247.37L273.265 82.9516H273.423V42.5305H288.265V107.662H273.423L247.528 67.241H247.37ZM289.869 55.5568V42.5305H335.659V55.5568H320.185V107.662H305.343V55.5568H289.869ZM365.004 41.3462C376.846 41.3462 385.214 47.5041 385.214 47.5041L379.214 59.3463C379.214 59.3463 372.74 54.8463 366.03 54.8463C360.977 54.8463 358.293 57.1357 358.293 60.6884C358.293 64.32 364.451 66.9252 371.872 70.0831C379.135 73.1621 387.109 79.32 387.109 87.8463C387.109 103.399 375.267 108.846 362.556 108.846C347.319 108.846 338.082 100.241 338.082 100.241L345.504 87.7674C345.504 87.7674 354.188 95.1095 361.451 95.1095C364.688 95.1095 370.846 94.7937 370.846 88.7147C370.846 83.9779 363.898 81.8463 356.161 77.9779C348.346 74.1094 343.767 68.0305 343.767 61.241C343.767 49.0831 354.504 41.3462 365.004 41.3462Z" fill="white"/>
</svg>
