<svg width="4473" height="500" viewBox="0 0 4473 500" fill="none" xmlns="http://www.w3.org/2000/svg">
<path d="M4275.13 394.738H4472.83V491.23H4275.13V394.738Z" fill="white"/>
<path d="M4126.82 491.219H4008.69L3973.02 394.728H3789.39L3753.72 491.219H3635.59L3830.33 8.7627H3932.08L4126.82 491.219ZM4254.66 491.218H4146.47V8.76172H4254.66V491.218ZM3881.2 177.566C3881.2 177.566 3875.54 213.658 3860.2 228.998C3844.89 244.313 3808.89 249.977 3808.77 249.996C3808.9 250.016 3844.89 255.681 3860.2 270.994C3875.52 286.314 3881.19 322.326 3881.2 322.425C3881.22 322.324 3886.88 286.313 3902.2 270.994C3917.52 255.677 3953.52 250.013 3953.63 249.996C3953.55 249.983 3917.52 244.32 3902.2 228.998C3886.86 213.658 3881.2 177.566 3881.2 177.566Z" fill="url(#paint0_linear_602_1554)"/>
<path d="M3617.1 8.76953V491.226H3507.16V8.76953H3617.1Z" fill="white"/>
<path d="M3323.57 391.813C3379.71 391.813 3418.31 361.988 3418.31 361.988L3465.09 455.556C3465.09 455.556 3411.29 500 3306.61 500C3170.35 500 3045.21 388.889 3045.21 250.877C3045.21 112.281 3169.77 0 3306.61 0C3411.29 0 3465.09 44.4444 3465.09 44.4444L3418.31 138.012C3418.31 138.012 3379.71 108.187 3323.57 108.187C3213.04 108.187 3164.51 185.38 3164.51 249.708C3164.51 314.62 3213.04 391.813 3323.57 391.813Z" fill="white"/>
<path d="M2532.38 249.708C2532.38 108.772 2642.91 0 2775.65 0C2909.57 0 3018.34 108.772 3018.34 249.708C3018.34 390.643 2914.25 500 2775.65 500C2632.96 500 2532.38 390.643 2532.38 249.708ZM2651.09 249.708C2651.09 321.637 2685.6 393.567 2775.65 393.567C2863.37 393.567 2899.63 321.637 2899.63 249.708C2899.63 177.778 2861.03 105.848 2775.65 105.848C2690.86 105.848 2651.09 177.778 2651.09 249.708Z" fill="white"/>
<path d="M2338.88 0C2426.6 0 2488.58 45.614 2488.58 45.614L2444.14 133.333C2444.14 133.333 2396.19 100 2346.48 100C2309.05 100 2289.17 116.959 2289.17 143.275C2289.17 170.175 2334.78 189.474 2389.75 212.866C2443.55 235.673 2502.62 281.287 2502.62 344.444C2502.62 459.649 2414.9 500 2320.75 500C2207.88 500 2139.46 436.257 2139.46 436.257L2194.43 343.86C2194.43 343.86 2258.76 398.246 2312.56 398.246C2336.54 398.246 2382.15 395.906 2382.15 350.877C2382.15 315.79 2330.69 300 2273.38 271.345C2215.48 242.69 2181.57 197.661 2181.57 147.368C2181.57 57.3099 2261.1 0 2338.88 0Z" fill="white"/>
<path d="M1880.99 491.071L1857.78 200H1854.8L1754.2 488.095H1687.54L1586.94 200H1583.97L1560.75 491.071H1448.85L1492.9 0H1611.94L1720.87 283.333L1829.8 0H1948.85L1992.89 491.071H1880.99Z" fill="white"/>
<path d="M1409.49 0V316.667C1409.49 438.095 1342.82 500 1217.82 500C1092.82 500 1026.15 438.095 1026.15 316.667V0H1138.06V283.929C1138.06 366.071 1163.06 389.881 1217.82 389.881C1272.58 389.881 1297.58 366.071 1297.58 283.929V0H1409.49Z" fill="white"/>
<path d="M646.566 98.2143V0H991.804V98.2143H875.138V491.071H763.233V98.2143H646.566Z" fill="white"/>
<path d="M258.979 7.49249e-07C265.658 -5.8126e-05 268.998 -5.09877e-05 271.653 1.42285C273.887 2.61974 275.888 4.76351 276.928 7.07422C278.164 9.82136 277.949 12.9434 277.518 19.1865C272.903 85.9527 244.329 149.071 196.701 196.698C149.073 244.325 85.9538 272.899 19.1865 277.513C12.9434 277.944 9.82139 278.16 7.07422 276.924C4.7634 275.884 2.61979 273.882 1.42285 271.648C5.93988e-05 268.993 -5.80469e-05 265.653 7.34231e-07 258.975L0.000977297 205.721C0.00103637 199.008 0.000642049 195.652 1.14551 193.223C2.22572 190.93 3.6277 189.375 5.79688 188.065C8.09593 186.677 11.787 186.297 19.168 185.534C61.5938 181.152 101.459 162.322 131.892 131.89C162.324 101.458 181.155 61.5931 185.537 19.168C186.299 11.7871 186.68 8.09589 188.068 5.79688C189.378 3.62774 190.933 2.22571 193.226 1.14551C195.655 0.000675473 199.011 0.00103648 205.724 0.000977312L258.979 7.49249e-07Z" fill="white"/>
<path d="M7.52974e-07 241.024C-5.81234e-05 234.346 -8.02929e-05 231.006 1.42285 228.351C2.61977 226.117 4.76351 224.116 7.07422 223.076C9.82138 221.84 12.9434 222.056 19.1865 222.487C85.9539 227.101 149.073 255.675 196.701 303.302C244.329 350.929 272.904 414.047 277.518 480.813C277.949 487.056 278.164 490.178 276.928 492.925C275.888 495.236 273.887 497.38 271.653 498.577C268.998 500 265.658 500 258.979 500L205.724 499.999C199.011 499.999 195.655 499.999 193.226 498.854C190.933 497.774 189.379 496.371 188.069 494.202C186.681 491.903 186.299 488.213 185.537 480.832C181.155 438.407 162.324 398.542 131.892 368.11C101.459 337.678 61.5939 318.848 19.168 314.466C11.787 313.703 8.09593 313.322 5.79688 311.934C3.62796 310.624 2.22566 309.069 1.14551 306.777C0.00065526 304.348 0.00103649 300.991 0.000977315 294.279L7.52974e-07 241.024ZM0.00195388 435.099C0.00195388 399.261 29.0549 370.208 64.8936 370.208C100.732 370.208 129.786 399.26 129.786 435.099C129.786 470.937 100.732 499.989 64.8936 499.989C29.0549 499.989 0.0020365 470.937 0.00195388 435.099Z" fill="url(#paint1_linear_602_1554)"/>
<path d="M241.021 500C234.342 500 231.002 500 228.347 498.577C226.113 497.38 224.112 495.236 223.072 492.926C221.836 490.179 222.051 487.057 222.482 480.813C227.097 414.047 255.671 350.929 303.299 303.302C350.927 255.675 414.046 227.101 480.814 222.487C487.057 222.056 490.179 221.84 492.926 223.076C495.237 224.116 497.38 226.118 498.577 228.352C500 231.007 500 234.347 500 241.025L499.999 294.279C499.999 300.992 499.999 304.348 498.855 306.777C497.774 309.07 496.372 310.625 494.203 311.935C491.904 313.323 488.213 313.704 480.832 314.466C438.406 318.848 398.541 337.678 368.108 368.11C337.676 398.542 318.845 438.407 314.463 480.832C313.701 488.213 313.32 491.904 311.932 494.203C310.622 496.372 309.067 497.774 306.774 498.854C304.345 499.999 300.989 499.999 294.276 499.999L241.021 500ZM435.098 499.998C399.259 499.998 370.205 470.946 370.205 435.107C370.205 399.269 399.259 370.217 435.098 370.217C470.936 370.217 499.989 399.269 499.989 435.107C499.989 470.945 470.936 499.998 435.098 499.998Z" fill="white"/>
<path d="M294.272 0.00292969C300.984 0.00298932 304.341 0.00284774 306.77 1.14746C309.063 2.22769 310.618 3.63055 311.928 5.7998C313.316 8.09882 313.697 11.7891 314.46 19.1699C318.842 61.5949 337.672 101.46 368.104 131.892C398.537 162.324 438.403 181.154 480.829 185.536C488.21 186.298 491.9 186.68 494.199 188.068C496.368 189.378 497.771 190.932 498.851 193.225C499.996 195.654 499.996 199.011 499.996 205.723L499.997 258.978C499.997 265.656 499.997 268.996 498.574 271.651C497.377 273.885 495.233 275.886 492.922 276.926C490.175 278.162 487.053 277.946 480.81 277.515C414.043 272.901 350.922 244.327 303.295 196.7C255.667 149.073 227.093 85.9545 222.479 19.1885C222.048 12.9455 221.833 9.82424 223.069 7.07715C224.109 4.76631 226.11 2.62175 228.344 1.4248C230.999 0.00207135 234.339 0.00189378 241.017 0.00195312L294.272 0.00292969ZM435.108 0C435.108 35.8397 464.159 64.8905 500 64.8906C464.159 64.8908 435.105 93.9445 435.105 129.784C435.105 93.9445 406.046 64.8868 370.206 64.8867C406.046 64.8866 435.108 35.8397 435.108 0Z" fill="url(#paint2_linear_602_1554)"/>
<path d="M0.00683596 261.742C0.0021611 260.888 -8.71703e-06 259.968 2.63099e-08 258.975L0.000976589 205.721C0.000985733 204.682 0.00258294 203.723 0.00683596 202.836V261.742ZM258.979 7.49249e-07C265.658 -5.8126e-05 268.998 -5.09877e-05 271.653 1.42285C273.887 2.61974 275.888 4.76351 276.928 7.07422C278.164 9.82136 277.949 12.9434 277.518 19.1865C272.903 85.9527 244.329 149.071 196.701 196.698C196.574 196.825 196.446 196.951 196.319 197.077L131.509 132.268C131.636 132.141 131.765 132.016 131.892 131.89C162.324 101.458 181.155 61.5931 185.537 19.168C186.299 11.7871 186.68 8.09589 188.068 5.79688C189.378 3.62774 190.933 2.22571 193.226 1.14551C195.655 0.000675473 199.011 0.00103648 205.724 0.000977312L258.979 7.49249e-07Z" fill="white"/>
<ellipse cx="64.8997" cy="64.8908" rx="64.8918" ry="64.8908" fill="white"/>
<defs>
<linearGradient id="paint0_linear_602_1554" x1="3600.25" y1="246.943" x2="4254.66" y2="249.99" gradientUnits="userSpaceOnUse">
<stop offset="0.0817308" stop-color="#4A98FF"/>
<stop offset="1" stop-color="#4BFFC0"/>
</linearGradient>
<linearGradient id="paint1_linear_602_1554" x1="64.9098" y1="435.091" x2="446.587" y2="64.0776" gradientUnits="userSpaceOnUse">
<stop stop-color="#4A98FF"/>
<stop offset="1" stop-color="#4BFFC0"/>
</linearGradient>
<linearGradient id="paint2_linear_602_1554" x1="64.4907" y1="432.819" x2="434.068" y2="66.0014" gradientUnits="userSpaceOnUse">
<stop stop-color="#4A98FF"/>
<stop offset="1" stop-color="#4BFFC0"/>
</linearGradient>
</defs>
</svg>
