<svg width="5542" height="500" viewBox="0 0 5542 500" fill="none" xmlns="http://www.w3.org/2000/svg">
<path d="M5200.61 8.77344H5350.32C5433.36 8.77344 5498.86 39.7668 5498.86 131.577C5498.86 176.02 5479.56 214.031 5438.63 235.083C5498.86 245.609 5541.55 278.942 5541.55 356.717C5541.55 436.247 5483.66 491.217 5383.65 491.217H5200.61V8.77344ZM5310.56 197.657H5319.33C5366.7 197.657 5392.43 183.038 5392.43 142.688C5392.43 108.186 5367.28 93.5665 5319.33 93.5665H5310.56V197.657ZM5310.56 406.423H5345.06C5397.11 406.423 5425.76 390.634 5425.76 352.624C5425.76 308.181 5397.11 292.392 5345.06 292.392H5310.56V406.423Z" fill="#0A2D57"/>
<path d="M5136.2 4.39062V315.493C5136.2 434.788 5070.71 495.605 4947.9 495.605C4825.09 495.605 4759.59 434.788 4759.59 315.493V4.39062H4869.54V283.33C4869.54 364.03 4894.1 387.421 4947.9 387.421C5001.7 387.421 5026.26 364.03 5026.26 283.33V4.39062H5136.2Z" fill="#0A2D57"/>
<path d="M4544.73 8.77344V394.728H4710.82V491.217H4434.79V8.77344H4544.73Z" fill="#0A2D57"/>
<path d="M4251.2 391.806C4307.34 391.806 4345.94 361.982 4345.94 361.982L4392.72 455.547C4392.72 455.547 4338.92 499.99 4234.24 499.99C4097.98 499.99 3972.84 388.882 3972.84 250.874C3972.84 112.282 4097.4 0.00390625 4234.24 0.00390625C4338.92 0.00390625 4392.72 44.4471 4392.72 44.4471L4345.94 138.012C4345.94 138.012 4307.34 108.188 4251.2 108.188C4140.67 108.188 4092.13 185.379 4092.13 249.705C4092.13 314.615 4140.67 391.806 4251.2 391.806Z" fill="#0A2D57"/>
<path d="M3628.57 394.738H3826.27V491.23H3628.57V394.738Z" fill="#0A2D57"/>
<path d="M3480.25 491.219H3362.12L3326.45 394.728H3142.82L3107.15 491.219H2989.02L3183.76 8.7627H3285.51L3480.25 491.219ZM3608.09 491.218H3499.91V8.76172H3608.09V491.218ZM3234.64 177.566C3234.64 177.566 3228.98 213.658 3213.64 228.998C3198.32 244.313 3162.33 249.977 3162.21 249.996C3162.33 250.016 3198.32 255.681 3213.64 270.994C3228.96 286.314 3234.62 322.326 3234.64 322.425C3234.65 322.324 3240.32 286.313 3255.63 270.994C3270.95 255.677 3306.96 250.013 3307.06 249.996C3306.98 249.983 3270.96 244.32 3255.63 228.998C3240.29 213.658 3234.64 177.566 3234.64 177.566Z" fill="url(#paint0_linear_597_1229)"/>
<path d="M2970.54 8.76953V491.226H2860.59V8.76953H2970.54Z" fill="#0A2D57"/>
<path d="M2677 391.813C2733.14 391.813 2771.74 361.988 2771.74 361.988L2818.52 455.556C2818.52 455.556 2764.72 500 2660.04 500C2523.79 500 2398.64 388.889 2398.64 250.877C2398.64 112.281 2523.2 0 2660.04 0C2764.72 0 2818.52 44.4444 2818.52 44.4444L2771.74 138.012C2771.74 138.012 2733.14 108.187 2677 108.187C2566.48 108.187 2517.94 185.38 2517.94 249.708C2517.94 314.62 2566.48 391.813 2677 391.813Z" fill="#0A2D57"/>
<path d="M1885.81 249.708C1885.81 108.772 1996.34 0 2129.09 0C2263 0 2371.78 108.772 2371.78 249.708C2371.78 390.643 2267.68 500 2129.09 500C1986.4 500 1885.81 390.643 1885.81 249.708ZM2004.53 249.708C2004.53 321.637 2039.03 393.567 2129.09 393.567C2216.81 393.567 2253.06 321.637 2253.06 249.708C2253.06 177.778 2214.47 105.848 2129.09 105.848C2044.29 105.848 2004.53 177.778 2004.53 249.708Z" fill="#0A2D57"/>
<path d="M1692.31 0C1780.03 0 1842.02 45.614 1842.02 45.614L1797.57 133.333C1797.57 133.333 1749.62 100 1699.91 100C1662.49 100 1642.6 116.959 1642.6 143.275C1642.6 170.175 1688.22 189.474 1743.19 212.866C1796.99 235.673 1856.05 281.287 1856.05 344.444C1856.05 459.649 1768.33 500 1674.18 500C1561.32 500 1492.89 436.257 1492.89 436.257L1547.87 343.86C1547.87 343.86 1612.19 398.246 1665.99 398.246C1689.97 398.246 1735.58 395.906 1735.58 350.877C1735.58 315.79 1684.12 300 1626.81 271.345C1568.92 242.69 1535 197.661 1535 147.368C1535 57.3099 1614.53 0 1692.31 0Z" fill="#0A2D57"/>
<path d="M1234.42 491.071L1211.21 200H1208.23L1107.64 488.095H1040.97L940.376 200H937.4L914.186 491.071H802.281L846.329 0H965.376L1074.3 283.333L1183.23 0H1302.28L1346.33 491.071H1234.42Z" fill="#0A2D57"/>
<path d="M762.919 0V316.667C762.919 438.095 696.252 500 571.252 500C446.252 500 379.586 438.095 379.586 316.667V0H491.491V283.929C491.491 366.071 516.49 389.881 571.252 389.881C626.014 389.881 651.014 366.071 651.014 283.929V0H762.919Z" fill="#0A2D57"/>
<path d="M0 98.2143V0H345.238V98.2143H228.571V491.071H116.667V98.2143H0Z" fill="#0A2D57"/>
<defs>
<linearGradient id="paint0_linear_597_1229" x1="2953.68" y1="246.943" x2="3608.09" y2="249.99" gradientUnits="userSpaceOnUse">
<stop offset="0.0817308" stop-color="#4A98FF"/>
<stop offset="1" stop-color="#4BFFC0"/>
</linearGradient>
</defs>
</svg>
