<svg width="1297" height="500" viewBox="0 0 1297 500" fill="none" xmlns="http://www.w3.org/2000/svg">
<path d="M965.219 351.684H1010.13C1035.04 351.684 1054.69 360.982 1054.69 388.525C1054.69 401.858 1048.9 413.261 1036.62 419.577C1054.69 422.735 1067.5 432.735 1067.5 456.068C1067.5 479.927 1050.13 496.418 1020.13 496.418H965.219V351.684ZM998.201 408.349H1000.83C1015.04 408.349 1022.76 403.963 1022.76 391.858C1022.76 381.508 1015.22 377.122 1000.83 377.122H998.201V408.349ZM998.201 470.98H1008.55C1024.17 470.98 1032.76 466.243 1032.76 454.84C1032.76 441.507 1024.17 436.77 1008.55 436.77H998.201V470.98Z" fill="white"/>
<path d="M945.893 351.684V445.015C945.893 480.804 926.244 499.049 889.401 499.049C852.559 499.049 832.91 480.804 832.91 445.015V351.684H865.893V435.366C865.893 459.576 873.261 466.594 889.401 466.594C905.542 466.594 912.91 459.576 912.91 435.366V351.684H945.893Z" fill="white"/>
<path d="M768.451 351.684V467.471H818.276V496.418H735.469V351.684H768.451Z" fill="white"/>
<path d="M680.396 466.591C697.238 466.591 708.817 457.643 708.817 457.643L722.852 485.713C722.852 485.713 706.711 499.046 675.308 499.046C634.431 499.046 596.887 465.713 596.887 424.311C596.887 382.732 634.255 349.049 675.308 349.049C706.711 349.049 722.852 362.382 722.852 362.382L708.817 390.452C708.817 390.452 697.238 381.504 680.396 381.504C647.238 381.504 632.676 404.662 632.676 423.96C632.676 443.433 647.238 466.591 680.396 466.591Z" fill="white"/>
<path d="M1237.59 292.949H1296.9V321.897H1237.59V292.949Z" fill="white"/>
<path d="M1193.09 321.894H1157.66L1146.95 292.946H1091.87L1081.17 321.894H1045.73L1104.15 177.156H1134.67L1193.09 321.894ZM1231.45 321.894H1198.99V177.156H1231.45V321.894ZM1119.41 227.798C1119.4 227.869 1117.7 238.64 1113.11 243.227C1108.52 247.819 1097.73 249.519 1097.68 249.526C1097.73 249.533 1108.52 251.233 1113.11 255.825C1117.7 260.412 1119.4 271.184 1119.41 271.255C1119.42 271.184 1121.12 260.412 1125.71 255.825C1130.3 251.236 1141.08 249.535 1141.14 249.526C1141.08 249.518 1130.3 247.817 1125.71 243.227C1121.12 238.639 1119.42 227.868 1119.41 227.798Z" fill="url(#paint0_linear_597_1188)"/>
<path d="M1040.18 177.158V321.895H1007.2V177.158H1040.18Z" fill="white"/>
<path d="M952.118 292.071C968.96 292.071 980.539 283.124 980.539 283.124L994.574 311.194C994.574 311.194 978.434 324.527 947.03 324.527C906.153 324.527 868.609 291.194 868.609 249.791C868.609 208.212 905.978 174.527 947.03 174.527C978.434 174.527 994.574 187.861 994.574 187.861L980.539 215.931C980.539 215.931 968.96 206.983 952.118 206.983C918.96 206.983 904.399 230.141 904.399 249.44C904.399 268.913 918.96 292.071 952.118 292.071Z" fill="white"/>
<path d="M714.762 249.44C714.762 207.159 747.92 174.527 787.744 174.527C827.919 174.527 860.551 207.159 860.551 249.44C860.551 291.72 829.323 324.527 787.744 324.527C744.937 324.527 714.762 291.72 714.762 249.44ZM750.376 249.44C750.376 271.019 760.727 292.598 787.744 292.598C814.06 292.598 824.937 271.019 824.937 249.44C824.937 227.861 813.358 206.282 787.744 206.282C762.306 206.282 750.376 227.861 750.376 249.44Z" fill="white"/>
<path d="M656.711 174.527C683.027 174.527 701.623 188.212 701.623 188.212L688.29 214.527C688.29 214.527 673.904 204.527 658.992 204.527C647.764 204.527 641.799 209.615 641.799 217.51C641.799 225.58 655.483 231.369 671.974 238.387C688.115 245.229 705.834 258.913 705.834 277.861C705.834 312.422 679.518 324.527 651.273 324.527C617.413 324.527 596.887 305.405 596.887 305.405L613.378 277.685C613.378 277.685 632.676 294.001 648.816 294.001C656.009 294.001 669.694 293.299 669.694 279.791C669.694 269.264 654.255 264.527 637.062 255.931C619.694 247.334 609.518 233.826 609.518 218.738C609.518 191.72 633.378 174.527 656.711 174.527Z" fill="white"/>
<path d="M967.213 147.327L960.249 60.0059H959.356L929.178 146.434H909.178L878.999 60.0059H878.106L871.142 147.327H837.57L850.785 0.00585938H886.499L919.178 85.0059L951.856 0.00585938H987.571L1000.78 147.327H967.213Z" fill="white"/>
<path d="M825.766 0.00585938V95.0059C825.766 131.434 805.766 150.006 768.266 150.006C730.766 150.006 710.766 131.434 710.766 95.0059V0.00585938H744.337V85.1844C744.337 109.827 751.837 116.97 768.266 116.97C784.694 116.97 792.194 109.827 792.194 85.1844V0.00585938H825.766Z" fill="white"/>
<path d="M596.887 29.4701V0.00585938H700.458V29.4701H665.458V147.327H631.887V29.4701H596.887Z" fill="white"/>
<path d="M258.979 7.49249e-07C265.658 -5.8126e-05 268.998 -5.09877e-05 271.653 1.42285C273.887 2.61974 275.888 4.76351 276.928 7.07422C278.164 9.82136 277.949 12.9434 277.518 19.1865C272.903 85.9527 244.329 149.071 196.701 196.698C149.073 244.325 85.9538 272.899 19.1865 277.513C12.9434 277.944 9.82139 278.16 7.07422 276.924C4.7634 275.884 2.61979 273.882 1.42285 271.648C5.93988e-05 268.993 -5.80469e-05 265.653 7.34231e-07 258.975L0.000977297 205.721C0.00103637 199.008 0.000642049 195.652 1.14551 193.223C2.22572 190.93 3.6277 189.375 5.79688 188.065C8.09593 186.677 11.787 186.297 19.168 185.534C61.5938 181.152 101.459 162.322 131.892 131.89C162.324 101.458 181.155 61.5931 185.537 19.168C186.299 11.7871 186.68 8.09589 188.068 5.79688C189.378 3.62774 190.933 2.22571 193.226 1.14551C195.655 0.000675473 199.011 0.00103648 205.724 0.000977312L258.979 7.49249e-07Z" fill="white"/>
<path d="M7.52974e-07 241.028C-5.81234e-05 234.349 -8.02929e-05 231.01 1.42285 228.355C2.61977 226.121 4.76351 224.12 7.07422 223.08C9.82138 221.844 12.9434 222.06 19.1865 222.491C85.9539 227.105 149.073 255.679 196.701 303.306C244.329 350.933 272.904 414.051 277.518 480.817C277.949 487.06 278.164 490.182 276.928 492.929C275.888 495.24 273.887 497.384 271.653 498.581C268.998 500.004 265.658 500.004 258.979 500.004L205.724 500.003C199.011 500.003 195.655 500.003 193.226 498.858C190.933 497.778 189.379 496.375 188.069 494.206C186.681 491.907 186.299 488.217 185.537 480.836C181.155 438.411 162.324 398.546 131.892 368.114C101.459 337.682 61.5939 318.852 19.168 314.47C11.787 313.707 8.09593 313.326 5.79688 311.938C3.62796 310.628 2.22566 309.073 1.14551 306.781C0.00065526 304.352 0.00103649 300.995 0.000977315 294.283L7.52974e-07 241.028ZM0.00195388 435.103C0.00195388 399.264 29.0549 370.212 64.8936 370.212C100.732 370.212 129.786 399.264 129.786 435.103C129.786 470.941 100.732 499.993 64.8936 499.993C29.0549 499.993 0.0020365 470.941 0.00195388 435.103Z" fill="url(#paint1_linear_597_1188)"/>
<path d="M241.021 500.002C234.342 500.002 231.002 500.002 228.347 498.579C226.113 497.382 224.112 495.238 223.072 492.928C221.836 490.181 222.051 487.059 222.482 480.815C227.097 414.049 255.671 350.931 303.299 303.304C350.927 255.677 414.046 227.103 480.814 222.489C487.057 222.058 490.179 221.842 492.926 223.078C495.237 224.118 497.38 226.12 498.577 228.354C500 231.009 500 234.349 500 241.027L499.999 294.281C499.999 300.994 499.999 304.35 498.855 306.779C497.774 309.072 496.372 310.627 494.203 311.937C491.904 313.325 488.213 313.705 480.832 314.468C438.406 318.85 398.541 337.68 368.108 368.112C337.676 398.544 318.845 438.409 314.463 480.834C313.701 488.215 313.32 491.906 311.932 494.205C310.622 496.374 309.067 497.776 306.774 498.856C304.345 500.001 300.989 500.001 294.276 500.001L241.021 500.002ZM435.098 500C399.259 500 370.205 470.947 370.205 435.109C370.205 399.271 399.259 370.219 435.098 370.219C470.936 370.219 499.989 399.271 499.989 435.109C499.989 470.947 470.936 500 435.098 500Z" fill="white"/>
<path d="M294.272 0.00488281C300.984 0.00494245 304.341 0.00480087 306.77 1.14941C309.063 2.22965 310.618 3.6325 311.928 5.80176C313.316 8.10077 313.697 11.7911 314.46 19.1719C318.842 61.5969 337.672 101.462 368.104 131.894C398.537 162.326 438.403 181.156 480.829 185.538C488.21 186.3 491.9 186.682 494.199 188.07C496.368 189.38 497.771 190.934 498.851 193.227C499.996 195.656 499.996 199.013 499.996 205.725L499.997 258.979C499.997 265.658 499.997 268.998 498.574 271.653C497.377 273.887 495.233 275.888 492.922 276.928C490.175 278.164 487.053 277.948 480.81 277.517C414.043 272.903 350.922 244.329 303.295 196.702C255.667 149.075 227.093 85.9565 222.479 19.1904C222.048 12.9475 221.833 9.82619 223.069 7.0791C224.109 4.76826 226.11 2.6237 228.344 1.42676C230.999 0.00402447 234.339 0.00384691 241.017 0.00390625L294.272 0.00488281ZM435.108 0.00195312C435.108 35.8416 464.159 64.8924 500 64.8926C464.159 64.8928 435.105 93.9465 435.105 129.786C435.105 93.9464 406.046 64.8888 370.206 64.8887C406.046 64.8886 435.108 35.8416 435.108 0.00195312Z" fill="url(#paint2_linear_597_1188)"/>
<path d="M0.00683596 261.742C0.0021611 260.888 -8.71703e-06 259.968 2.63099e-08 258.975L0.000976589 205.721C0.000985733 204.682 0.00258294 203.723 0.00683596 202.836V261.742ZM258.979 7.49249e-07C265.658 -5.8126e-05 268.998 -5.09877e-05 271.653 1.42285C273.887 2.61974 275.888 4.76351 276.928 7.07422C278.164 9.82136 277.949 12.9434 277.518 19.1865C272.903 85.9527 244.329 149.071 196.701 196.698C196.574 196.825 196.446 196.951 196.319 197.077L131.509 132.268C131.636 132.141 131.765 132.016 131.892 131.89C162.324 101.458 181.155 61.5931 185.537 19.168C186.299 11.7871 186.68 8.09589 188.068 5.79688C189.378 3.62774 190.933 2.22571 193.226 1.14551C195.655 0.000675473 199.011 0.00103648 205.724 0.000977312L258.979 7.49249e-07Z" fill="white"/>
<ellipse cx="64.8997" cy="64.8927" rx="64.8918" ry="64.8908" fill="white"/>
<defs>
<linearGradient id="paint0_linear_597_1188" x1="1035.12" y1="248.611" x2="1231.45" y2="249.525" gradientUnits="userSpaceOnUse">
<stop offset="0.0817308" stop-color="#4A98FF"/>
<stop offset="1" stop-color="#4BFFC0"/>
</linearGradient>
<linearGradient id="paint1_linear_597_1188" x1="64.9098" y1="435.095" x2="446.587" y2="64.0815" gradientUnits="userSpaceOnUse">
<stop stop-color="#4A98FF"/>
<stop offset="1" stop-color="#4BFFC0"/>
</linearGradient>
<linearGradient id="paint2_linear_597_1188" x1="64.4907" y1="432.821" x2="434.068" y2="66.0034" gradientUnits="userSpaceOnUse">
<stop stop-color="#4A98FF"/>
<stop offset="1" stop-color="#4BFFC0"/>
</linearGradient>
</defs>
</svg>
