<svg width="4177" height="501" viewBox="0 0 4177 501" fill="none" xmlns="http://www.w3.org/2000/svg">
<path d="M259.525 0.5C266.204 0.499971 269.544 0.500007 272.199 1.92285C274.433 3.11973 276.433 5.26353 277.474 7.57422C278.71 10.3213 278.495 13.4434 278.063 19.6865C273.45 86.4527 244.876 149.571 197.248 197.198C149.62 244.825 86.5007 273.398 19.7334 278.012C13.4905 278.443 10.3692 278.658 7.62207 277.422C5.31121 276.382 3.16669 274.381 1.96973 272.147C0.546963 269.492 0.546846 266.152 0.546875 259.474L0.547852 206.22C0.547881 199.507 0.547537 196.151 1.69238 193.722C2.77259 191.429 4.17458 189.874 6.34375 188.564C8.64281 187.176 12.3338 186.796 19.7148 186.033C62.1407 181.651 102.006 162.82 132.438 132.389C162.871 101.957 181.701 62.092 186.083 19.667C186.845 12.2863 187.227 8.59586 188.615 6.29688C189.925 4.12788 191.479 2.72567 193.771 1.64551C196.201 0.500659 199.558 0.50003 206.271 0.5H259.525Z" fill="white"/>
<path d="M0.547852 241.526C0.547822 234.847 0.547758 231.508 1.9707 228.853C3.16761 226.619 5.31134 224.618 7.62207 223.578C10.3692 222.342 13.4912 222.557 19.7344 222.988C86.5018 227.602 149.621 256.176 197.249 303.803C244.877 351.43 273.451 414.548 278.064 481.314C278.496 487.557 278.711 490.679 277.475 493.426C276.434 495.737 274.434 497.88 272.2 499.077C269.545 500.5 266.205 500.5 259.526 500.5H206.27C199.558 500.5 196.202 500.5 193.772 499.355C191.48 498.275 189.925 496.872 188.615 494.703C187.227 492.404 186.846 488.714 186.084 481.333C181.702 438.908 162.872 399.043 132.439 368.611C102.007 338.18 62.1416 319.35 19.7158 314.968C12.3348 314.205 8.64379 313.824 6.34473 312.436C4.17553 311.126 2.77358 309.571 1.69336 307.278C0.548616 304.849 0.547882 301.493 0.547852 294.781V241.526ZM0.546875 435.601C0.546875 399.762 29.5998 370.71 65.4385 370.71C101.277 370.71 130.331 399.762 130.331 435.601C130.331 471.439 101.277 500.491 65.4385 500.491C29.5999 500.491 0.546958 471.439 0.546875 435.601Z" fill="url(#paint0_linear_225_728)"/>
<path d="M241.568 500.499C234.889 500.499 231.55 500.499 228.895 499.076C226.661 497.879 224.66 495.735 223.62 493.425C222.384 490.678 222.599 487.556 223.03 481.312C227.644 414.546 256.218 351.428 303.846 303.801C351.473 256.174 414.593 227.601 481.36 222.987C487.603 222.556 490.725 222.341 493.472 223.577C495.783 224.617 497.927 226.618 499.124 228.852C500.547 231.507 500.547 234.847 500.547 241.525L500.547 294.779C500.547 301.492 500.546 304.848 499.401 307.277C498.321 309.57 496.919 311.125 494.75 312.435C492.451 313.823 488.76 314.204 481.379 314.966C438.953 319.348 399.088 338.179 368.655 368.61C338.223 399.042 319.393 438.907 315.011 481.332C314.248 488.713 313.867 492.403 312.479 494.702C311.169 496.871 309.614 498.273 307.322 499.353C304.893 500.498 301.536 500.499 294.823 500.499L241.568 500.499ZM435.646 500.5C399.807 500.5 370.753 471.447 370.753 435.609C370.753 399.771 399.807 370.719 435.646 370.719C471.484 370.719 500.537 399.771 500.537 435.609C500.537 471.447 471.484 500.5 435.646 500.5Z" fill="white"/>
<path d="M294.819 0.503906C301.532 0.503936 304.889 0.503589 307.318 1.64844C309.611 2.72866 311.165 4.13158 312.475 6.30078C313.863 8.5998 314.245 12.29 315.007 19.6709C319.389 62.096 338.219 101.961 368.651 132.393C399.084 162.824 438.949 181.654 481.375 186.036C488.756 186.798 492.447 187.18 494.746 188.568C496.915 189.878 498.317 191.433 499.397 193.726C500.542 196.155 500.542 199.512 500.542 206.224L500.543 259.478C500.543 266.156 500.543 269.496 499.12 272.151C497.923 274.385 495.779 276.386 493.468 277.426C490.721 278.662 487.599 278.447 481.356 278.016C414.589 273.402 351.469 244.828 303.842 197.201C256.214 149.574 227.64 86.4557 223.026 19.6895C222.595 13.4466 222.38 10.3252 223.616 7.57812C224.656 5.26733 226.657 3.12369 228.891 1.92676C231.546 0.503839 234.885 0.503876 241.564 0.503906H294.819ZM435.657 0.5C435.657 36.3397 464.708 65.3905 500.549 65.3906C464.708 65.3908 435.654 94.4445 435.654 130.284C435.654 94.4445 406.595 65.3868 370.755 65.3867C406.595 65.3866 435.657 36.3397 435.657 0.5Z" fill="url(#paint1_linear_225_728)"/>
<path d="M0.552734 262.138C0.548599 261.313 0.546871 260.427 0.546875 259.474L0.547852 206.22C0.547856 205.231 0.549075 204.315 0.552734 203.465V262.138ZM259.525 0.5C266.204 0.499971 269.544 0.500007 272.199 1.92285C274.433 3.11973 276.433 5.26353 277.474 7.57422C278.71 10.3213 278.495 13.4434 278.063 19.6865C273.45 86.4527 244.876 149.571 197.248 197.198C197.122 197.325 196.994 197.45 196.867 197.576L132.057 132.766C132.183 132.64 132.312 132.515 132.438 132.389C162.871 101.957 181.701 62.092 186.083 19.667C186.845 12.2863 187.227 8.59586 188.615 6.29688C189.925 4.12788 191.479 2.72567 193.771 1.64551C196.201 0.500659 199.558 0.50003 206.271 0.5H259.525Z" fill="white"/>
<ellipse cx="65.4465" cy="65.3908" rx="64.8918" ry="64.8908" fill="white"/>
<path d="M1059.97 0.5V408.395H1165.23V0.5H1652.07V500.5H1559.97V92.6053H1454.7V500.5H1362.6V92.6053H1257.34V500.5H967.863V92.6053H875.757V500.5H783.652V92.6053H691.547V0.5H1059.97Z" fill="white"/>
<path d="M3978.74 395.238H4176.44V491.73H3978.74V395.238Z" fill="white"/>
<path d="M3830.43 491.719H3712.3L3676.63 395.228H3493L3457.33 491.719H3339.2L3533.94 9.2627H3635.69L3830.43 491.719ZM3958.27 491.718H3850.09V9.26172H3958.27V491.718ZM3584.82 178.066C3584.82 178.066 3579.16 214.158 3563.82 229.498C3548.5 244.813 3512.51 250.477 3512.39 250.496C3512.51 250.516 3548.5 256.181 3563.82 271.494C3579.14 286.814 3584.8 322.826 3584.82 322.925C3584.83 322.824 3590.49 286.813 3605.81 271.494C3621.13 256.177 3657.14 250.513 3657.24 250.496C3657.16 250.483 3621.14 244.82 3605.81 229.498C3590.47 214.158 3584.82 178.066 3584.82 178.066Z" fill="url(#paint2_linear_225_728)"/>
<path d="M3320.71 9.26953V491.726H3210.77V9.26953H3320.71Z" fill="white"/>
<path d="M3027.18 392.313C3083.32 392.313 3121.92 362.488 3121.92 362.488L3168.7 456.056C3168.7 456.056 3114.9 500.5 3010.22 500.5C2873.97 500.5 2748.82 389.389 2748.82 251.377C2748.82 112.781 2873.38 0.5 3010.22 0.5C3114.9 0.5 3168.7 44.9444 3168.7 44.9444L3121.92 138.512C3121.92 138.512 3083.32 108.687 3027.18 108.687C2916.66 108.687 2868.12 185.88 2868.12 250.208C2868.12 315.12 2916.66 392.313 3027.18 392.313Z" fill="white"/>
<path d="M2235.99 250.208C2235.99 109.272 2346.52 0.5 2479.27 0.5C2613.18 0.5 2721.96 109.272 2721.96 250.208C2721.96 391.143 2617.86 500.5 2479.27 500.5C2336.58 500.5 2235.99 391.143 2235.99 250.208ZM2354.71 250.208C2354.71 322.137 2389.21 394.067 2479.27 394.067C2566.99 394.067 2603.24 322.137 2603.24 250.208C2603.24 178.278 2564.65 106.348 2479.27 106.348C2394.47 106.348 2354.71 178.278 2354.71 250.208Z" fill="white"/>
<path d="M2042.49 0.5C2130.2 0.5 2192.19 46.114 2192.19 46.114L2147.75 133.833C2147.75 133.833 2099.8 100.5 2050.09 100.5C2012.66 100.5 1992.78 117.459 1992.78 143.775C1992.78 170.675 2038.39 189.974 2093.36 213.366C2147.16 236.173 2206.23 281.787 2206.23 344.944C2206.23 460.149 2118.51 500.5 2024.36 500.5C1911.49 500.5 1843.07 436.757 1843.07 436.757L1898.04 344.36C1898.04 344.36 1962.37 398.746 2016.17 398.746C2040.15 398.746 2085.76 396.406 2085.76 351.377C2085.76 316.29 2034.3 300.5 1976.99 271.845C1919.09 243.19 1885.18 198.161 1885.18 147.868C1885.18 57.8099 1964.71 0.5 2042.49 0.5Z" fill="white"/>
<defs>
<linearGradient id="paint0_linear_225_728" x1="65.4567" y1="435.591" x2="447.132" y2="64.5778" gradientUnits="userSpaceOnUse">
<stop stop-color="#4A98FF"/>
<stop offset="1" stop-color="#4BFFC0"/>
</linearGradient>
<linearGradient id="paint1_linear_225_728" x1="65.0365" y1="433.32" x2="434.614" y2="66.4997" gradientUnits="userSpaceOnUse">
<stop stop-color="#4A98FF"/>
<stop offset="1" stop-color="#4BFFC0"/>
</linearGradient>
<linearGradient id="paint2_linear_225_728" x1="3303.86" y1="247.443" x2="3958.27" y2="250.49" gradientUnits="userSpaceOnUse">
<stop offset="0.0817308" stop-color="#4A98FF"/>
<stop offset="1" stop-color="#4BFFC0"/>
</linearGradient>
</defs>
</svg>
