<svg width="6189" height="859" viewBox="0 0 6189 859" fill="none" xmlns="http://www.w3.org/2000/svg">
<path d="M5847.18 8.77344H5996.89C6079.93 8.77344 6145.43 39.7668 6145.43 131.577C6145.43 176.02 6126.13 214.031 6085.19 235.083C6145.43 245.609 6188.12 278.942 6188.12 356.717C6188.12 436.247 6130.22 491.217 6030.22 491.217H5847.18V8.77344ZM5957.12 197.657H5965.89C6013.26 197.657 6038.99 183.038 6038.99 142.688C6038.99 108.186 6013.85 93.5665 5965.89 93.5665H5957.12V197.657ZM5957.12 406.423H5991.62C6043.67 406.423 6072.33 390.634 6072.33 352.624C6072.33 308.181 6043.67 292.392 5991.62 292.392H5957.12V406.423Z" fill="#0A2D57"/>
<path d="M5782.77 4.39062V315.493C5782.77 434.788 5717.27 495.605 5594.47 495.605C5471.66 495.605 5406.16 434.788 5406.16 315.493V4.39062H5516.1V283.33C5516.1 364.03 5540.66 387.421 5594.47 387.421C5648.27 387.421 5672.83 364.03 5672.83 283.33V4.39062H5782.77Z" fill="#0A2D57"/>
<path d="M5191.3 8.77344V394.728H5357.38V491.217H5081.36V8.77344H5191.3Z" fill="#0A2D57"/>
<path d="M4897.77 391.806C4953.91 391.806 4992.5 361.982 4992.5 361.982L5039.29 455.547C5039.29 455.547 4985.49 499.99 4880.81 499.99C4744.55 499.99 4619.4 388.882 4619.4 250.874C4619.4 112.282 4743.96 0.00390625 4880.81 0.00390625C4985.49 0.00390625 5039.29 44.4471 5039.29 44.4471L4992.5 138.012C4992.5 138.012 4953.91 108.188 4897.77 108.188C4787.24 108.188 4738.7 185.379 4738.7 249.705C4738.7 314.615 4787.24 391.806 4897.77 391.806Z" fill="#0A2D57"/>
<path d="M4275.13 394.738H4472.83V491.23H4275.13V394.738Z" fill="#0A2D57"/>
<path d="M4126.82 491.219H4008.69L3973.02 394.728H3789.39L3753.72 491.219H3635.59L3830.33 8.7627H3932.08L4126.82 491.219ZM4254.66 491.218H4146.47V8.76172H4254.66V491.218ZM3881.2 177.566C3881.2 177.566 3875.54 213.658 3860.2 228.998C3844.89 244.313 3808.89 249.977 3808.77 249.996C3808.9 250.016 3844.89 255.681 3860.2 270.994C3875.52 286.314 3881.19 322.326 3881.2 322.425C3881.22 322.324 3886.88 286.313 3902.2 270.994C3917.52 255.677 3953.52 250.013 3953.63 249.996C3953.55 249.983 3917.52 244.32 3902.2 228.998C3886.86 213.658 3881.2 177.566 3881.2 177.566Z" fill="url(#paint0_linear_598_1314)"/>
<path d="M3617.1 8.76953V491.226H3507.16V8.76953H3617.1Z" fill="#0A2D57"/>
<path d="M3323.57 391.813C3379.71 391.813 3418.31 361.988 3418.31 361.988L3465.09 455.556C3465.09 455.556 3411.29 500 3306.61 500C3170.35 500 3045.21 388.889 3045.21 250.877C3045.21 112.281 3169.77 0 3306.61 0C3411.29 0 3465.09 44.4444 3465.09 44.4444L3418.31 138.012C3418.31 138.012 3379.71 108.187 3323.57 108.187C3213.04 108.187 3164.51 185.38 3164.51 249.708C3164.51 314.62 3213.04 391.813 3323.57 391.813Z" fill="#0A2D57"/>
<path d="M2532.38 249.708C2532.38 108.772 2642.91 0 2775.65 0C2909.57 0 3018.34 108.772 3018.34 249.708C3018.34 390.643 2914.25 500 2775.65 500C2632.96 500 2532.38 390.643 2532.38 249.708ZM2651.09 249.708C2651.09 321.637 2685.6 393.567 2775.65 393.567C2863.37 393.567 2899.63 321.637 2899.63 249.708C2899.63 177.778 2861.03 105.848 2775.65 105.848C2690.86 105.848 2651.09 177.778 2651.09 249.708Z" fill="#0A2D57"/>
<path d="M2338.88 0C2426.6 0 2488.58 45.614 2488.58 45.614L2444.14 133.333C2444.14 133.333 2396.19 100 2346.48 100C2309.05 100 2289.17 116.959 2289.17 143.275C2289.17 170.175 2334.78 189.474 2389.75 212.866C2443.55 235.673 2502.62 281.287 2502.62 344.444C2502.62 459.649 2414.9 500 2320.75 500C2207.88 500 2139.46 436.257 2139.46 436.257L2194.43 343.86C2194.43 343.86 2258.76 398.246 2312.56 398.246C2336.54 398.246 2382.15 395.906 2382.15 350.877C2382.15 315.79 2330.69 300 2273.38 271.345C2215.48 242.69 2181.57 197.661 2181.57 147.368C2181.57 57.3099 2261.1 0 2338.88 0Z" fill="#0A2D57"/>
<path d="M1880.99 491.071L1857.78 200H1854.8L1754.2 488.095H1687.54L1586.94 200H1583.97L1560.75 491.071H1448.85L1492.9 0H1611.94L1720.87 283.333L1829.8 0H1948.85L1992.89 491.071H1880.99Z" fill="#0A2D57"/>
<path d="M1409.49 0V316.667C1409.49 438.095 1342.82 500 1217.82 500C1092.82 500 1026.15 438.095 1026.15 316.667V0H1138.06V283.929C1138.06 366.071 1163.06 389.881 1217.82 389.881C1272.58 389.881 1297.58 366.071 1297.58 283.929V0H1409.49Z" fill="#0A2D57"/>
<path d="M646.566 98.2143V0H991.804V98.2143H875.138V491.071H763.233V98.2143H646.566Z" fill="#0A2D57"/>
<path d="M258.979 7.49249e-07C265.658 -5.8126e-05 268.998 -5.09877e-05 271.653 1.42285C273.887 2.61974 275.888 4.76351 276.928 7.07422C278.164 9.82136 277.949 12.9434 277.518 19.1865C272.903 85.9527 244.329 149.071 196.701 196.698C149.073 244.325 85.9538 272.899 19.1865 277.513C12.9434 277.944 9.82139 278.16 7.07422 276.924C4.7634 275.884 2.61979 273.882 1.42285 271.648C5.93988e-05 268.993 -5.80469e-05 265.653 7.34231e-07 258.975L0.000977297 205.721C0.00103637 199.008 0.000642049 195.652 1.14551 193.223C2.22572 190.93 3.6277 189.375 5.79688 188.065C8.09593 186.677 11.787 186.297 19.168 185.534C61.5938 181.152 101.459 162.322 131.892 131.89C162.324 101.458 181.155 61.5931 185.537 19.168C186.299 11.7871 186.68 8.09589 188.068 5.79688C189.378 3.62774 190.933 2.22571 193.226 1.14551C195.655 0.000675473 199.011 0.00103648 205.724 0.000977312L258.979 7.49249e-07Z" fill="#0A2D57"/>
<path d="M7.52974e-07 241.024C-5.81234e-05 234.346 -8.02929e-05 231.006 1.42285 228.351C2.61977 226.117 4.76351 224.116 7.07422 223.076C9.82138 221.84 12.9434 222.056 19.1865 222.487C85.9539 227.101 149.073 255.675 196.701 303.302C244.329 350.929 272.904 414.047 277.518 480.813C277.949 487.056 278.164 490.178 276.928 492.925C275.888 495.236 273.887 497.38 271.653 498.577C268.998 500 265.658 500 258.979 500L205.724 499.999C199.011 499.999 195.655 499.999 193.226 498.854C190.933 497.774 189.379 496.371 188.069 494.202C186.681 491.903 186.299 488.213 185.537 480.832C181.155 438.407 162.324 398.542 131.892 368.11C101.459 337.678 61.5939 318.848 19.168 314.466C11.787 313.703 8.09593 313.322 5.79688 311.934C3.62796 310.624 2.22566 309.069 1.14551 306.777C0.00065526 304.348 0.00103649 300.991 0.000977315 294.279L7.52974e-07 241.024ZM0.00195388 435.099C0.00195388 399.261 29.0549 370.208 64.8936 370.208C100.732 370.208 129.786 399.26 129.786 435.099C129.786 470.937 100.732 499.989 64.8936 499.989C29.0549 499.989 0.0020365 470.937 0.00195388 435.099Z" fill="url(#paint1_linear_598_1314)"/>
<path d="M241.021 500C234.342 500 231.002 500 228.347 498.577C226.113 497.38 224.112 495.236 223.072 492.926C221.836 490.179 222.051 487.057 222.482 480.813C227.097 414.047 255.671 350.929 303.299 303.302C350.927 255.675 414.046 227.101 480.814 222.487C487.057 222.056 490.179 221.84 492.926 223.076C495.237 224.116 497.38 226.118 498.577 228.352C500 231.007 500 234.347 500 241.025L499.999 294.279C499.999 300.992 499.999 304.348 498.855 306.777C497.774 309.07 496.372 310.625 494.203 311.935C491.904 313.323 488.213 313.704 480.832 314.466C438.406 318.848 398.541 337.678 368.108 368.11C337.676 398.542 318.845 438.407 314.463 480.832C313.701 488.213 313.32 491.904 311.932 494.203C310.622 496.372 309.067 497.774 306.774 498.854C304.345 499.999 300.989 499.999 294.276 499.999L241.021 500ZM435.098 499.998C399.259 499.998 370.205 470.946 370.205 435.107C370.205 399.269 399.259 370.217 435.098 370.217C470.936 370.217 499.989 399.269 499.989 435.107C499.989 470.945 470.936 499.998 435.098 499.998Z" fill="#0A2D57"/>
<path d="M294.272 0.00292969C300.984 0.00298932 304.341 0.00284774 306.77 1.14746C309.063 2.22769 310.618 3.63055 311.928 5.7998C313.316 8.09882 313.697 11.7891 314.46 19.1699C318.842 61.5949 337.672 101.46 368.104 131.892C398.537 162.324 438.403 181.154 480.829 185.536C488.21 186.298 491.9 186.68 494.199 188.068C496.368 189.378 497.771 190.932 498.851 193.225C499.996 195.654 499.996 199.011 499.996 205.723L499.997 258.978C499.997 265.656 499.997 268.996 498.574 271.651C497.377 273.885 495.233 275.886 492.922 276.926C490.175 278.162 487.053 277.946 480.81 277.515C414.043 272.901 350.922 244.327 303.295 196.7C255.667 149.073 227.093 85.9545 222.479 19.1885C222.048 12.9455 221.833 9.82424 223.069 7.07715C224.109 4.76631 226.11 2.62175 228.344 1.4248C230.999 0.00207135 234.339 0.00189378 241.017 0.00195312L294.272 0.00292969ZM435.108 0C435.108 35.8397 464.159 64.8905 500 64.8906C464.159 64.8908 435.105 93.9445 435.105 129.784C435.105 93.9445 406.046 64.8868 370.206 64.8867C406.046 64.8866 435.108 35.8397 435.108 0Z" fill="url(#paint2_linear_598_1314)"/>
<path d="M0.00683596 261.742C0.0021611 260.888 -8.71703e-06 259.968 2.63099e-08 258.975L0.000976589 205.721C0.000985733 204.682 0.00258294 203.723 0.00683596 202.836V261.742ZM258.979 7.49249e-07C265.658 -5.8126e-05 268.998 -5.09877e-05 271.653 1.42285C273.887 2.61974 275.888 4.76351 276.928 7.07422C278.164 9.82136 277.949 12.9434 277.518 19.1865C272.903 85.9527 244.329 149.071 196.701 196.698C196.574 196.825 196.446 196.951 196.319 197.077L131.509 132.268C131.636 132.141 131.765 132.016 131.892 131.89C162.324 101.458 181.155 61.5931 185.537 19.168C186.299 11.7871 186.68 8.09589 188.068 5.79688C189.378 3.62774 190.933 2.22571 193.226 1.14551C195.655 0.000675473 199.011 0.00103648 205.724 0.000977312L258.979 7.49249e-07Z" fill="#0A2D57"/>
<ellipse cx="64.8997" cy="64.8908" rx="64.8918" ry="64.8908" fill="#0A2D57"/>
<path d="M6188.12 702.443H6095.54V760.823H6165.15V777.922H6095.54V839.234H6188.12V856.333H6076V685.344H6188.12V702.443Z" fill="#0A2D57"/>
<path d="M6027.45 685.344H6048.21L5983.23 856.333H5960.76L5896.76 685.344H5917.52L5972.49 835.57L6027.45 685.344Z" fill="#0A2D57"/>
<path d="M5849.62 685.344H5869.16V856.333H5849.62V685.344Z" fill="#0A2D57"/>
<path d="M5690.27 685.344H5818.51V702.443H5764.28V856.333H5744.74V702.443H5690.27V685.344Z" fill="#0A2D57"/>
<path d="M5602.12 702.443H5594.06L5537.63 856.333H5517.84L5580.38 685.344H5615.55L5677.84 856.333H5658.05L5602.12 702.443ZM5548.38 794.288H5648.04V811.387H5548.38V794.288Z" fill="#0A2D57"/>
<path d="M5475.34 685.344H5494.88V856.333H5475.34V685.344Z" fill="#0A2D57"/>
<path d="M5315.99 685.344H5444.23V702.443H5390.01V856.333H5370.46V702.443H5315.99V685.344Z" fill="#0A2D57"/>
<path d="M5265.18 685.344H5284.72V856.333H5265.18V685.344Z" fill="#0A2D57"/>
<path d="M5223.64 685.344V856.333H5203.85L5112.49 716.61V856.333H5092.95V685.344H5112.74L5204.1 824.822V685.344H5223.64Z" fill="#0A2D57"/>
<path d="M5031.89 685.344H5051.43V856.333H5031.89V685.344Z" fill="#0A2D57"/>
<path d="M4804.07 685.344H4932.32V702.443H4878.09V856.333H4858.55V702.443H4804.07V685.344Z" fill="#0A2D57"/>
<path d="M4772.79 685.344V856.333H4753L4661.64 716.61V856.333H4642.1V685.344H4661.89L4753.24 824.822V685.344H4772.79Z" fill="#0A2D57"/>
<path d="M4605.37 702.443H4512.79V760.823H4582.4V777.922H4512.79V839.234H4605.37V856.333H4493.25V685.344H4605.37V702.443Z" fill="#0A2D57"/>
<path d="M4371.72 685.344C4390.61 685.344 4406.73 688.845 4420.09 695.847C4433.6 702.687 4443.94 712.539 4451.11 725.404C4458.44 738.269 4462.1 753.576 4462.1 771.327C4462.1 788.914 4458.44 804.059 4451.11 816.761C4443.94 829.463 4433.6 839.234 4420.09 846.073C4406.73 852.913 4390.61 856.333 4371.72 856.333H4315.29V685.344H4371.72ZM4371.72 839.234C4395.01 839.234 4412.59 833.29 4424.48 821.402C4436.37 809.514 4442.31 792.822 4442.31 771.327C4442.31 749.668 4436.37 732.814 4424.48 720.763C4412.59 708.549 4395.01 702.443 4371.72 702.443H4334.83V839.234H4371.72Z" fill="#0A2D57"/>
<path d="M4144 685.344H4163.54V793.311C4163.54 804.547 4165.57 813.667 4169.64 820.669C4173.72 827.672 4179.17 832.801 4186.01 836.058C4193.01 839.315 4200.91 840.944 4209.7 840.944C4218.34 840.944 4226.07 839.315 4232.91 836.058C4239.75 832.801 4245.21 827.672 4249.28 820.669C4253.35 813.667 4255.38 804.547 4255.38 793.311V685.344H4274.93V793.067C4274.93 804.303 4273.13 813.993 4269.55 822.135C4266.13 830.277 4261.33 837.035 4255.14 842.409C4248.95 847.62 4241.95 851.529 4234.13 854.134C4226.32 856.74 4218.09 858.043 4209.46 858.043C4197.74 858.043 4186.91 855.763 4176.97 851.203C4167.04 846.48 4159.06 839.315 4153.03 829.707C4147.01 820.099 4144 807.886 4144 793.067V685.344Z" fill="#0A2D57"/>
<path d="M3985.62 685.344H4113.86V702.443H4059.64V856.333H4040.09V702.443H3985.62V685.344Z" fill="#0A2D57"/>
<path d="M3865.14 812.852C3866.12 817.248 3868.15 821.645 3871.25 826.042C3874.5 830.276 3878.9 833.859 3884.44 836.79C3890.14 839.558 3897.38 840.943 3906.18 840.943C3918.72 840.943 3928 838.011 3934.02 832.149C3940.05 826.286 3943.06 819.365 3943.06 811.386C3943.06 805.035 3941.35 799.824 3937.93 795.753C3934.51 791.681 3929.87 788.343 3924.01 785.738C3918.15 782.969 3911.55 780.526 3904.22 778.409C3897.71 776.618 3891.2 774.664 3884.68 772.547C3878.33 770.267 3872.55 767.499 3867.34 764.242C3862.13 760.822 3857.98 756.425 3854.88 751.051C3851.79 745.677 3850.24 739.001 3850.24 731.021C3850.24 721.413 3852.52 713.108 3857.08 706.106C3861.64 698.94 3868.07 693.404 3876.38 689.495C3884.68 685.587 3894.37 683.633 3905.45 683.633C3915.05 683.633 3923.44 685.017 3930.6 687.785C3937.77 690.554 3943.71 694.462 3948.44 699.51C3953.32 704.396 3956.9 710.095 3959.18 716.609L3941.84 723.205C3940.7 719.459 3938.5 715.876 3935.25 712.457C3931.99 708.874 3927.76 705.943 3922.54 703.663C3917.33 701.383 3911.39 700.243 3904.71 700.243C3898.2 700.243 3892.25 701.383 3886.88 703.663C3881.67 705.943 3877.52 709.2 3874.42 713.434C3871.33 717.668 3869.78 722.797 3869.78 728.823C3869.78 735.337 3871.57 740.548 3875.16 744.456C3878.9 748.201 3883.79 751.296 3889.81 753.738C3896 756.018 3902.76 758.217 3910.09 760.334C3916.76 762.451 3923.2 764.73 3929.38 767.173C3935.73 769.616 3941.35 772.628 3946.24 776.211C3951.29 779.794 3955.28 784.272 3958.21 789.646C3961.14 795.02 3962.6 801.615 3962.6 809.432C3962.6 818.063 3960.57 826.123 3956.5 833.614C3952.43 840.943 3946.24 846.886 3937.93 851.446C3929.79 855.843 3919.29 858.041 3906.42 858.041C3895.67 858.041 3886.23 856.413 3878.09 853.156C3869.94 849.736 3863.27 845.177 3858.06 839.477C3852.85 833.777 3849.26 827.263 3847.31 819.935L3865.14 812.852Z" fill="#0A2D57"/>
<path d="M3665.63 685.344C3684.52 685.344 3700.64 688.845 3713.99 695.847C3727.51 702.687 3737.85 712.539 3745.01 725.404C3752.34 738.269 3756.01 753.576 3756.01 771.327C3756.01 788.914 3752.34 804.059 3745.01 816.761C3737.85 829.463 3727.51 839.234 3713.99 846.073C3700.64 852.913 3684.52 856.333 3665.63 856.333H3609.2V685.344H3665.63ZM3665.63 839.234C3688.91 839.234 3706.5 833.29 3718.39 821.402C3730.28 809.514 3736.22 792.822 3736.22 771.327C3736.22 749.668 3730.28 732.814 3718.39 720.763C3706.5 708.549 3688.91 702.443 3665.63 702.443H3628.74V839.234H3665.63Z" fill="#0A2D57"/>
<path d="M3493.36 858.041C3481.31 858.041 3470.07 855.924 3459.65 851.69C3449.39 847.456 3440.35 841.512 3432.53 833.859C3424.88 826.042 3418.85 816.841 3414.46 806.256C3410.22 795.508 3408.11 783.702 3408.11 770.837C3408.11 757.972 3410.22 746.247 3414.46 735.662C3418.85 724.914 3424.88 715.714 3432.53 708.06C3440.35 700.243 3449.39 694.218 3459.65 689.984C3470.07 685.75 3481.31 683.633 3493.36 683.633C3505.24 683.633 3516.32 685.75 3526.58 689.984C3537 694.218 3546.04 700.243 3553.69 708.06C3561.34 715.714 3567.29 724.914 3571.52 735.662C3575.92 746.247 3578.12 757.972 3578.12 770.837C3578.12 783.702 3575.92 795.508 3571.52 806.256C3567.29 816.841 3561.34 826.042 3553.69 833.859C3546.04 841.512 3537 847.456 3526.58 851.69C3516.32 855.924 3505.24 858.041 3493.36 858.041ZM3493.36 840.943C3505.57 840.943 3516.56 838.093 3526.33 832.393C3536.1 826.693 3543.84 818.633 3549.54 808.21C3555.24 797.625 3558.09 785.168 3558.09 770.837C3558.09 756.344 3555.24 743.886 3549.54 733.464C3543.84 722.879 3536.1 714.818 3526.33 709.281C3516.56 703.582 3505.57 700.732 3493.36 700.732C3480.98 700.732 3469.82 703.582 3459.89 709.281C3450.12 714.818 3442.38 722.879 3436.69 733.464C3430.99 743.886 3428.14 756.344 3428.14 770.837C3428.14 785.168 3430.99 797.625 3436.69 808.21C3442.38 818.633 3450.12 826.693 3459.89 832.393C3469.82 838.093 3480.98 840.943 3493.36 840.943Z" fill="#0A2D57"/>
<path d="M3302.52 858.041C3290.47 858.041 3279.23 855.924 3268.81 851.69C3258.55 847.456 3249.51 841.512 3241.69 833.859C3234.04 826.042 3228.01 816.841 3223.62 806.256C3219.38 795.508 3217.27 783.702 3217.27 770.837C3217.27 757.972 3219.38 746.247 3223.62 735.662C3228.01 724.914 3234.04 715.714 3241.69 708.06C3249.51 700.243 3258.55 694.218 3268.81 689.984C3279.23 685.75 3290.47 683.633 3302.52 683.633C3314.4 683.633 3325.48 685.75 3335.74 689.984C3346.16 694.218 3355.2 700.243 3362.85 708.06C3370.5 715.714 3376.45 724.914 3380.68 735.662C3385.08 746.247 3387.28 757.972 3387.28 770.837C3387.28 783.702 3385.08 795.508 3380.68 806.256C3376.45 816.841 3370.5 826.042 3362.85 833.859C3355.2 841.512 3346.16 847.456 3335.74 851.69C3325.48 855.924 3314.4 858.041 3302.52 858.041ZM3302.52 840.943C3314.73 840.943 3325.72 838.093 3335.49 832.393C3345.26 826.693 3353 818.633 3358.7 808.21C3364.4 797.625 3367.25 785.168 3367.25 770.837C3367.25 756.344 3364.4 743.886 3358.7 733.464C3353 722.879 3345.26 714.818 3335.49 709.281C3325.72 703.582 3314.73 700.732 3302.52 700.732C3290.14 700.732 3278.98 703.582 3269.05 709.281C3259.28 714.818 3251.54 722.879 3245.85 733.464C3240.15 743.886 3237.3 756.344 3237.3 770.837C3237.3 785.168 3240.15 797.625 3245.85 808.21C3251.54 818.633 3259.28 826.693 3269.05 832.393C3278.98 838.093 3290.14 840.943 3302.52 840.943Z" fill="#0A2D57"/>
<path d="M3173.41 736.639C3167.22 724.426 3159 715.469 3148.74 709.77C3138.48 703.907 3127.08 700.976 3114.54 700.976C3102.16 700.976 3091.01 703.826 3081.07 709.525C3071.14 715.225 3063.32 723.286 3057.62 733.708C3051.92 744.13 3049.08 756.507 3049.08 770.837C3049.08 785.005 3051.92 797.3 3057.62 807.722C3063.32 818.144 3071.14 826.205 3081.07 831.905C3091.01 837.604 3102.16 840.454 3114.54 840.454C3123.82 840.454 3132.45 838.907 3140.43 835.813C3148.41 832.556 3155.33 827.996 3161.2 822.134C3167.06 816.108 3171.54 808.943 3174.63 800.638V780.852H3116.01V764.975H3194.42V801.615C3190.67 812.526 3184.97 822.215 3177.32 830.683C3169.66 839.151 3160.46 845.828 3149.71 850.713C3138.97 855.599 3127.24 858.041 3114.54 858.041C3102.49 858.041 3091.25 855.924 3080.83 851.69C3070.57 847.456 3061.53 841.512 3053.72 833.859C3046.06 826.042 3040.04 816.841 3035.64 806.256C3031.41 795.508 3029.29 783.702 3029.29 770.837C3029.29 757.972 3031.41 746.247 3035.64 735.662C3040.04 724.914 3046.06 715.714 3053.72 708.06C3061.53 700.243 3070.57 694.218 3080.83 689.984C3091.25 685.75 3102.49 683.633 3114.54 683.633C3125.78 683.633 3136.28 685.506 3146.05 689.251C3155.98 692.834 3164.78 698.126 3172.43 705.129C3180.09 711.968 3186.11 720.355 3190.51 730.288L3173.41 736.639Z" fill="#0A2D57"/>
<path d="M2917.1 735.908C2917.1 725.648 2914.09 717.506 2908.07 711.481C2902.04 705.455 2892.19 702.443 2878.51 702.443H2837.96V769.373H2878.75C2887.71 769.373 2894.96 767.988 2900.49 765.22C2906.19 762.452 2910.35 758.543 2912.95 753.495C2915.72 748.447 2917.1 742.584 2917.1 735.908ZM2878.51 685.344C2891.86 685.344 2902.77 687.624 2911.24 692.183C2919.87 696.743 2926.3 702.85 2930.54 710.504C2934.77 717.994 2936.89 726.463 2936.89 735.908C2936.89 742.584 2935.75 748.935 2933.47 754.961C2931.35 760.986 2927.93 766.36 2923.21 771.082C2918.49 775.805 2912.46 779.55 2905.13 782.319C2897.81 785.087 2889.01 786.471 2878.75 786.471H2837.96V856.333H2818.42V685.344H2878.51ZM2892.68 779.143L2940.06 856.333H2917.84L2871.67 779.143H2892.68Z" fill="#0A2D57"/>
<path d="M2702.57 858.041C2690.52 858.041 2679.29 855.924 2668.87 851.69C2658.61 847.456 2649.57 841.512 2641.75 833.859C2634.1 826.042 2628.07 816.841 2623.68 806.256C2619.44 795.508 2617.32 783.702 2617.32 770.837C2617.32 757.972 2619.44 746.247 2623.68 735.662C2628.07 724.914 2634.1 715.714 2641.75 708.06C2649.57 700.243 2658.61 694.218 2668.87 689.984C2679.29 685.75 2690.52 683.633 2702.57 683.633C2714.46 683.633 2725.54 685.75 2735.8 689.984C2746.22 694.218 2755.26 700.243 2762.91 708.06C2770.56 715.714 2776.51 724.914 2780.74 735.662C2785.14 746.247 2787.34 757.972 2787.34 770.837C2787.34 783.702 2785.14 795.508 2780.74 806.256C2776.51 816.841 2770.56 826.042 2762.91 833.859C2755.26 841.512 2746.22 847.456 2735.8 851.69C2725.54 855.924 2714.46 858.041 2702.57 858.041ZM2702.57 840.943C2714.79 840.943 2725.78 838.093 2735.55 832.393C2745.32 826.693 2753.06 818.633 2758.76 808.21C2764.46 797.625 2767.31 785.168 2767.31 770.837C2767.31 756.344 2764.46 743.886 2758.76 733.464C2753.06 722.879 2745.32 714.818 2735.55 709.281C2725.78 703.582 2714.79 700.732 2702.57 700.732C2690.2 700.732 2679.04 703.582 2669.11 709.281C2659.34 714.818 2651.6 722.879 2645.9 733.464C2640.2 743.886 2637.35 756.344 2637.35 770.837C2637.35 785.168 2640.2 797.625 2645.9 808.21C2651.6 818.633 2659.34 826.693 2669.11 832.393C2679.04 838.093 2690.2 840.943 2702.57 840.943Z" fill="#0A2D57"/>
<path d="M2484.21 685.344H2596.34V702.443H2503.76V760.823H2573.37V777.922H2503.76V856.333H2484.21V685.344Z" fill="#0A2D57"/>
<path d="M2354.68 685.344H2374.23V856.333H2354.68V685.344Z" fill="#0A2D57"/>
<path d="M2256.28 702.443H2248.22L2191.79 856.333H2172L2234.54 685.344H2269.71L2332 856.333H2312.22L2256.28 702.443ZM2202.54 794.288H2302.2V811.387H2202.54V794.288Z" fill="#0A2D57"/>
<path d="M1962.75 685.344H2091V702.443H2036.77V856.333H2017.23V702.443H1962.75V685.344Z" fill="#0A2D57"/>
<path d="M1842.28 812.852C1843.25 817.248 1845.29 821.645 1848.38 826.042C1851.64 830.276 1856.04 833.859 1861.57 836.79C1867.27 839.558 1874.52 840.943 1883.31 840.943C1895.85 840.943 1905.14 838.011 1911.16 832.149C1917.19 826.286 1920.2 819.365 1920.2 811.386C1920.2 805.035 1918.49 799.824 1915.07 795.753C1911.65 791.681 1907.01 788.343 1901.15 785.738C1895.28 782.969 1888.69 780.526 1881.36 778.409C1874.85 776.618 1868.33 774.664 1861.82 772.547C1855.47 770.267 1849.69 767.499 1844.48 764.242C1839.26 760.822 1835.11 756.425 1832.02 751.051C1828.92 745.677 1827.38 739.001 1827.38 731.021C1827.38 721.413 1829.66 713.108 1834.22 706.106C1838.78 698.94 1845.21 693.404 1853.51 689.495C1861.82 685.587 1871.51 683.633 1882.58 683.633C1892.19 683.633 1900.58 685.017 1907.74 687.785C1914.91 690.554 1920.85 694.462 1925.57 699.51C1930.46 704.396 1934.04 710.095 1936.32 716.609L1918.98 723.205C1917.84 719.459 1915.64 715.876 1912.38 712.457C1909.13 708.874 1904.89 705.943 1899.68 703.663C1894.47 701.383 1888.53 700.243 1881.85 700.243C1875.34 700.243 1869.39 701.383 1864.02 703.663C1858.81 705.943 1854.65 709.2 1851.56 713.434C1848.47 717.668 1846.92 722.797 1846.92 728.823C1846.92 735.337 1848.71 740.548 1852.29 744.456C1856.04 748.201 1860.92 751.296 1866.95 753.738C1873.14 756.018 1879.89 758.217 1887.22 760.334C1893.9 762.451 1900.33 764.73 1906.52 767.173C1912.87 769.616 1918.49 772.628 1923.37 776.211C1928.42 779.794 1932.41 784.272 1935.34 789.646C1938.28 795.02 1939.74 801.615 1939.74 809.432C1939.74 818.063 1937.71 826.123 1933.63 833.614C1929.56 840.943 1923.37 846.886 1915.07 851.446C1906.93 855.843 1896.42 858.041 1883.56 858.041C1872.81 858.041 1863.37 856.413 1855.22 853.156C1847.08 849.736 1840.4 845.177 1835.19 839.477C1829.98 833.777 1826.4 827.263 1824.45 819.935L1842.28 812.852Z" fill="#0A2D57"/>
<path d="M1778.76 735.908C1778.76 725.648 1775.75 717.506 1769.72 711.481C1763.7 705.455 1753.84 702.443 1740.16 702.443H1699.62V769.373H1740.41C1749.37 769.373 1756.61 767.988 1762.15 765.22C1767.85 762.452 1772 758.543 1774.61 753.495C1777.38 748.447 1778.76 742.584 1778.76 735.908ZM1740.16 685.344C1753.52 685.344 1764.43 687.624 1772.9 692.183C1781.53 696.743 1787.96 702.85 1792.19 710.504C1796.43 717.994 1798.55 726.463 1798.55 735.908C1798.55 742.584 1797.41 748.935 1795.13 754.961C1793.01 760.986 1789.59 766.36 1784.87 771.082C1780.14 775.805 1774.12 779.55 1766.79 782.319C1759.46 785.087 1750.67 786.471 1740.41 786.471H1699.62V856.333H1680.07V685.344H1740.16ZM1754.33 779.143L1801.72 856.333H1779.49L1733.33 779.143H1754.33Z" fill="#0A2D57"/>
<path d="M1619.01 685.344H1638.55V856.333H1619.01V685.344Z" fill="#0A2D57"/>
<path d="M1475.64 685.344H1587.76V702.443H1495.19V760.823H1564.8V777.922H1495.19V856.333H1475.64V685.344Z" fill="#0A2D57"/>
<path d="M1276.45 812.852C1277.42 817.248 1279.46 821.645 1282.55 826.042C1285.81 830.276 1290.21 833.859 1295.74 836.79C1301.44 839.558 1308.69 840.943 1317.48 840.943C1330.02 840.943 1339.3 838.011 1345.33 832.149C1351.35 826.286 1354.37 819.365 1354.37 811.386C1354.37 805.035 1352.66 799.824 1349.24 795.753C1345.82 791.681 1341.18 788.343 1335.31 785.738C1329.45 782.969 1322.86 780.526 1315.53 778.409C1309.01 776.618 1302.5 774.664 1295.99 772.547C1289.64 770.267 1283.85 767.499 1278.64 764.242C1273.43 760.822 1269.28 756.425 1266.19 751.051C1263.09 745.677 1261.54 739.001 1261.54 731.021C1261.54 721.413 1263.82 713.108 1268.38 706.106C1272.94 698.94 1279.38 693.404 1287.68 689.495C1295.99 685.587 1305.68 683.633 1316.75 683.633C1326.36 683.633 1334.74 685.017 1341.91 687.785C1349.07 690.554 1355.02 694.462 1359.74 699.51C1364.63 704.396 1368.21 710.095 1370.49 716.609L1353.15 723.205C1352.01 719.459 1349.81 715.876 1346.55 712.457C1343.29 708.874 1339.06 705.943 1333.85 703.663C1328.64 701.383 1322.69 700.243 1316.02 700.243C1309.5 700.243 1303.56 701.383 1298.19 703.663C1292.97 705.943 1288.82 709.2 1285.73 713.434C1282.63 717.668 1281.09 722.797 1281.09 728.823C1281.09 735.337 1282.88 740.548 1286.46 744.456C1290.21 748.201 1295.09 751.296 1301.12 753.738C1307.3 756.018 1314.06 758.217 1321.39 760.334C1328.07 762.451 1334.5 764.73 1340.69 767.173C1347.04 769.616 1352.66 772.628 1357.54 776.211C1362.59 779.794 1366.58 784.272 1369.51 789.646C1372.44 795.02 1373.91 801.615 1373.91 809.432C1373.91 818.063 1371.87 826.123 1367.8 833.614C1363.73 840.943 1357.54 846.886 1349.24 851.446C1341.1 855.843 1330.59 858.041 1317.73 858.041C1306.98 858.041 1297.53 856.413 1289.39 853.156C1281.25 849.736 1274.57 845.177 1269.36 839.477C1264.15 833.777 1260.57 827.263 1258.61 819.935L1276.45 812.852Z" fill="#0A2D57"/>
<path d="M1195.59 739.083L1209.76 685.344H1231.74L1209.51 739.083H1195.59Z" fill="#0A2D57"/>
<path d="M1156.16 685.344H1177.9L1115.37 790.624V856.333H1095.83V790.868L1033.29 685.344H1055.03L1105.6 772.06L1156.16 685.344Z" fill="#0A2D57"/>
<path d="M1005.67 685.344V856.333H985.883L894.526 716.61V856.333H874.984V685.344H894.77L986.128 824.822V685.344H1005.67Z" fill="#0A2D57"/>
<path d="M776.574 702.443H768.513L712.087 856.333H692.301L754.834 685.344H790.009L852.298 856.333H832.512L776.574 702.443ZM722.835 794.288H822.497V811.387H722.835V794.288Z" fill="#0A2D57"/>
<path d="M519.296 856.333H499.754V685.344H521.25L584.76 829.463L648.026 685.344H669.278V856.333H649.736V723.938L591.6 856.333H577.676L519.296 723.938V856.333Z" fill="#0A2D57"/>
<path d="M445.771 735.908C445.771 725.648 442.759 717.506 436.733 711.481C430.708 705.455 420.856 702.443 407.177 702.443H366.628V769.373H407.421C416.377 769.373 423.624 767.988 429.161 765.22C434.861 762.452 439.013 758.543 441.619 753.495C444.387 748.447 445.771 742.584 445.771 735.908ZM407.177 685.344C420.53 685.344 431.441 687.624 439.909 692.183C448.54 696.743 454.972 702.85 459.206 710.504C463.44 717.994 465.557 726.463 465.557 735.908C465.557 742.584 464.417 748.935 462.137 754.961C460.02 760.986 456.601 766.36 451.878 771.082C447.156 775.805 441.13 779.55 433.802 782.319C426.474 785.087 417.68 786.471 407.421 786.471H366.628V856.333H347.086V685.344H407.177ZM421.344 779.143L468.733 856.333H446.504L400.337 779.143H421.344Z" fill="#0A2D57"/>
<path d="M310.351 702.443H217.772V760.823H287.389V777.922H217.772V839.234H310.351V856.333H198.23V685.344H310.351V702.443Z" fill="#0A2D57"/>
<path d="M144.12 736.639C137.932 724.426 129.708 715.469 119.448 709.77C109.189 703.907 97.7897 700.976 85.2505 700.976C72.8741 700.976 61.7191 703.826 51.7854 709.525C41.8517 715.225 34.0351 723.286 28.3354 733.708C22.6358 744.13 19.7859 756.507 19.7859 770.837C19.7859 785.005 22.6358 797.3 28.3354 807.722C34.0351 818.144 41.8517 826.205 51.7854 831.905C61.7191 837.604 72.8741 840.454 85.2505 840.454C94.5328 840.454 103.164 838.907 111.143 835.813C119.123 832.556 126.044 827.996 131.906 822.134C137.769 816.108 142.247 808.943 145.341 800.638V780.852H86.7161V764.975H165.127V801.615C161.382 812.526 155.682 822.215 148.028 830.683C140.374 839.151 131.173 845.828 120.426 850.713C109.678 855.599 97.9526 858.041 85.2505 858.041C73.1998 858.041 61.9634 855.924 51.5412 851.69C41.2818 847.456 32.2437 841.512 24.4271 833.859C16.7733 826.042 10.7479 816.841 6.35104 806.256C2.11701 795.508 0 783.702 0 770.837C0 757.972 2.11701 746.247 6.35104 735.662C10.7479 724.914 16.7733 715.714 24.4271 708.06C32.2437 700.243 41.2818 694.218 51.5412 689.984C61.9634 685.75 73.1998 683.633 85.2505 683.633C96.487 683.633 106.991 685.506 116.761 689.251C126.695 692.834 135.489 698.126 143.143 705.129C150.797 711.968 156.822 720.355 161.219 730.288L144.12 736.639Z" fill="#0A2D57"/>
<defs>
<linearGradient id="paint0_linear_598_1314" x1="3600.25" y1="246.943" x2="4254.66" y2="249.99" gradientUnits="userSpaceOnUse">
<stop offset="0.0817308" stop-color="#4A98FF"/>
<stop offset="1" stop-color="#4BFFC0"/>
</linearGradient>
<linearGradient id="paint1_linear_598_1314" x1="64.9098" y1="435.091" x2="446.587" y2="64.0776" gradientUnits="userSpaceOnUse">
<stop stop-color="#4A98FF"/>
<stop offset="1" stop-color="#4BFFC0"/>
</linearGradient>
<linearGradient id="paint2_linear_598_1314" x1="64.4907" y1="432.819" x2="434.068" y2="66.0014" gradientUnits="userSpaceOnUse">
<stop stop-color="#4A98FF"/>
<stop offset="1" stop-color="#4BFFC0"/>
</linearGradient>
</defs>
</svg>
