<svg width="5529" height="500" viewBox="0 0 5529 500" fill="none" xmlns="http://www.w3.org/2000/svg">
<path d="M5187.57 8.77344H5337.28C5420.32 8.77344 5485.82 39.7668 5485.82 131.577C5485.82 176.02 5466.52 214.031 5425.59 235.083C5485.82 245.609 5528.51 278.942 5528.51 356.717C5528.51 436.247 5470.62 491.217 5370.62 491.217H5187.57V8.77344ZM5297.52 197.657H5306.29C5353.66 197.657 5379.39 183.038 5379.39 142.688C5379.39 108.186 5354.24 93.5665 5306.29 93.5665H5297.52V197.657ZM5297.52 406.423H5332.02C5384.07 406.423 5412.72 390.634 5412.72 352.624C5412.72 308.181 5384.07 292.392 5332.02 292.392H5297.52V406.423Z" fill="#0A2D57"/>
<path d="M5123.16 4.39062V315.493C5123.16 434.788 5057.67 495.605 4934.86 495.605C4812.05 495.605 4746.55 434.788 4746.55 315.493V4.39062H4856.5V283.33C4856.5 364.03 4881.06 387.421 4934.86 387.421C4988.66 387.421 5013.22 364.03 5013.22 283.33V4.39062H5123.16Z" fill="#0A2D57"/>
<path d="M4531.7 8.77344V394.728H4697.78V491.217H4421.75V8.77344H4531.7Z" fill="#0A2D57"/>
<path d="M4238.16 391.806C4294.3 391.806 4332.9 361.982 4332.9 361.982L4379.68 455.547C4379.68 455.547 4325.88 499.99 4221.2 499.99C4084.94 499.99 3959.8 388.882 3959.8 250.874C3959.8 112.282 4084.36 0.00390625 4221.2 0.00390625C4325.88 0.00390625 4379.68 44.4471 4379.68 44.4471L4332.9 138.012C4332.9 138.012 4294.3 108.188 4238.16 108.188C4127.63 108.188 4079.1 185.379 4079.1 249.705C4079.1 314.615 4127.63 391.806 4238.16 391.806Z" fill="#0A2D57"/>
<path d="M3622.05 394.738H3819.75V491.23H3622.05V394.738Z" fill="#0A2D57"/>
<path d="M3473.73 491.217H3355.6L3319.93 394.726H3136.3L3100.63 491.217H2982.5L3177.24 8.76074H3278.99L3473.73 491.217ZM3601.58 491.216H3493.39V8.75977H3601.58V491.216ZM3228.12 177.564C3228.12 177.564 3222.46 213.656 3207.12 228.996C3191.8 244.311 3155.81 249.975 3155.69 249.994C3155.81 250.014 3191.8 255.679 3207.12 270.992C3222.44 286.312 3228.1 322.324 3228.12 322.423C3228.13 322.322 3233.8 286.311 3249.11 270.992C3264.43 255.675 3300.44 250.011 3300.54 249.994C3300.46 249.981 3264.44 244.318 3249.11 228.996C3233.77 213.656 3228.12 177.564 3228.12 177.564Z" fill="url(#paint0_linear_603_1643)"/>
<path d="M2964.02 8.77148V491.228H2854.07V8.77148H2964.02Z" fill="#0A2D57"/>
<path d="M2670.48 391.813C2726.62 391.813 2765.22 361.988 2765.22 361.988L2812 455.556C2812 455.556 2758.2 500 2653.52 500C2517.27 500 2392.12 388.889 2392.12 250.877C2392.12 112.281 2516.68 0 2653.52 0C2758.2 0 2812 44.4444 2812 44.4444L2765.22 138.012C2765.22 138.012 2726.62 108.187 2670.48 108.187C2559.96 108.187 2511.42 185.38 2511.42 249.708C2511.42 314.62 2559.96 391.813 2670.48 391.813Z" fill="#0A2D57"/>
<path d="M1879.29 249.708C1879.29 108.772 1989.82 0 2122.57 0C2256.49 0 2365.26 108.772 2365.26 249.708C2365.26 390.643 2261.16 500 2122.57 500C1979.88 500 1879.29 390.643 1879.29 249.708ZM1998.01 249.708C1998.01 321.637 2032.51 393.567 2122.57 393.567C2210.29 393.567 2246.54 321.637 2246.54 249.708C2246.54 177.778 2207.95 105.848 2122.57 105.848C2037.77 105.848 1998.01 177.778 1998.01 249.708Z" fill="#0A2D57"/>
<path d="M1685.79 0C1773.51 0 1835.5 45.614 1835.5 45.614L1791.05 133.333C1791.05 133.333 1743.1 100 1693.39 100C1655.97 100 1636.08 116.959 1636.08 143.275C1636.08 170.175 1681.7 189.474 1736.67 212.866C1790.47 235.673 1849.53 281.287 1849.53 344.444C1849.53 459.649 1761.81 500 1667.66 500C1554.8 500 1486.38 436.257 1486.38 436.257L1541.35 343.86C1541.35 343.86 1605.67 398.246 1659.47 398.246C1683.45 398.246 1729.06 395.906 1729.06 350.877C1729.06 315.789 1677.6 300 1620.29 271.345C1562.4 242.69 1528.48 197.661 1528.48 147.368C1528.48 57.3099 1608.01 0 1685.79 0Z" fill="#0A2D57"/>
<path d="M1234.42 491.071L1211.21 200H1208.23L1107.64 488.095H1040.97L940.376 200H937.4L914.186 491.071H802.281L846.329 0H965.376L1074.3 283.333L1183.23 0H1302.28L1346.33 491.071H1234.42Z" fill="#0A2D57"/>
<path d="M762.919 0V316.667C762.919 438.095 696.252 500 571.252 500C446.252 500 379.586 438.095 379.586 316.667V0H491.491V283.929C491.491 366.071 516.49 389.881 571.252 389.881C626.014 389.881 651.014 366.071 651.014 283.929V0H762.919Z" fill="#0A2D57"/>
<path d="M0 98.2143V0H345.238V98.2143H228.571V491.071H116.667V98.2143H0Z" fill="#0A2D57"/>
<defs>
<linearGradient id="paint0_linear_603_1643" x1="2947.16" y1="246.941" x2="3601.58" y2="249.988" gradientUnits="userSpaceOnUse">
<stop offset="0.0817308" stop-color="#4A98FF"/>
<stop offset="1" stop-color="#4BFFC0"/>
</linearGradient>
</defs>
</svg>
