<svg width="6169" height="500" viewBox="0 0 6169 500" fill="none" xmlns="http://www.w3.org/2000/svg">
<path d="M5827.62 8.77344H5977.33C6060.37 8.77344 6125.87 39.7668 6125.87 131.577C6125.87 176.02 6106.57 214.031 6065.63 235.083C6125.87 245.609 6168.56 278.942 6168.56 356.717C6168.56 436.247 6110.66 491.217 6010.66 491.217H5827.62V8.77344ZM5937.56 197.657H5946.34C5993.7 197.657 6019.43 183.038 6019.43 142.688C6019.43 108.186 5994.29 93.5665 5946.34 93.5665H5937.56V197.657ZM5937.56 406.423H5972.07C6024.11 406.423 6052.77 390.634 6052.77 352.624C6052.77 308.181 6024.11 292.392 5972.07 292.392H5937.56V406.423Z" fill="white"/>
<path d="M5763.21 4.39062V315.493C5763.21 434.788 5697.71 495.605 5574.91 495.605C5452.1 495.605 5386.6 434.788 5386.6 315.493V4.39062H5496.54V283.33C5496.54 364.03 5521.11 387.421 5574.91 387.421C5628.71 387.421 5653.27 364.03 5653.27 283.33V4.39062H5763.21Z" fill="white"/>
<path d="M5171.74 8.77344V394.728H5337.83V491.217H5061.8V8.77344H5171.74Z" fill="white"/>
<path d="M4878.21 391.806C4934.35 391.806 4972.94 361.982 4972.94 361.982L5019.73 455.547C5019.73 455.547 4965.93 499.99 4861.25 499.99C4724.99 499.99 4599.84 388.882 4599.84 250.874C4599.84 112.282 4724.41 0.00390625 4861.25 0.00390625C4965.93 0.00390625 5019.73 44.4471 5019.73 44.4471L4972.94 138.012C4972.94 138.012 4934.35 108.188 4878.21 108.188C4767.68 108.188 4719.14 185.379 4719.14 249.705C4719.14 314.615 4767.68 391.806 4878.21 391.806Z" fill="white"/>
<path d="M4262.09 394.738H4459.79V491.23H4262.09V394.738Z" fill="white"/>
<path d="M4113.78 491.219H3995.65L3959.98 394.728H3776.35L3740.68 491.219H3622.55L3817.29 8.7627H3919.04L4113.78 491.219ZM4241.62 491.218H4133.43V8.76172H4241.62V491.218ZM3868.16 177.566C3868.16 177.566 3862.51 213.658 3847.17 228.998C3831.85 244.313 3795.86 249.977 3795.73 249.996C3795.86 250.016 3831.85 255.681 3847.17 270.994C3862.48 286.314 3868.15 322.326 3868.16 322.425C3868.18 322.324 3873.84 286.313 3889.16 270.994C3904.48 255.677 3940.48 250.013 3940.59 249.996C3940.51 249.983 3904.48 244.32 3889.16 228.998C3873.82 213.658 3868.16 177.566 3868.16 177.566Z" fill="url(#paint0_linear_602_1605)"/>
<path d="M3604.06 8.76953V491.226H3494.12V8.76953H3604.06Z" fill="white"/>
<path d="M3310.53 391.813C3366.67 391.813 3405.27 361.988 3405.27 361.988L3452.05 455.556C3452.05 455.556 3398.25 500 3293.57 500C3157.31 500 3032.17 388.889 3032.17 250.877C3032.17 112.281 3156.73 0 3293.57 0C3398.25 0 3452.05 44.4444 3452.05 44.4444L3405.27 138.012C3405.27 138.012 3366.67 108.187 3310.53 108.187C3200 108.187 3151.47 185.38 3151.47 249.708C3151.47 314.62 3200 391.813 3310.53 391.813Z" fill="white"/>
<path d="M2519.34 249.708C2519.34 108.772 2629.87 0 2762.61 0C2896.53 0 3005.3 108.772 3005.3 249.708C3005.3 390.643 2901.21 500 2762.61 500C2619.92 500 2519.34 390.643 2519.34 249.708ZM2638.05 249.708C2638.05 321.637 2672.56 393.567 2762.61 393.567C2850.33 393.567 2886.59 321.637 2886.59 249.708C2886.59 177.778 2847.99 105.848 2762.61 105.848C2677.82 105.848 2638.05 177.778 2638.05 249.708Z" fill="white"/>
<path d="M2325.84 0C2413.56 0 2475.54 45.614 2475.54 45.614L2431.1 133.333C2431.1 133.333 2383.15 100 2333.44 100C2296.01 100 2276.13 116.959 2276.13 143.275C2276.13 170.175 2321.74 189.474 2376.71 212.866C2430.52 235.673 2489.58 281.287 2489.58 344.444C2489.58 459.649 2401.86 500 2307.71 500C2194.84 500 2126.42 436.257 2126.42 436.257L2181.39 343.86C2181.39 343.86 2245.72 398.246 2299.52 398.246C2323.5 398.246 2369.11 395.906 2369.11 350.877C2369.11 315.79 2317.65 300 2260.34 271.345C2202.45 242.69 2168.53 197.661 2168.53 147.368C2168.53 57.3099 2248.06 0 2325.84 0Z" fill="white"/>
<path d="M1874.47 491.071L1851.26 200H1848.28L1747.68 488.095H1681.02L1580.42 200H1577.45L1554.23 491.071H1442.33L1486.38 0H1605.42L1714.35 283.333L1823.28 0H1942.33L1986.38 491.071H1874.47Z" fill="white"/>
<path d="M1402.97 0V316.667C1402.97 438.095 1336.3 500 1211.3 500C1086.3 500 1019.63 438.095 1019.63 316.667V0H1131.54V283.929C1131.54 366.071 1156.54 389.881 1211.3 389.881C1266.06 389.881 1291.06 366.071 1291.06 283.929V0H1402.97Z" fill="white"/>
<path d="M640.047 98.2143V0H985.285V98.2143H868.618V491.071H756.713V98.2143H640.047Z" fill="white"/>
<path d="M258.979 7.49249e-07C265.658 -5.8126e-05 268.998 -5.09877e-05 271.653 1.42285C273.887 2.61974 275.888 4.76351 276.928 7.07422C278.164 9.82136 277.949 12.9434 277.518 19.1865C272.903 85.9527 244.329 149.071 196.701 196.698C149.073 244.325 85.9538 272.899 19.1865 277.513C12.9434 277.944 9.82139 278.16 7.07422 276.924C4.7634 275.884 2.61979 273.882 1.42285 271.648C5.93988e-05 268.993 -5.80469e-05 265.653 7.34231e-07 258.975L0.000977297 205.721C0.00103637 199.008 0.000642049 195.652 1.14551 193.223C2.22572 190.93 3.6277 189.375 5.79688 188.065C8.09593 186.677 11.787 186.297 19.168 185.534C61.5938 181.152 101.459 162.322 131.892 131.89C162.324 101.458 181.155 61.5931 185.537 19.168C186.299 11.7871 186.68 8.09589 188.068 5.79688C189.378 3.62774 190.933 2.22571 193.226 1.14551C195.655 0.000675473 199.011 0.00103648 205.724 0.000977312L258.979 7.49249e-07Z" fill="white"/>
<path d="M7.52974e-07 241.024C-5.81234e-05 234.346 -8.02929e-05 231.006 1.42285 228.351C2.61977 226.117 4.76351 224.116 7.07422 223.076C9.82138 221.84 12.9434 222.056 19.1865 222.487C85.9539 227.101 149.073 255.675 196.701 303.302C244.329 350.929 272.904 414.047 277.518 480.813C277.949 487.056 278.164 490.178 276.928 492.925C275.888 495.236 273.887 497.38 271.653 498.577C268.998 500 265.658 500 258.979 500L205.724 499.999C199.011 499.999 195.655 499.999 193.226 498.854C190.933 497.774 189.379 496.371 188.069 494.202C186.681 491.903 186.299 488.213 185.537 480.832C181.155 438.407 162.324 398.542 131.892 368.11C101.459 337.678 61.5939 318.848 19.168 314.466C11.787 313.703 8.09593 313.322 5.79688 311.934C3.62796 310.624 2.22566 309.069 1.14551 306.777C0.00065526 304.348 0.00103649 300.991 0.000977315 294.279L7.52974e-07 241.024ZM0.00195388 435.099C0.00195388 399.261 29.0549 370.208 64.8936 370.208C100.732 370.208 129.786 399.26 129.786 435.099C129.786 470.937 100.732 499.989 64.8936 499.989C29.0549 499.989 0.0020365 470.937 0.00195388 435.099Z" fill="url(#paint1_linear_602_1605)"/>
<path d="M241.021 500C234.342 500 231.002 500 228.347 498.577C226.113 497.38 224.112 495.236 223.072 492.926C221.836 490.179 222.051 487.057 222.482 480.813C227.097 414.047 255.671 350.929 303.299 303.302C350.927 255.675 414.046 227.101 480.814 222.487C487.057 222.056 490.179 221.84 492.926 223.076C495.237 224.116 497.38 226.118 498.577 228.352C500 231.007 500 234.347 500 241.025L499.999 294.279C499.999 300.992 499.999 304.348 498.855 306.777C497.774 309.07 496.372 310.625 494.203 311.935C491.904 313.323 488.213 313.704 480.832 314.466C438.406 318.848 398.541 337.678 368.108 368.11C337.676 398.542 318.845 438.407 314.463 480.832C313.701 488.213 313.32 491.904 311.932 494.203C310.622 496.372 309.067 497.774 306.774 498.854C304.345 499.999 300.989 499.999 294.276 499.999L241.021 500ZM435.098 499.998C399.259 499.998 370.205 470.946 370.205 435.107C370.205 399.269 399.259 370.217 435.098 370.217C470.936 370.217 499.989 399.269 499.989 435.107C499.989 470.945 470.936 499.998 435.098 499.998Z" fill="white"/>
<path d="M294.272 0.00292969C300.984 0.00298932 304.341 0.00284774 306.77 1.14746C309.063 2.22769 310.618 3.63055 311.928 5.7998C313.316 8.09882 313.697 11.7891 314.46 19.1699C318.842 61.5949 337.672 101.46 368.104 131.892C398.537 162.324 438.403 181.154 480.829 185.536C488.21 186.298 491.9 186.68 494.199 188.068C496.368 189.378 497.771 190.932 498.851 193.225C499.996 195.654 499.996 199.011 499.996 205.723L499.997 258.978C499.997 265.656 499.997 268.996 498.574 271.651C497.377 273.885 495.233 275.886 492.922 276.926C490.175 278.162 487.053 277.946 480.81 277.515C414.043 272.901 350.922 244.327 303.295 196.7C255.667 149.073 227.093 85.9545 222.479 19.1885C222.048 12.9455 221.833 9.82424 223.069 7.07715C224.109 4.76631 226.11 2.62175 228.344 1.4248C230.999 0.00207135 234.339 0.00189378 241.017 0.00195312L294.272 0.00292969ZM435.108 0C435.108 35.8397 464.159 64.8905 500 64.8906C464.159 64.8908 435.105 93.9445 435.105 129.784C435.105 93.9445 406.046 64.8868 370.206 64.8867C406.046 64.8866 435.108 35.8397 435.108 0Z" fill="url(#paint2_linear_602_1605)"/>
<path d="M0.00683596 261.742C0.0021611 260.888 -8.71703e-06 259.968 2.63099e-08 258.975L0.000976589 205.721C0.000985733 204.682 0.00258294 203.723 0.00683596 202.836V261.742ZM258.979 7.49249e-07C265.658 -5.8126e-05 268.998 -5.09877e-05 271.653 1.42285C273.887 2.61974 275.888 4.76351 276.928 7.07422C278.164 9.82136 277.949 12.9434 277.518 19.1865C272.903 85.9527 244.329 149.071 196.701 196.698C196.574 196.825 196.446 196.951 196.319 197.077L131.509 132.268C131.636 132.141 131.765 132.016 131.892 131.89C162.324 101.458 181.155 61.5931 185.537 19.168C186.299 11.7871 186.68 8.09589 188.068 5.79688C189.378 3.62774 190.933 2.22571 193.226 1.14551C195.655 0.000675473 199.011 0.00103648 205.724 0.000977312L258.979 7.49249e-07Z" fill="white"/>
<ellipse cx="64.8997" cy="64.8908" rx="64.8918" ry="64.8908" fill="white"/>
<defs>
<linearGradient id="paint0_linear_602_1605" x1="3587.21" y1="246.943" x2="4241.62" y2="249.99" gradientUnits="userSpaceOnUse">
<stop offset="0.0817308" stop-color="#4A98FF"/>
<stop offset="1" stop-color="#4BFFC0"/>
</linearGradient>
<linearGradient id="paint1_linear_602_1605" x1="64.9098" y1="435.091" x2="446.587" y2="64.0776" gradientUnits="userSpaceOnUse">
<stop stop-color="#4A98FF"/>
<stop offset="1" stop-color="#4BFFC0"/>
</linearGradient>
<linearGradient id="paint2_linear_602_1605" x1="64.4907" y1="432.819" x2="434.068" y2="66.0014" gradientUnits="userSpaceOnUse">
<stop stop-color="#4A98FF"/>
<stop offset="1" stop-color="#4BFFC0"/>
</linearGradient>
</defs>
</svg>
