<svg width="701" height="500" viewBox="0 0 701 500" fill="none" xmlns="http://www.w3.org/2000/svg">
<path d="M368.332 351.677H413.244C438.157 351.677 457.806 360.975 457.806 388.518C457.806 401.851 452.016 413.255 439.736 419.57C457.806 422.728 470.613 432.728 470.613 456.061C470.613 479.92 453.244 496.411 423.244 496.411H368.332V351.677ZM401.315 408.342H403.946C418.157 408.342 425.876 403.957 425.876 391.851C425.876 381.501 418.332 377.115 403.946 377.115H401.315V408.342ZM401.315 470.973H411.665C427.279 470.973 435.876 466.236 435.876 454.833C435.876 441.5 427.279 436.763 411.665 436.763H401.315V470.973Z" fill="white"/>
<path d="M349.006 351.677V445.008C349.006 480.797 329.357 499.042 292.515 499.042C255.673 499.042 236.023 480.797 236.023 445.008V351.677H269.006V435.359C269.006 459.57 276.374 466.587 292.515 466.587C308.655 466.587 316.023 459.57 316.023 435.359V351.677H349.006Z" fill="white"/>
<path d="M171.564 351.677V467.464H221.389V496.411H138.582V351.677H171.564Z" fill="white"/>
<path d="M83.5088 466.585C100.351 466.585 111.93 457.637 111.93 457.637L125.965 485.707C125.965 485.707 109.825 499.04 78.4211 499.04C37.5439 499.04 0 465.707 0 424.305C0 382.727 37.3684 349.043 78.4211 349.043C109.825 349.043 125.965 362.376 125.965 362.376L111.93 390.446C111.93 390.446 100.351 381.499 83.5088 381.499C50.3509 381.499 35.7895 404.656 35.7895 423.954C35.7895 443.427 50.3509 466.585 83.5088 466.585Z" fill="white"/>
<path d="M640.703 292.942H700.013V321.89H640.703V292.942Z" fill="white"/>
<path d="M596.208 321.887H560.77L550.067 292.939H494.98L484.278 321.887H448.84L507.261 177.149H537.787L596.208 321.887ZM634.562 321.887H602.105V177.149H634.562V321.887ZM522.523 227.791C522.512 227.862 520.81 238.633 516.224 243.22C511.631 247.812 500.841 249.512 500.795 249.52C500.84 249.527 511.631 251.226 516.224 255.818C520.811 260.405 522.512 271.177 522.523 271.248C522.535 271.177 524.236 260.405 528.823 255.818C533.414 251.229 544.196 249.528 544.252 249.52C544.197 249.511 533.414 247.81 528.823 243.22C524.236 238.632 522.534 227.861 522.523 227.791Z" fill="url(#paint0_linear_715_2287)"/>
<path d="M443.291 177.152V321.889H410.309V177.152H443.291Z" fill="white"/>
<path d="M355.231 292.065C372.073 292.065 383.652 283.118 383.652 283.118L397.687 311.188C397.687 311.188 381.547 324.522 350.144 324.522C309.266 324.522 271.723 291.188 271.723 249.785C271.723 208.206 309.091 174.521 350.144 174.521C381.547 174.521 397.687 187.855 397.687 187.855L383.652 215.925C383.652 215.925 372.073 206.978 355.231 206.978C322.073 206.978 307.512 230.136 307.512 249.434C307.512 268.907 322.073 292.065 355.231 292.065Z" fill="white"/>
<path d="M117.875 249.434C117.875 207.153 151.033 174.521 190.857 174.521C231.033 174.521 263.664 207.153 263.664 249.434C263.664 291.714 232.436 324.522 190.857 324.522C148.05 324.522 117.875 291.714 117.875 249.434ZM153.489 249.434C153.489 271.013 163.84 292.592 190.857 292.592C217.173 292.592 228.05 271.013 228.05 249.434C228.05 227.855 216.471 206.276 190.857 206.276C165.419 206.276 153.489 227.855 153.489 249.434Z" fill="white"/>
<path d="M59.8245 174.521C86.1402 174.521 104.737 188.206 104.737 188.206L91.4034 214.521C91.4034 214.521 77.0174 204.521 62.1052 204.521C50.8771 204.521 44.9122 209.609 44.9122 217.504C44.9122 225.574 58.5964 231.364 75.0876 238.381C91.228 245.223 108.947 258.907 108.947 277.855C108.947 312.416 82.6315 324.522 54.3859 324.522C20.5263 324.522 0 305.399 0 305.399L16.4912 277.679C16.4912 277.679 35.7894 293.995 51.9298 293.995C59.1227 293.995 72.8069 293.293 72.8069 279.785C72.8069 269.258 57.3684 264.521 40.1754 255.925C22.807 247.329 12.6316 233.82 12.6316 218.732C12.6316 191.714 36.4912 174.521 59.8245 174.521Z" fill="white"/>
<path d="M370.327 147.321L363.362 60H362.469L332.291 146.429H312.291L282.112 60H281.219L274.255 147.321H240.684L253.898 0H289.612L322.291 85L354.969 0H390.684L403.898 147.321H370.327Z" fill="white"/>
<path d="M228.879 0V95C228.879 131.429 208.879 150 171.379 150C133.879 150 113.879 131.429 113.879 95V0H147.45V85.1786C147.45 109.821 154.95 116.964 171.379 116.964C187.808 116.964 195.308 109.821 195.308 85.1786V0H228.879Z" fill="white"/>
<path d="M0 29.4643V0H103.572V29.4643H68.5715V147.321H35.0001V29.4643H0Z" fill="white"/>
<defs>
<linearGradient id="paint0_linear_715_2287" x1="438.238" y1="248.604" x2="634.562" y2="249.518" gradientUnits="userSpaceOnUse">
<stop offset="0.0817308" stop-color="#4A98FF"/>
<stop offset="1" stop-color="#4BFFC0"/>
</linearGradient>
</defs>
</svg>
