<svg width="261" height="53" viewBox="0 0 261 53" fill="none" xmlns="http://www.w3.org/2000/svg">
<path d="M0 4C0 1.79086 1.79086 0 4 0H33.0798C35.6448 0 37.0268 3.01026 35.3549 4.95547L18.2011 24.9133C17.2231 26.0511 17.2361 27.7364 18.2314 28.859L35.1898 47.9863C36.9059 49.9219 35.5318 52.9766 32.945 52.9766H4C1.79087 52.9766 0 51.1857 0 48.9766V4Z" fill="url(#paint0_linear_453_808)"/>
<path d="M249.655 37.0928L254.088 21.1172H260.058L252.689 42.418C251.27 46.5245 250.147 49.0678 249.32 50.0481C248.492 51.0416 246.837 51.5384 244.354 51.5384C243.855 51.5384 243.454 51.5317 243.152 51.5185C242.85 51.5185 242.397 51.4986 241.793 51.4589V46.9285L242.502 46.9682C243.054 46.9947 243.579 46.9748 244.078 46.9086C244.577 46.8424 244.998 46.69 245.339 46.4516C245.668 46.2264 245.97 45.7561 246.246 45.0408C246.535 44.3255 246.653 43.8884 246.6 43.7294L238.719 21.1172H244.965L249.655 37.0928Z" fill="black"/>
<path d="M237.321 38.7401V42.9724L234.66 43.0717C232.007 43.1645 230.194 42.7008 229.222 41.6808C228.592 41.0317 228.276 40.0316 228.276 38.6804V25.3476H225.281V21.314H228.276V15.2734H233.833V21.314H237.321V25.3476H233.833V36.7928C233.833 37.6803 233.945 38.2367 234.168 38.4619C234.391 38.6738 235.074 38.7798 236.217 38.7798C236.388 38.7798 236.565 38.7798 236.749 38.7798C236.946 38.7666 237.137 38.7533 237.321 38.7401Z" fill="black"/>
<path d="M222.03 21.1176V42.776H216.336V21.1176H222.03ZM219.418 13.3086C220.861 13.3086 222.03 14.4784 222.03 15.9215C222.03 17.3646 220.861 18.5344 219.418 18.5344H218.949C217.506 18.5344 216.336 17.3646 216.336 15.9215C216.336 14.4784 217.506 13.3086 218.949 13.3086H219.418Z" fill="black"/>
<path d="M222.607 15.5211C222.607 17.3708 220.995 18.8703 219.007 18.8703C217.018 18.8703 215.406 17.3708 215.406 15.5211C215.406 13.6714 217.018 12.1719 219.007 12.1719C220.995 12.1719 222.607 13.6714 222.607 15.5211Z" fill="black"/>
<path d="M201.686 25.3069C199.781 25.3069 198.474 26.1216 197.765 27.7509C197.397 28.6119 197.213 29.7114 197.213 31.0493V42.7727H191.617V21.154H197.036V24.3134C197.758 23.2006 198.441 22.3992 199.085 21.9091C200.241 21.0348 201.706 20.5977 203.479 20.5977C205.699 20.5977 207.512 21.1871 208.918 22.3661C210.336 23.5318 211.046 25.4725 211.046 28.188V42.7727H205.292V29.5988C205.292 28.4596 205.141 27.5853 204.839 26.976C204.287 25.8632 203.236 25.3069 201.686 25.3069Z" fill="black"/>
<path d="M180.681 39.7156C180.628 39.7819 180.497 39.9806 180.287 40.3117C180.077 40.6429 179.827 40.9343 179.538 41.186C178.658 41.9808 177.804 42.5239 176.976 42.8154C176.162 43.1068 175.203 43.2525 174.1 43.2525C170.921 43.2525 168.78 42.1 167.676 39.7951C167.059 38.5234 166.75 36.649 166.75 34.1719V21.1172H172.504V34.1719C172.504 35.4038 172.648 36.3311 172.937 36.9537C173.449 38.0532 174.454 38.6029 175.952 38.6029C177.87 38.6029 179.183 37.8213 179.893 36.2582C180.261 35.4104 180.444 34.2911 180.444 32.9002V21.1172H186.139V42.7756H180.681V39.7156Z" fill="black"/>
<path d="M151.789 42.7756L148.419 26.9987L145.01 42.7756H139.178L133.148 21.1172H139.178L142.528 36.6556L145.621 21.1172H151.316L154.587 36.7152L157.936 21.1172H163.789L157.562 42.7756H151.789Z" fill="black"/>
<path d="M128.739 23.8555C130.552 26.1472 131.458 28.8562 131.458 31.9824C131.458 35.1616 130.552 37.8838 128.739 40.149C126.926 42.401 124.174 43.5269 120.483 43.5269C116.792 43.5269 114.04 42.401 112.227 40.149C110.414 37.8838 109.508 35.1616 109.508 31.9824C109.508 28.8562 110.414 26.1472 112.227 23.8555C114.04 21.5638 116.792 20.418 120.483 20.418C124.174 20.418 126.926 21.5638 128.739 23.8555ZM120.463 25.2067C118.821 25.2067 117.554 25.7962 116.66 26.9751C115.78 28.1408 115.34 29.8099 115.34 31.9824C115.34 34.1549 115.78 35.8306 116.66 37.0095C117.554 38.1885 118.821 38.778 120.463 38.778C122.105 38.778 123.366 38.1885 124.247 37.0095C125.127 35.8306 125.567 34.1549 125.567 31.9824C125.567 29.8099 125.127 28.1408 124.247 26.9751C123.366 25.7962 122.105 25.2067 120.463 25.2067Z" fill="black"/>
<path d="M96.272 25.3069C94.3672 25.3069 93.0602 26.1216 92.3508 27.7509C91.983 28.6119 91.7991 29.7114 91.7991 31.0493V42.7727H86.2031V21.154H91.6218V24.3134C92.3443 23.2006 93.0274 22.3992 93.671 21.9091C94.827 21.0348 96.2917 20.5977 98.0651 20.5977C100.285 20.5977 102.098 21.1871 103.503 22.3661C104.922 23.5318 105.632 25.4725 105.632 28.188V42.7727H99.8779V29.5988C99.8779 28.4596 99.7268 27.5853 99.4247 26.976C98.8729 25.8632 97.8221 25.3069 96.272 25.3069Z" fill="black"/>
<path d="M83.1899 42.7769H75.387L66.4216 29.9805L63.5251 32.9809V42.7769H57.5547V13.4883H63.5251V25.5495L74.7368 13.4883H82.5791L70.6777 25.5495L83.1899 42.7769Z" fill="black"/>
<defs>
<linearGradient id="paint0_linear_453_808" x1="18.3125" y1="0" x2="18.3125" y2="52.9766" gradientUnits="userSpaceOnUse">
<stop stop-color="#3F81F1"/>
<stop offset="1" stop-color="#5769D8"/>
</linearGradient>
</defs>
</svg>
