<svg width="2232" height="455" viewBox="0 0 2232 455" fill="none" xmlns="http://www.w3.org/2000/svg">
<path d="M0 34.3242C0 15.3675 15.3675 0 34.3242 0H283.86C305.87 0 317.729 25.8313 303.383 42.5232L156.184 213.783C147.793 223.546 147.904 238.008 156.445 247.641L301.966 411.774C316.691 428.383 304.9 454.595 282.703 454.595H34.3243C15.3675 454.595 0 439.228 0 420.271V34.3242Z" fill="url(#paint0_linear_453_793)"/>
<path d="M2142.3 318.291L2180.35 181.203H2231.58L2168.34 363.986C2156.17 399.224 2146.53 421.049 2139.43 429.461C2132.33 437.986 2118.12 442.249 2096.82 442.249C2092.54 442.249 2089.1 442.192 2086.5 442.078C2083.91 442.078 2080.02 441.908 2074.84 441.567V402.691L2080.92 403.032C2085.66 403.26 2090.17 403.089 2094.45 402.521C2098.73 401.952 2102.34 400.645 2105.27 398.599C2108.09 396.667 2110.68 392.631 2113.05 386.493C2115.53 380.355 2116.55 376.604 2116.09 375.24L2048.46 181.203H2102.06L2142.3 318.291Z" fill="white"/>
<path d="M2036.46 332.423V368.741L2013.63 369.594C1990.86 370.389 1975.31 366.411 1966.97 357.658C1961.55 352.088 1958.85 343.506 1958.85 331.912V217.502H1933.15V182.889H1958.85V131.055H2006.53V182.889H2036.46V217.502H2006.53V315.713C2006.53 323.329 2007.49 328.104 2009.4 330.036C2011.32 331.855 2017.18 332.764 2026.99 332.764C2028.45 332.764 2029.98 332.764 2031.55 332.764C2033.25 332.65 2034.88 332.537 2036.46 332.423Z" fill="white"/>
<path d="M1905.26 181.208V367.061H1856.39V181.208H1905.26ZM1882.83 114.199C1895.22 114.199 1905.26 124.238 1905.26 136.621C1905.26 149.004 1895.22 159.042 1882.83 159.042H1878.81C1866.43 159.042 1856.39 149.004 1856.39 136.621C1856.39 124.238 1866.43 114.199 1878.81 114.199H1882.83Z" fill="white"/>
<path d="M1910.21 133.189C1910.21 149.061 1896.38 161.929 1879.32 161.929C1862.25 161.929 1848.42 149.061 1848.42 133.189C1848.42 117.316 1862.25 104.449 1879.32 104.449C1896.38 104.449 1910.21 117.316 1910.21 133.189Z" fill="white"/>
<path d="M1730.67 217.168C1714.32 217.168 1703.11 224.159 1697.02 238.14C1693.86 245.529 1692.29 254.964 1692.29 266.444V367.043H1644.27V181.532H1690.76V208.643C1696.96 199.094 1702.82 192.217 1708.35 188.011C1718.27 180.509 1730.84 176.758 1746.05 176.758C1765.1 176.758 1780.66 181.816 1792.72 191.933C1804.89 201.936 1810.98 218.589 1810.98 241.891V367.043H1761.61V253.997C1761.61 244.222 1760.31 236.719 1757.72 231.49C1752.99 221.942 1743.97 217.168 1730.67 217.168Z" fill="white"/>
<path d="M1550.43 340.797C1549.98 341.366 1548.85 343.071 1547.05 345.913C1545.25 348.754 1543.11 351.255 1540.63 353.415C1533.07 360.235 1525.75 364.896 1518.64 367.396C1511.66 369.897 1503.43 371.148 1493.96 371.148C1466.68 371.148 1448.31 361.258 1438.84 341.479C1433.54 330.567 1430.89 314.483 1430.89 293.226V181.203H1480.26V293.226C1480.26 303.797 1481.5 311.754 1483.98 317.097C1488.38 326.532 1497 331.249 1509.85 331.249C1526.31 331.249 1537.58 324.542 1543.67 311.129C1546.83 303.854 1548.4 294.249 1548.4 282.314V181.203H1597.27V367.055H1550.43V340.797Z" fill="white"/>
<path d="M1302.52 367.055L1273.6 231.673L1244.35 367.055H1194.3L1142.56 181.203H1194.3L1223.05 314.539L1249.59 181.203H1298.46L1326.52 315.051L1355.27 181.203H1405.49L1352.06 367.055H1302.52Z" fill="white"/>
<path d="M1104.71 204.697C1120.27 224.362 1128.05 247.608 1128.05 274.434C1128.05 301.715 1120.27 325.075 1104.71 344.512C1089.16 363.837 1065.54 373.499 1033.87 373.499C1002.19 373.499 978.577 363.837 963.021 344.512C947.465 325.075 939.688 301.715 939.688 274.434C939.688 247.608 947.465 224.362 963.021 204.697C978.577 185.032 1002.19 175.199 1033.87 175.199C1065.54 175.199 1089.16 185.032 1104.71 204.697ZM1033.7 216.291C1019.61 216.291 1008.73 221.35 1001.06 231.466C993.512 241.47 989.736 255.792 989.736 274.434C989.736 293.076 993.512 307.456 1001.06 317.572C1008.73 327.689 1019.61 332.747 1033.7 332.747C1047.79 332.747 1058.61 327.689 1066.16 317.572C1073.71 307.456 1077.49 293.076 1077.49 274.434C1077.49 255.792 1073.71 241.47 1066.16 231.466C1058.61 221.35 1047.79 216.291 1033.7 216.291Z" fill="white"/>
<path d="M826.112 217.168C809.768 217.168 798.552 224.159 792.465 238.14C789.309 245.529 787.731 254.964 787.731 266.444V367.043H739.711V181.532H786.209V208.643C792.409 199.094 798.27 192.217 803.793 188.011C813.713 180.509 826.282 176.758 841.499 176.758C860.549 176.758 876.105 181.816 888.166 191.933C900.34 201.936 906.427 218.589 906.427 241.891V367.043H857.055V253.997C857.055 244.222 855.758 236.719 853.166 231.49C848.431 221.942 839.414 217.168 826.112 217.168Z" fill="white"/>
<path d="M713.852 367.073H646.895L569.962 257.267L545.107 283.013V367.073H493.875V115.746H545.107V219.244L641.316 115.746H708.611L606.484 219.244L713.852 367.073Z" fill="white"/>
<defs>
<linearGradient id="paint0_linear_453_793" x1="157.141" y1="-1.03349e-10" x2="157.141" y2="454.595" gradientUnits="userSpaceOnUse">
<stop stop-color="#3F81F1"/>
<stop offset="1" stop-color="#5769D8"/>
</linearGradient>
</defs>
</svg>
